<svg width="21" height="21" viewBox="0 0 21 21" fill="none" xmlns="http://www.w3.org/2000/svg">
<path d="M19.7298 1.27045C19.5576 1.09834 19.3426 0.975257 19.107 0.913871C18.8714 0.852486 18.6236 0.855021 18.3893 0.921215H18.3765L1.94684 5.90643C1.68011 5.9833 1.44304 6.13941 1.26704 6.35406C1.09104 6.56871 0.984413 6.83178 0.9613 7.1084C0.938187 7.38501 0.999673 7.66213 1.13761 7.90301C1.27555 8.1439 1.48343 8.33718 1.7337 8.45725L9.00267 11.9976L12.5379 19.2623C12.6478 19.4969 12.8226 19.6952 13.0417 19.8337C13.2607 19.9721 13.5148 20.0451 13.7739 20.0438C13.8133 20.0438 13.8526 20.0421 13.892 20.0386C14.1684 20.0163 14.4314 19.9099 14.6456 19.7338C14.8598 19.5577 15.015 19.3203 15.0904 19.0534L20.0722 2.62376C20.0722 2.61948 20.0722 2.6152 20.0722 2.61092C20.1392 2.3772 20.1429 2.12985 20.0827 1.89427C20.0225 1.65869 19.9007 1.44338 19.7298 1.27045ZM13.7816 18.6614L13.7773 18.6733V18.6674L10.3483 11.6227L14.457 7.51396C14.58 7.38449 14.6475 7.2121 14.6452 7.03353C14.6429 6.85497 14.571 6.68436 14.4447 6.55809C14.3184 6.43181 14.1478 6.35986 13.9693 6.35757C13.7907 6.35529 13.6183 6.42285 13.4889 6.54585L9.38016 10.6545L2.33289 7.22549H2.32689H2.33888L18.7608 2.23942L13.7816 18.6614Z" fill="white"/>
</svg>
