<svg width="215" height="182" viewBox="0 0 215 182" fill="none" xmlns="http://www.w3.org/2000/svg">
<rect x="133.998" y="94.9246" width="78.0557" height="8.98141" fill="#656565"/>
<path d="M88.5746 2.68286H208.587V9.4796V94.0748H201.833V9.4796H145.204H103.038L88.5746 17.0653V9.4796V2.68286Z" fill="#656565"/>
<path d="M66.9139 110.032C66.7465 110.071 66.6722 110.148 66.691 110.264C69.6054 111.472 71.9871 112.879 74.0708 115.348C76.5347 118.263 78.0529 122.488 74.8194 125.598C74.6817 125.729 74.5691 126.011 74.4815 126.442C74.1154 128.235 72.5151 129.604 70.8772 130.107C70.2702 130.295 69.4904 130.387 68.5377 130.384C68.3771 130.384 68.2172 130.403 68.0613 130.442C66.7567 130.762 65.1634 130.841 63.969 130.23C63.2697 129.871 61.7184 128.969 61.3633 128.787C61.0675 128.969 60.4757 134.127 60.4757 134.127C61.0483 134.855 61.8305 135.802 62.2982 136.443C66.1536 141.728 68.2749 150.006 64.023 155.796C64.0261 155.929 64.0996 155.909 64.2435 155.734C65.021 154.802 65.5615 153.805 65.865 152.745C65.8721 152.721 65.8846 152.698 65.9014 152.68C65.9183 152.661 65.9391 152.647 65.9622 152.638C65.9853 152.629 66.0101 152.625 66.0348 152.627C66.0594 152.63 66.0832 152.638 66.1043 152.651C67.6233 153.598 69.2542 154.33 70.9969 154.848C74.6778 155.944 78.4573 156.46 82.3353 156.398C82.3535 156.399 82.3709 156.405 82.3848 156.417C82.3988 156.429 82.4086 156.445 82.4126 156.463C82.4166 156.482 82.4147 156.501 82.4071 156.517C82.3994 156.534 82.3866 156.548 82.3705 156.557C81.7487 156.85 80.8335 156.797 80.2938 156.913C79.3529 157.11 78.2524 157.074 77.2011 157.192C76.724 157.245 76.1984 157.275 75.6242 157.284C72.1404 157.33 69.3074 157.259 67.1251 157.072C66.5697 157.025 65.3261 156.85 63.3941 156.547C63.2799 156.679 63.2619 156.751 63.3401 156.764C69.1361 157.734 74.9109 157.888 80.6646 157.223C83.834 156.858 86.8861 156.058 89.8208 154.824C95.2319 152.548 99.5284 148.295 102.142 142.864C102.182 142.782 102.304 142.612 102.509 142.354L102.534 141.995C102.537 141.962 102.545 141.928 102.558 141.897C103.747 138.821 104.365 135.583 104.414 132.182C104.511 125.35 103.058 118.974 100.054 113.053C97.8319 108.67 94.6288 105.046 90.4825 102.917C89.2107 102.262 87.6706 101.758 85.8622 101.405C84.7828 101.194 83.2223 101.194 82.2626 101.186C79.8191 101.169 77.4068 101.62 75.0259 102.541C71.3629 103.959 68.8287 106.536 66.9139 110.032Z" fill="#FBF2E9"/>
<path d="M10.7697 170.295C10.7697 176.663 55.8343 181.826 111.424 181.826C167.014 181.826 212.079 176.663 212.079 170.295C212.079 163.927 167.014 158.765 111.424 158.765C55.8343 158.765 10.7697 163.927 10.7697 170.295Z" fill="#DAECF1"/>
<path d="M99.8514 37.6375C109.394 27.5802 106.998 20.5817 104.607 18.3396L94.6278 18.82L90.4177 26.267L99.8514 37.6375Z" fill="#ED887E"/>
<path d="M99.1745 37.6602C109.297 28.8431 107.899 20.4327 103.131 17.2362L100.772 17.5309C105.876 28.2539 99.7851 33.8454 96.1016 35.3008L99.1745 37.6602Z" fill="#FEB1AA"/>
<path d="M44.4988 15.4876L42.1318 14.3346L43.2561 12.8782L49.2919 13.485L55.5643 16.5193L59.1147 21.1314L62.3693 20.3425L70.1802 18.2792L79.2338 18.7646L86.5122 21.1314L87.3407 18.2792L93.9681 13.485H99.5896L104.974 18.2792L100.536 19.2501L96.2167 20.3425L94.7374 25.0759L96.2167 28.1102L102.252 35.1496L107.637 45.6482L113.14 54.5082L115.034 61.7298V70.2257L113.14 77.69L108.111 84.7295L100.536 90.0698L99.5896 87.1569L108.702 75.3839L109.294 59.3024L98.8796 37.2129L89.4117 28.1102L76.6894 22.8912L58.3455 26.6537L54.2625 20.3425L44.4988 15.4876Z" fill="#EDD1B3"/>
<path d="M60.4165 135.037L60.9491 130.911L60.1798 130.061L55.3867 126.845L48.345 125.935L41.7767 126.966L40.2382 129.636L39.8832 136.008L40.2382 140.802L40.7116 145.354L44.262 153.061L46.8657 158.28L45.8006 160.04C46.8894 160.816 52.7634 160.161 55.5642 159.736L61.7183 157.309L63.7302 153.061L64.7954 148.692L64.0261 142.866L60.4165 135.037Z" fill="#CEA881"/>
<path d="M44.7415 159.327C44.2878 161.002 43.8998 162.624 43.5776 164.193C43.235 165.865 43.3453 166.883 45.1192 167.367C46.5162 167.748 48.183 168.045 50.1197 168.257C52.5836 168.528 55.2 168.713 57.9689 168.813C57.9946 168.814 58.0201 168.809 58.0436 168.798C58.0671 168.787 58.0879 168.771 58.1044 168.751C58.1209 168.731 58.1327 168.707 58.1389 168.682C58.1451 168.656 58.1455 168.629 58.1402 168.604C57.8774 167.386 56.9786 166.281 56.6102 165.574C55.8992 164.217 57.4315 163.906 58.2293 164.51C59.2994 165.32 60.0714 166.353 60.5454 167.607C61.5896 167.603 62.7183 167.737 63.7273 167.468C63.7625 167.459 63.7993 167.458 63.835 167.465C63.8706 167.472 63.9044 167.487 63.9338 167.509C64.0574 167.603 64.195 167.667 64.3468 167.699C64.0448 166.877 63.5748 166.148 62.9365 165.511C62.8411 165.415 62.7409 165.142 62.6361 164.693C62.6163 164.609 62.6237 164.521 62.6573 164.443C63.2157 163.163 64.6307 164.2 65.2549 164.83C66.2967 165.884 66.9835 167.146 67.3151 168.616C67.3246 168.657 67.3468 168.694 67.3785 168.721C67.4101 168.748 67.4496 168.764 67.4911 168.767C68.2921 168.822 69.0046 168.766 69.6288 168.601C69.6933 168.584 69.751 168.548 69.7939 168.496C69.8368 168.444 69.8628 168.38 69.8682 168.312C69.8916 168.051 69.8424 167.786 69.7203 167.518C68.2045 164.193 65.6342 162.175 62.0096 161.466C59.7288 161.02 57.6834 160.83 55.8734 160.896C55.1757 160.921 54.7025 160.917 54.4538 160.884C53.5855 160.763 52.5296 160.744 52.5906 159.724C52.3966 159.698 52.2605 159.698 52.1823 159.724C50.3927 160.288 48.589 160.418 46.7712 160.111C46.0891 159.704 45.4126 159.442 44.7415 159.327Z" fill="#61422D"/>
<path d="M1.79303 131.643L3.90491 129.515L10.5259 140.521L16.1196 145.264L23.3114 147.027H29.1904L34.727 145.264L37.4667 151.892L41.1197 157.243L38.0375 158.581L32.2726 159.736L19.7726 158.581L13.2657 154.993L3.90491 145.264L1.79303 131.643Z" fill="#62432D"/>
<path d="M91.5643 59.28C91.8381 60.6517 91.9358 61.5421 91.8576 61.9512C91.7309 62.613 91.5925 63.5034 91.3484 64.1772C90.585 66.2708 89.2162 67.7853 87.242 68.7206C87.1746 68.7536 86.0582 68.941 86.0184 69.007C85.8025 69.3679 86.8618 69.6471 87.3311 69.7963C89.0864 70.3578 90.6851 70.1372 92.1275 69.1345C92.9441 68.5666 93.6738 67.5703 94.3332 67.0168C94.6633 66.7393 95.052 66.5805 95.4994 66.5403C95.5454 66.5358 95.592 66.5408 95.6363 66.5553C95.6807 66.5698 95.7219 66.5933 95.7576 66.6246C96.8417 67.5535 95.9171 68.8939 95.2976 69.9046C94.3919 71.3774 92.4935 72.4915 90.9683 73.0763C90.8967 73.1036 90.834 73.151 90.7875 73.2132C90.741 73.2753 90.7126 73.3497 90.7055 73.4277C90.427 76.5176 89.4391 79.2754 87.7418 81.7011C87.5165 82.0236 87.0496 82.5354 86.3409 83.2364C85.8231 83.7482 85.281 84.1621 84.7148 84.4782C81.9662 86.0087 79.1558 85.9734 76.2836 84.3723C72.2101 82.103 69.4388 77.5139 68.4533 72.9223C68.4454 72.8886 68.3696 72.591 68.2256 72.0295C68.1568 71.7648 68.0066 71.5787 67.7751 71.4712C67.5404 71.3637 67.075 71.0525 66.3789 70.5375C65.5216 69.9038 65.0038 69.1233 64.8255 68.196C64.81 68.1116 64.8084 68.0253 64.8208 67.9409C65.0437 66.3936 66.7356 65.5826 68.0872 66.4104C68.1324 66.4392 68.1741 66.4731 68.2116 66.5115C69.0164 67.3345 69.8307 68.3572 70.8068 69.007C73.6493 70.9065 76.8351 71.2955 80.3643 70.1741C80.7945 70.0971 81.2591 69.8428 81.7581 69.4113C81.767 69.4034 81.7737 69.3933 81.7775 69.3818C81.7813 69.3704 81.782 69.3582 81.7796 69.3464C81.7772 69.3346 81.7718 69.3237 81.7639 69.3148C81.756 69.3059 81.7459 69.2993 81.7346 69.2958C81.3404 69.1674 81.0119 69.1297 80.7491 69.1827C79.762 69.1185 78.7983 68.7166 77.8582 67.977C75.7439 66.3141 74.2515 63.7031 74.045 60.9597C74.0075 60.4752 73.9989 59.9691 74.0192 59.4413C72.2828 60.4616 70.8749 61.4892 68.8921 62.2472C67.5749 62.7494 66.0856 63.3085 64.4242 63.9245C61.8829 64.8678 59.7382 67.0794 59.5059 69.9575C59.1375 74.5226 60.7003 78.9048 63.5912 82.3629C64.5087 83.4578 65.7172 84.69 66.813 85.5394C72.6536 90.0588 80.1367 91.57 86.9956 89.0264C95.2061 85.9822 101.495 77.9037 100.242 68.5786C99.8992 66.023 98.3575 63.9919 96.2104 62.6611C95.4009 62.1606 94.5749 61.6263 93.7536 60.9477C93.0778 60.3878 92.348 59.8319 91.5643 59.28Z" fill="#F2E1CC"/>
<path d="M91.0364 59.3909C91.1716 60.0684 91.2613 60.6162 91.3076 61.0385C91.3558 61.4767 91.351 61.7293 91.3289 61.8449L91.2282 62.3866C91.1254 62.9416 91.0115 63.5206 90.8433 63.9848C90.1344 65.9282 88.8782 67.325 87.0544 68.2002C87.0238 68.2071 86.9799 68.2166 86.9237 68.228C86.8676 68.2393 86.8033 68.2519 86.7335 68.2657C86.6641 68.2795 86.5897 68.2944 86.5154 68.3094C86.3687 68.3391 86.2141 68.3715 86.0913 68.4017C86.0315 68.4164 85.9679 68.4333 85.913 68.4516C85.8869 68.4603 85.8484 68.4739 85.8085 68.4932C85.7889 68.5026 85.7571 68.5191 85.722 68.5436C85.6988 68.5598 85.6383 68.6036 85.5834 68.6809L85.5602 68.7163L85.5591 68.7182L85.5268 68.7775C85.4575 68.9198 85.4302 69.0863 85.4676 69.2585C85.5065 69.4375 85.6034 69.567 85.6831 69.6497C85.8347 69.8073 86.041 69.9149 86.201 69.9869C86.5345 70.1371 86.9662 70.2589 87.1715 70.3242L87.1717 70.3236C89.0732 70.9317 90.8434 70.6947 92.4296 69.592L92.4299 69.5917C92.8891 69.2723 93.3097 68.8434 93.6765 68.4543C94.0612 68.0463 94.3764 67.6946 94.6743 67.4445L94.6749 67.4442C94.898 67.2567 95.1575 67.1405 95.4677 67.0995C95.6143 67.2411 95.6771 67.3759 95.7029 67.5012C95.7341 67.6523 95.7211 67.839 95.6514 68.0718C95.5048 68.5609 95.1716 69.0719 94.8419 69.6098L94.763 69.7328C93.921 70.9941 92.222 72.0058 90.7797 72.5588H90.7799C90.6345 72.6143 90.5049 72.7056 90.4024 72.8243L90.3601 72.8769L90.3214 72.9324C90.2482 73.046 90.1992 73.1742 90.1775 73.3085L90.1691 73.376L90.1688 73.3768L90.1417 73.6568C89.8484 76.4462 88.9523 78.9433 87.4556 81.1584L87.3041 81.3791L87.3038 81.3794L87.2199 81.4927C86.9978 81.7794 86.5884 82.224 85.9672 82.8386H85.9669C85.48 83.3199 84.9764 83.703 84.4572 83.9928H84.4574C81.8779 85.4291 79.2612 85.4033 76.5408 83.8867L76.3587 83.7831C72.5529 81.5734 69.925 77.2097 68.9792 72.8035L68.9784 72.7989L68.9774 72.7943C68.9676 72.7523 68.8889 72.4441 68.7467 71.8892L68.7462 71.887L68.7241 71.8104C68.6058 71.4319 68.3602 71.1364 67.9972 70.9679L67.9948 70.9668L67.9178 70.9277C67.7111 70.8145 67.313 70.5474 66.694 70.0895V70.0892L66.5546 69.9824C65.8789 69.4422 65.4945 68.8133 65.355 68.0936C65.3506 68.0697 65.3501 68.0459 65.3534 68.0232L65.3537 68.0216C65.5181 66.8807 66.7711 66.2535 67.8046 66.8809C67.8143 66.8872 67.8228 66.8944 67.8304 66.9022L67.8312 66.9028C68.0261 67.102 68.2226 67.3145 68.4281 67.537C68.6319 67.7577 68.8444 67.9882 69.0629 68.2137C69.4988 68.6635 69.9778 69.114 70.5134 69.4706L70.5137 69.4703C73.4955 71.4626 76.84 71.8643 80.4954 70.7102C81.0415 70.6026 81.5794 70.2886 82.1054 69.8337L82.1091 69.8305C82.1911 69.7582 82.2526 69.6647 82.2874 69.5599C82.3222 69.4549 82.3292 69.3422 82.3071 69.2337L82.2974 69.1932C82.272 69.1 82.2256 69.0143 82.1622 68.9429L82.134 68.9132C82.0666 68.8467 81.9848 68.7968 81.8949 68.7681C81.4888 68.6361 81.0913 68.5719 80.7269 68.6262C79.8848 68.5588 79.0394 68.21 78.186 67.5387L78 67.3881C76.0954 65.8077 74.7699 63.41 74.5822 60.9174L74.582 60.916L74.5699 60.742C74.5446 60.3336 74.5404 59.9073 74.5575 59.463L74.5959 58.4656L73.7512 58.962C71.9647 60.0117 70.6314 60.9925 68.7038 61.7294H68.7041C67.7176 62.1055 66.6343 62.5137 65.4539 62.954L64.2409 63.405L63.9905 63.5024C61.4148 64.5491 59.2151 66.861 58.9688 69.9119L58.9525 70.1334C58.6384 74.7803 60.2538 79.2199 63.1821 82.7226L63.1826 82.7229C64.1169 83.8379 65.3529 85.1003 66.488 85.9803L66.4885 85.9805C72.458 90.5996 80.1301 92.16 87.1788 89.546V89.5457C95.5661 86.4359 102.071 78.1484 100.775 68.5034H100.776C100.407 65.7504 98.7457 63.5871 96.489 62.1883L96.4884 62.188L96.1872 62.0003C95.4845 61.559 94.7851 61.0903 94.0922 60.5178L93.8317 60.3044C93.2184 59.8071 92.5641 59.314 91.8693 58.8246L90.7689 58.0496L91.0364 59.3909ZM91.5641 59.28C92.3479 59.8319 93.0778 60.3879 93.7536 60.9478L93.9075 61.0733C94.678 61.693 95.4514 62.192 96.2104 62.6612C98.3574 63.992 99.8993 66.023 100.242 68.5787L100.27 68.7969C101.396 78.0296 95.1419 86.006 86.9955 89.0264C80.2438 91.5303 72.8873 90.105 67.0881 85.7491L66.8129 85.5394C65.7856 84.7431 64.6594 83.6103 63.7666 82.5697L63.5911 82.363C60.7454 78.959 59.1866 74.6594 59.49 70.1715L59.5057 69.9575C59.7381 67.0794 61.883 64.868 64.4243 63.9246C65.6702 63.4626 66.8193 63.0325 67.8717 62.6345L68.8919 62.2471C70.8747 61.4891 72.2829 60.4617 74.0193 59.4414C73.999 59.9691 74.0075 60.4753 74.0451 60.9597L74.0682 61.2166C74.3455 63.8654 75.81 66.3662 77.8582 67.9771L78.0347 68.1117C78.9189 68.7655 79.8236 69.1226 80.749 69.1827L80.799 69.1738C81.0531 69.1348 81.3651 69.1754 81.7347 69.2958L81.7505 69.3033C81.7554 69.3065 81.76 69.3105 81.7639 69.3149C81.7718 69.3238 81.7773 69.3347 81.7797 69.3465C81.7821 69.3582 81.7813 69.3705 81.7776 69.3818C81.7738 69.3932 81.767 69.4034 81.7581 69.4112C81.2591 69.8428 80.7943 70.0972 80.3641 70.1742C76.835 71.2956 73.6492 70.9066 70.8067 69.0071C69.8916 68.398 69.1188 67.4609 68.3626 66.6681L68.2116 66.5116C68.1742 66.4732 68.1324 66.4392 68.0872 66.4104C66.7356 65.5826 65.0436 66.3936 64.8207 67.9409C64.8083 68.0253 64.8099 68.1117 64.8254 68.1961C65.0038 69.1234 65.5216 69.9039 66.3788 70.5376C67.0749 71.0525 67.5402 71.3638 67.7749 71.4713C68.0064 71.5788 68.1567 71.7648 68.2256 72.0295L68.4531 72.9222L68.5007 73.1375C69.5257 77.6566 72.2736 82.1385 76.2835 84.3723C79.1108 85.9484 81.8783 86.0072 84.5858 84.5488L84.7147 84.4781C85.2456 84.1818 85.7551 83.7995 86.2434 83.3313L86.341 83.2366C87.0496 82.5355 87.5165 82.0237 87.7418 81.7012C89.3861 79.3513 90.3646 76.6897 90.6773 73.7164L90.7055 73.4278C90.7126 73.3498 90.7411 73.2754 90.7876 73.2133C90.8224 73.1667 90.8662 73.1283 90.9162 73.1005L90.9683 73.0762C92.4458 72.5097 94.2734 71.4465 95.2097 70.0417L95.2975 69.9047C95.9074 68.9097 96.8129 67.5952 95.8068 66.6683L95.7574 66.6246C95.7218 66.5934 95.6807 66.5698 95.6364 66.5553C95.592 66.5408 95.5453 66.5359 95.4993 66.5405L95.4162 66.5494C95.0036 66.6009 94.6426 66.7567 94.3331 67.0169C93.6738 67.5704 92.9439 68.5665 92.1273 69.1344C90.685 70.1371 89.0864 70.3577 87.3312 69.7962C86.8765 69.6517 85.868 69.3853 86.0019 69.0405L86.0182 69.0071C86.058 68.9411 87.1746 68.7536 87.242 68.7206C89.1545 67.8145 90.4988 66.3648 91.275 64.3717L91.3484 64.1772C91.5314 63.6718 91.655 63.0446 91.7588 62.4835L91.8574 61.9512C91.9357 61.5421 91.8379 60.6517 91.5641 59.28Z" fill="#F2E1CC"/>
<path d="M59.7539 170.475C60.2927 168.486 57.1948 163.016 55.5785 160.53C58.8111 159.314 65.0068 161.036 67.7006 162.049L71.3372 167.16L70.9331 170.475H59.7539Z" fill="#8B6040"/>
<path d="M110.252 166.77C109.313 166.971 108.367 167.014 107.413 166.9C107.337 166.891 107.267 166.855 107.216 166.799C107.097 166.671 107.015 166.517 106.972 166.339C106.967 166.322 106.966 166.304 106.97 166.287C106.973 166.269 106.98 166.253 106.991 166.239C107.002 166.224 107.015 166.213 107.031 166.205C107.047 166.197 107.064 166.193 107.082 166.192L110.085 166.139L108.504 163.815C108.472 163.768 108.453 163.711 108.45 163.651C108.377 162.284 109.658 162.559 110.383 163.069C111.479 163.841 112.568 165.117 112.955 166.455C113.033 166.721 113.117 166.922 113.206 167.056C113.24 167.106 113.287 167.146 113.341 167.171C113.395 167.195 113.455 167.204 113.514 167.196L115.295 166.955C115.369 166.945 115.439 166.916 115.499 166.87C115.559 166.824 115.606 166.763 115.637 166.693C115.667 166.623 115.68 166.547 115.673 166.47C115.667 166.394 115.642 166.321 115.6 166.257C113.698 163.368 111.112 161.607 107.842 160.975C106.966 160.807 105.695 160.701 104.029 160.658C103.242 160.637 100.485 160.634 95.7575 160.65C94.9057 160.653 93.7535 160.251 94.3824 159.045C93.2686 159.334 92.2025 159.444 91.1841 159.375C90.2768 159.312 89.3804 159.203 88.4949 159.048C88.448 159.06 88.4058 159.064 88.3682 159.06C88.3229 159.052 88.2955 159.024 88.2861 158.978C88.2752 158.928 88.2767 158.862 88.2908 158.778L83.8887 159.902C83.8338 159.916 83.7839 159.946 83.7445 159.988C83.7051 160.03 83.6779 160.083 83.6658 160.14C83.3466 161.722 83.1714 163.286 83.1402 164.833C83.1143 166.192 84.1539 166.414 85.3154 166.52C87.3099 166.698 89.109 166.822 90.7124 166.893C95.3648 167.101 99.824 167.205 104.09 167.203C104.113 167.203 104.136 167.198 104.157 167.187C104.177 167.176 104.195 167.16 104.209 167.141C104.222 167.122 104.231 167.099 104.235 167.076C104.238 167.052 104.236 167.028 104.228 167.006C103.983 166.239 103.596 165.501 103.067 164.792C102.896 164.561 102.656 163.974 102.792 163.622C103.107 162.811 104.118 163.069 104.632 163.528C105.815 164.585 106.61 165.434 107.002 167.013C107.013 167.056 107.038 167.095 107.073 167.122C107.108 167.15 107.151 167.165 107.195 167.165H110.25C110.268 167.165 110.285 167.161 110.302 167.154C110.318 167.146 110.333 167.135 110.345 167.122C110.357 167.108 110.366 167.092 110.371 167.074C110.377 167.057 110.378 167.038 110.376 167.02C110.365 166.93 110.324 166.847 110.252 166.77Z" fill="#61422D"/>
<path d="M44.7414 159.327C45.4125 159.442 46.0891 159.704 46.7712 160.111C47.7254 158.68 47.7575 157.253 46.8674 155.83C39.5804 144.203 54.04 121.564 60.8415 131.639C61.4444 126.499 63.0202 127.944 57.1619 125.51C50.3169 124.077 43.8476 122.949 39.2622 117.808C39.2559 117.8 39.2478 117.795 39.2387 117.792C39.2295 117.788 39.2196 117.788 39.21 117.79C39.2003 117.792 39.1912 117.796 39.1835 117.803C39.1758 117.809 39.1698 117.818 39.166 117.827C36.9767 123.569 35.8152 129.828 36.0756 136.001C36.1147 136.917 36.2884 138.276 36.5966 140.077C37.701 146.538 40.3127 152.238 44.4317 157.178C44.7391 157.546 44.8142 158.049 44.7672 158.578C44.7406 158.862 44.732 159.112 44.7414 159.327Z" fill="#B48557"/>
<path d="M102.534 168.541C103.188 166.739 99.4285 161.781 97.4669 159.528C101.39 158.426 108.91 159.987 112.179 160.905L116.593 165.537L116.102 168.541H102.534Z" fill="#8B6040"/>
<path d="M104.56 108.336L121.721 100.932L125.153 100.265L125.626 102.571L124.561 105.119L118.821 109.61L106.809 113.676L104.56 108.336Z" fill="#EDD1B3"/>
<path d="M71.4228 133.46C66.831 134.576 62.4087 132.63 60.7715 131.518L61.4225 128.726L59.8248 126.056L76.2751 120.594C80.1569 127.876 74.6577 132.205 71.4228 133.46Z" fill="#EED7BB"/>
<path d="M21.3026 150.573C6.67487 146.883 3.72801 135.037 4.08305 129.576L6.45001 131.275L11.0656 140.317L17.8114 145.657L22.6636 147.174H28.4627L35.9186 145.657L37.3979 149.541C29.7763 151.58 23.4921 151.078 21.3026 150.573Z" fill="#8B6040"/>
<path d="M56.9253 123.325C56.6886 120.315 60.7716 113.433 64.2629 111.37L67.7541 112.523L74.4408 116.771L75.3284 121.019L73.9082 125.024L71.8371 127.998L65.8605 128.969L56.9253 123.325Z" fill="#61422D"/>
<path d="M63.6711 111.795C62.3456 112.377 60.7124 115.638 60.0615 117.196C65.5529 118.652 68.4642 125.409 69.2335 128.605L72.6064 128.059L75.0325 122.476L74.3224 119.138L71.4821 114.465L63.6711 111.795Z" fill="#8B6040"/>
<path d="M38.2415 22.1169C38.0741 23.2656 38.0194 24.29 38.0773 25.19C38.1039 25.6231 38.1711 26.2697 38.2791 27.1296C38.3604 27.7826 38.4918 28.4171 38.6733 29.0331C39.2349 30.9262 40.1266 32.7567 41.3484 34.5247C41.8333 35.1455 42.3957 35.76 43.0355 36.368C44.0703 37.3547 44.3824 38.0477 43.6174 39.2799C42.6804 40.7895 41.8943 42.3954 41.2592 44.0976C42.748 41.4031 44.908 36.3665 43.7582 42.3818C43.6065 43.1743 43.3492 44.0318 42.9862 44.9543C41.9991 47.4699 41.1309 50.2486 40.3816 53.2903C38.8422 59.5399 38.7789 66.5428 40.7664 72.7539C42.1908 77.2106 45.4994 81.4172 49.0051 84.3891C50.8573 85.9598 52.6837 87.3355 54.4842 88.5162C55.9931 89.5053 57.9595 90.1045 59.4941 90.7278C60.7237 91.2259 61.2587 91.2909 61.3878 92.6337C61.5708 94.5613 59.9353 95.0691 58.4898 95.199C56.7979 95.3506 54.55 95.4084 52.7056 95.0089C51.178 94.6768 49.8334 94.5156 48.6789 95.1196C46.6726 96.1736 45.0582 97.8533 44.1149 99.9542C42.8853 102.698 42.2306 105.162 42.4935 108.331C42.7046 110.877 43.6972 113.705 45.5369 115.495C48.9081 118.776 52.9731 120.486 57.7319 120.626C59.9659 118.5 60.6407 114.932 62.8872 112.518L66.3339 110.338C66.3339 110.338 71.3629 103.959 75.0258 102.541C77.4068 101.62 79.819 101.169 82.2626 101.186C83.2223 101.194 84.7828 101.194 85.8622 101.405C87.6706 101.758 89.2107 102.262 90.4825 102.917C94.6288 105.046 97.8318 108.67 100.054 113.053C103.058 118.974 104.511 125.35 104.414 132.182C104.365 135.583 103.747 138.821 102.558 141.897C102.545 141.928 102.537 141.962 102.534 141.995L102.508 142.354C103.147 142.148 103.572 142.297 103.785 142.799C103.813 142.754 103.839 142.732 103.862 142.732C103.945 142.732 103.992 142.775 104.003 142.862C104.25 144.727 103.471 146.666 102.504 148.283C101.991 149.138 101.617 149.719 101.382 150.026C100.453 151.232 99.3469 152.441 98.0642 153.652C96.3684 155.253 94.316 156.587 91.9068 157.654C90.7821 158.151 89.6448 158.616 88.495 159.047C89.3804 159.203 90.2768 159.312 91.1841 159.375C92.2025 159.444 93.2686 159.334 94.3824 159.045C94.4747 159.021 94.6014 158.925 94.7626 158.756C94.7125 158.76 94.6812 158.748 94.6687 158.723C94.6249 158.631 94.646 158.564 94.7321 158.52C95.7426 158.012 96.5608 157.574 97.1865 157.207C100.495 155.265 103.562 152.629 105.557 149.402C107.094 146.914 108.15 143.855 108.631 140.989C108.748 140.296 108.856 139.19 108.954 137.671C109.02 136.676 109.028 135.567 108.978 134.343C108.845 131.136 108.393 127.976 107.622 124.864C106.999 122.356 106.376 120.165 105.754 118.291C104.369 114.138 102.896 109.876 101.258 105.59C100.174 102.755 99.4901 100.837 99.2069 99.8363C99.1318 99.5716 99.1482 99.2082 99.2562 98.7461C99.2746 98.6676 99.3145 98.5966 99.3712 98.5416C99.7842 98.1357 100.215 98.0298 100.664 98.2239C100.739 98.2557 100.806 98.3014 100.864 98.3587C101.156 98.6491 101.407 98.9274 101.617 99.1938C102.751 100.636 103.506 102.232 103.881 103.983C104.896 106.536 105.625 108.7 105.625 108.7C110.245 109.056 119.745 106.661 121.799 101.675C121.131 99.7384 120.916 97.7098 121.152 95.5889C121.164 95.4829 121.201 95.3821 121.26 95.2953L121.721 94.621C119.352 95.7796 116.681 96.1794 112.904 96.6843C110.412 97.0164 108.329 96.2683 105.921 95.0458C103.568 93.8506 102.322 93.5146 101.661 93.1039C100.846 92.5969 99.6342 92.0519 99.4121 91.9509C98.7739 91.6695 96.4241 93.0055 95.625 93.1039C94.6178 93.2119 93.5319 91.6318 94.5007 90.9799C95.0052 90.6382 95.2577 90.3979 95.7575 90.191C97.3891 89.5107 98.386 89.1676 98.702 89.0264C103.39 86.9411 106.892 81.7553 108.889 77.0903C110.278 73.8512 111.374 69.6615 111.317 66.1433C111.26 62.4614 110.456 58.976 108.908 55.6872C108.75 55.3535 108.282 54.4928 107.504 53.105C107.007 52.2195 106.577 51.3419 106.216 50.4724C105.238 48.1188 103.841 45.2287 102.025 41.8018C100.4 38.7312 98.5953 35.9317 96.6116 33.4033C93.6284 29.5978 89.9921 26.7494 85.7026 24.8579C83.7769 24.0092 81.5508 23.3226 79.0243 22.7979C73.4701 21.6452 68.3335 22.656 62.9787 24.2298C61.8852 24.5523 60.7777 25.06 59.7311 25.3079C58.3443 25.6328 57.4385 24.7833 56.7299 23.645C55.3673 21.4567 53.8718 19.6607 52.2433 18.2569C47.4057 14.0833 39.469 12.0284 38.2415 22.1169ZM44.4528 34.5054C44.021 34.1348 43.6839 33.8108 43.4415 33.5332C42.8579 32.869 42.2799 32.0613 41.7074 31.1099C41.1145 30.1232 40.7156 29.2104 40.5106 28.3713C40.0718 26.5544 39.7668 23.0771 41.1465 21.5442C41.2076 21.4768 41.2944 21.4255 41.407 21.3902C41.4186 21.3868 41.4291 21.3804 41.4374 21.3715C41.4458 21.3626 41.4517 21.3516 41.4546 21.3396C41.4574 21.3276 41.4572 21.3151 41.4537 21.3032C41.4503 21.2914 41.4439 21.2807 41.4352 21.2722C40.9127 20.7557 40.8337 20.1741 41.1982 19.5276C41.5713 18.8706 42.9628 18.2064 43.7817 18.1029C59.3473 16.1548 45.0326 35.5337 44.4528 34.5054ZM93.5044 42.4969C94.1149 42.3809 94.7537 42.4555 95.3843 42.7164C96.0149 42.9773 96.6249 43.4195 97.1795 44.0177C97.7342 44.6159 98.2226 45.3584 98.6168 46.2028C99.0111 47.0472 99.3035 47.9769 99.4774 48.9389C99.6512 49.901 99.7031 50.8764 99.6301 51.8096C99.5571 52.7428 99.3606 53.6155 99.0518 54.3778C98.7431 55.1401 98.3281 55.7771 97.8305 56.2525C97.333 56.7279 96.7627 57.0322 96.1522 57.1483C95.5417 57.2643 94.9029 57.1898 94.2723 56.9288C93.6417 56.6679 93.0317 56.2257 92.477 55.6275C91.9224 55.0293 91.434 54.2868 91.0397 53.4424C90.6454 52.598 90.353 51.6683 90.1792 50.7063C90.0053 49.7442 89.9534 48.7688 90.0264 47.8356C90.0994 46.9024 90.2959 46.0297 90.6047 45.2674C90.9135 44.5051 91.3285 43.8681 91.826 43.3927C92.3235 42.9174 92.8938 42.613 93.5044 42.4969ZM63.0914 58.1995C61.2634 58.2019 59.5762 57.0468 58.647 55.4778C57.1405 52.9414 57.3236 49.4592 58.525 46.8506C59.3533 45.0578 61.0311 43.265 63.0749 43.2626C65.1188 43.2602 66.8012 45.0482 67.6319 46.841C68.838 49.4448 69.0304 52.927 67.5287 55.4682C66.6018 57.0396 64.917 58.1995 63.0914 58.1995ZM91.5642 59.28C92.348 59.8319 93.0778 60.3878 93.7536 60.9477C94.5749 61.6263 95.4008 62.1606 96.2104 62.6611C98.3575 63.9919 99.8991 66.023 100.242 68.5786C101.495 77.9037 95.2061 85.9822 86.9955 89.0264C80.1366 91.5701 72.6535 90.0588 66.813 85.5395C65.7171 84.69 64.5087 83.4578 63.5912 82.3629C60.7002 78.9048 59.1374 74.5226 59.5058 69.9575C59.7382 67.0794 61.8829 64.8679 64.4242 63.9245C66.0855 63.3085 67.5748 62.7494 68.892 62.2472C70.8748 61.4892 72.2827 60.4616 74.0192 59.4413C81.009 51.8986 86.8081 53.2337 91.5642 59.28Z" fill="#CEA881"/>
<path d="M82.9618 70.7111C73.3993 70.3713 73.7504 64.0155 74.9142 61.0015L90.536 60.4553C92.1337 63.9346 92.5243 71.051 82.9618 70.7111Z" fill="#CBA383"/>
<path d="M42.6394 37.6375C33.0966 27.5802 35.4927 20.5817 37.8836 18.3396L47.863 18.82L52.073 26.267L42.6394 37.6375Z" fill="#ED887E"/>
<path d="M43.3162 37.6602C33.1935 28.8431 34.5915 20.4327 39.3596 17.2362L41.7182 17.5309C36.6145 28.2539 42.7055 33.8454 46.389 35.3008L43.3162 37.6602Z" fill="#FEB1AA"/>
<path d="M43.6479 170.351C45.2983 170.854 46.9518 171.21 48.6085 171.417C54.5194 172.153 59.1491 172.119 66.5454 172.11C68.6855 172.107 71.5741 172.336 72.5925 170.069C73.7751 167.436 71.858 164.344 69.8752 162.477C69.2228 161.808 68.4547 161.198 67.5709 160.648C67.5585 160.642 67.5486 160.631 67.5434 160.619C67.5382 160.606 67.5379 160.591 67.5427 160.578C67.5475 160.565 67.5569 160.554 67.5691 160.548C67.5813 160.542 67.5953 160.54 67.6084 160.544C68.6033 160.706 69.6171 160.81 70.6495 160.855C73.7782 160.991 76.9554 160.904 80.1811 160.592C80.1979 160.591 80.2148 160.593 80.2305 160.599C80.2463 160.605 80.2605 160.615 80.272 160.627C80.2836 160.64 80.2922 160.655 80.2972 160.671C80.3022 160.688 80.3034 160.705 80.3008 160.722L80.0591 162.258C79.984 162.928 79.9308 163.604 79.8996 164.284C79.7556 167.337 81.1135 169.114 83.9731 169.614C84.8148 169.762 85.8496 169.884 87.0776 169.98C88.0647 170.055 90.0968 170.141 93.1739 170.237C98.4489 170.401 105.411 170.464 114.06 170.428C114.999 170.424 115.956 170.203 116.933 169.763C118.28 168.921 118.864 167.78 118.685 166.341C118.596 165.615 118.365 164.967 117.991 164.399C116.405 161.996 114.364 160.238 111.869 159.124C108.952 157.822 105.939 157.616 102.809 157.594C102.799 157.593 102.789 157.59 102.78 157.583C102.772 157.577 102.766 157.568 102.763 157.558C102.76 157.548 102.76 157.538 102.763 157.528C102.766 157.519 102.772 157.511 102.781 157.505C109.288 152.661 112.345 145.107 112.441 136.91C112.491 132.651 111.991 128.422 110.94 124.223C110.184 121.21 109.316 118.319 108.335 115.55C108.327 115.529 108.324 115.505 108.327 115.482C108.329 115.459 108.336 115.437 108.347 115.417C108.359 115.397 108.374 115.38 108.393 115.368C108.411 115.355 108.432 115.347 108.455 115.343C112.835 114.707 116.875 113.132 120.574 110.62C123.041 108.943 124.977 107.313 126.382 105.73C126.417 105.691 126.462 105.664 126.513 105.654C126.563 105.644 126.615 105.651 126.661 105.674C127.128 105.908 127.729 106.187 128.13 106.293C130.237 106.849 132.3 106.48 134.278 105.513C134.438 105.435 134.61 105.393 134.785 105.388C136.292 105.333 137.44 105.311 138.23 105.321C138.491 105.324 162.152 105.327 209.213 105.33C210.759 105.33 212.249 105.316 213.518 104.199C214.955 102.938 214.617 100.972 214.635 98.7268C214.649 97.1722 214.63 96.2393 214.577 95.9281C214.272 94.1682 213.083 93.1157 211.01 92.7708C210.967 92.7634 210.929 92.741 210.901 92.7075C210.873 92.674 210.857 92.6317 210.857 92.5879C210.856 42.9761 210.861 13.8514 210.872 5.21379C210.873 2.9485 209.867 1.44605 207.854 0.706466C207.438 0.554056 206.717 0.477852 205.693 0.477852C131.88 0.476248 94.4723 0.477053 93.4696 0.480261C91.9795 0.482668 90.6256 0.651119 89.5086 1.51985C88.4073 2.37495 87.8606 3.58541 87.8684 5.15122C87.8934 9.63527 87.913 12.665 87.9271 14.2405C87.9333 14.8036 87.8911 15.2985 87.8004 15.7252C87.7896 15.7774 87.7662 15.8261 87.7323 15.8672L85.2168 18.7718C85.2003 18.791 85.1783 18.8047 85.1537 18.8111C85.129 18.8175 85.1028 18.8164 85.0784 18.8079C76.9711 15.8335 68.2889 16.2114 60.3107 19.3205C60.2767 19.3337 60.2395 19.3354 60.2045 19.3254C60.1695 19.3155 60.1385 19.2944 60.1159 19.2652C59.437 18.3844 58.9207 17.733 58.5672 17.3111C55.6575 13.8314 51.5745 11.4129 47.1325 11.2276C43.7089 11.0856 40.52 12.1444 38.0749 14.6712C34.595 18.2689 34.1093 23.6016 34.9587 28.4579C35.647 32.3836 37.4616 35.6444 40.4026 38.2402C40.4252 38.2608 40.4403 38.2888 40.4454 38.3194C40.4506 38.35 40.4454 38.3814 40.4308 38.4086C37.7823 43.4173 35.6478 48.6722 34.0271 54.1734C32.0584 60.8538 31.5937 67.6809 33.4076 74.1543C35.191 80.5194 39.037 85.3661 44.3988 88.9204C44.4152 88.9315 44.429 88.9461 44.4393 88.9632C44.4496 88.9803 44.4561 88.9995 44.4583 89.0195C44.4606 89.0395 44.4585 89.0597 44.4523 89.0788C44.446 89.0978 44.4358 89.1152 44.4223 89.1298C38.333 95.6947 34.1092 104.748 37.1363 113.907C37.2119 114.138 37.201 114.39 37.1058 114.614C33.1683 123.877 31.7697 134.018 34.1421 143.903C34.1535 143.95 34.1491 144 34.1295 144.044C34.1099 144.088 34.0763 144.124 34.0341 144.147C29.9958 146.288 25.0704 146.543 20.8232 145.099C15.4355 143.268 10.9536 138.527 8.78307 133.219C8.05251 131.432 7.53314 130.244 7.22496 129.657C6.24646 127.792 4.34811 126.591 2.32306 127.364C0.164246 128.189 -0.0469513 131.212 0.00701904 133.12C0.272171 142.313 5.02156 149.674 11.9321 155.156C20.1638 161.682 31.4365 162.972 41.1841 159.678C41.2018 159.672 41.2209 159.67 41.2393 159.674C41.2577 159.678 41.2747 159.687 41.2884 159.7C41.3022 159.713 41.3122 159.73 41.3174 159.749C41.3225 159.767 41.3227 159.787 41.3178 159.805C40.5904 162.59 39.0323 166.929 41.6627 169.224C41.9913 169.51 42.653 169.885 43.6479 170.351ZM207.265 3.92873C207.581 3.96723 207.737 4.25601 207.734 4.79506C207.725 6.58066 207.731 8.36546 207.753 10.1495L207.786 92.5085C207.83 92.6128 207.833 92.6994 207.795 92.7684C207.786 92.7845 207.773 92.7978 207.757 92.8071C207.742 92.8164 207.724 92.8213 207.706 92.8213H203.102C203.072 92.8213 203.044 92.8092 203.023 92.7875C203.001 92.7658 202.99 92.7364 202.99 92.7058L202.999 85.9051C202.957 60.6516 202.939 35.3997 202.945 10.1495C202.945 9.2735 202.439 8.65825 201.427 8.30369C200.873 8.18818 200.476 8.12963 200.237 8.12802C187.164 8.10396 154.097 8.10396 101.037 8.12802C99.7638 8.12802 98.8432 8.13123 98.2753 8.13765C97.052 8.15048 96.2534 8.2708 95.8795 8.49862C94.6804 9.22537 94.7414 10.4334 94.6968 11.7305C94.6953 11.7685 94.6825 11.8051 94.6603 11.8352C94.6381 11.8653 94.6074 11.8876 94.5725 11.899L91.8106 12.7845C91.6448 12.9835 91.3874 13.164 91.0386 13.326C91.03 13.33 91.0205 13.3318 91.011 13.3311C91.0016 13.3304 90.9925 13.3273 90.9845 13.322C90.9766 13.3167 90.97 13.3095 90.9655 13.3009C90.961 13.2923 90.9587 13.2828 90.9588 13.2731L91.0527 4.33542C91.2685 3.87178 91.6659 3.61589 92.2447 3.56776C92.5451 3.54369 92.9925 3.53166 93.5869 3.53166C129.841 3.52364 166.095 3.52364 202.349 3.53166C203.691 3.53166 205.079 3.54931 206.514 3.58461C206.792 3.59263 207.043 3.70733 207.265 3.92873ZM200.268 12.7845L200.277 92.7251C200.277 92.7378 200.272 92.7501 200.263 92.7591C200.254 92.7681 200.242 92.7732 200.23 92.7732H139.771C139.686 92.7732 139.603 92.7503 139.529 92.7068C139.455 92.6633 139.394 92.6007 139.351 92.5253L138.678 91.3269C138.629 91.2406 138.605 91.1424 138.607 91.043C138.61 90.9435 138.639 90.8469 138.692 90.7638C145.941 79.4245 155.864 64.1891 162.409 53.8943C163.865 51.6017 165.364 49.1126 166.904 46.427C167.423 45.5198 167.737 44.6101 167.271 43.7558C166.881 43.0451 166.344 42.6224 165.658 42.4876C164.757 42.3095 164.309 42.6344 163.732 43.3756C158.739 49.8129 154.128 56.2285 148.095 64.5068C144.777 69.0574 139.492 76.5656 135.531 81.9224C134.317 83.5652 133.241 85.0709 132.302 86.4394C132.28 86.4717 132.247 86.4948 132.21 86.5045C132.172 86.5142 132.133 86.5099 132.098 86.4923C131.635 86.2549 131.107 86.1097 130.514 86.0567C127.384 85.776 124.73 86.8011 122.553 89.1322C121.633 90.1173 121.048 90.7598 120.8 91.0598C120.082 91.9213 119.178 92.3497 118.268 92.6192C116.869 93.0315 115.5 93.3885 114.161 93.6901C112.125 94.1473 110.383 94.1497 108.53 93.3147C106.496 92.3986 104.641 91.4705 102.966 90.5304C102.944 90.5179 102.926 90.4996 102.913 90.4774C102.9 90.4551 102.893 90.4298 102.893 90.404C102.893 90.3782 102.9 90.3529 102.913 90.3307C102.926 90.3085 102.944 90.2902 102.966 90.2777C108.269 87.3466 112.674 82.5072 114.943 76.8087C116.344 73.292 116.939 69.5026 116.726 65.4405C116.485 60.8024 115.329 56.5438 113.258 52.6646C112.559 51.3538 111.669 49.8193 110.59 48.061C110.036 47.1578 109.499 46.1222 108.978 44.9542C107.528 41.7103 106.242 39.1306 104.587 36.3872C104.532 36.2942 104.505 36.1865 104.51 36.0779C104.515 35.9694 104.552 35.865 104.616 35.7784C107.106 32.3949 108.236 28.6953 108.006 24.6797C107.867 22.2716 107.245 20.0633 106.141 18.0547C105.024 16.022 103.481 14.3568 101.514 13.0589C100.201 12.3273 98.8705 11.8709 97.5221 11.6896C97.4661 11.6815 97.4149 11.6532 97.3779 11.6099C97.3408 11.5665 97.3203 11.5111 97.3203 11.4538V11.3551C97.3203 11.2517 97.3605 11.1525 97.4323 11.0794C97.504 11.0063 97.6013 10.9652 97.7027 10.9652H200.169C200.199 10.9652 200.229 10.9774 200.25 10.9991C200.272 11.0207 200.284 11.0501 200.284 11.0808L200.268 12.7845ZM89.3491 23.6714C89.7042 23.3682 89.8989 22.992 89.9334 22.5428C90.0155 21.4575 89.2247 20.6705 88.2814 20.3288C88.2656 20.3231 88.2514 20.3134 88.2401 20.3006C88.2289 20.2879 88.2209 20.2724 88.217 20.2557C88.213 20.239 88.2132 20.2215 88.2175 20.2048C88.2217 20.1882 88.23 20.1729 88.2415 20.1604L89.1238 19.1906C90.4128 17.7194 91.7136 16.6397 93.0261 15.9515C97.2499 13.7351 101.429 15.7132 103.508 19.7801C104.675 22.0631 105.095 24.5321 104.768 27.1873C104.79 27.7648 104.707 28.3849 104.519 29.0475C104.106 30.5074 103.479 31.867 102.638 33.1264C102.628 33.1402 102.616 33.1519 102.602 33.1607C102.588 33.1696 102.573 33.1754 102.557 33.1779C102.541 33.1804 102.524 33.1795 102.509 33.1752C102.493 33.1709 102.479 33.1633 102.466 33.1529C102.394 33.0935 102.328 33.0069 102.267 32.893L101.722 32.212C99.9312 29.8264 98.0571 27.5651 96.1001 25.4281C96.0719 25.397 96.0501 25.3605 96.036 25.3208C96.0219 25.2811 96.0157 25.2391 96.0179 25.1971C96.1368 22.8933 97.1943 21.3829 99.1905 20.6657C99.3281 20.616 99.7098 20.5406 100.336 20.4395C100.755 20.3721 103.645 20.0187 103.968 19.8567C103.994 18.562 104.324 17.5507 99.9446 17.7934C96.2512 17.8632 93.1458 21.7847 93.1176 25.3102C93.1114 26.0899 93.3351 26.7036 93.7887 27.1512C97.1505 30.4673 99.9859 34.1588 102.295 38.2257C103.984 41.2001 105.255 43.5849 106.106 45.3802C107.866 49.099 109.207 51.7726 110.13 53.4009C112.925 58.3366 113.906 64.1603 113.392 69.8275C112.798 76.3683 109.001 82.2088 103.757 85.869C101.42 87.5006 98.858 88.8306 96.0719 89.859C95.5533 90.0491 94.5513 90.475 94.1266 90.9539C92.9651 92.2606 94.4246 93.654 95.7762 93.3074C96.4098 93.1454 97.3656 92.7844 98.6437 92.2245C98.9894 92.0721 99.2882 92.0761 99.5401 92.2365C102.232 93.9484 105.033 95.3906 107.943 96.5634C109.694 97.2693 111.535 97.457 113.467 97.1265C115.799 96.727 118.008 96.1864 120.093 95.5045L121.623 94.7561L122.527 93.9355C122.533 93.9307 122.539 93.9251 122.543 93.9187C124.129 92.032 125.594 89.9745 128.273 89.3079C129.924 88.8988 131.341 89.3223 132.525 90.5785C132.751 90.8175 132.847 91.1793 132.814 91.6638C132.765 92.4267 131.779 92.8165 131.16 92.9031C130.317 93.0211 127.222 93.1414 127.105 94.3374C127.072 94.6823 127.071 94.9887 127.103 95.2567C127.29 96.8642 125.845 97.7618 125.066 98.9939C124.485 99.9132 124.21 100.931 124.24 102.048L124.413 103.013C124.421 103.056 124.419 103.1 124.407 103.143C124.395 103.185 124.373 103.224 124.343 103.256C120.011 107.956 113.624 111.628 107.401 112.092C107.318 112.099 107.234 112.078 107.163 112.032C107.092 111.987 107.036 111.919 107.004 111.84L103.881 103.983C103.234 102.571 102.555 101.221 101.844 99.9324C101.525 99.3549 101.151 98.8937 100.723 98.5487C100.181 98.1156 99.3946 98.4813 99.4275 99.2105C99.458 99.9685 99.7513 100.671 100.063 101.603C100.364 102.506 100.552 103.055 100.629 103.251C102.702 108.556 104.585 113.851 106.279 119.136C109.492 129.157 111.662 142.431 104.489 151.342C102.544 153.76 100.178 155.763 97.3883 157.351C96.5232 157.843 95.648 158.312 94.7625 158.756C94.6014 158.925 94.4747 159.021 94.3824 159.045C93.7535 160.251 94.9057 160.653 95.7575 160.65C100.485 160.634 103.242 160.636 104.029 160.657C105.695 160.701 106.966 160.807 107.842 160.975C111.112 161.607 113.698 163.368 115.6 166.257C115.642 166.321 115.667 166.394 115.673 166.47C115.68 166.547 115.667 166.623 115.637 166.693C115.606 166.763 115.559 166.824 115.499 166.87C115.439 166.915 115.369 166.945 115.295 166.955L113.514 167.196C113.455 167.204 113.395 167.195 113.341 167.17C113.287 167.146 113.24 167.106 113.206 167.056C113.117 166.921 113.033 166.721 112.955 166.454C112.568 165.117 111.479 163.841 110.383 163.069C109.658 162.558 108.377 162.284 108.45 163.651C108.453 163.711 108.472 163.767 108.504 163.815L110.085 166.139L110.252 166.77C110.324 166.847 110.365 166.93 110.376 167.02C110.378 167.038 110.377 167.057 110.371 167.074C110.366 167.092 110.357 167.108 110.345 167.121C110.333 167.135 110.318 167.146 110.302 167.153C110.285 167.161 110.268 167.165 110.25 167.164H107.194C107.151 167.164 107.108 167.149 107.073 167.122C107.038 167.095 107.013 167.056 107.002 167.013C106.61 165.434 105.815 164.585 104.632 163.528C104.118 163.069 103.107 162.811 102.792 163.622C102.656 163.973 102.896 164.561 103.067 164.792C103.596 165.501 103.983 166.239 104.228 167.006C104.236 167.028 104.238 167.052 104.235 167.076C104.231 167.099 104.222 167.122 104.209 167.141C104.195 167.16 104.177 167.176 104.157 167.187C104.136 167.197 104.113 167.203 104.09 167.203C99.824 167.205 95.3648 167.101 90.7124 166.892C89.1089 166.822 87.3099 166.698 85.3154 166.519C84.1538 166.414 83.1143 166.192 83.1401 164.833C83.1714 163.286 83.3466 161.722 83.6658 160.14C83.6778 160.083 83.7051 160.03 83.7445 159.988C83.7838 159.946 83.8338 159.916 83.8887 159.902L88.2908 158.778C93.4719 157.276 97.7278 154.367 101.058 150.05C102.391 148.324 104.233 145.066 103.785 142.799C103.572 142.297 103.147 142.148 102.508 142.354C102.304 142.612 102.182 142.782 102.142 142.864C99.5284 148.295 95.2318 152.548 89.8207 154.824C86.886 156.058 83.8339 156.857 80.6645 157.223C74.9108 157.887 69.136 157.734 63.34 156.764C63.2618 156.751 63.2798 156.679 63.394 156.547L64.0229 155.796C68.2748 150.006 66.1535 141.728 62.2982 136.443C61.8304 135.802 61.3103 135.117 60.7377 134.388L60.4139 134.037C60.0932 133.631 59.7616 133.354 59.419 133.207C59.0342 133.043 58.6157 133.182 58.1636 133.623C58.0588 134.157 58.1386 134.625 58.4029 135.026C59.3416 136.454 60.0385 137.558 60.4937 138.337C63.5043 143.511 65.0343 151.27 59.8719 155.765C58.3685 157.076 56.6642 158.089 54.7588 158.804C54.1268 159.043 53.4995 159.289 52.8768 159.541L52.5906 159.724C52.5295 160.744 53.5855 160.763 54.4537 160.884C54.7024 160.917 55.1757 160.921 55.8734 160.896C57.6833 160.83 59.7287 161.02 62.0096 161.466C65.6342 162.175 68.2044 164.192 69.7203 167.518C69.8423 167.786 69.8916 168.051 69.8681 168.312C69.8627 168.38 69.8367 168.444 69.7938 168.496C69.7509 168.547 69.6932 168.584 69.6288 168.601C69.0046 168.766 68.292 168.822 67.4911 168.767C67.4496 168.764 67.4101 168.748 67.3784 168.721C67.3467 168.693 67.3245 168.657 67.3151 168.616C66.9834 167.146 66.2967 165.884 65.2548 164.83C64.6306 164.2 63.2157 163.162 62.6572 164.443C62.6237 164.521 62.6162 164.609 62.6361 164.693C62.7409 165.142 62.841 165.415 62.9364 165.511C63.5747 166.148 64.0448 166.877 64.3467 167.699L64.6588 168.717C64.6636 168.733 64.6646 168.75 64.6617 168.766C64.6589 168.783 64.6523 168.799 64.6425 168.812C64.6327 168.826 64.62 168.837 64.6053 168.845C64.5906 168.852 64.5744 168.856 64.5579 168.856H60.9654C60.9241 168.856 60.8841 168.841 60.8521 168.815C60.8201 168.788 60.7979 168.751 60.7894 168.709L60.5453 167.607C60.0713 166.353 59.2993 165.32 58.2293 164.51C57.4315 163.906 55.8992 164.216 56.6102 165.574C56.9786 166.281 57.8773 167.386 58.1401 168.603C58.1455 168.629 58.1451 168.656 58.1389 168.682C58.1327 168.707 58.1208 168.731 58.1043 168.751C58.0878 168.771 58.067 168.787 58.0435 168.798C58.0201 168.809 57.9945 168.814 57.9688 168.813C55.1999 168.713 52.5835 168.528 50.1197 168.257C48.183 168.045 46.5162 167.748 45.1192 167.367C43.3452 166.883 43.2349 165.865 43.5775 164.192C43.8998 162.623 44.2877 161.001 44.7414 159.327C44.732 159.112 44.7406 158.862 44.7672 158.578C44.8141 158.049 44.7391 157.546 44.4317 157.178C40.3127 152.238 37.701 146.538 36.5966 140.077C36.2884 138.276 36.1147 136.917 36.0756 136.001C35.8152 129.828 36.9767 123.569 39.166 117.827C39.1698 117.817 39.1758 117.809 39.1835 117.802C39.1912 117.796 39.2003 117.791 39.21 117.789C39.2196 117.788 39.2295 117.788 39.2387 117.791C39.2478 117.795 39.2559 117.8 39.2622 117.808L41.2239 120.007C44.7695 123.205 49.113 124.955 53.7638 125.638C54.6227 125.765 55.5237 125.884 56.4671 125.995C57.4643 126.112 58.2082 126.416 58.9896 126.969C59.972 127.67 60.8778 128.387 61.7069 129.118C62.5156 129.5 63.2697 129.871 63.9689 130.23C65.1633 130.841 66.7566 130.762 68.0613 130.442C68.2172 130.403 68.3771 130.384 68.5376 130.384C69.4903 130.387 70.2702 130.295 70.8771 130.107C72.515 129.604 74.1154 128.235 74.4814 126.442C74.569 126.011 74.6816 125.729 74.8193 125.597C78.0528 122.488 76.5346 118.263 74.0708 115.348C71.9871 112.879 69.6053 111.471 66.6909 110.263C65.3628 109.875 64.0659 109.408 62.8003 108.863C61.0983 108.131 59.9212 106.93 59.2688 105.26C58.9614 104.471 58.8418 103.463 58.5836 102.731C58.4272 102.285 58.1683 102.026 57.8069 101.954C56.8871 101.766 56.2441 102.825 56.1503 103.646C55.8382 106.355 57.2672 109.091 59.4401 110.588C61.5614 112.054 63.9619 112.576 66.2216 113.298C68.9131 114.159 71.8204 116.349 73.1885 119.033C73.675 120.014 73.8791 121.072 73.8009 122.204C73.7997 122.219 73.7938 122.233 73.7842 122.244C73.7746 122.255 73.7617 122.262 73.7476 122.265C73.7335 122.267 73.719 122.265 73.7061 122.259C73.6933 122.252 73.6829 122.242 73.6766 122.228C73.1838 121.232 71.5482 118.092 70.0347 119.172C69.9637 119.222 69.9128 119.296 69.8916 119.382C69.7743 119.845 69.786 120.199 69.9268 120.443C70.7363 121.853 71.2854 122.604 71.5412 123.846C71.9542 125.044 71.6538 126.579 70.4571 127.154C70.4409 127.162 70.4232 127.166 70.4054 127.165C70.3876 127.165 70.3702 127.16 70.3545 127.151C70.3388 127.143 70.3253 127.13 70.315 127.116C70.3047 127.101 70.2979 127.083 70.2952 127.065C70.1388 126.019 69.7719 125.053 69.1947 124.166C68.5634 123.266 67.3996 122.127 66.2122 122.491C66.083 122.53 65.9712 122.618 65.8952 122.739C65.8192 122.861 65.7837 123.008 65.7945 123.157C65.8297 123.655 66.0503 123.995 66.3929 124.385C66.9717 125.046 67.3033 125.792 67.3878 126.625C67.5224 126.745 67.5638 126.969 67.5122 127.296C67.5064 127.333 67.4917 127.368 67.4696 127.397C67.4474 127.427 67.4185 127.45 67.3855 127.465C65.3909 128.36 62.8379 125.826 61.3291 124.57C60.3967 123.793 59.3525 123.233 58.1964 122.89C56.1033 122.656 54.2762 122.39 52.715 122.091C50.1165 121.592 47.7043 120.616 45.4782 119.163C42.3643 117.131 39.9052 113.705 39.4101 109.991C38.9329 106.42 39.5141 102.964 41.1535 99.622C42.7116 96.4471 44.7555 93.5601 47.285 90.9611C47.343 90.9017 47.4165 90.8608 47.4969 90.8433C47.5773 90.8257 47.661 90.8324 47.7379 90.8625C49.6355 91.6101 51.361 92.2229 52.9144 92.701C53.4119 92.855 53.8147 92.8943 54.1229 92.8189C55.0896 92.5807 55.4698 91.4809 54.909 90.6579C54.6587 90.2905 54.3294 90.0274 53.9211 89.8686C51.4541 88.9108 50.1924 88.4207 50.1361 88.3982C39.5814 84.2086 34.3322 73.6057 35.5242 62.2519C35.7276 60.3123 36.0279 58.5957 36.4253 57.1021C37.4812 53.1282 38.879 49.1519 40.6185 45.1732C40.8673 44.6053 41.0808 44.2467 41.2591 44.0975C41.8943 42.3953 42.6804 40.7894 43.6174 39.2798C44.3824 38.0477 44.0703 37.3546 43.0355 36.3679C42.3956 35.7599 41.8333 35.1455 41.3483 34.5246C39.5352 32.5192 38.4363 30.1609 38.0514 27.4496C37.87 26.1677 37.816 24.7936 37.8895 23.3273C38.1617 17.9272 41.6534 14.3608 47.0222 14.5533C50.8752 14.6905 54.3106 16.9814 56.6548 20.0569C56.8941 20.3729 57.3337 21.0058 57.9735 21.9556C58.539 22.793 59.128 23.2046 60.0643 22.8171C62.5845 21.7759 65.2103 21.0155 67.9416 20.5358C75.0023 19.2916 81.8871 20.4564 88.3447 23.6594C88.5716 23.7717 88.9064 23.7757 89.3491 23.6714ZM165.297 44.9663C164.945 45.8358 164.508 46.6885 163.985 47.5243C162.502 49.8875 160.944 52.5298 159.22 55.1601C154.644 62.1364 148.2 72.0294 142.449 80.6253C140.814 83.0703 138.694 86.291 136.09 90.2873C136.074 90.311 136.053 90.3298 136.028 90.3417C136.003 90.3537 135.975 90.3583 135.947 90.355C135.919 90.3518 135.893 90.3409 135.87 90.3235C135.848 90.306 135.83 90.2827 135.82 90.256C135.546 89.5453 135.153 88.8723 134.64 88.237C134.594 88.1804 134.568 88.11 134.565 88.0368C134.563 87.9637 134.584 87.8919 134.626 87.8327C137.067 84.3321 139.066 81.4957 140.621 79.3234C147.05 70.3425 153.485 60.9934 159.731 52.4263C160.717 51.0715 161.801 49.8538 162.613 48.5952C163.32 47.4979 164.193 46.2754 165.231 44.9278C165.236 44.9188 165.245 44.9123 165.254 44.9096C165.264 44.9069 165.274 44.9082 165.283 44.9133C165.292 44.9184 165.298 44.9269 165.301 44.9368C165.303 44.9467 165.302 44.9573 165.297 44.9663ZM135.994 92.9176C136.27 93.3732 136.482 93.8457 136.629 94.335C137.118 95.9642 136.13 97.5067 134.644 98.0313C134.574 98.055 134.498 98.0599 134.426 98.0458C133.767 97.9086 132.758 97.4393 132.706 98.5896C132.676 99.2586 133.309 99.8097 133.776 100.342C133.866 100.444 133.927 100.57 133.953 100.706C133.978 100.841 133.968 100.982 133.922 101.112C133.178 103.224 130.564 103.636 128.726 103.013C127.91 102.734 127.401 102.069 127.532 101.186C127.547 101.076 127.59 100.971 127.656 100.881C127.802 100.682 128.083 100.329 128.501 99.8217C129.338 98.8094 129.893 97.6936 130.167 96.4743C130.176 96.4326 130.197 96.3947 130.228 96.3659C130.258 96.337 130.297 96.3186 130.338 96.3131C132.715 95.9906 134.83 95.4155 135.843 92.9296C135.849 92.9148 135.859 92.902 135.872 92.8926C135.884 92.8832 135.899 92.8776 135.915 92.8763C135.93 92.8751 135.946 92.8783 135.96 92.8856C135.974 92.8928 135.985 92.9039 135.994 92.9176ZM211.512 96.4166L211.545 101.639C211.545 101.729 211.518 101.818 211.468 101.893C211.419 101.967 211.348 102.025 211.266 102.057C211.034 102.149 210.741 102.195 210.386 102.195C188.82 102.169 164.377 102.16 137.059 102.168C137.04 102.168 137.021 102.164 137.004 102.155C136.986 102.147 136.971 102.135 136.959 102.12C136.946 102.106 136.937 102.088 136.932 102.069C136.926 102.051 136.925 102.031 136.927 102.012L137.096 100.734C137.07 100.599 137.075 100.462 137.11 100.322C137.13 100.246 137.173 100.178 137.233 100.13C138.626 98.9626 139.537 97.7738 139.779 95.8607C139.784 95.8104 139.808 95.764 139.846 95.7303C139.883 95.6966 139.932 95.6779 139.983 95.6778C165.892 95.7195 189.111 95.7532 209.64 95.7789C210.163 95.7789 210.592 95.7259 211.078 95.9449C211.234 96.0155 211.379 96.1727 211.512 96.4166ZM32.699 148.305L34.8672 147.446C34.8944 147.435 34.9235 147.43 34.9527 147.431C34.9819 147.432 35.0107 147.438 35.0373 147.451C35.0639 147.463 35.0879 147.481 35.1078 147.502C35.1278 147.524 35.1433 147.55 35.1534 147.578C36.2907 150.729 37.8238 153.673 39.7527 156.41C39.7696 156.434 39.7807 156.462 39.785 156.491C39.7894 156.521 39.7869 156.551 39.7777 156.579C39.7686 156.607 39.753 156.633 39.7323 156.653C39.7117 156.674 39.6864 156.69 39.6588 156.699C37.6548 157.339 35.4655 157.873 33.3138 158.022C29.8894 158.263 26.6199 158.016 23.5052 157.281C19.8572 156.421 16.579 154.81 13.6709 152.446C11.4198 150.682 9.5097 148.752 7.94066 146.656C5.25153 143.066 3.67857 138.854 3.22179 134.02C3.17017 133.493 3.06924 131.19 3.50569 130.697C3.54742 130.65 3.59784 130.613 3.65392 130.586C3.70999 130.56 3.77061 130.546 3.83214 130.544C3.89366 130.542 3.95482 130.553 4.01202 130.576C4.06923 130.599 4.12129 130.633 4.16508 130.678C4.49829 131.014 4.75172 131.416 4.92535 131.883C5.59804 133.702 6.28712 135.279 6.99265 136.614C8.5484 139.562 11.1202 142.59 13.6639 144.649C19.1172 149.065 26.0184 150.064 32.699 148.305Z" fill="#052429"/>
<path d="M101.514 13.059C108.93 13.0606 116.359 13.0678 123.801 13.0806C131.016 13.0918 138.445 13.0822 146.088 13.0517C162.436 12.9876 177.259 12.9659 190.558 12.9868C194.11 12.9916 197.347 12.9242 200.268 12.7846L200.284 11.0808C200.284 11.0502 200.272 11.0208 200.25 10.9992C200.229 10.9775 200.2 10.9653 200.169 10.9653H97.7028C97.6013 10.9653 97.5041 11.0064 97.4323 11.0795C97.3606 11.1526 97.3203 11.2518 97.3203 11.3552V11.4538C97.3204 11.5112 97.3408 11.5666 97.3779 11.6099C97.415 11.6533 97.4662 11.6816 97.5221 11.6897C98.8706 11.871 100.201 12.3274 101.514 13.059Z" fill="#1E3826"/>
<path d="M101.514 13.059C103.482 14.3569 105.024 16.0222 106.141 18.0548C107.245 20.0634 107.867 22.2718 108.006 24.6799C108.236 28.6954 107.106 32.395 104.616 35.7785C104.552 35.8651 104.515 35.9695 104.51 36.0781C104.505 36.1866 104.532 36.2943 104.588 36.3873C106.242 39.1307 107.528 41.7104 108.978 44.9544C109.499 46.1223 110.036 47.1579 110.59 48.0611C111.669 49.8194 112.559 51.354 113.258 52.6647C115.329 56.5439 116.485 60.8026 116.726 65.4406C116.939 69.5028 116.344 73.2922 114.943 76.8088C112.674 82.5073 108.269 87.3467 102.966 90.2778C102.944 90.2903 102.926 90.3086 102.913 90.3308C102.9 90.353 102.893 90.3784 102.893 90.4042C102.893 90.43 102.9 90.4553 102.913 90.4775C102.926 90.4997 102.944 90.518 102.966 90.5305C104.642 91.4706 106.496 92.3987 108.53 93.3148C110.383 94.1498 112.125 94.1474 114.161 93.6902C115.501 93.3886 116.869 93.0316 118.268 92.6193C119.178 92.3498 120.082 91.9214 120.8 91.0599C121.048 90.7599 121.633 90.1174 122.553 89.1323C124.73 86.8013 127.384 85.7761 130.514 86.0569C131.107 86.1098 131.635 86.255 132.098 86.4924C132.133 86.51 132.173 86.5144 132.21 86.5047C132.247 86.495 132.28 86.4718 132.302 86.4395C133.241 85.071 134.317 83.5654 135.531 81.9226C139.492 76.5658 144.777 69.0576 148.095 64.5069C154.128 56.2287 158.739 49.813 163.732 43.3757C164.309 42.6345 164.757 42.3097 165.659 42.4877C166.344 42.6225 166.881 43.0452 167.271 43.7559C167.738 44.6102 167.423 45.5199 166.905 46.4271C165.364 49.1127 163.865 51.6018 162.409 53.8944C155.864 64.1893 145.941 79.4246 138.692 90.7639C138.639 90.847 138.61 90.9437 138.607 91.0431C138.605 91.1425 138.629 91.2408 138.678 91.327L139.351 92.5255C139.394 92.6009 139.455 92.6635 139.529 92.7069C139.603 92.7504 139.686 92.7733 139.772 92.7733H200.23C200.242 92.7733 200.254 92.7683 200.263 92.7592C200.272 92.7502 200.277 92.738 200.277 92.7252L200.268 12.7847C197.347 12.9242 194.11 12.9916 190.558 12.9868C177.259 12.966 162.436 12.9876 146.088 13.0518C138.445 13.0823 131.016 13.0919 123.801 13.0807C116.359 13.0678 108.93 13.0606 101.514 13.059Z" fill="#36543D"/>
<path d="M41.4377 36.9286L42.1141 38.1259C43.0657 38.8267 43.8797 38.7643 44.5561 37.9385C47.9838 33.7568 50.523 30.8191 52.1737 29.1253C53.328 27.9406 53.4366 26.8957 53.0674 25.3173C52.2896 21.9952 50.5375 19.3465 47.811 17.3711C44.8819 15.2463 41.0312 14.6429 37.9904 16.6755C37.3056 17.135 37.045 17.7511 37.2084 18.5239C37.248 18.708 37.3533 18.8702 37.5037 18.9789C37.6541 19.0876 37.8387 19.1349 38.0214 19.1115C38.944 18.995 39.7342 18.923 40.392 18.8955C44.5499 18.7208 48.3137 21.5982 49.3191 25.6698C49.408 26.0361 49.287 26.3886 48.956 26.7274C45.9545 29.7911 43.4484 33.1915 41.4377 36.9286Z" fill="#052429"/>
<path d="M40.6186 45.1734C38.879 49.1521 37.4812 53.1283 36.4253 57.1022C36.028 58.5958 35.7276 60.3125 35.5242 62.2521C34.3322 73.6058 39.5814 84.2087 50.1361 88.3984C50.1924 88.4208 51.4541 88.9109 53.9211 89.8687C54.3294 90.0275 54.6587 90.2906 54.909 90.658C55.4698 91.481 55.0897 92.5808 54.1229 92.8191C53.8147 92.8945 53.4119 92.8551 52.9144 92.7011C51.361 92.223 49.6355 91.6102 47.738 90.8626C47.661 90.8326 47.5773 90.8259 47.4969 90.8434C47.4166 90.8609 47.343 90.9018 47.2851 90.9613C44.7555 93.5602 42.7117 96.4472 41.1536 99.6221C39.5141 102.964 38.933 106.42 39.4101 109.992C39.9052 113.705 42.3644 117.132 45.4782 119.163C47.7043 120.616 50.1166 121.592 52.715 122.091C53.8205 122.303 56.9845 122.779 56.9845 122.779L57.7319 120.626C52.9731 120.486 48.9081 118.776 45.5369 115.495C43.6972 113.705 42.7046 110.877 42.4935 108.331C42.2306 105.162 42.8853 102.698 44.1149 99.9542C45.0582 97.8534 46.6726 96.1737 48.6789 95.1196C49.8334 94.5156 51.178 94.6768 52.7056 95.0089C54.55 95.4084 56.7979 95.3507 58.4898 95.199C59.9353 95.0691 61.5708 94.5613 61.3878 92.6338C61.2587 91.2909 60.7237 91.226 59.4941 90.7278C57.9595 90.1046 55.9931 89.5053 54.4842 88.5163C52.6837 87.3355 50.8573 85.9598 49.0051 84.3892C45.4994 81.4172 42.1908 77.2107 40.7664 72.7539C38.7789 66.5428 38.8422 59.54 40.3816 53.2904C41.1309 50.2486 41.9991 47.4699 42.9862 44.9544C43.3491 44.0319 43.6065 43.1744 43.7582 42.3819C44.8893 36.4643 44.2848 36.788 40.6186 45.1734Z" fill="#B48557"/>
<path d="M93.5024 42.07C92.8745 42.1923 92.2891 42.5156 91.7797 43.0215C91.2702 43.5274 90.8467 44.206 90.5332 45.0185C90.2197 45.8309 90.0225 46.7614 89.9528 47.7567C89.883 48.7521 89.9421 49.7928 90.1267 50.8195C90.4994 52.8929 91.3606 54.7834 92.5209 56.0748C93.6811 57.3663 95.0453 57.9531 96.3133 57.7061C96.9412 57.5837 97.5266 57.2604 98.036 56.7545C98.5455 56.2486 98.969 55.57 99.2825 54.7576C99.596 53.9451 99.7932 53.0146 99.863 52.0193C99.9327 51.0239 99.8736 49.9832 99.6891 48.9565C99.3163 46.8831 98.4551 44.9927 97.2949 43.7012C96.1346 42.4097 94.7704 41.8229 93.5024 42.07Z" fill="#052429"/>
<path d="M62.9945 58.5902C64.869 58.5876 66.5981 57.3651 67.5504 55.7097C69.0891 53.0298 68.8912 49.3598 67.6532 46.6139C66.7986 44.7234 65.0745 42.8409 62.9769 42.8435C60.8794 42.8461 59.1578 44.734 58.3082 46.627C57.0752 49.3756 56.8898 53.0456 58.4335 55.7202C59.3883 57.3731 61.12 58.5929 62.9945 58.5902Z" fill="#052429"/>
<ellipse cx="1.42017" cy="1.51713" rx="1.42017" ry="1.51713" transform="matrix(-1 0 0 1 64.3812 46.1333)" fill="white"/>
<ellipse cx="1.42017" cy="1.51713" rx="1.42017" ry="1.51713" transform="matrix(-1 0 0 1 95.5067 45.5266)" fill="white"/>
<path d="M165.297 44.9665C165.302 44.9576 165.303 44.947 165.301 44.937C165.298 44.9271 165.292 44.9187 165.283 44.9136C165.274 44.9085 165.264 44.9071 165.254 44.9098C165.245 44.9125 165.236 44.9191 165.231 44.928C156.636 56.0791 148.821 67.8701 140.621 79.3237C139.066 81.4959 137.067 84.3323 134.625 87.833C134.584 87.8921 134.563 87.9639 134.565 88.0371C134.568 88.1102 134.594 88.1806 134.64 88.2372C135.153 88.8725 135.546 89.5456 135.82 90.2563C135.83 90.283 135.848 90.3063 135.87 90.3237C135.893 90.3412 135.919 90.3521 135.947 90.3553C135.975 90.3585 136.003 90.3539 136.028 90.342C136.053 90.33 136.074 90.3112 136.09 90.2876C138.694 86.2912 140.814 83.0705 142.449 80.6256C148.2 72.0297 154.644 62.1367 159.22 55.1603C161.337 51.9305 163.832 48.5869 165.297 44.9665Z" fill="#656565"/>
<path d="M81.7347 69.2959C84.3461 70.1209 76.2858 71.5689 73.6649 70.7758C71.9926 70.2705 70.5362 69.3737 69.2957 68.0854C69.2425 68.0293 68.8326 67.6097 68.0661 66.8268C67.1697 65.91 65.7407 66.3912 65.2362 67.4742C64.8701 68.2563 65.3981 69.279 65.9706 69.8325C66.5792 70.4181 67.3144 70.9395 68.1764 71.3967C68.2626 71.4425 68.3375 71.508 68.3953 71.5881C68.453 71.6681 68.4921 71.7607 68.5096 71.8587C69.5538 77.7161 73.6767 84.7021 80.0757 85.3109C82.8845 85.578 85.5337 84.0451 87.2795 81.8239C89.267 79.2947 90.1024 76.3155 90.4755 73.0981C90.4805 73.0556 90.4973 73.0155 90.5239 72.9822C90.5505 72.949 90.5858 72.9241 90.6257 72.9104C92.9535 72.1259 95.1756 70.4486 95.9359 67.9819C96.1002 67.4525 95.9586 67.0659 95.5112 66.822C95.4386 66.7832 95.3544 66.7729 95.2742 66.7931C94.8862 66.8974 94.6054 67.0378 94.4318 67.2143C93.6363 68.0228 92.9417 68.8507 92.0806 69.4354C90.3286 70.6282 83.7619 69.6578 85.7824 69.06C92.1603 67.0241 93.113 59.9106 89.0465 55.0664C86.5592 52.1016 83.3092 50.3954 79.5242 51.9428C77.2403 52.8765 75.665 54.6669 74.7983 57.314C73.7236 60.5965 74.5214 64.0522 76.7178 66.5549C78.1708 68.208 79.8282 68.6752 81.7347 69.2959ZM82.6427 56.4713C82.7667 56.2466 82.9473 56.0576 83.1742 55.9152C83.4011 55.7728 83.6699 55.6798 83.9652 55.6413C84.2605 55.6029 84.5766 55.6199 84.8954 55.6914C85.2142 55.7628 85.5294 55.8873 85.8231 56.0577C86.4162 56.4018 86.8855 56.9121 87.1279 57.4764C87.3702 58.0406 87.3657 58.6126 87.1154 59.0664C86.9914 59.2912 86.8108 59.4801 86.5839 59.6225C86.357 59.7649 86.0881 59.858 85.7928 59.8964C85.4975 59.9348 85.1814 59.9178 84.8627 59.8464C84.5439 59.7749 84.2287 59.6505 83.935 59.4801C83.3419 59.1359 82.8725 58.6256 82.6302 58.0613C82.3878 57.4971 82.3923 56.9251 82.6427 56.4713ZM73.6907 77.3311C75.3075 76.1928 77.4076 76.0364 79.3834 76.2169C81.4625 76.4062 83.0628 77.2885 84.1844 78.864C85.3694 80.5293 83.7245 82.0141 82.1875 82.4328C78.4753 83.4435 75.1339 80.8589 73.6321 77.55C73.615 77.5123 73.6115 77.4696 73.6223 77.4295C73.633 77.3894 73.6573 77.3545 73.6907 77.3311Z" fill="#052429"/>
<path d="M82.6329 53.584C83.0922 53.584 83.5514 53.6255 84.0043 53.7016C84.1553 53.7293 84.495 53.7639 84.5957 53.9092C84.8347 54.2482 84.2874 54.2482 84.0924 54.2482C80.601 54.2482 77.9651 56.3932 77.9651 59.1195C77.9651 60.9738 78.5942 64.6342 80.5444 66.7446C80.7079 66.9245 80.5066 67.2151 80.3053 67.0905C77.4744 65.3745 76.3043 60.7386 76.3043 58.5313C76.3106 55.7982 79.1415 53.584 82.6329 53.584Z" fill="#373737"/>
<path d="M83.9349 59.4803C82.6998 58.7636 82.1212 57.4166 82.6426 56.4715C83.164 55.5264 84.5879 55.3413 85.823 56.0579C87.0581 56.7745 87.6367 58.1216 87.1153 59.0667C86.5939 60.0117 85.17 60.1969 83.9349 59.4803Z" fill="#052429"/>
<path d="M73.6907 77.3311C73.6572 77.3546 73.6329 77.3895 73.6222 77.4296C73.6114 77.4697 73.6149 77.5124 73.632 77.5501C75.1338 80.859 78.4752 83.4435 82.1875 82.4328C83.7244 82.0141 85.3694 80.5293 84.1844 78.864C83.0627 77.2886 81.4624 76.4062 79.3833 76.2169C77.4076 76.0364 75.3074 76.1928 73.6907 77.3311Z" fill="#E26A74"/>
<path d="M121.623 94.7562L121.26 95.2953C121.201 95.3821 121.164 95.4829 121.152 95.5889C120.916 97.7098 121.131 99.7384 121.799 101.675L124.24 102.048C124.21 100.931 124.485 99.9133 125.066 98.994C125.845 97.7619 127.29 96.8643 127.103 95.2568C127.071 94.9888 127.072 94.6824 127.105 94.3375C127.222 93.1415 130.317 93.0212 131.16 92.9032C131.779 92.8166 132.765 92.4268 132.814 91.6639C132.847 91.1794 132.751 90.8176 132.525 90.5786C131.341 89.3224 129.924 88.8989 128.273 89.308C125.594 89.9746 124.13 92.0321 122.543 93.9188C122.539 93.9252 122.533 93.9308 122.527 93.9356L121.623 94.7562Z" fill="#8B6040"/>
<path d="M135.843 92.9298C134.83 95.4156 132.715 95.9908 130.338 96.3133C130.297 96.3187 130.258 96.3372 130.228 96.366C130.197 96.3949 130.176 96.4328 130.167 96.4745C129.893 97.6938 129.338 98.8096 128.501 99.8219C128.083 100.329 127.802 100.682 127.656 100.881C127.59 100.971 127.547 101.076 127.532 101.186C127.401 102.07 127.91 102.734 128.726 103.013C130.564 103.636 133.178 103.225 133.922 101.112C133.968 100.982 133.978 100.841 133.953 100.706C133.927 100.57 133.866 100.444 133.776 100.342C133.309 99.8099 132.676 99.2588 132.706 98.5898C132.758 97.4395 133.767 97.9087 134.426 98.0459C134.498 98.0601 134.573 98.0551 134.644 98.0315C136.13 97.5069 137.118 95.9643 136.629 94.3351C136.482 93.8458 136.27 93.3734 135.994 92.9177C135.985 92.9041 135.974 92.893 135.96 92.8857C135.946 92.8784 135.93 92.8752 135.915 92.8765C135.899 92.8777 135.884 92.8834 135.872 92.8928C135.859 92.9022 135.849 92.915 135.843 92.9298Z" fill="#61422D"/>
<path d="M94.7625 158.756C95.648 158.312 96.5232 157.844 97.3883 157.351C100.178 155.763 102.544 153.76 104.489 151.342C111.662 142.431 109.492 129.157 106.279 119.136C104.585 113.852 102.702 108.557 100.629 103.251C100.552 103.055 100.364 102.506 100.063 101.603C99.7513 100.671 99.4579 99.9688 99.4274 99.2108C99.3946 98.4816 100.181 98.1158 100.723 98.549C101.151 98.8939 101.525 99.3551 101.844 99.9327C102.555 101.221 103.234 102.571 103.881 103.983C103.506 102.232 102.751 100.636 101.617 99.1939C101.407 98.9276 101.156 98.6492 100.864 98.3589C100.806 98.3016 100.738 98.2559 100.664 98.2241C100.215 98.03 99.7841 98.1359 99.3711 98.5417C99.3145 98.5967 99.2745 98.6678 99.2561 98.7463C99.1482 99.2083 99.1318 99.5717 99.2069 99.8364C99.49 100.838 100.174 102.755 101.258 105.59C102.896 109.876 104.369 114.138 105.754 118.292C106.376 120.165 106.999 122.356 107.622 124.864C108.393 127.976 108.845 131.136 108.978 134.343C109.028 135.567 109.02 136.676 108.954 137.671C108.856 139.19 108.748 140.296 108.631 140.989C108.15 143.856 107.094 146.914 105.557 149.402C103.562 152.63 100.495 155.265 97.1865 157.207C96.5608 157.574 95.7426 158.012 94.732 158.521C94.646 158.564 94.6249 158.631 94.6687 158.723C94.6812 158.748 94.7125 158.76 94.7625 158.756Z" fill="#CEA881"/>
<path d="M103.785 142.799C104.233 145.066 102.391 148.324 101.058 150.05C97.7278 154.367 93.472 157.276 88.2908 158.778C88.2767 158.861 88.2752 158.928 88.2861 158.978C88.2955 159.024 88.3229 159.052 88.3682 159.06C88.4058 159.064 88.448 159.06 88.495 159.048C89.6448 158.616 90.7821 158.152 91.9068 157.654C94.3159 156.587 96.3684 155.253 98.0641 153.652C99.3469 152.441 100.453 151.232 101.382 150.026C101.617 149.719 101.991 149.139 102.504 148.283C103.471 146.666 104.25 144.727 104.003 142.862C103.992 142.775 103.945 142.732 103.862 142.732C103.839 142.732 103.813 142.754 103.785 142.799Z" fill="#CEA881"/>
<path d="M64.0229 155.796L63.394 156.547C65.326 156.85 66.5696 157.025 67.125 157.072C69.3073 157.259 72.1403 157.33 75.6242 157.283C76.1983 157.275 76.7239 157.245 77.201 157.192C78.2523 157.074 79.3528 157.11 80.2938 156.913C80.8335 156.797 81.7486 156.85 82.3705 156.557C82.3865 156.548 82.3994 156.534 82.407 156.517C82.4146 156.501 82.4165 156.482 82.4125 156.463C82.4085 156.445 82.3987 156.429 82.3848 156.417C82.3708 156.405 82.3534 156.399 82.3353 156.398C78.4572 156.46 74.6777 155.944 70.9968 154.848C69.2541 154.33 67.6232 153.598 66.1043 152.651C66.0831 152.638 66.0593 152.63 66.0347 152.627C66.0101 152.625 65.9852 152.629 65.9621 152.638C65.939 152.647 65.9182 152.661 65.9014 152.68C65.8845 152.698 65.872 152.721 65.8649 152.745C65.5614 153.805 65.0209 154.802 64.2435 155.734C64.0995 155.909 64.026 155.929 64.0229 155.796Z" fill="#FBF2E9"/>
<path d="M168.512 153.816H205.786C207.803 153.816 209.737 152.976 211.164 151.48C212.59 149.984 213.391 147.954 213.391 145.839C213.391 143.723 212.59 141.694 211.164 140.198C209.737 138.702 207.803 137.861 205.786 137.861H168.512V153.816Z" fill="#BDE47D"/>
<path d="M168.519 149.073H205.793C207.413 149.073 208.992 148.529 210.296 147.521C211.601 146.512 212.564 145.091 213.043 143.467C213.397 144.661 213.478 145.926 213.28 147.159C213.082 148.392 212.611 149.559 211.904 150.567C211.198 151.574 210.275 152.392 209.211 152.957C208.148 153.521 206.972 153.816 205.78 153.817H168.506V148.458" fill="#93BC49"/>
<path d="M168.512 136.597L168.382 136.604C167.744 136.669 167.246 137.207 167.246 137.861V153.816C167.246 154.514 167.812 155.079 168.512 155.079H205.785C208.159 155.079 210.422 154.09 212.08 152.351C213.737 150.613 214.657 148.27 214.657 145.838C214.657 143.407 213.737 141.064 212.08 139.327C210.422 137.587 208.159 136.597 205.785 136.597H168.512ZM212.125 145.838C212.125 147.639 211.443 149.354 210.247 150.608C209.052 151.861 207.446 152.552 205.785 152.552H169.778V139.125H205.785C207.446 139.125 209.052 139.816 210.247 141.068C211.443 142.323 212.125 144.038 212.125 145.838Z" fill="#052429"/>
<path d="M195.068 153.818H200.064C202.081 153.818 204.016 152.977 205.442 151.481C206.868 149.985 207.67 147.956 207.67 145.84C207.67 143.724 206.868 141.695 205.442 140.199C204.016 138.703 202.081 137.862 200.064 137.862H195.068C197.085 137.862 199.019 138.703 200.446 140.199C201.872 141.695 202.673 143.724 202.673 145.84C202.673 147.956 201.872 149.985 200.446 151.481C199.019 152.977 197.085 153.818 195.068 153.818Z" fill="#F4763A"/>
<path d="M203.94 145.84C203.939 143.409 203.019 141.066 201.363 139.329C201.338 139.303 201.312 139.277 201.287 139.252C202.497 139.504 203.628 140.129 204.525 141.07C205.721 142.325 206.404 144.04 206.404 145.84C206.404 147.64 205.721 149.355 204.525 150.61C203.628 151.551 202.498 152.175 201.288 152.428C201.312 152.402 201.338 152.378 201.363 152.353C203.019 150.615 203.94 148.271 203.94 145.84ZM201.407 145.84C201.407 147.64 200.725 149.355 199.529 150.61C198.409 151.785 196.927 152.466 195.378 152.546L195.068 152.554L194.938 152.561C194.3 152.626 193.802 153.164 193.801 153.817C193.801 154.472 194.3 155.01 194.938 155.075L195.068 155.081H200.064C202.438 155.081 204.701 154.092 206.359 152.353C208.015 150.615 208.936 148.271 208.936 145.84C208.936 143.409 208.015 141.066 206.359 139.329C204.701 137.589 202.438 136.599 200.064 136.599H195.068L194.938 136.606C194.3 136.671 193.801 137.209 193.801 137.863C193.801 138.517 194.3 139.054 194.938 139.119L195.068 139.126C196.728 139.126 198.334 139.817 199.529 141.07C200.725 142.325 201.407 144.04 201.407 145.84Z" fill="#052429"/>
<path d="M177.566 141.148C178.686 141.148 179.76 141.614 180.552 142.445C181.344 143.276 181.789 144.403 181.789 145.578C181.789 146.753 181.344 147.879 180.552 148.71C179.76 149.541 178.686 150.008 177.566 150.008H140.292C139.843 150.008 139.414 150.194 139.097 150.527C138.78 150.859 138.602 151.31 138.602 151.78C138.602 152.25 138.78 152.701 139.097 153.033C139.414 153.366 139.843 153.552 140.292 153.552H177.566C179.583 153.552 181.517 152.712 182.943 151.216C184.37 149.72 185.171 147.691 185.171 145.575C185.171 143.459 184.37 141.43 182.943 139.934C181.517 138.438 179.583 137.597 177.566 137.597H140.292C139.843 137.597 139.414 137.784 139.097 138.116C138.78 138.449 138.602 138.899 138.602 139.369C138.602 139.84 138.78 140.29 139.097 140.623C139.414 140.955 139.843 141.142 140.292 141.142L177.566 141.148Z" fill="#BDE47D"/>
<path d="M185.169 145.577C185.169 143.462 184.368 141.434 182.942 139.938C181.516 138.442 179.582 137.602 177.566 137.602H140.292C139.844 137.602 139.414 137.789 139.097 138.121C138.78 138.454 138.602 138.905 138.602 139.375C138.602 139.845 138.78 140.295 139.097 140.628C139.414 140.96 139.844 141.147 140.292 141.147H177.566C178.685 141.148 179.758 141.615 180.55 142.446C181.341 143.277 181.785 144.403 181.785 145.577H185.169Z" fill="#BDE47D"/>
<path d="M139.868 139.369C139.868 139.214 139.927 139.078 140.014 138.987C140.099 138.898 140.2 138.86 140.292 138.86H177.565C179.226 138.86 180.832 139.551 182.026 140.804C183.223 142.059 183.905 143.774 183.905 145.574L183.897 145.911C183.818 147.587 183.148 149.168 182.026 150.344C180.832 151.597 179.226 152.288 177.565 152.288H140.292C140.2 152.288 140.099 152.251 140.014 152.162C139.927 152.071 139.868 151.934 139.868 151.78C139.868 151.625 139.927 151.489 140.014 151.398C140.077 151.331 140.15 151.293 140.221 151.278L140.292 151.271H177.565C179.042 151.271 180.445 150.655 181.47 149.581C182.492 148.509 183.055 147.068 183.055 145.577C183.055 144.087 182.491 142.646 181.47 141.574C180.446 140.5 179.043 139.884 177.566 139.884L140.292 139.878L140.221 139.87C140.151 139.856 140.077 139.819 140.014 139.752C139.927 139.661 139.868 139.523 139.868 139.369ZM137.336 139.369C137.336 140.154 137.633 140.92 138.18 141.493C138.694 142.033 139.393 142.362 140.141 142.401L140.292 142.405L177.565 142.411C178.329 142.411 179.075 142.728 179.635 143.316C180.197 143.905 180.523 144.718 180.523 145.577C180.523 146.437 180.197 147.249 179.635 147.839C179.075 148.426 178.329 148.744 177.565 148.744H140.292L140.141 148.748C139.393 148.787 138.694 149.116 138.18 149.655C137.633 150.229 137.336 150.994 137.336 151.78C137.336 152.565 137.633 153.33 138.18 153.904C138.729 154.48 139.487 154.815 140.292 154.815H177.565C179.939 154.815 182.202 153.826 183.86 152.087C185.413 150.458 186.319 148.296 186.426 146.029L186.437 145.574C186.437 143.143 185.517 140.8 183.86 139.063C182.202 137.323 179.939 136.333 177.565 136.333H140.292C139.487 136.333 138.729 136.67 138.18 137.245C137.633 137.819 137.336 138.584 137.336 139.369Z" fill="#052429"/>
<path d="M140.29 150.013V141.147H177.564C178.684 141.147 179.758 141.614 180.55 142.445C181.343 143.276 181.787 144.402 181.787 145.577C181.787 146.752 181.343 147.879 180.55 148.71C179.758 149.541 178.684 150.007 177.564 150.007L140.29 150.013Z" fill="white"/>
<path d="M140.29 139.884L140.161 139.89C139.522 139.955 139.024 140.493 139.024 141.147V150.013C139.024 150.348 139.158 150.669 139.395 150.906C139.633 151.143 139.954 151.277 140.29 151.277L177.565 151.271V151.27C179.041 151.269 180.444 150.655 181.468 149.581C182.49 148.509 183.054 147.068 183.054 145.578C183.054 144.087 182.49 142.646 181.468 141.574C180.444 140.499 179.041 139.884 177.564 139.884H140.29ZM180.521 145.578C180.521 146.437 180.195 147.25 179.633 147.839C179.143 148.353 178.511 148.66 177.85 148.729L177.564 148.743L141.556 148.748V142.411H177.564C178.327 142.411 179.073 142.729 179.633 143.316C180.195 143.906 180.521 144.718 180.521 145.578Z" fill="#052429"/>
<path d="M156.844 169.542H194.118C196.135 169.542 198.07 168.701 199.496 167.205C200.923 165.709 201.724 163.68 201.724 161.564C201.724 159.448 200.923 157.419 199.496 155.923C198.07 154.427 196.135 153.587 194.118 153.587H156.844V169.542Z" fill="#10C0DF"/>
<path d="M201.381 159.198C200.9 160.819 199.937 162.235 198.634 163.241C197.33 164.247 195.754 164.79 194.136 164.789H156.844V169.541H194.118C195.311 169.541 196.486 169.247 197.55 168.683C198.614 168.119 199.537 167.3 200.244 166.293C200.951 165.285 201.422 164.118 201.619 162.885C201.817 161.651 201.735 160.386 201.381 159.192" fill="#01A7C3"/>
<path d="M156.844 152.323L156.715 152.33C156.076 152.395 155.578 152.933 155.578 153.587V169.542C155.578 170.239 156.145 170.805 156.844 170.805H194.118C196.492 170.805 198.755 169.816 200.413 168.077C202.069 166.339 202.99 163.995 202.99 161.564C202.99 159.133 202.069 156.79 200.413 155.053C198.755 153.313 196.492 152.323 194.118 152.323H156.844ZM200.458 161.564C200.458 163.365 199.775 165.079 198.579 166.334C197.385 167.587 195.778 168.278 194.118 168.278H158.111V154.85H194.118C195.778 154.85 197.385 155.541 198.579 156.794C199.775 158.049 200.458 159.764 200.458 161.564Z" fill="#052429"/>
<path d="M183.407 169.542H188.405C190.422 169.542 192.357 168.701 193.783 167.205C195.209 165.709 196.011 163.68 196.011 161.564C196.011 159.448 195.209 157.419 193.783 155.923C192.357 154.427 190.422 153.587 188.405 153.587H183.407C185.425 153.587 187.359 154.427 188.785 155.923C190.212 157.419 191.013 159.448 191.013 161.564C191.013 163.68 190.212 165.709 188.785 167.205C187.359 168.701 185.425 169.542 183.407 169.542Z" fill="#F4763A"/>
<path d="M192.279 161.564C192.279 159.133 191.359 156.79 189.703 155.053C189.678 155.027 189.652 155.002 189.626 154.976C190.838 155.228 191.968 155.853 192.866 156.794C194.062 158.049 194.744 159.764 194.744 161.564C194.744 163.365 194.062 165.079 192.866 166.334C191.969 167.276 190.838 167.899 189.627 168.152C189.652 168.126 189.678 168.102 189.703 168.077C191.359 166.339 192.279 163.995 192.279 161.564ZM189.747 161.564C189.747 163.365 189.064 165.079 187.868 166.334C186.748 167.509 185.267 168.19 183.718 168.27L183.407 168.278L183.278 168.285C182.64 168.35 182.141 168.888 182.141 169.542C182.141 170.196 182.639 170.735 183.278 170.799L183.407 170.805H188.405C190.778 170.805 193.042 169.816 194.7 168.077C196.356 166.339 197.277 163.995 197.277 161.564C197.277 159.133 196.356 156.79 194.7 155.053C193.042 153.313 190.779 152.323 188.405 152.323H183.407L183.278 152.33C182.639 152.395 182.141 152.933 182.141 153.587C182.141 154.241 182.639 154.779 183.278 154.844L183.407 154.85C185.068 154.85 186.673 155.542 187.868 156.794C189.064 158.049 189.747 159.764 189.747 161.564Z" fill="#052429"/>
<path d="M167.572 157.097C168.692 157.097 169.766 157.564 170.558 158.394C171.35 159.225 171.795 160.352 171.795 161.527C171.795 162.702 171.35 163.829 170.558 164.659C169.766 165.49 168.692 165.957 167.572 165.957H130.298C129.849 165.957 129.42 166.144 129.103 166.476C128.786 166.808 128.608 167.259 128.608 167.729C128.608 168.199 128.786 168.65 129.103 168.982C129.42 169.315 129.849 169.502 130.298 169.502H167.572C169.589 169.502 171.523 168.661 172.95 167.165C174.376 165.669 175.177 163.64 175.177 161.524C175.177 159.408 174.376 157.379 172.95 155.883C171.523 154.387 169.589 153.546 167.572 153.546H130.298C130.076 153.546 129.856 153.592 129.651 153.681C129.446 153.77 129.26 153.901 129.103 154.065C128.946 154.23 128.821 154.425 128.737 154.64C128.652 154.856 128.608 155.086 128.608 155.319C128.608 155.551 128.652 155.782 128.737 155.997C128.821 156.212 128.946 156.407 129.103 156.572C129.26 156.737 129.446 156.867 129.651 156.956C129.856 157.045 130.076 157.091 130.298 157.091L167.572 157.097Z" fill="#10C0DF"/>
<path d="M175.174 161.526C175.174 159.411 174.373 157.383 172.947 155.888C171.522 154.392 169.588 153.552 167.571 153.552H130.297C130.075 153.552 129.856 153.598 129.651 153.687C129.446 153.776 129.259 153.906 129.103 154.071C128.946 154.235 128.821 154.431 128.736 154.646C128.651 154.861 128.608 155.091 128.608 155.324C128.608 155.557 128.651 155.787 128.736 156.002C128.821 156.217 128.946 156.413 129.103 156.577C129.259 156.742 129.446 156.872 129.651 156.961C129.856 157.051 130.075 157.096 130.297 157.096H167.571C168.692 157.096 169.766 157.563 170.558 158.394C171.35 159.225 171.795 160.352 171.795 161.526H175.174Z" fill="#10C0DF"/>
<path d="M129.884 155.208C129.891 155.172 129.902 155.137 129.915 155.104C129.941 155.038 129.977 154.981 130.02 154.936C130.062 154.892 130.109 154.86 130.156 154.84C130.18 154.829 130.203 154.822 130.227 154.817L130.298 154.81H167.571C169.232 154.81 170.838 155.501 172.033 156.754C173.229 158.008 173.911 159.723 173.911 161.524C173.911 163.324 173.229 165.039 172.033 166.294C170.838 167.546 169.232 168.238 167.571 168.238H130.298L130.228 168.231C130.157 168.216 130.084 168.178 130.02 168.111C129.933 168.02 129.874 167.884 129.874 167.729C129.874 167.575 129.933 167.438 130.02 167.347C130.084 167.28 130.157 167.242 130.228 167.228L130.298 167.221H167.571C169.048 167.221 170.452 166.605 171.476 165.531C172.498 164.459 173.061 163.017 173.061 161.527C173.061 160.037 172.497 158.596 171.476 157.524C170.452 156.45 169.049 155.834 167.572 155.834L130.298 155.828L130.227 155.82C130.203 155.815 130.18 155.807 130.156 155.797C130.11 155.777 130.062 155.746 130.02 155.701C129.977 155.657 129.941 155.6 129.915 155.533C129.889 155.467 129.874 155.394 129.874 155.318L129.884 155.208ZM127.355 155.61C127.382 155.901 127.451 156.188 127.559 156.46C127.702 156.824 127.915 157.158 128.186 157.443C128.457 157.727 128.782 157.957 129.145 158.115C129.463 158.253 129.803 158.333 130.149 158.351L130.298 158.355L167.571 158.361C168.335 158.361 169.081 158.678 169.641 159.265C170.203 159.855 170.529 160.667 170.529 161.527C170.529 162.386 170.203 163.199 169.641 163.788C169.081 164.376 168.335 164.694 167.571 164.694H130.298L130.147 164.697C129.399 164.736 128.701 165.065 128.186 165.605C127.639 166.178 127.342 166.944 127.342 167.729C127.342 168.515 127.639 169.28 128.186 169.854C128.701 170.393 129.399 170.722 130.147 170.761L130.298 170.765H167.571C169.945 170.765 172.208 169.775 173.867 168.036C175.523 166.299 176.443 163.955 176.443 161.524C176.443 159.093 175.523 156.75 173.867 155.012C172.208 153.273 169.945 152.283 167.571 152.283H130.298L130.149 152.287C129.803 152.304 129.463 152.384 129.145 152.523C128.782 152.68 128.457 152.91 128.186 153.195C127.915 153.479 127.702 153.813 127.559 154.177C127.415 154.541 127.342 154.928 127.342 155.318L127.355 155.61Z" fill="#052429"/>
<path d="M130.296 165.956V157.096H167.57C168.69 157.096 169.765 157.563 170.557 158.394C171.349 159.225 171.794 160.351 171.794 161.526C171.794 162.701 171.349 163.828 170.557 164.659C169.765 165.49 168.69 165.956 167.57 165.956H130.296Z" fill="white"/>
<path d="M130.296 155.833L130.167 155.84C129.528 155.904 129.03 156.442 129.03 157.096V165.956C129.03 166.654 129.597 167.22 130.296 167.22H167.57C169.047 167.22 170.45 166.604 171.474 165.53C172.496 164.458 173.06 163.017 173.06 161.527C173.06 160.037 172.496 158.595 171.474 157.523C170.45 156.449 169.047 155.833 167.57 155.833H130.296ZM170.528 161.527C170.527 162.386 170.201 163.199 169.639 163.788C169.079 164.376 168.333 164.693 167.57 164.693H131.563V158.36H167.57C168.333 158.36 169.079 158.678 169.639 159.265C170.201 159.855 170.528 160.667 170.528 161.527Z" fill="#052429"/>
<path d="M163.61 137.603H200.884C202.901 137.603 204.835 136.762 206.262 135.266C207.688 133.77 208.489 131.741 208.489 129.625C208.489 127.509 207.688 125.48 206.262 123.984C204.835 122.488 202.901 121.647 200.884 121.647H163.61V137.603Z" fill="#E95739"/>
<path d="M163.614 132.85H200.888C202.509 132.851 204.087 132.306 205.392 131.298C206.697 130.289 207.659 128.868 208.139 127.244C208.494 128.439 208.577 129.705 208.38 130.939C208.183 132.174 207.712 133.342 207.005 134.35C206.298 135.358 205.375 136.178 204.31 136.743C203.245 137.308 202.069 137.602 200.876 137.602H163.602V132.85" fill="#CC3E21"/>
<path d="M163.61 120.384L163.48 120.391C162.842 120.456 162.344 120.993 162.344 121.648V137.602C162.344 138.3 162.911 138.866 163.61 138.866H200.883C203.257 138.866 205.52 137.877 207.179 136.137C208.731 134.509 209.637 132.347 209.744 130.08L209.755 129.625C209.755 127.194 208.835 124.851 207.179 123.114C205.52 121.374 203.257 120.384 200.883 120.384H163.61ZM207.215 129.962C207.136 131.638 206.466 133.219 205.345 134.395C204.15 135.648 202.544 136.339 200.883 136.339H164.876V122.911H200.883C202.544 122.911 204.15 123.602 205.345 124.855C206.541 126.11 207.223 127.825 207.223 129.625L207.215 129.962Z" fill="#052429"/>
<path d="M173.866 125.198C174.986 125.198 176.06 125.665 176.852 126.495C177.644 127.326 178.089 128.453 178.089 129.628C178.089 130.803 177.644 131.93 176.852 132.76C176.06 133.591 174.986 134.058 173.866 134.058H136.592C136.143 134.058 135.714 134.245 135.397 134.577C135.08 134.909 134.902 135.36 134.902 135.83C134.902 136.3 135.08 136.751 135.397 137.084C135.714 137.416 136.143 137.603 136.592 137.603H173.866C175.883 137.603 177.817 136.762 179.244 135.266C180.67 133.77 181.471 131.741 181.471 129.625C181.471 127.509 180.67 125.48 179.244 123.984C177.817 122.488 175.883 121.647 173.866 121.647H136.592C136.143 121.647 135.714 121.834 135.397 122.167C135.08 122.499 134.902 122.95 134.902 123.42C134.902 123.89 135.08 124.341 135.397 124.673C135.714 125.005 136.143 125.192 136.592 125.192L173.866 125.198Z" fill="#E95739"/>
<path d="M181.468 129.628C181.468 127.513 180.667 125.484 179.242 123.989C177.816 122.493 175.882 121.653 173.866 121.653H136.592C136.143 121.653 135.714 121.84 135.397 122.172C135.08 122.505 134.902 122.955 134.902 123.425C134.902 123.895 135.08 124.346 135.397 124.679C135.714 125.011 136.143 125.198 136.592 125.198H173.866C174.985 125.199 176.058 125.666 176.849 126.497C177.641 127.327 178.085 128.454 178.085 129.628H181.468Z" fill="#E95739"/>
<path d="M136.168 123.42C136.169 123.265 136.227 123.129 136.314 123.038C136.377 122.971 136.451 122.933 136.522 122.918L136.592 122.911H173.865C175.526 122.911 177.132 123.602 178.327 124.855C179.523 126.11 180.205 127.825 180.205 129.625L180.197 129.962C180.118 131.638 179.448 133.219 178.327 134.395C177.132 135.648 175.526 136.339 173.865 136.339H136.592C136.5 136.339 136.399 136.301 136.314 136.212C136.227 136.121 136.168 135.985 136.168 135.83C136.168 135.676 136.227 135.54 136.314 135.448C136.399 135.359 136.5 135.322 136.592 135.322H173.865C175.342 135.322 176.746 134.706 177.77 133.632C178.792 132.56 179.355 131.118 179.355 129.628C179.355 128.138 178.791 126.697 177.77 125.625C176.746 124.551 175.343 123.935 173.866 123.935L136.592 123.929L136.522 123.921C136.451 123.906 136.377 123.869 136.314 123.803C136.227 123.712 136.168 123.574 136.168 123.42ZM133.636 123.42C133.636 124.205 133.933 124.97 134.48 125.544C134.995 126.084 135.693 126.413 136.441 126.452L136.592 126.456L173.865 126.462C174.629 126.462 175.375 126.779 175.935 127.366C176.497 127.956 176.823 128.768 176.823 129.628C176.823 130.488 176.497 131.3 175.935 131.89C175.375 132.477 174.629 132.795 173.865 132.795H136.592C135.787 132.795 135.029 133.13 134.48 133.706C133.933 134.28 133.636 135.045 133.636 135.83C133.636 136.616 133.933 137.381 134.48 137.955C135.029 138.53 135.787 138.866 136.592 138.866H173.865C176.239 138.866 178.502 137.877 180.16 136.137C181.713 134.509 182.619 132.347 182.726 130.08L182.737 129.625C182.737 127.194 181.817 124.851 180.16 123.114C178.502 121.374 176.239 120.384 173.865 120.384H136.592L136.441 120.388C135.693 120.427 134.995 120.756 134.48 121.296C133.933 121.87 133.636 122.634 133.636 123.42Z" fill="#052429"/>
<path d="M136.589 134.058V125.198H173.863C174.983 125.198 176.057 125.664 176.849 126.495C177.641 127.326 178.086 128.453 178.086 129.628C178.086 130.803 177.641 131.93 176.849 132.76C176.057 133.591 174.983 134.058 173.863 134.058H136.589Z" fill="white"/>
<path d="M136.589 123.934L136.459 123.941C135.821 124.006 135.323 124.544 135.323 125.198V134.058C135.323 134.756 135.89 135.321 136.589 135.321H173.862C175.339 135.321 176.743 134.706 177.767 133.631C178.789 132.559 179.352 131.118 179.352 129.628C179.352 128.138 178.789 126.696 177.767 125.624C176.743 124.55 175.339 123.934 173.862 123.934H136.589ZM176.82 129.628C176.82 130.488 176.494 131.301 175.932 131.89C175.372 132.477 174.626 132.794 173.862 132.794H137.855V126.462H173.862C174.626 126.462 175.372 126.779 175.932 127.367C176.494 127.956 176.82 128.769 176.82 129.628Z" fill="#052429"/>
<path d="M190.165 137.603H195.162C197.18 137.603 199.114 136.762 200.54 135.266C201.967 133.77 202.768 131.741 202.768 129.625C202.768 127.509 201.967 125.48 200.54 123.984C199.114 122.488 197.18 121.647 195.162 121.647H190.165C192.182 121.647 194.116 122.488 195.543 123.984C196.969 125.48 197.77 127.509 197.77 129.625C197.77 131.741 196.969 133.77 195.543 135.266C194.116 136.762 192.182 137.603 190.165 137.603Z" fill="#F4763A"/>
<path d="M199.037 129.625C199.037 127.194 198.116 124.851 196.46 123.114C196.435 123.087 196.409 123.062 196.384 123.037C197.595 123.289 198.726 123.913 199.623 124.855C200.82 126.11 201.502 127.825 201.502 129.625C201.502 131.425 200.82 133.14 199.623 134.395C198.726 135.336 197.596 135.96 196.385 136.212C196.41 136.187 196.436 136.163 196.46 136.137C198.116 134.4 199.037 132.056 199.037 129.625ZM196.505 129.625C196.505 131.425 195.821 133.14 194.625 134.395C193.505 135.569 192.024 136.25 190.475 136.331L190.165 136.339L190.035 136.346C189.397 136.41 188.899 136.948 188.899 137.602C188.899 138.257 189.397 138.795 190.035 138.86L190.165 138.866H195.162C197.536 138.866 199.799 137.877 201.457 136.137C203.114 134.4 204.034 132.056 204.034 129.625C204.034 127.194 203.114 124.851 201.457 123.114C199.799 121.374 197.536 120.384 195.162 120.384H190.165C189.466 120.384 188.899 120.95 188.899 121.648C188.899 122.345 189.466 122.911 190.165 122.911C191.825 122.911 193.431 123.602 194.625 124.855C195.821 126.11 196.505 127.825 196.505 129.625Z" fill="#052429"/>
<path d="M160.613 120.224C162.119 121.052 163.791 121.492 165.491 121.509C167.191 121.526 168.871 121.119 170.392 120.322C171.912 121.119 173.592 121.526 175.292 121.509C176.992 121.492 178.663 121.052 180.169 120.224C185.267 117.423 187.109 112.991 188.382 103.645C188.99 99.1704 185.882 94.7216 182.333 92.1587C180.593 90.9028 178.553 90.1813 176.444 90.0754C174.334 89.9695 172.238 90.4834 170.392 91.5593C168.545 90.4835 166.449 89.9695 164.339 90.0754C162.229 90.1813 160.189 90.9028 158.449 92.1587C154.9 94.7216 151.792 99.1704 152.401 103.645C153.659 112.883 155.482 117.404 160.613 120.224Z" fill="#E95739"/>
<path d="M170.172 86.0228L168.869 86.3102C167.5 86.6178 166.087 86.6396 164.71 86.3743C163.333 86.1091 162.02 85.5619 160.844 84.7641C159.669 83.9663 158.655 82.9335 157.86 81.7247C157.066 80.5159 156.506 79.1547 156.212 77.7189L155.938 76.3519C155.864 75.9903 155.929 75.6125 156.12 75.3015C156.311 74.9905 156.612 74.7716 156.956 74.6931L158.26 74.4057C159.628 74.0978 161.042 74.0758 162.419 74.341C163.795 74.6061 165.109 75.1531 166.284 75.9507C167.46 76.7484 168.474 77.7811 169.268 78.9899C170.063 80.1986 170.623 81.5598 170.916 82.9956L171.19 84.3626C171.265 84.7243 171.199 85.1021 171.008 85.4132C170.817 85.7244 170.517 85.9436 170.172 86.0228Z" fill="#6DD627"/>
<path d="M171.096 85.2411C171.01 85.4384 170.881 85.6118 170.719 85.7476C170.558 85.8833 170.368 85.9777 170.166 86.023L168.863 86.3105C167.494 86.6185 166.08 86.6406 164.703 86.3754C163.326 86.1103 162.013 85.5632 160.837 84.7654C159.662 83.9675 158.648 82.9346 157.853 81.7256C157.059 80.5165 156.499 79.1551 156.206 77.7191L155.932 76.3521C155.889 76.14 155.893 75.9203 155.944 75.7102C155.996 75.5002 156.094 75.3056 156.229 75.1418L171.096 85.2411Z" fill="#46B000"/>
<path d="M162.659 73.0998C161.112 72.8019 159.524 72.8267 157.986 73.1718L156.683 73.4591L156.674 73.4611L156.421 73.5321C155.843 73.7283 155.357 74.1255 155.04 74.6417C154.679 75.2298 154.56 75.9349 154.698 76.6062L154.972 77.9715C155.297 79.5621 155.918 81.0731 156.802 82.4177C157.686 83.7626 158.817 84.9158 160.133 85.8087C161.448 86.7017 162.922 87.3169 164.47 87.6152C166.018 87.9135 167.608 87.889 169.147 87.5432L170.446 87.2559L170.457 87.2539C171.145 87.0957 171.726 86.6619 172.088 86.0723C172.448 85.4845 172.569 84.7799 172.431 84.1088L172.158 82.7475L172.157 82.7435L172.022 82.1502C171.673 80.777 171.101 79.4728 170.327 78.2963C169.443 76.9515 168.312 75.7981 166.996 74.9053C165.681 74.0125 164.207 73.3979 162.659 73.0998ZM158.538 75.6378C159.737 75.3683 160.974 75.3494 162.179 75.5815C163.384 75.8136 164.537 76.293 165.572 76.9952C166.607 77.6977 167.505 78.6105 168.21 79.6833C168.915 80.756 169.415 81.9673 169.676 83.248L169.95 84.6152C169.961 84.6675 169.95 84.7189 169.928 84.7534C169.908 84.7861 169.889 84.7907 169.888 84.7909L168.596 85.0762L168.14 85.167C167.084 85.348 166.005 85.3367 164.95 85.1335C163.745 84.9012 162.592 84.4212 161.557 83.7188C160.522 83.0163 159.624 82.1044 158.919 81.0317C158.213 79.9588 157.714 78.7469 157.453 77.466L157.18 76.1037L157.179 76.0968L157.178 76.0228C157.182 75.9996 157.189 75.9785 157.2 75.9616C157.209 75.9457 157.219 75.936 157.226 75.931C157.233 75.9263 157.237 75.9253 157.238 75.9251L158.533 75.6388L158.538 75.6378Z" fill="#052429"/>
<path d="M173.249 73.8204C172.602 73.7182 171.992 74.1246 171.828 74.7434L171.801 74.8708L169.141 91.6104C169.032 92.2996 169.503 92.9473 170.194 93.0566C170.884 93.1656 171.533 92.6952 171.642 92.0062L174.302 75.2656L174.316 75.1373C174.352 74.4979 173.897 73.9229 173.249 73.8204Z" fill="#052429"/>
<path d="M188.046 105.728C187.361 103.087 184.556 100.752 182.33 99.1402C180.591 97.8854 178.552 97.164 176.443 97.0571C174.334 96.9502 172.239 97.462 170.392 98.5351C168.545 97.462 166.449 96.9502 164.34 97.0571C162.231 97.164 160.193 97.8854 158.453 99.1402C156.226 100.752 153.421 103.087 152.737 105.728L152.401 103.645C151.792 99.1704 154.9 94.7216 158.449 92.1587C160.189 90.9028 162.229 90.1813 164.339 90.0754C166.449 89.9695 168.545 90.4835 170.392 91.5593C172.238 90.4834 174.334 89.9695 176.444 90.0754C178.553 90.1813 180.593 90.9028 182.333 92.1587C185.882 94.7216 188.99 99.1704 188.382 103.645L188.046 105.728Z" fill="#E95739"/>
<path d="M164.275 88.8133C162.064 88.9243 159.927 89.6407 158.074 90.8804L157.707 91.1351L157.359 91.3938C153.881 94.0405 150.682 98.5346 151.094 103.335L151.146 103.815C151.779 108.461 152.569 112.062 153.911 114.884C155.28 117.762 157.206 119.794 160.002 121.331H160.003C161.69 122.258 163.567 122.754 165.479 122.773C167.173 122.79 168.847 122.431 170.392 121.728C171.937 122.431 173.61 122.789 175.304 122.772C177.097 122.754 178.859 122.318 180.462 121.5L180.78 121.331C183.556 119.806 185.479 117.803 186.852 114.934C188.113 112.298 188.895 108.963 189.515 104.684L189.637 103.815C190.336 98.6758 186.801 93.8251 183.075 91.1351L182.708 90.8804C180.856 89.6406 178.718 88.9243 176.507 88.8133C174.39 88.707 172.288 89.1616 170.393 90.1223C168.497 89.1609 166.393 88.7069 164.275 88.8133ZM164.403 91.3375C166.263 91.2441 168.116 91.6969 169.753 92.6504C170.098 92.8516 170.516 92.8775 170.879 92.7265L171.03 92.6504C172.667 91.6967 174.52 91.2441 176.381 91.3375C178.125 91.4251 179.821 91.9899 181.299 92.9792L181.591 93.1825C184.964 95.6182 187.645 99.6654 187.127 103.475L187.007 104.331C186.398 108.528 185.662 111.556 184.567 113.844C183.427 116.227 181.881 117.842 179.559 119.118L179.309 119.25C178.05 119.892 176.674 120.232 175.279 120.246C173.791 120.261 172.318 119.905 170.981 119.204L170.839 119.14C170.503 119.014 170.125 119.034 169.802 119.204C168.465 119.905 166.992 120.261 165.503 120.246C164.015 120.231 162.548 119.846 161.223 119.118L160.795 118.873C158.697 117.627 157.268 116.046 156.199 113.8C155.032 111.346 154.281 108.068 153.656 103.475L153.616 103.117C153.305 99.4144 155.924 95.5423 159.191 93.1825V93.1815C160.737 92.0667 162.542 91.4309 164.403 91.3375Z" fill="#052429"/>
</svg>
