<svg width="109" height="50" viewBox="0 0 109 50" fill="none" xmlns="http://www.w3.org/2000/svg">
<path d="M99.9637 50C103.635 50 109 46.9101 109 39.3258C109 33.4307 104.196 28.6517 98.2694 28.6517C97.2918 28.6517 96.3446 28.7817 95.4446 29.0254C95.0233 29.1395 94.5982 28.7871 94.6562 28.3566C94.8044 27.2587 94.8808 26.1382 94.8808 25C94.8808 11.1929 83.6288 0 69.7487 0C61.2741 0 53.7791 4.17253 49.2268 10.565C49.04 10.8273 48.6728 10.889 48.4091 10.7034C44.8644 8.20795 40.5357 6.74157 35.8627 6.74157C25.4541 6.74157 16.7538 14.0166 14.62 23.7338C14.5569 24.0211 14.2872 24.2176 13.9924 24.1952C13.6615 24.1701 13.3271 24.1573 12.9896 24.1573C5.81568 24.1573 0 29.9424 0 37.0787C0 44.2149 5.81568 50 12.9896 50H99.9637Z" fill="#5DE1E6"/>
</svg>
