<svg width="264" height="114" viewBox="0 0 264 114" fill="none" xmlns="http://www.w3.org/2000/svg">
<path d="M16.1085 114C8.5017 114 0 109.547 0 97.0781C0 87.7324 7.61268 80.1562 17.0034 80.1562C19.4082 80.1562 21.6964 80.6531 23.77 81.5492C24.4482 81.8424 25.2482 81.3009 25.1866 80.5676C25.1012 79.5511 25.0576 78.5228 25.0576 77.4844C25.0576 57.3174 41.485 40.9688 61.7492 40.9688C64.5948 40.9688 67.3648 41.2912 70.0243 41.9012C70.5015 42.0107 70.985 41.7292 71.12 41.2606C77.9833 17.4354 100.037 0 126.183 0C154.743 0 178.421 20.804 182.75 48.0155C182.861 48.7133 183.703 49.0408 184.264 48.608C190.471 43.8192 198.264 40.9688 206.725 40.9688C225.383 40.9688 240.788 54.8276 243.113 72.7655C243.133 72.9171 243.263 73.0312 243.417 73.0312C254.785 73.0312 264 82.2024 264 93.5156C264 104.829 254.785 114 243.417 114H16.1085Z" fill="#5DE1E6"/>
</svg>
