<svg width="192" height="83" viewBox="0 0 192 83" fill="none" xmlns="http://www.w3.org/2000/svg">
<path d="M180.285 83C185.817 83 192 79.7578 192 70.6797C192 63.8754 186.464 58.3594 179.634 58.3594C177.885 58.3594 176.221 58.7211 174.713 59.3736C174.219 59.587 173.638 59.1928 173.682 58.6589C173.745 57.9188 173.776 57.1701 173.776 56.4141C173.776 41.7311 161.829 29.8281 147.092 29.8281C145.022 29.8281 143.007 30.0629 141.073 30.507C140.726 30.5868 140.375 30.3818 140.276 30.0406C135.285 12.6942 119.246 0 100.231 0C79.4596 0 62.2394 15.1468 59.0907 34.9586C59.01 35.4667 58.3975 35.7052 57.9895 35.39C53.4753 31.9035 47.808 29.8281 41.6542 29.8281C28.0852 29.8281 16.8817 39.9183 15.1903 52.9784C15.176 53.0888 15.0812 53.1719 14.9695 53.1719C6.7021 53.1719 0 59.8491 0 68.0859C0 76.3227 6.7021 83 14.9695 83H180.285Z" fill="#5DE1E6"/>
</svg>
