<svg width="87" height="40" viewBox="0 0 87 40" fill="none" xmlns="http://www.w3.org/2000/svg">
<path d="M7.21244 40C4.28238 40 0 37.5281 0 31.4607C0 26.7445 3.83458 22.9213 8.56477 22.9213C9.34511 22.9213 10.1011 23.0254 10.8195 23.2203C11.1557 23.3116 11.495 23.0297 11.4487 22.6853C11.3305 21.807 11.2694 20.9106 11.2694 20C11.2694 8.95431 20.2504 0 31.329 0C38.0932 0 44.0754 3.33802 47.7089 8.45201C47.858 8.6618 48.1511 8.71121 48.3616 8.56269C51.1908 6.56636 54.6459 5.39326 58.3756 5.39326C66.6834 5.39326 73.6277 11.2133 75.3308 18.9871C75.3812 19.2169 75.5965 19.3741 75.8317 19.3562C76.0959 19.3361 76.3628 19.3258 76.6321 19.3258C82.3581 19.3258 87 23.9539 87 29.6629C87 35.3719 82.3581 40 76.6321 40H7.21244Z" fill="#5DE1E6"/>
</svg>
