<svg width="21" height="15" viewBox="0 0 21 15" fill="none" xmlns="http://www.w3.org/2000/svg">
<path d="M9.22492 10.7237L18.2249 1.72367C18.2946 1.65398 18.3773 1.59871 18.4684 1.561C18.5594 1.52328 18.657 1.50387 18.7555 1.50387C18.8541 1.50387 18.9517 1.52328 19.0427 1.561C19.1338 1.59871 19.2165 1.65398 19.2862 1.72367C19.3559 1.79335 19.4111 1.87607 19.4488 1.96712C19.4866 2.05816 19.506 2.15575 19.506 2.25429C19.506 2.35284 19.4866 2.45042 19.4488 2.54146C19.4111 2.63251 19.3559 2.71523 19.2862 2.78492L10.2862 11.7849C10.2165 11.8546 10.1338 11.9099 10.0427 11.9476C9.95167 11.9853 9.85409 12.0047 9.75555 12.0047C9.657 12.0047 9.55942 11.9853 9.46837 11.9476C9.37733 11.9099 9.2946 11.8546 9.22492 11.7849C9.15524 11.7152 9.09996 11.6325 9.06225 11.5415C9.02454 11.4504 9.00513 11.3528 9.00513 11.2543C9.00513 11.1557 9.02454 11.0582 9.06225 10.9671C9.09996 10.8761 9.15524 10.7933 9.22492 10.7237ZM10.5055 4.50429C11.157 4.50347 11.8043 4.60891 12.4218 4.81648C12.5156 4.84972 12.615 4.86398 12.7143 4.85842C12.8136 4.85286 12.9109 4.8276 13.0003 4.78411C13.0898 4.74062 13.1697 4.67977 13.2354 4.60509C13.3011 4.53042 13.3514 4.44342 13.3831 4.34915C13.4149 4.25489 13.4276 4.15524 13.4205 4.05602C13.4134 3.9568 13.3866 3.85998 13.3417 3.77121C13.2969 3.68243 13.2348 3.60347 13.1591 3.53892C13.0834 3.47437 12.9956 3.42553 12.9009 3.39523C11.7057 2.9923 10.4281 2.8973 9.1865 3.11901C7.94485 3.34073 6.77917 3.87201 5.79729 4.6637C4.81542 5.45539 4.04906 6.48191 3.56911 7.64832C3.08917 8.81472 2.91113 10.0833 3.05148 11.3368C3.07177 11.5201 3.1589 11.6895 3.29622 11.8127C3.43354 11.9358 3.61142 12.004 3.79586 12.0043C3.82305 12.0043 3.85117 12.0043 3.8793 11.9996C4.07695 11.9777 4.25781 11.8782 4.3821 11.7229C4.5064 11.5677 4.56395 11.3695 4.54211 11.1718C4.5177 10.9501 4.5055 10.7273 4.50555 10.5043C4.50728 8.91352 5.13998 7.38841 6.26482 6.26357C7.38967 5.13873 8.91478 4.50603 10.5055 4.50429ZM19.8562 5.72304C19.8112 5.63538 19.7495 5.55744 19.6744 5.49365C19.5993 5.42986 19.5125 5.38148 19.4187 5.35127C19.3249 5.32106 19.2262 5.30962 19.128 5.31759C19.0298 5.32556 18.9341 5.35279 18.8465 5.39773C18.7588 5.44267 18.6809 5.50443 18.6171 5.57949C18.5533 5.65455 18.5049 5.74144 18.4747 5.8352C18.4445 5.92896 18.4331 6.02775 18.441 6.12593C18.449 6.22411 18.4762 6.31976 18.5212 6.40742C19.076 7.49705 19.4037 8.68807 19.4843 9.90819C19.5649 11.1283 19.3967 12.3521 18.9899 13.5052L2.0118 13.4987C1.5381 12.1408 1.39585 10.6894 1.59689 9.26543C1.79793 7.84145 2.33645 6.48615 3.16755 5.31252C3.99865 4.13889 5.09826 3.18092 6.3747 2.51848C7.65115 1.85604 9.06745 1.50831 10.5055 1.50429H10.588C11.9848 1.51307 13.36 1.85028 14.6024 2.48867C14.6903 2.53704 14.787 2.56729 14.8868 2.57762C14.9866 2.58795 15.0875 2.57815 15.1834 2.5488C15.2794 2.51946 15.3684 2.47116 15.4454 2.40677C15.5223 2.34238 15.5856 2.26321 15.6314 2.17394C15.6772 2.08467 15.7046 1.98712 15.712 1.88706C15.7194 1.78701 15.7067 1.68648 15.6745 1.59144C15.6424 1.49639 15.5915 1.40875 15.5249 1.33372C15.4583 1.25869 15.3774 1.19778 15.2868 1.1546C13.4164 0.196595 11.3017 -0.178162 9.21601 0.0788104C7.13036 0.335783 5.16979 1.21266 3.58792 2.59602C2.00605 3.97937 0.875652 5.80555 0.342957 7.83834C-0.189737 9.87113 -0.100223 12.017 0.599921 13.9984C0.703345 14.2919 0.89515 14.5462 1.14897 14.7264C1.4028 14.9065 1.70618 15.0036 2.01742 15.0043H18.9927C19.3038 15.0045 19.6073 14.9079 19.8611 14.7281C20.1149 14.5482 20.3064 14.2938 20.4093 14.0002C20.8823 12.6548 21.0772 11.2274 20.9821 9.80441C20.8871 8.38145 20.504 6.99261 19.8562 5.7221V5.72304Z" fill="#052429"/>
</svg>
