<svg width="14" height="14" viewBox="0 0 14 14" fill="none" xmlns="http://www.w3.org/2000/svg">
<path d="M0.220351 1.28104L10.9407 12.0004H3.00098C2.80206 12.0004 2.6113 12.0794 2.47065 12.2201C2.32999 12.3607 2.25098 12.5515 2.25098 12.7504C2.25098 12.9493 2.32999 13.1401 2.47065 13.2807C2.6113 13.4214 2.80206 13.5004 3.00098 13.5004H12.751C12.9499 13.5004 13.1407 13.4214 13.2813 13.2807C13.422 13.1401 13.501 12.9493 13.501 12.7504V3.00042C13.501 2.8015 13.422 2.61074 13.2813 2.47009C13.1407 2.32943 12.9499 2.25042 12.751 2.25042C12.5521 2.25042 12.3613 2.32943 12.2206 2.47009C12.08 2.61074 12.001 2.8015 12.001 3.00042V10.9401L1.2816 0.219792C1.21192 0.150109 1.12919 0.0948341 1.03815 0.0571221C0.947104 0.0194101 0.849523 0 0.750977 0C0.652431 0 0.554849 0.0194101 0.463804 0.0571221C0.37276 0.0948341 0.290034 0.150109 0.220351 0.219792C0.150668 0.289475 0.0953941 0.3722 0.057682 0.463245C0.0199699 0.554289 0.000558853 0.651871 0.000558853 0.750417C0.000558853 0.848963 0.0199699 0.946545 0.057682 1.03759C0.0953941 1.12863 0.150668 1.21136 0.220351 1.28104Z" fill="#F4763A"/>
</svg>
