<svg width="35" height="35" viewBox="0 0 35 35" fill="none" xmlns="http://www.w3.org/2000/svg">
<circle cx="17.477" cy="17.477" r="17.477" fill="#DA474A"/>
<path d="M25.6078 18.6227C22.7007 19.0006 20.7315 17.4256 20.3298 14.3352C19.9289 11.2513 21.4692 9.22002 24.2585 8.85742C26.046 8.62506 27.4901 9.18305 28.3717 10.4334C28.5663 10.701 28.6906 10.9912 28.728 11.2793C28.808 11.8947 28.4409 12.3486 27.8124 12.4303C27.282 12.4993 26.9265 12.3257 26.5965 11.836C26.0569 11.0139 25.3665 10.6709 24.5349 10.779C23.2254 10.9492 22.5394 12.177 22.7777 14.0103C23.0186 15.8632 23.9892 16.8756 25.3118 16.7037C26.1826 16.5905 26.7632 16.0889 27.0534 15.1456C27.235 14.596 27.5024 14.3482 28.0065 14.2827C28.6875 14.1942 29.1881 14.5619 29.2706 15.197C29.3004 15.4262 29.2787 15.6687 29.2102 15.9106C28.8151 17.3269 27.4215 18.387 25.6078 18.6227Z" fill="#9E1316"/>
<path d="M15.3538 27.9138C14.5936 27.8201 14.2045 27.3065 14.303 26.507L15.1579 19.5673C15.2564 18.7678 15.7585 18.364 16.5186 18.4576L19.71 18.8508C21.5711 19.08 22.5811 20.1158 22.4011 21.5772C22.2703 22.6388 21.3667 23.3857 20.3004 23.4007L20.294 23.4531C21.5646 23.6695 22.4567 24.744 22.3017 26.0022C22.0974 27.6601 20.688 28.5709 18.6631 28.3214L15.3538 27.9138ZM17.2432 22.4586L18.4817 22.6112C19.3533 22.7185 19.9284 22.3703 20.0124 21.6887C20.0939 21.0269 19.6705 20.5756 18.8645 20.4763L17.508 20.3092L17.2432 22.4586ZM16.7629 26.3577L18.1915 26.5337C19.181 26.6556 19.7847 26.2909 19.8832 25.4914C19.9785 24.7181 19.4682 24.2162 18.4786 24.0943L17.0632 23.9199L16.7629 26.3577Z" fill="#9E1316"/>
<path d="M5.38663 20.4345C4.62646 20.341 4.2144 19.8512 4.30229 19.1369C4.32729 18.9338 4.4291 18.6469 4.56944 18.3715L7.69101 12.2495C8.15686 11.3289 8.79413 10.9616 9.73124 11.0769C10.7208 11.1987 11.2459 11.689 11.4853 12.7164L13.0493 19.4149C13.1228 19.7366 13.1413 19.9651 13.1106 20.2141C13.0276 20.8891 12.4641 21.3054 11.7629 21.2191C11.0683 21.1336 10.7466 20.7747 10.632 19.9756L10.4399 18.8876L7.20262 18.4893L6.75733 19.459C6.4296 20.2302 6.02885 20.5135 5.38663 20.4345ZM7.90437 16.7329L10.139 17.0079L9.47986 13.228L9.42743 13.2215L7.90437 16.7329Z" fill="#9E1316"/>
</svg>
