<svg width="60" height="60" viewBox="0 0 60 60" fill="none" xmlns="http://www.w3.org/2000/svg">
<circle cx="29.6081" cy="29.6081" r="26.8646" transform="rotate(-6.19816 29.6081 29.6081)" fill="#64DF5F"/>
<path d="M34.3155 18.3251C31.6463 18.615 29.4588 20.0948 28.3172 22.3006C26.7287 20.3913 24.2745 19.4156 21.6053 19.7055C19.5837 19.9275 17.7345 20.9583 16.4632 22.5719C15.1919 24.1855 14.6024 26.25 14.8241 28.3127C15.2352 32.0985 17.9764 35.7873 22.9718 39.2746C25.2601 40.8649 27.6931 42.2261 30.2368 43.3392C30.3544 43.388 30.4819 43.4064 30.6078 43.3927C30.7338 43.379 30.8544 43.3337 30.9587 43.2608C33.2042 41.6276 35.2883 39.7758 37.1818 37.7314C41.3122 33.253 43.1975 29.0617 42.7864 25.2759C42.56 23.2138 41.5411 21.3239 39.953 20.0209C38.365 18.7178 36.3376 18.108 34.3155 18.3251ZM30.426 41.7183C28.2069 40.717 17.1338 35.3711 16.3493 28.147C16.1718 26.4969 16.6433 24.8451 17.6603 23.5542C18.6774 22.2633 20.1569 21.4387 21.7743 21.2613C24.3519 20.9813 26.6689 22.1504 27.822 24.3129C27.8949 24.4494 28.0059 24.5608 28.1409 24.633C28.2758 24.7053 28.4286 24.7351 28.5798 24.7186C28.731 24.7022 28.8738 24.6403 28.9901 24.5408C29.1064 24.4413 29.1909 24.3086 29.2328 24.1597C29.8948 21.8 31.9068 20.1609 34.4844 19.8809C36.1021 19.707 37.7242 20.1948 38.9947 21.2373C40.2652 22.2797 41.0803 23.7918 41.2611 25.4416C42.0457 32.6657 32.3784 40.264 30.426 41.7183Z" fill="#ADFFAB"/>
</svg>
