<svg width="145" height="143" viewBox="0 0 145 143" fill="none" xmlns="http://www.w3.org/2000/svg">
<ellipse cx="75.7778" cy="74.1491" rx="60.6973" ry="60.7838" transform="rotate(-7.418 75.7778 74.1491)" fill="#E7BC13"/>
<circle cx="71.0604" cy="70.7618" r="60.4799" transform="rotate(7.15571 71.0604 70.7618)" fill="#F9CF25"/>
<path d="M81.8235 104.197C81.765 104.663 81.5254 105.087 81.1573 105.375C80.7892 105.664 80.3229 105.793 79.8608 105.735L56.633 102.819C56.171 102.761 55.7511 102.52 55.4658 102.15C55.1805 101.779 55.053 101.309 55.1115 100.843C55.1701 100.377 55.4097 99.9533 55.7778 99.6648C56.1459 99.3763 56.6122 99.2468 57.0742 99.3048L80.302 102.221C80.7641 102.279 81.1839 102.52 81.4693 102.89C81.7546 103.261 81.882 103.731 81.8235 104.197ZM98.1438 68.1673C97.6743 71.9859 96.3461 75.6477 94.2605 78.8732C92.175 82.0987 89.3873 84.8026 86.1101 86.7786C85.4084 87.1941 84.8098 87.7657 84.36 88.4496C83.9102 89.1335 83.6211 89.9117 83.5149 90.7247L83.2943 92.482C83.1577 93.5694 82.5985 94.5585 81.7397 95.2318C80.8808 95.905 79.7927 96.2072 78.7146 96.0718L60.1324 93.7389C59.0543 93.6036 58.0746 93.0418 57.4089 92.1772C56.7431 91.3125 56.4458 90.2159 56.5823 89.1284L56.8029 87.3712C56.9032 86.566 56.8193 85.7487 56.5577 84.9821C56.2961 84.2154 55.8637 83.5198 55.2937 82.9485C52.6143 80.2402 50.582 76.9517 49.3503 73.3317C48.1187 69.7116 47.72 65.8548 48.1845 62.0529C49.8231 48.3897 62.181 38.4017 75.7349 39.7701C79.0744 40.1072 82.3118 41.1147 85.2567 42.7333C88.2015 44.3519 90.7943 46.5489 92.8823 49.195C94.9704 51.841 96.5116 54.8827 97.4151 58.1409C98.3187 61.3992 98.5665 64.8082 98.1438 68.1673ZM94.6596 67.7299C95.0233 64.8393 94.8101 61.9057 94.0325 59.1019C93.2549 56.2981 91.9285 53.6807 90.1315 51.4038C88.3346 49.1269 86.1033 47.2365 83.569 45.8438C81.0348 44.4512 78.2488 43.5845 75.375 43.2947C63.7127 42.1281 53.0825 50.7118 51.6727 62.4581C51.2731 65.7302 51.6162 69.0495 52.6761 72.165C53.736 75.2805 55.485 78.1108 57.7908 80.4418C58.7382 81.3943 59.4559 82.5536 59.8887 83.8308C60.3214 85.1079 60.4577 86.4687 60.2871 87.8086L60.0664 89.5658C60.0469 89.7212 60.0894 89.8779 60.1845 90.0014C60.2796 90.1249 60.4196 90.2051 60.5736 90.2245L79.1558 92.5574C79.3099 92.5767 79.4653 92.5335 79.588 92.4374C79.7107 92.3412 79.7906 92.1999 79.8101 92.0445L80.0307 90.2873C80.2031 88.9427 80.6775 87.6548 81.4177 86.5218C82.1579 85.3888 83.1444 84.4406 84.3021 83.7493C87.1236 82.0494 89.5237 79.7222 91.3188 76.9458C93.114 74.1693 94.2567 71.017 94.6596 67.7299ZM89.1603 64.3621C88.9905 61.0148 87.8077 57.8026 85.7712 55.1577C83.7346 52.5129 80.9421 50.5624 77.7695 49.5689C77.5487 49.5021 77.3168 49.4799 77.0872 49.5035C76.8576 49.5271 76.6347 49.596 76.4313 49.7064C76.0206 49.9293 75.7142 50.3074 75.5794 50.7576C75.4447 51.2078 75.4927 51.6931 75.7129 52.1068C75.9331 52.5205 76.3074 52.8287 76.7535 52.9636C81.6924 54.4523 85.4323 59.3128 85.6491 64.5163C85.6663 64.934 85.8295 65.3319 86.11 65.6393C86.3904 65.9468 86.7699 66.144 87.1812 66.1961C87.2785 66.2076 87.3765 66.2119 87.4745 66.2091C87.7053 66.1995 87.9321 66.144 88.1418 66.046C88.3515 65.9479 88.5401 65.8091 88.6967 65.6375C88.8533 65.466 88.9749 65.265 89.0544 65.0461C89.134 64.8273 89.17 64.5948 89.1603 64.3621Z" fill="#FFEC9F"/>
</svg>
