<svg width="351" height="151" viewBox="0 0 351 151" fill="none" xmlns="http://www.w3.org/2000/svg">
<path d="M69.4868 72.7543C81.8148 84.7085 90.5557 93.696 95.7126 99.7154C98.3705 102.726 99.7008 105.267 99.7008 107.341C99.7008 109.415 98.0876 111.854 94.8641 114.658C91.6436 117.463 89.0062 118.864 86.9515 118.864C84.8967 118.864 82.4178 117.157 79.5179 113.744L52.9283 83.1241V106.91C52.9283 108.865 52.8662 110.289 52.7438 111.186C52.6238 112.08 52.2429 113.136 51.601 114.355C50.4696 116.55 47.3256 117.647 42.1703 117.647C36.533 117.647 33.2302 116.101 32.2606 113.01C31.7788 111.709 31.5392 109.635 31.5392 106.788V38.9658C31.5392 37.0942 31.5985 35.6902 31.7181 34.7537C31.8364 33.8189 32.2201 32.7413 32.8667 31.5207C33.9934 29.3273 37.1347 28.2291 42.2916 28.2291C47.9317 28.2291 51.275 29.7352 52.3224 32.7441C52.7263 34.1277 52.9283 36.2422 52.9283 39.088V62.3848C63.8855 49.9413 72.7491 39.7348 79.5179 31.7653C82.3372 28.433 84.7942 26.767 86.888 26.767C88.9843 26.767 91.6436 28.171 94.8641 30.9787C98.0876 33.784 99.7008 36.2218 99.7008 38.2958C99.7008 40.3667 98.4915 42.8253 96.0761 45.671C91.4012 51.121 84.1479 58.6025 74.3177 68.1172L69.4868 72.7543Z" fill="#10C0DF"/>
<path d="M108.764 38.9658C108.764 37.0942 108.824 35.6902 108.943 34.7537C109.062 33.8189 109.446 32.741 110.092 31.5207C111.219 29.3272 114.36 28.2291 119.517 28.2291C125.157 28.2291 128.5 29.7349 129.548 32.744C129.952 34.1276 130.154 36.2422 130.154 39.088V106.91C130.154 108.865 130.092 110.289 129.969 111.186C129.849 112.08 129.468 113.136 128.826 114.355C127.695 116.55 124.551 117.647 119.396 117.647C113.758 117.647 110.455 116.101 109.486 113.009C109.004 111.709 108.764 109.635 108.764 106.788V38.9658Z" fill="#10C0DF"/>
<path d="M181.396 27.1339C193.319 27.1339 203.671 31.4857 212.453 40.1892C221.238 48.8899 225.629 59.6847 225.629 72.5737C225.629 85.4643 221.437 96.4443 213.057 105.512C204.677 114.577 194.366 119.109 182.117 119.109C169.873 119.109 159.461 114.638 150.882 105.692C142.301 96.7443 138.012 86.0921 138.012 73.733C138.012 66.9842 139.219 60.6603 141.636 54.7649C144.051 48.8664 147.275 43.9234 151.303 39.9386C155.332 35.9539 159.964 32.824 165.201 30.5479C170.437 28.2728 175.835 27.1339 181.396 27.1339ZM159.401 73.1215C159.401 80.3611 161.717 86.2378 166.35 90.7496C170.981 95.2631 176.157 97.5191 181.875 97.5191C187.595 97.5191 192.753 95.3229 197.349 90.9302C201.943 86.5378 204.239 80.6424 204.239 73.2437C204.239 65.8424 201.923 59.9059 197.291 55.4349C192.657 50.9608 187.482 48.7238 181.76 48.7238C176.037 48.7238 170.88 50.9812 166.286 55.493C161.695 60.0065 159.401 65.883 159.401 73.1215Z" fill="#10C0DF"/>
<path d="M275.057 27.1339C286.981 27.1339 297.333 31.4857 306.115 40.1892C314.897 48.8899 319.291 59.6847 319.291 72.5737C319.291 85.4643 315.099 96.4443 306.719 105.512C298.339 114.577 288.025 119.109 275.78 119.109C263.535 119.109 253.122 114.638 244.545 105.692C235.962 96.7443 231.674 86.0921 231.674 73.733C231.674 66.9842 232.882 60.6603 235.297 54.7649C237.713 48.8664 240.938 43.9234 244.966 39.9386C248.994 35.9539 253.626 32.824 258.862 30.5479C264.098 28.2728 269.497 27.1339 275.057 27.1339ZM253.064 73.1215C253.064 80.3611 255.379 86.2378 260.011 90.7496C264.643 95.2631 269.818 97.5191 275.536 97.5191C281.257 97.5191 286.415 95.3229 291.011 90.9302C295.605 86.5378 297.901 80.6424 297.901 73.2437C297.901 65.8424 295.585 59.9059 290.953 55.4349C286.318 50.9608 281.144 48.7238 275.42 48.7238C269.699 48.7238 264.541 50.9812 259.948 55.493C255.357 60.0065 253.064 65.883 253.064 73.1215Z" fill="#10C0DF"/>
<mask id="mask0_197_369" style="mask-type:luminance" maskUnits="userSpaceOnUse" x="198" y="25" width="21" height="21">
<path d="M198.499 25.7849H218.551V45.5598H198.499V25.7849Z" fill="white"/>
</mask>
<g mask="url(#mask0_197_369)">
<mask id="mask1_197_369" style="mask-type:luminance" maskUnits="userSpaceOnUse" x="198" y="25" width="21" height="21">
<path d="M208.517 25.7849C202.984 25.7849 198.499 30.2109 198.499 35.6723C198.499 41.1338 202.984 45.5598 208.517 45.5598C214.049 45.5598 218.537 41.1338 218.537 35.6723C218.537 30.2109 214.049 25.7849 208.517 25.7849Z" fill="white"/>
</mask>
<g mask="url(#mask1_197_369)">
<path d="M198.499 25.7849H218.551V45.5598H198.499V25.7849Z" fill="#10C0DF"/>
</g>
</g>
<mask id="mask2_197_369" style="mask-type:luminance" maskUnits="userSpaceOnUse" x="142" y="25" width="21" height="21">
<path d="M142.566 25.7849H162.617V45.5598H142.566V25.7849Z" fill="white"/>
</mask>
<g mask="url(#mask2_197_369)">
<mask id="mask3_197_369" style="mask-type:luminance" maskUnits="userSpaceOnUse" x="142" y="25" width="21" height="21">
<path d="M152.585 25.7849C147.052 25.7849 142.566 30.2109 142.566 35.6723C142.566 41.1338 147.052 45.5598 152.585 45.5598C158.117 45.5598 162.603 41.1338 162.603 35.6723C162.603 30.2109 158.117 25.7849 152.585 25.7849Z" fill="white"/>
</mask>
<g mask="url(#mask3_197_369)">
<path d="M142.566 25.7849H162.617V45.5598H142.566V25.7849Z" fill="#10C0DF"/>
</g>
</g>
<path d="M235.43 108.143C236.677 109.036 237.583 109.748 238.154 110.281C238.721 110.813 239.259 111.588 239.763 112.606C240.694 114.431 239.927 117.099 237.455 120.61C234.757 124.451 232.153 126.006 229.64 125.276C228.524 124.892 227.014 124.018 225.111 122.655L179.764 90.2004C178.464 89.2681 177.544 88.5473 177.005 88.0389C176.462 87.5291 175.937 86.7646 175.429 85.7437C174.498 83.9216 175.267 81.2551 177.738 77.7452C180.436 73.9031 183.048 72.3928 185.576 73.2129C186.675 73.504 188.18 74.3314 190.083 75.6946L235.43 108.143Z" fill="#10C0DF"/>
<mask id="mask4_197_369" style="mask-type:luminance" maskUnits="userSpaceOnUse" x="174" y="75" width="10" height="8">
<path d="M174.508 75.8328H183.742V82.9166H174.508V75.8328Z" fill="white"/>
</mask>
<g mask="url(#mask4_197_369)">
<mask id="mask5_197_369" style="mask-type:luminance" maskUnits="userSpaceOnUse" x="172" y="72" width="15" height="16">
<path d="M176.818 87.3616L172.072 77.5629L181.531 72.8967L186.276 82.6938L176.818 87.3616Z" fill="white"/>
</mask>
<g mask="url(#mask5_197_369)">
<mask id="mask6_197_369" style="mask-type:luminance" maskUnits="userSpaceOnUse" x="172" y="72" width="15" height="16">
<path d="M176.818 87.3616L172.072 77.5629L181.531 72.8967L186.276 82.6938L176.818 87.3616Z" fill="white"/>
</mask>
<g mask="url(#mask6_197_369)">
<mask id="mask7_197_369" style="mask-type:luminance" maskUnits="userSpaceOnUse" x="172" y="72" width="15" height="16">
<path d="M176.818 87.3616L172.072 77.5629L181.531 72.8967L186.276 82.6938L176.818 87.3616Z" fill="white"/>
</mask>
<g mask="url(#mask7_197_369)">
<path d="M176.906 76.3236C176.654 76.1793 176.364 76.0761 176.076 76.0207C175.453 75.9027 174.968 76.2799 174.882 76.9133C174.83 77.295 174.898 77.6591 175.077 78.045C175.108 78.0945 175.159 78.182 175.214 78.2678C175.538 78.7731 175.983 79.1635 176.446 79.5348C177.186 80.1307 177.998 80.6184 178.811 81.1094C179.995 81.8272 181.249 82.3996 182.552 82.8672C182.818 82.962 183.097 82.8803 183.261 82.6588C183.419 82.4405 183.416 82.1418 183.248 81.922C183.212 81.8753 183.173 81.8303 183.132 81.7881C182.037 80.6592 180.961 79.513 179.818 78.4309C178.938 77.5992 177.951 76.9222 176.906 76.3236Z" fill="#052429"/>
</g>
</g>
</g>
</g>
<mask id="mask8_197_369" style="mask-type:luminance" maskUnits="userSpaceOnUse" x="178" y="73" width="8" height="9">
<path d="M178.571 73.9684H185.22V81.0523H178.571V73.9684Z" fill="white"/>
</mask>
<g mask="url(#mask8_197_369)">
<mask id="mask9_197_369" style="mask-type:luminance" maskUnits="userSpaceOnUse" x="172" y="72" width="15" height="16">
<path d="M176.818 87.3616L172.072 77.5628L181.531 72.8966L186.276 82.6937L176.818 87.3616Z" fill="white"/>
</mask>
<g mask="url(#mask9_197_369)">
<mask id="mask10_197_369" style="mask-type:luminance" maskUnits="userSpaceOnUse" x="172" y="72" width="15" height="16">
<path d="M176.818 87.3616L172.072 77.5628L181.531 72.8966L186.276 82.6937L176.818 87.3616Z" fill="white"/>
</mask>
<g mask="url(#mask10_197_369)">
<mask id="mask11_197_369" style="mask-type:luminance" maskUnits="userSpaceOnUse" x="172" y="72" width="15" height="16">
<path d="M176.818 87.3616L172.072 77.5628L181.531 72.8966L186.276 82.6937L176.818 87.3616Z" fill="white"/>
</mask>
<g mask="url(#mask11_197_369)">
<path d="M178.79 75.3725C178.809 75.6213 178.879 75.8763 178.972 76.1079C179.229 76.7326 179.617 77.2804 180.053 77.7885C181.129 79.0412 182.421 80.0272 183.862 80.8238C183.981 80.8893 184.105 80.9474 184.233 80.9869C184.497 81.0668 184.744 81.0101 184.94 80.8107C185.123 80.6242 185.113 80.3954 185.035 80.1653C185.011 80.094 184.98 80.0241 184.947 79.9542C184.83 79.7095 184.712 79.4662 184.647 79.3323C184.012 78.1556 183.336 77.1551 182.575 76.2113C182.155 75.6898 181.692 75.2078 181.17 74.7869C180.865 74.5422 180.532 74.3412 180.145 74.2436C179.365 74.047 178.73 74.5671 178.79 75.3725Z" fill="#052429"/>
</g>
</g>
</g>
</g>
<mask id="mask12_197_369" style="mask-type:luminance" maskUnits="userSpaceOnUse" x="174" y="81" width="10" height="4">
<path d="M174.139 81.0523H183.004V84.7809H174.139V81.0523Z" fill="white"/>
</mask>
<g mask="url(#mask12_197_369)">
<mask id="mask13_197_369" style="mask-type:luminance" maskUnits="userSpaceOnUse" x="172" y="72" width="15" height="16">
<path d="M176.818 87.3616L172.072 77.5628L181.531 72.8966L186.276 82.6937L176.818 87.3616Z" fill="white"/>
</mask>
<g mask="url(#mask13_197_369)">
<mask id="mask14_197_369" style="mask-type:luminance" maskUnits="userSpaceOnUse" x="172" y="72" width="15" height="16">
<path d="M176.818 87.3616L172.072 77.5628L181.531 72.8966L186.276 82.6937L176.818 87.3616Z" fill="white"/>
</mask>
<g mask="url(#mask14_197_369)">
<mask id="mask15_197_369" style="mask-type:luminance" maskUnits="userSpaceOnUse" x="172" y="72" width="15" height="16">
<path d="M176.818 87.3616L172.072 77.5628L181.531 72.8966L186.276 82.6937L176.818 87.3616Z" fill="white"/>
</mask>
<g mask="url(#mask15_197_369)">
<path d="M179.397 82.2583C178.313 81.8112 177.174 81.5343 176.012 81.3641C175.745 81.326 175.47 81.316 175.201 81.3132C175.059 81.3115 174.916 81.3537 174.775 81.3755C174.535 81.4994 174.407 81.6859 174.371 81.9437C174.338 82.1884 174.413 82.3936 174.564 82.5802C174.745 82.803 174.976 82.9616 175.231 83.0737C175.657 83.263 176.082 83.4568 176.524 83.5997C177.629 83.9593 178.762 84.2157 179.912 84.3978C180.666 84.5186 181.428 84.5653 182.194 84.5653C182.474 84.5639 182.73 84.3992 182.82 84.159C182.911 83.9199 182.838 83.6752 182.585 83.4948C182.444 83.3928 182.281 83.3097 182.116 83.2502C181.21 82.918 180.29 82.6266 179.397 82.2583Z" fill="#052429"/>
</g>
</g>
</g>
</g>
<mask id="mask16_197_369" style="mask-type:luminance" maskUnits="userSpaceOnUse" x="231" y="116" width="9" height="8">
<path d="M231.391 116.472H239.888V123.183H231.391V116.472Z" fill="white"/>
</mask>
<g mask="url(#mask16_197_369)">
<mask id="mask17_197_369" style="mask-type:luminance" maskUnits="userSpaceOnUse" x="228" y="112" width="15" height="15">
<path d="M237.353 112.166L242.481 121.447L233.768 126.348L228.643 117.066L237.353 112.166Z" fill="white"/>
</mask>
<g mask="url(#mask17_197_369)">
<mask id="mask18_197_369" style="mask-type:luminance" maskUnits="userSpaceOnUse" x="228" y="112" width="15" height="15">
<path d="M237.353 112.166L242.481 121.447L233.768 126.348L228.643 117.066L237.353 112.166Z" fill="white"/>
</mask>
<g mask="url(#mask18_197_369)">
<mask id="mask19_197_369" style="mask-type:luminance" maskUnits="userSpaceOnUse" x="228" y="112" width="15" height="15">
<path d="M237.353 112.166L242.481 121.447L233.768 126.348L228.643 117.066L237.353 112.166Z" fill="white"/>
</mask>
<g mask="url(#mask19_197_369)">
<path d="M237.957 122.846C238.206 122.975 238.489 123.064 238.766 123.105C239.367 123.193 239.805 122.809 239.846 122.193C239.874 121.822 239.788 121.472 239.591 121.106C239.558 121.058 239.506 120.975 239.447 120.895C239.107 120.419 238.661 120.061 238.195 119.718C237.453 119.172 236.649 118.734 235.849 118.293C234.674 117.646 233.444 117.144 232.175 116.745C231.918 116.663 231.654 116.755 231.516 116.975C231.377 117.193 231.4 117.481 231.571 117.687C231.61 117.731 231.649 117.773 231.69 117.812C232.804 118.859 233.901 119.925 235.056 120.924C235.946 121.693 236.926 122.308 237.957 122.846Z" fill="#052429"/>
</g>
</g>
</g>
</g>
<mask id="mask20_197_369" style="mask-type:luminance" maskUnits="userSpaceOnUse" x="229" y="118" width="8" height="8">
<path d="M229.546 118.336H236.563V125.048H229.546V118.336Z" fill="white"/>
</mask>
<g mask="url(#mask20_197_369)">
<mask id="mask21_197_369" style="mask-type:luminance" maskUnits="userSpaceOnUse" x="228" y="112" width="15" height="15">
<path d="M237.353 112.166L242.481 121.447L233.768 126.348L228.643 117.066L237.353 112.166Z" fill="white"/>
</mask>
<g mask="url(#mask21_197_369)">
<mask id="mask22_197_369" style="mask-type:luminance" maskUnits="userSpaceOnUse" x="228" y="112" width="15" height="15">
<path d="M237.353 112.166L242.481 121.447L233.768 126.348L228.643 117.066L237.353 112.166Z" fill="white"/>
</mask>
<g mask="url(#mask22_197_369)">
<mask id="mask23_197_369" style="mask-type:luminance" maskUnits="userSpaceOnUse" x="228" y="112" width="15" height="15">
<path d="M237.353 112.166L242.481 121.447L233.768 126.348L228.643 117.066L237.353 112.166Z" fill="white"/>
</mask>
<g mask="url(#mask23_197_369)">
<path d="M236.223 123.843C236.189 123.603 236.109 123.359 236.004 123.14C235.721 122.544 235.319 122.031 234.871 121.556C233.768 120.388 232.477 119.487 231.056 118.775C230.94 118.716 230.818 118.664 230.693 118.632C230.435 118.565 230.205 118.631 230.031 118.83C229.867 119.018 229.892 119.239 229.978 119.459C230.006 119.528 230.042 119.595 230.075 119.66C230.203 119.892 230.333 120.122 230.402 120.25C231.078 121.363 231.787 122.304 232.568 123.186C233.001 123.673 233.472 124.12 233.995 124.506C234.3 124.732 234.63 124.912 235.004 124.991C235.757 125.149 236.333 124.619 236.223 123.843Z" fill="#052429"/>
</g>
</g>
</g>
</g>
<mask id="mask24_197_369" style="mask-type:luminance" maskUnits="userSpaceOnUse" x="231" y="114" width="10" height="4">
<path d="M231.762 114.981H240.256V117.963H231.762V114.981Z" fill="white"/>
</mask>
<g mask="url(#mask24_197_369)">
<mask id="mask25_197_369" style="mask-type:luminance" maskUnits="userSpaceOnUse" x="228" y="112" width="15" height="15">
<path d="M237.353 112.166L242.481 121.447L233.768 126.348L228.643 117.066L237.353 112.166Z" fill="white"/>
</mask>
<g mask="url(#mask25_197_369)">
<mask id="mask26_197_369" style="mask-type:luminance" maskUnits="userSpaceOnUse" x="228" y="112" width="15" height="15">
<path d="M237.353 112.166L242.481 121.447L233.768 126.348L228.643 117.066L237.353 112.166Z" fill="white"/>
</mask>
<g mask="url(#mask26_197_369)">
<mask id="mask27_197_369" style="mask-type:luminance" maskUnits="userSpaceOnUse" x="228" y="112" width="15" height="15">
<path d="M237.353 112.166L242.481 121.447L233.768 126.348L228.643 117.066L237.353 112.166Z" fill="white"/>
</mask>
<g mask="url(#mask27_197_369)">
<path d="M235.217 117.205C236.275 117.593 237.378 117.815 238.494 117.932C238.752 117.958 239.012 117.956 239.27 117.947C239.406 117.943 239.536 117.898 239.672 117.87C239.893 117.741 240.004 117.556 240.021 117.305C240.037 117.066 239.951 116.87 239.796 116.696C239.613 116.488 239.381 116.344 239.131 116.245C238.716 116.08 238.297 115.91 237.868 115.789C236.793 115.486 235.699 115.285 234.594 115.156C233.868 115.07 233.139 115.055 232.411 115.087C232.145 115.099 231.912 115.269 231.84 115.505C231.768 115.739 231.854 115.973 232.106 116.139C232.247 116.232 232.405 116.305 232.566 116.356C233.449 116.641 234.341 116.886 235.217 117.205Z" fill="#052429"/>
</g>
</g>
</g>
</g>
<mask id="mask28_197_369" style="mask-type:luminance" maskUnits="userSpaceOnUse" x="148" y="31" width="9" height="9">
<path d="M148.327 31.4706H156.849V39.8741H148.327V31.4706Z" fill="white"/>
</mask>
<g mask="url(#mask28_197_369)">
<mask id="mask29_197_369" style="mask-type:luminance" maskUnits="userSpaceOnUse" x="148" y="31" width="9" height="9">
<path d="M152.585 31.4706C150.233 31.4706 148.327 33.3509 148.327 35.6724C148.327 37.9924 150.233 39.8741 152.585 39.8741C154.935 39.8741 156.841 37.9924 156.841 35.6724C156.841 33.3509 154.935 31.4706 152.585 31.4706Z" fill="white"/>
</mask>
<g mask="url(#mask29_197_369)">
<path d="M148.327 31.4706H156.849V39.8741H148.327V31.4706Z" fill="#5DE1E6"/>
</g>
</g>
<mask id="mask30_197_369" style="mask-type:luminance" maskUnits="userSpaceOnUse" x="203" y="31" width="9" height="9">
<path d="M203.353 31.4706H211.874V39.8741H203.353V31.4706Z" fill="white"/>
</mask>
<g mask="url(#mask30_197_369)">
<mask id="mask31_197_369" style="mask-type:luminance" maskUnits="userSpaceOnUse" x="203" y="31" width="9" height="9">
<path d="M207.611 31.4706C205.259 31.4706 203.353 33.3509 203.353 35.6724C203.353 37.9924 205.259 39.8741 207.611 39.8741C209.963 39.8741 211.869 37.9924 211.869 35.6724C211.869 33.3509 209.963 31.4706 207.611 31.4706Z" fill="white"/>
</mask>
<g mask="url(#mask31_197_369)">
<path d="M203.353 31.4706H211.874V39.8741H203.353V31.4706Z" fill="#5DE1E6"/>
</g>
</g>
<mask id="mask32_197_369" style="mask-type:luminance" maskUnits="userSpaceOnUse" x="170" y="39" width="7" height="7">
<path d="M170.25 39.874H176.016V45.5597H170.25V39.874Z" fill="white"/>
</mask>
<g mask="url(#mask32_197_369)">
<mask id="mask33_197_369" style="mask-type:luminance" maskUnits="userSpaceOnUse" x="170" y="39" width="7" height="7">
<path d="M173.13 39.874C171.54 39.874 170.25 41.1469 170.25 42.717C170.25 44.2869 171.54 45.5597 173.13 45.5597C174.722 45.5597 176.012 44.2869 176.012 42.717C176.012 41.1469 174.722 39.874 173.13 39.874Z" fill="white"/>
</mask>
<g mask="url(#mask33_197_369)">
<path d="M170.25 39.874H176.016V45.5597H170.25V39.874Z" fill="#052429"/>
</g>
</g>
<mask id="mask34_197_369" style="mask-type:luminance" maskUnits="userSpaceOnUse" x="187" y="39" width="7" height="7">
<path d="M187.318 39.874H193.083V45.5597H187.318V39.874Z" fill="white"/>
</mask>
<g mask="url(#mask34_197_369)">
<mask id="mask35_197_369" style="mask-type:luminance" maskUnits="userSpaceOnUse" x="187" y="39" width="7" height="7">
<path d="M190.199 39.874C188.609 39.874 187.318 41.1469 187.318 42.717C187.318 44.2869 188.609 45.5597 190.199 45.5597C191.792 45.5597 193.08 44.2869 193.08 42.717C193.08 41.1469 191.792 39.874 190.199 39.874Z" fill="white"/>
</mask>
<g mask="url(#mask35_197_369)">
<path d="M187.318 39.874H193.083V45.5597H187.318V39.874Z" fill="#052429"/>
</g>
</g>
<mask id="mask36_197_369" style="mask-type:luminance" maskUnits="userSpaceOnUse" x="179" y="42" width="6" height="7">
<path d="M179.13 42.7708H184.787V48.3502H179.13V42.7708Z" fill="white"/>
</mask>
<g mask="url(#mask36_197_369)">
<mask id="mask37_197_369" style="mask-type:luminance" maskUnits="userSpaceOnUse" x="179" y="42" width="6" height="7">
<path d="M181.956 42.7708C180.395 42.7708 179.13 44.019 179.13 45.5598C179.13 47.1008 180.395 48.3502 181.956 48.3502C183.518 48.3502 184.783 47.1008 184.783 45.5598C184.783 44.019 183.518 42.7708 181.956 42.7708Z" fill="white"/>
</mask>
<g mask="url(#mask37_197_369)">
<path d="M179.13 42.7708H184.787V48.3502H179.13V42.7708Z" fill="#052429"/>
</g>
</g>
</svg>
