<svg width="177" height="181" viewBox="0 0 177 181" fill="none" xmlns="http://www.w3.org/2000/svg">
<path fill-rule="evenodd" clip-rule="evenodd" d="M162.669 155.5C162.669 155.5 161.1 141.587 154.22 138.338C147.34 135.096 131.647 167.489 131.647 167.489C131.647 167.489 135.797 172.419 147.526 170.586C159.263 168.761 162.669 155.5 162.669 155.5Z" fill="#CEA881"/>
<path fill-rule="evenodd" clip-rule="evenodd" d="M145.421 167.951C149.371 165.982 156.526 161.316 153.737 148.994C152.554 143.761 152.881 142.928 149.564 139.853C141.993 146.146 130.554 169.549 130.554 169.549C130.554 169.549 134.592 171.01 142.536 171.018C142.558 169.996 143.622 168.844 145.421 167.951Z" fill="#B48557"/>
<path fill-rule="evenodd" clip-rule="evenodd" d="M152.019 167.966C152.019 167.966 162.744 156.855 155.276 146.889L157.203 141.693C157.203 141.693 164.529 150.531 161.293 158.65C158.058 166.762 152.019 167.966 152.019 167.966Z" fill="#EDD1B3"/>
<path fill-rule="evenodd" clip-rule="evenodd" d="M129.817 170.018L151.312 169.647C151.312 169.647 161.807 170.208 165.459 172.056C169.11 173.904 171.49 176.062 169.966 177.812C168.434 179.561 134.622 178.804 134.622 178.804C134.622 178.804 125.34 178.251 129.817 170.018Z" fill="#8B6040"/>
<path fill-rule="evenodd" clip-rule="evenodd" d="M134.614 178.804C129.609 177.713 127.288 175.206 130.063 170.011L141.903 169.806C141.896 169.943 141.903 170.109 141.926 170.283C141.844 171.601 143.16 172.821 145.957 173.154L145.979 173.161H146.039C146.054 173.161 146.076 173.169 146.091 173.169C147.199 173.29 148.954 173.419 151.029 173.578C158.199 174.123 169.088 175.017 169.52 176.994V177.009L169.534 177.115V177.228L169.527 177.312L169.505 177.387L169.467 177.493L169.415 177.592L169.348 177.69L169.304 177.743L169.252 177.804L169.133 177.91L169.066 177.963L168.917 178.069L168.813 178.13L168.709 178.183L168.567 178.251L168.53 178.266C161.807 179.417 134.614 178.804 134.614 178.804Z" fill="#62432D"/>
<path d="M152.517 170.814C151.892 170.814 151.29 170.488 150.948 169.897C150.442 169.019 150.739 167.89 151.602 167.375C151.684 167.322 160.282 162.081 160.163 153.228C160.044 144.427 154.124 140.602 153.871 140.443C153.023 139.913 152.755 138.777 153.268 137.914C153.789 137.05 154.89 136.77 155.745 137.293C156.065 137.49 163.636 142.261 163.785 153.175C163.934 164.209 153.856 170.306 153.424 170.556C153.134 170.73 152.822 170.814 152.517 170.814Z" fill="#052429"/>
<path d="M145.645 168.753C166.507 167.095 171.952 172.419 173.29 176.054C173.841 177.546 172.77 179.152 171.238 179.152H133.462C127.497 179.152 127.891 172.48 130.561 169.534L145.645 168.753Z" fill="#8B6040"/>
<path d="M150.182 168.496C148.753 168.541 147.251 168.625 145.652 168.753L130.561 169.534C127.891 172.48 127.504 179.152 133.462 179.152H161.472C161.628 175.411 154.711 169.064 150.182 168.496Z" fill="#61422D"/>
<path d="M171.238 180.977H133.462C131.201 180.977 129.416 180.22 128.278 178.789C127.273 177.524 126.857 175.774 127.102 173.851C127.244 172.76 127.578 171.647 128.099 170.556C128.449 169.829 128.813 169.193 129.2 168.526C129.423 168.132 129.668 167.716 129.936 167.224C130.42 166.345 131.513 166.027 132.376 166.519C133.238 167.012 134.533 166.534 134.049 167.413C133.767 167.928 132.532 169.958 132.294 170.367C131.929 171.003 131.61 171.556 131.32 172.162C130.97 172.896 130.747 173.623 130.658 174.313C130.591 174.85 130.554 175.842 131.067 176.494C131.61 177.175 132.666 177.319 133.462 177.319H171.238C171.401 177.319 171.505 177.221 171.557 177.137C171.609 177.062 171.691 176.895 171.609 176.683C170.732 174.297 166.455 168.92 145.786 170.564C144.797 170.647 143.934 169.89 143.86 168.89C143.785 167.883 144.521 167.012 145.503 166.928C166.656 165.247 173.201 170.609 174.964 175.411C175.432 176.683 175.254 178.107 174.495 179.22C173.752 180.326 172.532 180.977 171.238 180.977Z" fill="#052429"/>
<path d="M161.219 180.561C161.13 180.561 161.048 180.553 160.959 180.538C160.215 180.394 159.724 179.659 159.865 178.895C160.185 177.19 158.251 175.729 158.051 175.592C157.441 175.282 157.136 174.555 157.366 173.881C157.612 173.146 158.4 172.76 159.114 173.01C159.858 173.267 163.242 175.865 162.573 179.425C162.439 180.091 161.866 180.561 161.219 180.561Z" fill="#052429"/>
<path d="M167.638 180.561C167.489 180.561 167.333 180.538 167.184 180.485C166.463 180.228 166.083 179.432 166.336 178.698C166.82 177.274 164.886 175.555 164.164 175.062C163.532 174.631 163.369 173.76 163.792 173.116C164.216 172.472 165.064 172.298 165.697 172.73C167.385 173.873 169.958 176.615 168.939 179.622C168.739 180.197 168.203 180.561 167.638 180.561Z" fill="#052429"/>
<path d="M8.93265 178.849C5.1915 178.478 2.12718 176.948 2.12718 174.608C2.12718 172.268 5.17662 170.261 8.93265 170.367C35.3438 171.147 64.083 164.338 71.9297 144.935L88.5232 160.748C88.5232 160.756 59.6427 183.833 8.93265 178.849Z" fill="#62432D"/>
<path d="M7.71287 174.532C35.5223 175.312 65.7937 168.504 74.0569 149.1L87.3778 161.15C88.077 160.65 88.434 160.37 88.434 160.37L71.8405 144.556C63.9938 163.952 35.2546 170.768 8.8434 169.988C5.08737 169.874 2.03792 171.889 2.03792 174.229C2.03792 174.805 2.22386 175.327 2.55112 175.797C3.85271 174.979 5.68238 174.479 7.71287 174.532Z" fill="#8B6040"/>
<path d="M16.2736 180.689C13.3506 180.689 10.2937 180.621 7.01373 180.402C2.35774 180.099 0 178.319 0 175.123C0 172.608 1.96355 169.677 7.4823 169.677C9.01446 169.677 14.1985 169.655 15.6191 169.617C32.4952 169.14 62.0674 165.217 70.5092 144.344C70.6951 143.889 71.0744 143.549 71.5356 143.427C71.9967 143.299 72.495 143.405 72.8743 143.715L89.5942 157.143C89.9438 157.423 90.1595 157.848 90.1744 158.294C90.1967 158.749 90.0182 159.188 89.6984 159.499C89.4752 159.711 84.1424 164.83 74.4362 169.988C65.4962 174.737 51.0076 180.402 32.7332 180.402C30.0928 180.402 27.5343 180.47 24.827 180.538C22.0527 180.621 19.2338 180.689 16.2736 180.689ZM7.20711 177.289C13.6704 177.713 19.3082 177.562 24.7526 177.425C27.4822 177.357 30.0631 177.289 32.7406 177.289C50.3382 177.289 64.3061 171.844 72.919 167.284C79.5459 163.77 84.1201 160.226 86.2398 158.431L72.5173 147.411C68.6349 155.507 61.4649 161.793 51.1786 166.118C41.651 170.117 29.7135 172.351 15.7009 172.752C14.1836 172.798 8.88058 172.813 7.47486 172.813C5.34025 172.813 3.05688 173.419 3.05688 175.13C3.06432 175.736 3.06432 177.016 7.20711 177.289Z" fill="#052429"/>
<path fill-rule="evenodd" clip-rule="evenodd" d="M87.4001 78.7337C87.4001 78.7337 79.9476 96.5013 72.9264 104.552C65.9052 112.603 60.4088 127.174 63.9268 142.049C67.4448 156.916 76.2957 159.074 79.1666 163.338C82.0376 167.602 80.855 167.474 79.8434 170.011C78.8394 172.555 76.3998 179.008 85.2357 179.364C94.0717 179.72 115.291 179.432 115.291 179.432C115.291 179.432 120.431 178.152 119.732 176.198C119.033 174.244 112.934 170.215 112.934 170.215C112.934 170.215 137.835 168.852 147.05 156.431C151.156 150.903 154.071 144.503 156.094 137.906C156.771 135.687 157.351 133.438 157.813 131.166C158.17 129.393 157.775 127.394 159.196 126.258C163.19 123.062 164.834 117.404 163.986 112.307C163.138 107.21 160.074 102.689 156.206 99.3414C154.867 98.1827 153.417 97.1451 151.788 96.4786C149.713 95.6304 147.244 95.7364 145.258 94.7518C144.164 94.2141 143.16 93.5325 142.008 93.0553C139.575 92.048 137.084 91.1771 134.585 90.3516C128.642 88.4052 122.595 86.7768 116.533 85.247C107.244 82.8991 97.8798 80.8088 88.486 78.9382C88.4191 78.9382 87.415 78.7034 87.4001 78.7337Z" fill="#CEA881"/>
<path d="M117.486 95.1684C93.8635 93.6006 94.1758 85.8907 91.1264 85.2697C90.1967 85.0803 87.6009 85.1637 84.373 85.406C81.5541 91.3058 77.1584 99.6974 72.9264 104.56C65.9052 112.61 60.4088 127.182 63.9268 142.057C67.4448 156.924 76.2957 159.082 79.1666 163.346C82.0376 167.61 80.855 167.481 79.8434 170.018C78.8394 172.563 76.3998 179.016 85.2357 179.372C94.0717 179.728 115.291 179.44 115.291 179.44C115.291 179.44 120.431 178.16 119.732 176.206C119.033 174.252 112.934 170.223 112.934 170.223C112.934 170.223 116.883 170.003 122.208 168.966L122.618 164.414C122.618 164.414 100.431 129.068 107.616 130.961C114.808 132.855 129.185 145.101 123.979 134.877C118.772 124.652 104.514 120.994 101.42 116.072C99.1219 112.421 98.8616 106.809 103.875 105.446C106.56 104.711 109.46 105.787 111.684 107.491C112.242 107.922 112.785 108.399 113.454 108.627C114.087 108.839 114.778 108.801 115.44 108.74C121.97 108.112 128.374 106.408 134.592 104.34C137.575 103.348 140.706 102.409 143.562 101.083C144.789 100.508 153.075 95.8349 153.246 95.8879C151.61 95.4335 146.797 95.5395 145.265 94.7746C145.221 94.7518 145.183 94.7291 145.139 94.7064C139.62 95.4107 131.022 95.9409 118.661 95.2517C118.252 95.2214 117.865 95.1987 117.486 95.1684Z" fill="#B48557"/>
<path d="M105.578 137.141C104.886 134.983 104.633 132.658 103.927 130.492C103.703 129.818 103.428 129.136 102.93 128.636C102.506 128.212 101.948 127.947 101.413 127.682C97.731 125.857 94.2205 123.312 92.2495 119.661C90.1 124.501 89.4604 129.749 89.8917 135.013C90.2934 139.883 92.9784 142.625 95.5816 146.623C97.917 150.206 99.6351 155.227 98.9136 159.468C98.3484 162.755 97.1435 167.216 93.9676 168.526C95.1725 168.034 96.8088 168.496 98.0509 168.466C99.5161 168.428 101.041 167.905 102.365 167.307C104.931 166.141 107.378 164.194 108.635 161.589C110.122 158.506 111.216 154.03 110.264 150.615C109.907 149.335 109.14 148.335 108.865 146.949C108.597 145.578 108.687 144.17 108.278 142.821C107.854 141.42 106.931 140.246 106.284 138.936C106.002 138.345 105.779 137.747 105.578 137.141Z" fill="#CEA881"/>
<path d="M102.781 139.247C102.655 139.163 102.156 140.156 102.134 140.292C101.918 141.708 102.774 142.897 103.651 143.889C104.841 145.237 105.965 146.684 106.582 148.403C107.281 150.342 107.326 152.591 107.117 154.621C106.604 159.582 104.187 165.088 99.9921 167.648C94.5328 170.98 104.455 168.216 106.225 165.845C107.988 163.482 116.63 148.714 102.781 139.247Z" fill="#EDD1B3"/>
<path fill-rule="evenodd" clip-rule="evenodd" d="M103.778 138.527C103.718 138.429 103.674 138.323 103.622 138.217C102.194 134.854 102.402 131.12 102.528 127.553C102.677 123.236 103.86 118.101 105.972 114.292C111.238 104.772 121.427 99.508 132.16 99.5308C142.134 99.5535 150.159 104.643 153.856 114.693C156.355 121.487 159.456 133.021 157.463 139.739C154.919 148.32 142.216 166.368 126.21 168.216C115.715 169.428 105.756 166.701 105.756 166.701C105.756 166.701 112.956 153.031 110.449 147.093C109.609 145.101 108.471 143.246 107.08 141.61C106.136 140.504 104.514 139.822 103.778 138.527Z" fill="#FBF2E9"/>
<path d="M153.848 114.693C153.03 112.466 151.996 110.475 150.777 108.733L149.728 112.512C143.964 116.488 139.761 123.289 138.928 129.84C138.4 133.976 138.616 141.239 144.127 142.276C146.983 142.814 149.921 141.655 151.996 139.663C154.168 137.588 155.12 134.612 157.418 132.605C157.604 132.438 157.798 132.279 157.991 132.12C157.53 126.129 155.552 119.313 153.848 114.693Z" fill="#EED7BB"/>
<path fill-rule="evenodd" clip-rule="evenodd" d="M142.29 101.629C139.256 100.243 135.842 99.5459 132.153 99.5384C124.425 99.5232 116.98 102.25 111.454 107.332C111.528 107.385 111.602 107.438 111.669 107.498C112.227 107.93 112.77 108.407 113.439 108.634C114.072 108.846 114.763 108.808 115.425 108.748C121.956 108.119 128.359 106.415 134.577 104.348C137.128 103.484 139.791 102.674 142.29 101.629Z" fill="#EED7BB"/>
<path d="M116.898 171.192C112.034 171.192 106.232 169.943 103.852 169.094C102.908 168.761 102.409 167.708 102.737 166.746C103.064 165.785 104.098 165.277 105.042 165.61C107.281 166.406 112.644 167.504 116.898 167.504C139.412 167.504 157.731 148.933 157.731 126.114C157.731 125.092 158.541 124.266 159.538 124.266C160.542 124.266 161.353 125.092 161.353 126.114C161.353 150.963 141.413 171.192 116.898 171.192Z" fill="#052429"/>
<path d="M82.402 168.072C82.2458 168.496 82.0524 168.897 81.807 169.276C80.9219 170.7 80.1409 173.51 77.9543 172.896C76.2957 172.427 76.556 171.139 77.2105 169.927C77.6568 169.094 78.1625 168.231 78.7575 167.284C79.1071 166.731 79.2261 166.072 79.0997 165.451C78.9658 164.823 78.5939 164.285 78.0658 163.944C68.5754 157.832 62.9599 149.501 61.3757 139.171C59.0849 124.274 65.8978 109.717 72.4206 101.78C84.3581 87.2464 85.4589 77.5522 85.4738 77.4537C85.5779 76.4464 86.4555 75.7042 87.4522 75.8027C88.4414 75.9011 89.1703 76.7948 89.081 77.8021C89.0438 78.2338 87.9579 88.6172 75.2023 104.143C68.6869 112.073 62.9897 125.804 64.9607 138.603C66.3812 147.835 71.4463 155.31 80.0145 160.824C81.3533 161.695 82.3202 163.096 82.6549 164.671C82.8855 165.8 82.7962 166.989 82.402 168.072Z" fill="#052429"/>
<path d="M102.06 170.814C101.435 170.814 100.833 170.488 100.49 169.897C99.9847 169.019 100.282 167.89 101.145 167.375C101.227 167.322 109.825 162.081 109.706 153.228C109.587 144.427 103.666 140.602 103.413 140.443C102.566 139.913 102.298 138.777 102.811 137.914C103.332 137.05 104.432 136.77 105.288 137.293C105.608 137.49 113.179 142.261 113.328 153.175C113.477 164.209 103.399 170.306 102.967 170.556C102.685 170.73 102.372 170.814 102.06 170.814Z" fill="#052429"/>
<path fill-rule="evenodd" clip-rule="evenodd" d="M97.4484 95.903C97.4484 95.903 97.441 95.9257 97.4261 95.9485C97.8947 96.0318 98.3335 96.0924 98.75 96.1227L97.4484 95.903Z" fill="white"/>
<path d="M103.934 130.492C103.711 129.818 103.436 129.136 102.937 128.636C102.513 128.212 101.956 127.947 101.42 127.682C97.8575 125.917 94.4585 123.471 92.4577 120.01L91.9892 120.305C89.4678 118.465 88.791 125.145 88.6273 126.417C88.5083 127.349 88.3893 128.288 88.5009 129.219C88.6125 130.151 89.081 131.666 89.7653 132.294C89.9512 130.62 90.2264 129.674 91.0371 129.136C92.1156 128.424 93.3279 128.992 94.2725 129.681C95.3584 130.477 96.4518 131.219 97.6269 131.878C99.9921 133.195 102.513 134.218 105.05 135.134C104.693 133.582 104.425 131.999 103.934 130.492Z" fill="#B48557"/>
<path d="M94.8304 168.753C116.199 167.095 121.777 172.419 123.146 176.054C123.711 177.546 122.61 179.152 121.041 179.152H82.3499C76.2436 179.152 76.6452 172.48 79.3749 169.534L94.8304 168.753Z" fill="#8B6040"/>
<path d="M99.4789 168.496C98.0211 168.541 96.4815 168.625 94.8378 168.753L79.3823 169.534C76.6527 172.48 76.251 179.152 82.3574 179.152H111.044C111.201 175.411 104.113 169.064 99.4789 168.496Z" fill="#61422D"/>
<path d="M127.526 131.075C124.522 121.085 116.995 115.344 108.449 110.566C107.534 111.724 106.701 112.966 105.972 114.299C103.86 118.109 102.685 123.244 102.528 127.561C102.454 129.757 102.342 132.014 102.603 134.21C104.217 134.854 105.808 135.415 107.296 135.914C113.603 138.043 114.57 145.866 123.822 143.549C129.326 142.163 128.828 135.384 127.526 131.075Z" fill="#EED7BB"/>
<path d="M121.041 181H82.3499C80.0517 181 78.2295 180.25 77.0692 178.826C76.0354 177.554 75.604 175.789 75.8568 173.851C75.9982 172.752 76.3477 171.639 76.8832 170.541C77.2403 169.814 77.6196 169.178 78.0138 168.504C78.2443 168.11 78.4898 167.693 78.765 167.208C79.2633 166.322 80.3715 166.012 81.2417 166.519C82.1119 167.027 82.4094 168.155 81.9185 169.041C81.6285 169.556 81.3682 169.996 81.1302 170.412C80.7508 171.048 80.431 171.601 80.1335 172.199C79.7765 172.927 79.5459 173.646 79.4567 174.335C79.3897 174.865 79.3526 175.842 79.8732 176.479C80.4608 177.206 81.6805 177.312 82.3574 177.312H121.041C121.242 177.312 121.353 177.19 121.405 177.115C121.465 177.031 121.517 176.888 121.45 176.721C120.55 174.335 116.169 168.95 94.9642 170.601C93.9676 170.67 93.0974 169.92 93.0156 168.897C92.9337 167.875 93.685 166.996 94.689 166.913C116.333 165.239 123.027 170.601 124.834 175.396C125.31 176.66 125.146 178.084 124.388 179.205C123.636 180.334 122.38 181 121.041 181Z" fill="#052429"/>
<path d="M110.784 180.576C110.695 180.576 110.606 180.568 110.516 180.546C109.758 180.394 109.267 179.644 109.416 178.879C109.743 177.19 107.757 175.744 107.556 175.608C106.939 175.297 106.619 174.562 106.842 173.881C107.088 173.139 107.876 172.737 108.605 172.987C109.364 173.245 112.837 175.85 112.145 179.432C112.019 180.106 111.431 180.576 110.784 180.576Z" fill="#052429"/>
<path d="M117.352 180.576C117.195 180.576 117.039 180.546 116.883 180.493C116.154 180.227 115.775 179.417 116.035 178.682C116.533 177.243 114.414 175.479 113.819 175.085C113.172 174.661 112.993 173.775 113.41 173.123C113.826 172.465 114.696 172.283 115.336 172.707C117.069 173.858 119.717 176.607 118.661 179.637C118.467 180.212 117.932 180.576 117.352 180.576Z" fill="#052429"/>
<path d="M98.6385 126.122C98.6385 126.122 104.767 129.31 110.695 131.31C116.615 133.309 117.53 140.663 126.225 138.482C134.919 136.301 125.392 115.943 113.938 108.006C103.48 107.082 102.848 116.791 98.6385 126.122Z" fill="#CEA881"/>
<path d="M98.7203 125.932C98.6905 125.993 98.6608 126.054 98.6385 126.122C98.6385 126.122 98.9955 126.303 99.6202 126.614C99.3078 126.394 99.0103 126.167 98.7203 125.932Z" fill="#EDD1B3"/>
<path d="M126.44 138.414C133.454 136.323 127.802 121.684 119.04 112.444C116.727 110.74 114.302 109.27 111.93 107.953C111.811 107.884 111.454 107.99 111.312 107.983C111.119 107.975 110.918 107.96 110.725 107.937C110.338 107.892 109.951 107.794 109.639 107.544C109.126 108.218 108.694 108.763 109.088 109.96C109.245 110.429 109.542 110.838 109.966 111.073C117.411 115.193 124.685 120.275 127.459 129.507C128.196 131.961 128.597 135.293 127.504 137.262C127.236 137.755 126.887 138.133 126.44 138.414Z" fill="#EDD1B3"/>
<path d="M102.171 117.026C101.056 119.82 100.052 122.994 98.6385 126.114C98.6385 126.114 104.767 129.303 110.695 131.302C112.792 132.006 114.258 133.392 115.671 134.778C118.98 136.657 122.119 138.55 123.808 138.853C124.12 138.838 124.447 138.807 124.789 138.754C125.332 138.376 125.176 137.217 123.979 134.869C119.114 125.326 106.351 121.502 102.171 117.026Z" fill="#B48557"/>
<path d="M126.225 138.474C132.138 136.99 131.342 128.697 127.593 121.744C125.422 122.38 123.22 123.297 121.078 124.501C117.463 126.538 114.458 129.136 112.22 131.976C116.846 134.581 118.326 140.459 126.225 138.474Z" fill="#8B6040"/>
<path d="M117.195 127.076C115.269 128.568 113.596 130.234 112.212 131.984C113.551 132.733 114.622 133.756 115.663 134.778C118.973 136.657 122.112 138.55 123.8 138.853C124.112 138.838 124.44 138.807 124.782 138.754C125.325 138.376 125.169 137.217 123.971 134.869C122.372 131.734 119.918 129.212 117.195 127.076Z" fill="#61422D"/>
<path d="M130.204 128.818C130.182 128.697 130.159 128.576 130.13 128.454C130.092 128.28 130.048 128.098 130.003 127.924C129.958 127.742 129.914 127.561 129.862 127.379C129.825 127.25 129.795 127.121 129.758 126.993C129.713 126.849 129.676 126.712 129.631 126.569C129.594 126.447 129.557 126.334 129.52 126.213C129.475 126.069 129.423 125.925 129.371 125.773C129.334 125.66 129.289 125.546 129.244 125.425C129.148 125.167 129.051 124.902 128.947 124.645C128.902 124.531 128.858 124.425 128.813 124.312C128.754 124.16 128.687 124.009 128.62 123.857C128.575 123.751 128.523 123.638 128.471 123.532C128.404 123.38 128.337 123.229 128.263 123.085C128.203 122.963 128.144 122.85 128.092 122.729C127.973 122.486 127.846 122.236 127.72 121.994C127.675 121.911 127.631 121.827 127.586 121.752C126.522 122.062 125.384 122.464 124.321 122.91C127.445 128.151 129.222 134.278 127.697 137.891C127.883 137.785 128.054 137.671 128.218 137.55C128.248 137.528 128.278 137.497 128.315 137.475C128.449 137.368 128.575 137.262 128.694 137.141C128.724 137.111 128.754 137.088 128.783 137.058C129.066 136.77 129.311 136.452 129.52 136.111C129.542 136.073 129.564 136.036 129.587 135.998C129.668 135.854 129.743 135.71 129.817 135.558C129.839 135.521 129.854 135.475 129.877 135.437C130.04 135.066 130.174 134.665 130.278 134.241C130.293 134.18 130.308 134.127 130.315 134.066C130.353 133.907 130.382 133.741 130.405 133.582C130.412 133.521 130.427 133.46 130.435 133.4C130.464 133.18 130.487 132.961 130.509 132.733C130.509 132.696 130.509 132.658 130.516 132.62C130.531 132.431 130.539 132.234 130.539 132.037C130.539 131.953 130.539 131.862 130.539 131.779C130.539 131.62 130.531 131.461 130.524 131.302C130.516 131.211 130.516 131.12 130.509 131.029C130.494 130.802 130.479 130.567 130.449 130.333C130.442 130.249 130.427 130.158 130.42 130.075C130.397 129.916 130.375 129.749 130.353 129.583C130.338 129.469 130.316 129.348 130.293 129.234C130.263 129.098 130.234 128.962 130.204 128.818Z" fill="#B57E54"/>
<path d="M123.227 140.731C119.077 140.731 116.749 138.429 114.652 136.346C113.261 134.975 111.952 133.673 110.13 133.059C104.566 131.181 94.213 127.689 91.6545 118.987C91.3644 118.01 91.9148 116.98 92.8743 116.693C93.8337 116.397 94.8452 116.958 95.1279 117.935C96.898 123.963 103.934 127.084 111.268 129.56C113.878 130.439 115.634 132.173 117.181 133.703C119.59 136.089 121.331 137.808 125.793 136.687C126.835 136.429 127.534 135.907 128.01 135.059C129.103 133.089 128.709 129.765 127.965 127.303C125.184 118.071 117.917 112.989 110.472 108.869C109.594 108.384 109.267 107.263 109.743 106.362C110.219 105.468 111.32 105.135 112.205 105.62C119.94 109.899 128.27 115.693 131.439 126.22C132.034 128.204 133.209 133.218 131.171 136.876C130.211 138.595 128.657 139.769 126.671 140.269C125.384 140.587 124.246 140.731 123.227 140.731Z" fill="#052429"/>
<path d="M124.231 140.246C124.165 140.246 124.098 140.239 124.031 140.231C123.272 140.118 122.744 139.398 122.848 138.618C123.004 137.52 122.037 135.566 121.539 134.793C121.123 134.135 121.301 133.256 121.948 132.832C122.595 132.408 123.458 132.59 123.874 133.241C124.09 133.574 125.957 136.573 125.607 139.027C125.511 139.739 124.916 140.246 124.231 140.246Z" fill="#052429"/>
<path d="M129.416 137.694C128.709 137.694 128.107 137.149 128.032 136.422C127.809 134.225 126.225 132.249 126.21 132.234C125.719 131.628 125.801 130.734 126.396 130.234C126.983 129.734 127.861 129.818 128.359 130.416C128.449 130.522 130.501 133.059 130.814 136.126C130.896 136.906 130.338 137.603 129.572 137.687C129.512 137.694 129.468 137.694 129.416 137.694Z" fill="#052429"/>
<path d="M163.978 112.315C163.131 107.218 160.066 102.697 156.199 99.349C155.12 98.4175 153.967 97.5616 152.71 96.9103L152.056 97.0694C152.056 97.0694 160.698 107.006 159.769 114.39C159.293 118.169 156.042 120.881 153.647 123.509C152.175 125.114 150.784 126.811 149.743 128.757C149.185 129.802 148.739 130.901 148.419 132.037C148.188 132.87 147.437 135.119 147.846 135.93C148.292 136.816 149.743 136.21 150.33 135.733C150.985 135.195 151.424 134.438 151.81 133.673C152.71 131.878 153.417 129.931 154.778 128.47C156.109 127.038 157.575 126.879 159.233 126.137C160.46 125.592 161.427 123.986 162.097 122.857C163.956 119.745 164.573 115.897 163.978 112.315Z" fill="#EDD1B3"/>
<path d="M163.673 115.481C164.127 122.297 159.679 124.342 155.522 128.015C151.691 131.4 153.082 137.906 145.979 138.58C141.71 138.989 140.245 133.392 139.999 129.56C139.427 120.51 144.923 111.535 151.215 106.582" fill="#CEA881"/>
<path d="M163.673 115.481L159.828 112.732C159.858 113.3 159.843 113.852 159.769 114.398C159.293 118.177 156.042 120.888 153.647 123.516C152.175 125.122 150.784 126.818 149.743 128.765C149.185 129.81 148.739 130.908 148.419 132.044C148.188 132.877 147.437 135.127 147.846 135.937C148.292 136.823 149.743 136.217 150.33 135.74C150.985 135.202 151.424 134.445 151.81 133.68C152.71 131.885 153.417 129.939 154.778 128.477C155.291 127.924 155.819 127.568 156.37 127.288C160.267 124.039 164.097 121.827 163.673 115.481Z" fill="#EDD1B3"/>
<path d="M149.951 135.551C145.682 135.96 144.217 130.363 143.971 126.531C143.971 126.478 143.964 126.432 143.964 126.379C143.778 123.009 144.432 119.639 145.645 116.511C146.254 114.943 146.998 113.428 147.861 111.989C148.285 111.277 148.739 110.581 149.222 109.899C149.46 109.566 149.706 109.233 149.958 108.907C150.137 108.68 150.375 108.354 150.137 108.066C149.653 107.475 148.426 109.111 148.114 109.445C147.452 110.149 146.82 110.876 146.225 111.641C144.239 114.163 142.617 116.996 141.502 120.025C140.386 123.062 139.806 126.319 140.014 129.568C140.26 133.4 141.725 138.989 145.994 138.588C148.992 138.3 150.472 136.982 151.476 135.301C151.007 135.407 150.501 135.498 149.951 135.551Z" fill="#B48557"/>
<path d="M145.25 136.611C140.252 136.657 139.099 129.038 140.572 121.941C142.431 122.002 144.365 122.312 146.321 122.895C149.616 123.88 152.554 125.508 154.942 127.53C151.833 130.939 151.922 136.551 145.25 136.611Z" fill="#8B6040"/>
<path d="M154.942 127.538C154.034 126.773 153.052 126.061 152.004 125.417C151.156 126.463 150.382 127.568 149.75 128.757C149.192 129.802 148.746 130.901 148.426 132.037C148.196 132.87 147.444 135.119 147.854 135.93C147.898 136.028 147.958 136.104 148.032 136.164C151.981 134.771 152.346 130.378 154.942 127.538Z" fill="#B57E54"/>
<path d="M145.25 136.611C146.991 136.596 148.277 136.202 149.274 135.566C145.526 135.354 144.194 130.158 143.971 126.538C143.971 126.485 143.964 126.44 143.964 126.387C143.889 125.039 143.949 123.691 144.127 122.358C143.026 122.138 141.933 122.009 140.87 121.964C140.371 123.736 140.059 125.561 139.984 127.394C139.947 132.453 141.539 136.641 145.25 136.611Z" fill="#61422D"/>
<path d="M145.578 138.838C144.997 138.838 144.417 138.777 143.845 138.648C136.757 137.066 137.203 127.167 137.508 124.168C138.222 117.132 142.275 109.899 147.824 105.756C148.635 105.15 149.765 105.332 150.36 106.15C150.955 106.976 150.777 108.127 149.973 108.733C145.213 112.292 141.74 118.503 141.122 124.554C141.026 125.523 140.282 134.082 144.626 135.051C147.325 135.649 150.115 133.703 151.253 131.469C152.301 129.409 153.246 127.705 154.964 126.069C155.604 125.455 156.266 124.895 156.913 124.357C157.753 123.653 158.541 122.979 159.248 122.244C161.591 119.775 162.565 116.723 162.141 113.163C161.345 106.438 155.871 99.6898 150.881 96.5013C150.033 95.956 149.78 94.82 150.308 93.9566C150.843 93.0932 151.959 92.8357 152.807 93.3734C158.348 96.9179 164.767 104.484 165.741 112.724C166.292 117.374 164.945 121.562 161.851 124.819C161.011 125.705 160.103 126.47 159.226 127.205C158.594 127.735 157.999 128.235 157.441 128.772C156.139 130.015 155.388 131.378 154.473 133.18C152.703 136.619 149.096 138.838 145.578 138.838Z" fill="#052429"/>
<path d="M147.824 138.444C147.288 138.444 146.783 138.133 146.552 137.603C145.63 135.513 146.433 132.4 146.53 132.052C146.738 131.294 147.504 130.855 148.248 131.06C148.992 131.272 149.423 132.052 149.222 132.802C148.954 133.809 148.739 135.604 149.103 136.437C149.415 137.149 149.103 137.99 148.404 138.315C148.211 138.406 148.017 138.444 147.824 138.444Z" fill="#052429"/>
<path d="M143.086 137.83C142.439 137.83 141.851 137.368 141.717 136.694C141.167 133.907 142.104 131.105 142.141 130.992C142.394 130.249 143.19 129.855 143.919 130.113C144.648 130.37 145.035 131.173 144.782 131.916C144.767 131.961 144.06 134.135 144.455 136.134C144.611 136.907 144.12 137.649 143.361 137.808C143.264 137.815 143.175 137.83 143.086 137.83Z" fill="#052429"/>
<path d="M107.08 9.28374C117.932 6.04223 128.226 5.90591 137.895 9.28374C148.82 10.1698 155.046 16.2893 156.89 27.2862C158.534 30.2475 160.379 33.2693 162.684 35.9352C167.511 41.517 176.02 49.3329 175.351 68.2518C174.681 87.1707 161.435 94.7594 145.243 94.7594C131.513 96.4559 115.5 96.9709 102.231 95.2214C86.039 95.2214 69.9885 85.9665 69.3191 67.0476C68.6497 48.1287 77.4634 41.5246 82.2904 35.9428C84.5961 33.2769 86.4407 30.255 88.0844 27.2938C89.4901 16.3726 95.0609 9.6094 107.08 9.28374Z" fill="#CEA881"/>
<path d="M140.996 12.4722C141.36 12.1314 142.179 11.321 142.112 10.8893C141.963 9.97293 138.601 10.2229 137.902 9.98051C128.233 6.60268 117.939 6.739 107.088 9.98051C106.448 10.1698 105.57 10.0487 104.901 10.1168C104.574 10.1471 103.235 10.1244 103.079 10.4349C103.027 10.5334 103.042 10.647 103.064 10.753C103.146 11.1771 103.324 11.5785 103.585 11.9269C103.785 12.1996 104.031 12.4268 104.269 12.6616C104.351 12.7373 104.425 12.813 104.507 12.8888C104.581 12.9569 104.656 13.0327 104.737 13.1008C106.47 14.5777 108.895 13.2977 110.777 12.8509C112.956 12.3359 115.165 11.9421 117.389 11.6846C120.877 11.2832 124.41 11.2377 127.906 11.6013C129.624 11.783 131.327 12.0557 133.008 12.4344C133.848 12.6237 134.689 12.8358 135.522 13.0781C136.214 13.275 136.868 13.5931 137.575 13.7294C138.504 13.9112 139.672 13.6764 140.386 13.0175C140.408 12.9872 140.966 12.5025 140.996 12.4722Z" fill="#EDD1B3"/>
<path d="M162.469 90.2531C162.469 90.2531 143.964 101.394 106.5 95.2365C77.7832 90.5182 74.6445 59.8905 87.2886 38.942C98.6161 20.167 96.5856 13.6991 96.5856 13.6991C93.8337 21.1819 90.5537 25.2565 87.0134 29.1796C85.6448 31.5198 84.1127 33.8374 82.2979 35.9352C80.7955 37.6696 78.9137 39.5024 77.0469 41.7745C75.8717 43.7285 74.6966 45.9475 73.5289 48.5377C67.1176 62.7685 71.5653 76.3858 73.9231 81.8616C79.955 90.8136 91.0594 95.2214 102.231 95.2214C115.5 96.9709 129.014 96.9179 142.744 95.2214C146.678 95.2214 150.591 94.7443 154.265 93.7521C155.507 92.8357 162.469 90.2531 162.469 90.2531Z" fill="#B48557"/>
<path d="M164.507 39.2449C163.227 37.7226 161.74 36.3821 160.579 34.7613C159.531 33.2996 158.757 31.5274 158.846 29.74C158.385 28.9675 157.939 28.1874 157.515 27.4149C156.236 19.7883 154.681 15.0624 149.081 12.245C148.731 14.2672 148.887 17.0543 149.363 19.0613C152.175 30.9897 161.212 39.5176 166.351 50.3099C170.598 59.2316 171.29 70.2512 166.47 79.082C161.107 88.9277 157.389 91.2604 144.99 94.1687C144.678 94.2444 141.68 95.176 141.807 95.3501C143.183 95.2062 144.536 95.0548 145.868 94.8882C148.039 94.8882 150.159 94.7518 152.205 94.4716C153.476 93.9717 154.733 93.4189 155.961 92.866C159.226 91.4043 162.528 89.9199 165.384 87.7462C168.196 85.6181 170.516 82.8689 172.353 79.8318C173.9 77.272 175.113 74.4697 175.73 71.5387C175.849 70.5239 175.931 69.4712 175.968 68.3806C176.027 66.7825 176.013 65.2602 175.946 63.8137C175.09 57.7018 172.056 51.8322 169.043 46.3489C167.697 43.8724 166.314 41.3958 164.507 39.2449Z" fill="#EDD1B3"/>
<path d="M122.707 47.3108C132.034 47.3108 140.059 52.0897 140.654 59.6936C141.695 73.2958 131.662 86.4057 122.707 86.4057H122.26C113.313 86.4057 103.28 73.3034 104.313 59.6936C104.908 52.0897 112.934 47.3108 122.26 47.3108H122.707Z" fill="#F2E1CC"/>
<path d="M122.491 47.3487C127.571 47.3487 131.691 50.3326 131.691 54.0134C131.691 57.6942 129.073 66.4266 122.491 66.4266C115.909 66.4266 113.291 57.6942 113.291 54.0134C113.283 50.3326 117.404 47.3487 122.491 47.3487Z" fill="#CBA383"/>
<path d="M122.491 44.395C127.571 44.395 131.691 47.379 131.691 51.0597C131.691 54.7405 129.073 63.4729 122.491 63.4729C115.909 63.4729 113.291 54.7405 113.291 51.0597C113.283 47.379 117.404 44.395 122.491 44.395Z" fill="#052429"/>
<path d="M122.491 46.0308C121.948 46.0308 121.405 46.0763 120.87 46.1596C120.691 46.1899 120.29 46.2278 120.171 46.3868C119.888 46.7579 120.535 46.7579 120.766 46.7579C124.893 46.7579 128.01 49.1057 128.01 52.0897C128.01 54.1195 127.266 58.1259 124.96 60.4358C124.767 60.6328 125.005 60.9508 125.243 60.8145C128.59 58.9363 129.973 53.8619 129.973 51.446C129.966 48.4544 126.619 46.0308 122.491 46.0308Z" fill="#373737"/>
<path d="M122.491 65.3966C118.49 69.7892 114.191 69.0395 111.037 66.1918C114.02 74.8333 117.106 81.0512 122.491 81.0512C127.876 81.0512 130.963 74.8257 133.945 66.1918C130.784 69.0395 126.485 69.7892 122.491 65.3966Z" fill="#052429"/>
<path d="M129.802 75.7951C128.575 73.7805 125.831 72.3794 122.625 72.3794C119.3 72.3794 116.467 73.8941 115.314 76.0299C117.255 79.1654 119.516 81.0588 122.484 81.0588C125.526 81.0512 127.831 79.0745 129.802 75.7951Z" fill="#F47676"/>
<path d="M129.802 75.7951C128.575 73.7805 125.831 72.3794 122.625 72.3794C119.3 72.3794 116.467 73.8941 115.314 76.0299C117.255 79.1654 119.516 81.0588 122.484 81.0588C125.526 81.0512 127.831 79.0745 129.802 75.7951Z" fill="#FF949A"/>
<path d="M116.533 77.7642C118.2 79.847 120.118 81.0588 122.491 81.0588C124.953 81.0588 126.939 79.7561 128.649 77.5143C127.392 76.0753 125.198 75.1135 122.692 75.1135C120.044 75.1135 117.738 76.1814 116.533 77.7642Z" fill="#E26A74"/>
<path d="M128.553 70.3573C126.835 70.3573 124.7 69.8195 122.491 67.9413C119.68 70.327 116.995 70.5466 115.128 70.2512C111.528 69.6832 108.055 66.6538 106.069 62.352C105.645 61.428 106.031 60.3298 106.939 59.8981C107.846 59.4664 108.925 59.8602 109.349 60.7842C110.806 63.9424 113.291 66.2296 115.686 66.6083C117.56 66.9037 119.404 66.0782 121.167 64.1393C121.509 63.7607 121.993 63.5486 122.499 63.5486C123.004 63.5486 123.488 63.7607 123.83 64.1393C125.585 66.0706 127.43 66.9037 129.311 66.6083C131.699 66.2296 134.191 63.9424 135.648 60.7842C136.072 59.8602 137.151 59.4664 138.058 59.8981C138.966 60.3298 139.352 61.428 138.928 62.352C136.942 66.6613 133.469 69.6832 129.869 70.2512C129.453 70.3194 129.021 70.3573 128.553 70.3573Z" fill="#052429"/>
<path d="M122.491 82.3236C119.293 82.3236 116.6 80.4832 114.265 76.7039C114.027 76.3177 114.012 75.8254 114.228 75.4164C115.634 72.796 118.936 71.107 122.625 71.107C126.143 71.107 129.371 72.6824 130.858 75.1211C131.104 75.53 131.111 76.045 130.866 76.454C128.493 80.3999 125.756 82.3236 122.491 82.3236ZM116.809 76.0299C118.542 78.5898 120.364 79.7864 122.484 79.7864C124.655 79.7864 126.515 78.5292 128.285 75.8481C127.088 74.4924 124.96 73.6442 122.625 73.6442C120.193 73.6442 117.962 74.5833 116.809 76.0299Z" fill="#052429"/>
<path d="M122.491 82.8991C115.47 82.8991 112.019 74.5909 109.326 66.8052C109.051 66.01 109.341 65.1315 110.026 64.6619C110.71 64.1924 111.625 64.2529 112.242 64.8134C114.324 66.6916 117.56 68.1003 121.16 64.1469C121.502 63.7682 121.985 63.5562 122.491 63.5562C122.997 63.5562 123.48 63.7682 123.822 64.1469C127.422 68.1079 130.658 66.6992 132.74 64.8134C133.358 64.2529 134.265 64.1924 134.957 64.6619C135.641 65.1315 135.931 66.01 135.656 66.8052C132.963 74.5909 129.505 82.8991 122.491 82.8991ZM114.436 70.1225C116.719 75.7118 119.137 79.2032 122.491 79.2032C125.845 79.2032 128.263 75.7118 130.546 70.1225C127.802 70.7814 124.99 70.0467 122.491 67.9337C119.992 70.0467 117.173 70.789 114.436 70.1225Z" fill="#052429"/>
<path d="M122.491 66.7447C121.487 66.7447 120.676 65.9191 120.676 64.8967V61.8067C120.676 60.7842 121.487 59.9587 122.491 59.9587C123.495 59.9587 124.306 60.7842 124.306 61.8067V64.8967C124.298 65.9191 123.488 66.7447 122.491 66.7447Z" fill="#052429"/>
<path d="M102.863 49.6889C106.609 49.6889 109.646 46.3591 109.646 42.2516C109.646 38.1441 106.609 34.8143 102.863 34.8143C99.1168 34.8143 96.0799 38.1441 96.0799 42.2516C96.0799 46.3591 99.1168 49.6889 102.863 49.6889Z" fill="#052429"/>
<path d="M105.429 43.0469C106.423 43.0469 107.229 42.2263 107.229 41.214C107.229 40.2018 106.423 39.3812 105.429 39.3812C104.435 39.3812 103.629 40.2018 103.629 41.214C103.629 42.2263 104.435 43.0469 105.429 43.0469Z" fill="white"/>
<path d="M142.112 49.6889C145.858 49.6889 148.895 46.3591 148.895 42.2516C148.895 38.1441 145.858 34.8143 142.112 34.8143C138.365 34.8143 135.329 38.1441 135.329 42.2516C135.329 46.3591 138.365 49.6889 142.112 49.6889Z" fill="#052429"/>
<path d="M139.546 43.0469C140.54 43.0469 141.346 42.2263 141.346 41.214C141.346 40.2018 140.54 39.3812 139.546 39.3812C138.552 39.3812 137.746 40.2018 137.746 41.214C137.746 42.2263 138.552 43.0469 139.546 43.0469Z" fill="white"/>
<path d="M90.0331 7.61754C95.4626 8.99594 96.1245 12.5101 94.1758 16.7513C93.8709 17.4254 93.499 18.1146 93.0676 18.8189C91.4239 21.5075 89.8769 24.8172 88.077 28.2026C86.9836 27.4149 85.9572 26.4607 85.0349 25.3549C81.9334 21.606 80.7657 16.9028 81.4797 12.6616C81.4797 12.6616 81.4797 12.654 81.4872 12.6464C81.621 12.298 83.9267 6.04981 90.0331 7.61754Z" fill="#ED887E"/>
<path d="M89.2595 23.9614C85.5853 19.546 83.2127 11.5861 88.4563 7.37519C83.5325 7.15555 81.6136 12.3283 81.502 12.6388C81.4946 12.654 81.4946 12.654 81.4946 12.654C80.7806 16.8952 81.9483 21.5908 85.0498 25.3473C85.9646 26.4531 86.991 27.4074 88.0918 28.195C88.724 27.006 89.319 25.8321 89.9066 24.6809C89.676 24.4537 89.4678 24.2113 89.2595 23.9614Z" fill="#FEB1AA"/>
<path d="M107.08 9.39734C104.299 13.9188 101.115 14.3353 95.2766 14.6837L94.1758 16.7513C96.1245 12.5101 95.47 8.99594 90.0331 7.61754C83.9267 6.05738 81.6136 12.298 81.4872 12.6388C81.9929 9.65484 83.4358 6.90563 85.7936 4.8759C91.5132 -0.0393675 100.446 1.15726 105.741 7.54938C106.24 8.14012 106.686 8.76116 107.08 9.39734Z" fill="#CEA881"/>
<path d="M81.9037 10.9045C81.7326 11.4725 81.5987 12.0481 81.4946 12.6388C81.5392 12.5101 81.8962 11.5482 82.6474 10.4804C82.3871 10.6091 82.1342 10.7454 81.9037 10.9045Z" fill="#EDD1B3"/>
<path d="M105.749 8.24615C100.453 1.85403 91.5206 0.657404 85.801 5.57267C85.2655 6.03466 84.7746 6.53452 84.3358 7.06467C90.0331 3.3839 98.0211 4.86075 102.915 10.7606C103.205 11.109 103.488 11.4725 103.748 11.8512C103.882 12.0405 104.008 12.2374 104.142 12.4344C104.284 12.6464 104.41 12.8509 104.596 13.0175C104.648 13.063 104.715 13.116 104.789 13.1008C104.827 13.0933 104.856 13.0781 104.886 13.0554C105.332 12.76 105.518 12.1844 105.86 11.783C106.314 11.2529 106.716 10.6849 107.08 10.0865C106.686 9.45793 106.24 8.83689 105.749 8.24615Z" fill="#EDD1B3"/>
<path d="M81.4946 14.4868C81.3905 14.4868 81.2863 14.4792 81.1822 14.4565C80.193 14.2823 79.5311 13.328 79.7021 12.3283C80.2971 8.79145 82.0004 5.73172 84.6259 3.46721C87.7869 0.748285 91.885 -0.433196 96.1617 0.142398C100.379 0.710418 104.269 2.91434 107.125 6.36033C107.645 6.98893 108.144 7.67813 108.597 8.4052C109.133 9.26101 108.888 10.4046 108.047 10.9575C107.207 11.5028 106.084 11.2529 105.541 10.3971C105.176 9.81389 104.775 9.25344 104.351 8.75358C102.082 6.01194 99.0029 4.26244 95.6782 3.81559C92.4205 3.37633 89.3265 4.26244 86.9538 6.29974C84.9903 7.99622 83.711 10.2986 83.2648 12.9645C83.1309 13.8506 82.3648 14.4868 81.4946 14.4868Z" fill="#052429"/>
<path d="M87.7869 29.8233C87.4224 29.8233 87.058 29.7097 86.7382 29.4825C85.4143 28.5283 84.5812 27.6497 83.659 26.544C80.3046 22.4845 78.8617 17.3118 79.7021 12.3435C79.8732 11.3362 80.8103 10.6697 81.7996 10.8363C82.7888 11.0105 83.4507 11.9648 83.2796 12.9721C82.6251 16.8649 83.7705 20.9471 86.4332 24.1583C87.3109 25.2186 87.9431 25.8245 88.843 26.4682C89.6612 27.059 89.8546 28.2102 89.2744 29.0433C88.91 29.5507 88.3521 29.8233 87.7869 29.8233Z" fill="#052429"/>
<path d="M87.9654 29.6946C87.5861 29.6946 87.2067 29.5734 86.8869 29.3311C86.0836 28.7252 85.92 27.5664 86.515 26.7485C88.4786 24.0674 90.6727 20.1443 92.5321 15.9864C93.1346 14.6837 93.7147 12.8812 93.1197 11.6088C92.6586 10.6243 91.476 9.88205 89.6017 9.40491C88.1588 9.03381 86.701 9.24587 85.4886 9.98808C84.3655 10.6773 83.5697 11.783 83.2499 13.0933C83.0119 14.0854 82.0301 14.6913 81.0558 14.4489C80.0814 14.2066 79.4864 13.2069 79.7244 12.2147C80.2748 9.93507 81.6508 8.02652 83.6143 6.82232C85.6597 5.5651 88.0993 5.20914 90.4793 5.8226C93.4544 6.57996 95.4402 7.98865 96.3923 10.0184C97.3592 12.086 97.1658 14.608 95.827 17.5238C93.8709 21.8938 91.5355 26.0593 89.4232 28.9448C89.0662 29.4371 88.5158 29.6946 87.9654 29.6946Z" fill="#052429"/>
<path d="M102.231 97.2208C96.2956 97.2208 90.0702 95.7137 84.7077 92.9645C78.8617 89.9729 74.3321 85.7241 71.6099 80.6801C66.7754 71.7129 66.7531 59.8148 71.543 49.6359C73.7817 44.8872 76.8609 40.6385 79.8434 36.5336C82.1714 33.3223 84.5812 30.0051 86.5002 26.544C86.991 25.6579 88.0993 25.3398 88.9695 25.8472C89.8397 26.3471 90.1521 27.4755 89.6537 28.3616C87.6232 32.0273 85.1465 35.4354 82.7516 38.7375C79.7393 42.8878 76.8907 46.8109 74.8081 51.2415C70.5092 60.3677 70.5017 70.9632 74.7858 78.9079C79.4269 87.519 90.7099 93.5325 102.223 93.5325C103.227 93.5325 104.038 94.358 104.038 95.3804C104.038 96.4029 103.235 97.2208 102.231 97.2208Z" fill="#052429"/>
<path d="M142.744 97.2208C141.74 97.2208 140.929 96.3953 140.929 95.3729C140.929 94.3504 141.74 93.5249 142.744 93.5249C154.257 93.5249 165.548 87.5115 170.181 78.9003C174.466 70.9556 174.451 60.3525 170.159 51.2339C168.069 46.8034 165.228 42.8802 162.216 38.7299C159.821 35.4354 157.344 32.0197 155.314 28.3541C154.823 27.468 155.128 26.3395 155.998 25.8396C156.868 25.3398 157.976 25.6503 158.467 26.544C160.386 30.0127 162.796 33.3299 165.124 36.5411C168.106 40.646 171.186 44.8948 173.424 49.6435C178.214 59.8224 178.192 71.7129 173.357 80.6877C170.635 85.7393 166.106 89.9805 160.26 92.972C154.904 95.7061 148.679 97.2208 142.744 97.2208Z" fill="#052429"/>
<path d="M107.251 11.2377C106.478 11.2377 105.756 10.7303 105.518 9.93507C105.228 8.95807 105.764 7.92806 106.723 7.63269C112.123 5.95135 117.419 5.05009 122.461 4.96678C122.469 4.96678 122.484 4.96678 122.491 4.96678C123.48 4.96678 124.284 5.76958 124.306 6.78445C124.321 7.80688 123.525 8.64755 122.521 8.6627C117.82 8.73844 112.859 9.58668 107.787 11.1696C107.601 11.215 107.422 11.2377 107.251 11.2377Z" fill="#052429"/>
<path d="M137.731 11.2377C137.552 11.2377 137.374 11.215 137.203 11.1544C132.123 9.57153 127.169 8.73086 122.469 8.64755C121.465 8.63241 120.669 7.79174 120.684 6.7693C120.699 5.76201 121.509 4.95163 122.499 4.95163C122.506 4.95163 122.521 4.95163 122.528 4.95163C127.571 5.03494 132.867 5.9362 138.266 7.61754C139.226 7.91291 139.761 8.9505 139.471 9.91992C139.218 10.7303 138.504 11.2377 137.731 11.2377Z" fill="#052429"/>
<path d="M154.942 7.61754C149.512 8.99594 148.85 12.5101 150.799 16.7513C151.104 17.4254 151.476 18.1146 151.907 18.8189C153.551 21.5075 155.098 24.8172 156.898 28.2026C157.991 27.4149 159.017 26.4607 159.94 25.3549C163.041 21.606 164.209 16.9028 163.495 12.6616C163.495 12.6616 163.495 12.654 163.488 12.6464C163.361 12.298 161.048 6.04981 154.942 7.61754Z" fill="#ED887E"/>
<path d="M155.723 23.9614C159.397 19.546 161.769 11.5861 156.526 7.37519C161.45 7.15555 163.369 12.3283 163.48 12.6388C163.488 12.654 163.488 12.654 163.488 12.654C164.202 16.8952 163.034 21.5908 159.932 25.3473C159.017 26.4531 157.991 27.4074 156.89 28.195C156.258 27.006 155.663 25.8321 155.076 24.6809C155.299 24.4537 155.514 24.2113 155.723 23.9614Z" fill="#FEB1AA"/>
<path d="M137.895 9.39734C140.676 13.9188 143.86 14.3353 149.698 14.6837L150.799 16.7513C148.85 12.5101 149.505 8.99594 154.942 7.61754C161.048 6.05738 163.361 12.298 163.488 12.6388C162.982 9.65484 161.539 6.90563 159.181 4.8759C153.462 -0.0393675 144.529 1.15726 139.233 7.54938C138.735 8.14012 138.296 8.76116 137.895 9.39734Z" fill="#CEA881"/>
<path d="M163.078 10.9045C163.25 11.4725 163.383 12.0481 163.488 12.6388C163.443 12.5101 163.086 11.5482 162.335 10.4804C162.595 10.6091 162.84 10.7454 163.078 10.9045Z" fill="#EDD1B3"/>
<path d="M139.226 8.24615C144.521 1.85403 153.454 0.657404 159.174 5.57267C159.709 6.03466 160.2 6.53452 160.639 7.06467C154.942 3.3839 146.954 4.86075 142.06 10.7606C141.77 11.109 141.487 11.4725 141.227 11.8512C141.093 12.0405 140.966 12.2374 140.832 12.4344C140.691 12.6464 140.565 12.8509 140.379 13.0175C140.327 13.063 140.26 13.116 140.185 13.1008C140.148 13.0933 140.118 13.0781 140.089 13.0554C139.642 12.76 139.456 12.1844 139.114 11.783C138.661 11.2529 138.259 10.6849 137.895 10.0865C138.296 9.45793 138.735 8.83689 139.226 8.24615Z" fill="#EDD1B3"/>
<path d="M163.48 14.4868C162.61 14.4868 161.844 13.8506 161.695 12.9494C161.249 10.2835 159.969 7.9735 158.006 6.28459C155.641 4.24729 152.539 3.36875 149.282 3.80045C145.964 4.24729 142.885 5.99679 140.617 8.73844C140.193 9.24587 139.791 9.79874 139.427 10.3895C138.891 11.2529 137.768 11.5028 136.92 10.9499C136.072 10.3971 135.827 9.26101 136.37 8.39762C136.823 7.67056 137.322 6.98136 137.85 6.35275C140.699 2.91434 144.596 0.702844 148.813 0.142398C153.097 -0.433196 157.188 0.748285 160.349 3.46721C162.974 5.73172 164.678 8.79902 165.273 12.3283C165.444 13.3356 164.782 14.2899 163.792 14.4565C163.688 14.4792 163.584 14.4868 163.48 14.4868Z" fill="#052429"/>
<path d="M157.188 29.8233C156.623 29.8233 156.057 29.5507 155.708 29.0433C155.128 28.2102 155.321 27.059 156.139 26.4682C157.032 25.8245 157.664 25.2186 158.549 24.1583C161.212 20.9471 162.357 16.8649 161.702 12.9721C161.531 11.9648 162.193 11.0105 163.183 10.8363C164.172 10.6621 165.109 11.3362 165.28 12.3435C166.12 17.3118 164.678 22.4845 161.323 26.5364C160.401 27.6497 159.56 28.5283 158.237 29.4825C157.917 29.7097 157.552 29.8233 157.188 29.8233Z" fill="#052429"/>
<path d="M157.017 29.6946C156.466 29.6946 155.916 29.4371 155.559 28.9524C153.447 26.0668 151.111 21.8938 149.148 17.5087C147.816 14.608 147.623 12.0784 148.59 10.0184C149.534 7.98865 151.528 6.57996 154.503 5.8226C156.883 5.21671 159.322 5.57267 161.368 6.82231C163.324 8.02652 164.707 9.94264 165.25 12.2147C165.488 13.2069 164.893 14.2066 163.919 14.4489C162.945 14.6913 161.963 14.0854 161.725 13.0933C161.405 11.7754 160.617 10.6773 159.486 9.98808C158.274 9.24587 156.816 9.03381 155.373 9.40491C153.499 9.88205 152.316 10.6243 151.855 11.6088C151.26 12.8812 151.84 14.6761 152.435 15.9636C154.302 20.1367 156.496 24.0598 158.46 26.7485C159.055 27.5664 158.891 28.7252 158.088 29.3311C157.768 29.5734 157.389 29.6946 157.017 29.6946Z" fill="#052429"/>
</svg>
