<svg width="472" height="419" viewBox="0 0 472 419" fill="none" xmlns="http://www.w3.org/2000/svg">
<ellipse cx="261.178" cy="393.261" rx="210.099" ry="25.7386" fill="#E8EDED"/>
<path fill-rule="evenodd" clip-rule="evenodd" d="M354.233 337.779C354.233 337.779 350.823 307.558 335.876 300.5C320.928 293.459 286.832 363.822 286.832 363.822C286.832 363.822 295.849 374.532 321.332 370.55C346.832 366.586 354.233 337.779 354.233 337.779Z" fill="#CEA881"/>
<path fill-rule="evenodd" clip-rule="evenodd" d="M316.759 364.825C325.34 360.548 340.885 350.414 334.825 323.647C332.256 312.279 332.967 310.47 325.76 303.79C309.309 317.461 284.456 368.297 284.456 368.297C284.456 368.297 293.231 371.472 310.489 371.488C310.538 369.267 312.848 366.767 316.759 364.825Z" fill="#B48557"/>
<path fill-rule="evenodd" clip-rule="evenodd" d="M331.093 364.858C331.093 364.858 354.395 340.724 338.17 319.074L342.356 307.788C342.356 307.788 358.273 326.987 351.244 344.623C344.214 362.242 331.093 364.858 331.093 364.858Z" fill="#EDD1B3"/>
<path fill-rule="evenodd" clip-rule="evenodd" d="M282.856 369.316L329.557 368.51C329.557 368.51 352.359 369.728 360.293 373.742C368.227 377.756 373.398 382.445 370.086 386.245C366.757 390.045 293.295 388.4 293.295 388.4C293.295 388.4 273.128 387.199 282.856 369.316Z" fill="#8B6040"/>
<path fill-rule="evenodd" clip-rule="evenodd" d="M293.279 388.4C282.404 386.031 277.362 380.586 283.39 369.3L309.116 368.856C309.099 369.152 309.116 369.514 309.164 369.892C308.986 372.755 311.847 375.404 317.923 376.127L317.971 376.144H318.1C318.133 376.144 318.181 376.16 318.213 376.16C320.621 376.424 324.435 376.703 328.943 377.049C344.521 378.233 368.179 380.174 369.116 384.468V384.501L369.148 384.732V384.978L369.132 385.159L369.084 385.324L369.003 385.554L368.89 385.768L368.744 385.982L368.647 386.097L368.534 386.229L368.276 386.459L368.13 386.574L367.807 386.804L367.581 386.936L367.355 387.051L367.048 387.199L366.967 387.232C352.359 389.733 293.279 388.4 293.279 388.4Z" fill="#62432D"/>
<path d="M332.175 371.044C330.818 371.044 329.509 370.337 328.766 369.053C327.667 367.145 328.313 364.694 330.188 363.575C330.365 363.46 349.046 352.075 348.787 332.844C348.529 313.727 335.666 305.419 335.116 305.073C333.274 303.922 332.692 301.454 333.807 299.579C334.939 297.703 337.33 297.094 339.189 298.23C339.883 298.657 356.334 309.022 356.657 332.728C356.98 356.698 335.084 369.942 334.147 370.485C333.517 370.863 332.838 371.044 332.175 371.044Z" fill="#052429"/>
<path d="M317.244 366.569C362.571 362.966 374.4 374.532 377.309 382.428C378.505 385.669 376.178 389.157 372.849 389.157H290.774C277.814 389.157 278.671 374.663 284.472 368.264L317.244 366.569Z" fill="#8B6040"/>
<path d="M327.101 366.01C323.999 366.108 320.734 366.289 317.26 366.569L284.472 368.264C278.671 374.663 277.831 389.157 290.774 389.157H351.631C351.971 381.03 336.942 367.244 327.101 366.01Z" fill="#61422D"/>
<path d="M372.849 393.122H290.774C285.862 393.122 281.984 391.477 279.511 388.367C277.33 385.62 276.425 381.82 276.958 377.641C277.265 375.272 277.992 372.854 279.123 370.485C279.883 368.905 280.675 367.523 281.515 366.076C282 365.22 282.533 364.315 283.115 363.246C284.165 361.338 286.541 360.647 288.415 361.716C290.29 362.785 293.101 361.749 292.051 363.657C291.437 364.776 288.754 369.185 288.237 370.073C287.446 371.455 286.751 372.656 286.12 373.972C285.361 375.568 284.876 377.147 284.682 378.645C284.537 379.813 284.456 381.968 285.571 383.383C286.751 384.863 289.045 385.176 290.774 385.176H372.849C373.204 385.176 373.431 384.962 373.544 384.781C373.657 384.616 373.835 384.254 373.657 383.794C371.75 378.612 362.458 366.931 317.551 370.501C315.402 370.682 313.527 369.037 313.366 366.865C313.204 364.677 314.804 362.785 316.937 362.604C362.895 358.952 377.115 370.6 380.945 381.03C381.963 383.794 381.575 386.887 379.927 389.305C378.311 391.707 375.661 393.122 372.849 393.122Z" fill="#052429"/>
<path d="M351.082 392.217C350.888 392.217 350.71 392.201 350.516 392.168C348.9 391.855 347.834 390.259 348.141 388.598C348.836 384.896 344.634 381.721 344.198 381.425C342.873 380.75 342.21 379.171 342.711 377.707C343.245 376.111 344.957 375.272 346.509 375.815C348.125 376.374 355.477 382.017 354.023 389.749C353.732 391.197 352.488 392.217 351.082 392.217Z" fill="#052429"/>
<path d="M365.028 392.217C364.704 392.217 364.365 392.168 364.042 392.052C362.474 391.493 361.65 389.766 362.2 388.17C363.25 385.077 359.049 381.343 357.481 380.273C356.108 379.335 355.752 377.444 356.673 376.045C357.594 374.647 359.436 374.268 360.81 375.206C364.478 377.69 370.069 383.646 367.856 390.177C367.419 391.427 366.256 392.217 365.028 392.217Z" fill="#052429"/>
<path d="M20.2148 388.499C12.0865 387.693 5.42877 384.37 5.42877 379.286C5.42877 374.203 12.0542 369.843 20.2148 370.073C77.5974 371.768 140.038 356.978 157.086 314.829L193.138 349.18C193.138 349.196 130.391 399.324 20.2148 388.499Z" fill="#62432D"/>
<path d="M17.5646 379.122C77.9852 380.816 143.755 366.026 161.708 323.877L190.65 350.052C192.169 348.966 192.944 348.357 192.944 348.357L156.892 314.007C139.844 356.139 77.4035 370.945 20.0209 369.251C11.8603 369.004 5.23485 373.38 5.23485 378.464C5.23485 379.714 5.63884 380.849 6.34986 381.869C9.17778 380.092 13.153 379.006 17.5646 379.122Z" fill="#8B6040"/>
<path d="M36.1643 392.497C29.8136 392.497 23.172 392.349 16.0456 391.872C5.92971 391.213 0.807129 387.347 0.807129 380.405C0.807129 374.943 5.07326 368.576 17.0637 368.576C20.3925 368.576 31.6557 368.527 34.7422 368.445C71.4083 367.408 135.659 358.886 154 313.546C154.404 312.559 155.228 311.819 156.23 311.555C157.232 311.276 158.314 311.506 159.139 312.18L195.465 341.349C196.225 341.958 196.693 342.879 196.726 343.85C196.774 344.837 196.386 345.791 195.692 346.465C195.207 346.926 183.62 358.047 162.532 369.251C143.108 379.566 111.629 391.872 71.9254 391.872C66.1887 391.872 60.6299 392.02 54.7478 392.168C48.7203 392.349 42.5958 392.497 36.1643 392.497ZM16.4657 385.11C30.5084 386.031 42.7574 385.702 54.5862 385.406C60.5167 385.258 66.1241 385.11 71.9416 385.11C110.175 385.11 140.523 373.281 159.236 363.378C173.634 355.744 183.572 348.045 188.177 344.146L158.363 320.209C149.928 337.795 134.35 351.45 112.001 360.844C91.3007 369.53 65.3646 374.384 34.92 375.255C31.6234 375.354 20.1017 375.387 17.0475 375.387C12.4097 375.387 7.44871 376.703 7.44871 380.421C7.46487 381.737 7.46487 384.518 16.4657 385.11Z" fill="#052429"/>
<path fill-rule="evenodd" clip-rule="evenodd" d="M190.698 171.027C190.698 171.027 174.506 209.622 159.252 227.11C143.997 244.598 132.055 276.25 139.699 308.561C147.342 340.855 166.572 345.544 172.81 354.806C179.047 364.068 176.478 363.789 174.28 369.3C172.099 374.828 166.798 388.844 185.996 389.618C205.193 390.391 251.297 389.766 251.297 389.766C251.297 389.766 262.463 386.985 260.944 382.741C259.425 378.496 246.174 369.744 246.174 369.744C246.174 369.744 300.276 366.783 320.298 339.803C329.218 327.793 335.553 313.891 339.948 299.562C341.419 294.742 342.679 289.856 343.681 284.92C344.456 281.071 343.6 276.727 346.687 274.26C355.364 267.317 358.935 255.028 357.093 243.956C355.251 232.884 348.593 223.063 340.19 215.791C337.282 213.274 334.131 211.02 330.592 209.572C326.083 207.73 320.718 207.96 316.404 205.821C314.028 204.653 311.846 203.173 309.342 202.136C304.058 199.948 298.644 198.056 293.215 196.263C280.303 192.035 267.165 188.498 253.995 185.175C233.812 180.075 213.467 175.534 193.058 171.471C192.912 171.471 190.731 170.961 190.698 171.027Z" fill="#CEA881"/>
<path d="M256.064 206.726C204.741 203.321 205.42 186.573 198.794 185.224C196.774 184.813 191.135 184.994 184.121 185.52C177.997 198.336 168.447 216.564 159.252 227.126C143.997 244.614 132.055 276.267 139.699 308.578C147.342 340.872 166.572 345.561 172.81 354.823C179.047 364.085 176.478 363.805 174.28 369.316C172.099 374.844 166.798 388.861 185.996 389.634C205.193 390.407 251.297 389.782 251.297 389.782C251.297 389.782 262.463 387.002 260.944 382.757C259.425 378.513 246.174 369.761 246.174 369.761C246.174 369.761 254.755 369.284 266.325 367.03L267.214 357.142C267.214 357.142 219.01 280.363 234.62 284.476C250.246 288.589 281.483 315.191 270.171 292.982C258.859 270.772 227.881 262.826 221.159 252.132C216.166 244.203 215.6 232.012 226.492 229.051C232.325 227.455 238.628 229.791 243.459 233.493C244.671 234.431 245.851 235.467 247.305 235.961C248.679 236.421 250.182 236.339 251.62 236.207C265.808 234.842 279.721 231.14 293.231 226.649C299.711 224.494 306.514 222.454 312.719 219.575C315.385 218.325 333.387 208.174 333.759 208.289C330.204 207.302 319.749 207.532 316.42 205.871C316.323 205.821 316.242 205.772 316.145 205.723C304.155 207.253 285.474 208.404 258.617 206.907C257.728 206.841 256.888 206.792 256.064 206.726Z" fill="#B48557"/>
<path d="M230.192 297.901C228.689 293.212 228.14 288.161 226.605 283.456C226.12 281.992 225.522 280.511 224.439 279.426C223.518 278.504 222.306 277.928 221.143 277.353C213.144 273.388 205.517 267.86 201.234 259.93C196.564 270.443 195.174 281.844 196.112 293.278C196.984 303.856 202.818 309.811 208.474 318.498C213.548 326.279 217.281 337.187 215.713 346.4C214.485 353.54 211.867 363.229 204.967 366.076C207.585 365.006 211.14 366.01 213.839 365.944C217.022 365.862 220.335 364.727 223.211 363.427C228.786 360.893 234.103 356.665 236.834 351.006C240.066 344.31 242.441 334.587 240.373 327.168C239.597 324.387 237.933 322.216 237.335 319.205C236.753 316.228 236.947 313.168 236.058 310.239C235.137 307.196 233.133 304.646 231.727 301.8C231.113 300.516 230.629 299.217 230.192 297.901Z" fill="#CEA881"/>
<path d="M224.116 302.474C223.842 302.293 222.759 304.448 222.71 304.744C222.242 307.821 224.1 310.404 226.007 312.559C228.592 315.487 231.033 318.629 232.374 322.364C233.893 326.576 233.99 331.462 233.537 335.871C232.422 346.646 227.17 358.607 218.056 364.167C206.195 371.406 227.752 365.401 231.598 360.252C235.428 355.119 254.205 323.038 224.116 302.474Z" fill="#EDD1B3"/>
<path fill-rule="evenodd" clip-rule="evenodd" d="M226.282 300.911C226.152 300.697 226.055 300.467 225.942 300.237C222.84 292.932 223.292 284.822 223.567 277.073C223.89 267.696 226.459 256.541 231.049 248.266C242.49 227.587 264.628 216.153 287.947 216.202C309.616 216.252 327.053 227.307 335.084 249.138C340.514 263.895 347.252 288.951 342.921 303.543C337.395 322.183 309.794 361.387 275.019 365.401C252.218 368.033 230.58 362.111 230.58 362.111C230.58 362.111 246.223 332.416 240.777 319.518C238.951 315.191 236.478 311.16 233.456 307.607C231.404 305.205 227.881 303.724 226.282 300.911Z" fill="#FBF2E9"/>
<path d="M335.068 249.138C333.29 244.302 331.044 239.975 328.394 236.191L326.115 244.4C313.592 253.037 304.462 267.811 302.652 282.041C301.504 291.024 301.973 306.801 313.947 309.055C320.153 310.223 326.536 307.706 331.044 303.379C335.763 298.871 337.831 292.406 342.824 288.046C343.228 287.684 343.649 287.339 344.069 286.993C343.067 273.98 338.768 259.174 335.068 249.138Z" fill="#EED7BB"/>
<path fill-rule="evenodd" clip-rule="evenodd" d="M309.956 220.759C303.363 217.749 295.945 216.235 287.93 216.219C271.141 216.186 254.965 222.108 242.958 233.147C243.12 233.263 243.281 233.378 243.427 233.509C244.639 234.447 245.819 235.484 247.273 235.977C248.646 236.438 250.149 236.355 251.587 236.224C265.776 234.858 279.689 231.157 293.198 226.666C298.741 224.79 304.526 223.03 309.956 220.759Z" fill="#EED7BB"/>
<path d="M254.787 371.866C244.219 371.866 231.614 369.152 226.443 367.309C224.391 366.586 223.308 364.299 224.019 362.209C224.73 360.12 226.976 359.018 229.029 359.742C233.893 361.469 245.544 363.855 254.787 363.855C303.702 363.855 343.503 323.516 343.503 273.947C343.503 271.726 345.264 269.933 347.43 269.933C349.611 269.933 351.373 271.726 351.373 273.947C351.373 327.925 308.049 371.866 254.787 371.866Z" fill="#052429"/>
<path d="M179.839 365.088C179.5 366.01 179.079 366.882 178.546 367.704C176.623 370.797 174.926 376.901 170.176 375.568C166.572 374.548 167.138 371.751 168.56 369.119C169.529 367.309 170.628 365.434 171.921 363.378C172.68 362.177 172.939 360.745 172.664 359.396C172.373 358.031 171.565 356.863 170.418 356.122C149.798 342.846 137.598 324.749 134.156 302.31C129.179 269.949 143.981 238.33 158.153 221.088C184.089 189.518 186.481 168.46 186.513 168.246C186.739 166.058 188.646 164.446 190.811 164.66C192.961 164.874 194.544 166.815 194.35 169.003C194.27 169.941 191.91 192.496 164.197 226.221C150.041 243.446 137.663 273.273 141.945 301.076C145.031 321.13 156.036 337.368 174.652 349.344C177.561 351.236 179.661 354.28 180.388 357.702C180.889 360.153 180.695 362.736 179.839 365.088Z" fill="#052429"/>
<path d="M222.549 371.044C221.191 371.044 219.882 370.337 219.139 369.053C218.04 367.145 218.687 364.694 220.561 363.575C220.739 363.46 239.419 352.075 239.161 332.844C238.902 313.727 226.039 305.419 225.49 305.073C223.648 303.922 223.066 301.454 224.181 299.579C225.312 297.703 227.704 297.094 229.562 298.23C230.257 298.657 246.707 309.022 247.031 332.728C247.354 356.698 225.457 369.942 224.52 370.485C223.906 370.863 223.227 371.044 222.549 371.044Z" fill="#052429"/>
<path fill-rule="evenodd" clip-rule="evenodd" d="M212.53 208.322C212.53 208.322 212.514 208.371 212.481 208.421C213.499 208.602 214.453 208.733 215.358 208.799L212.53 208.322Z" fill="white"/>
<path d="M226.621 283.456C226.136 281.992 225.538 280.511 224.456 279.426C223.534 278.504 222.322 277.928 221.159 277.353C213.419 273.519 206.034 268.206 201.687 260.687L200.669 261.329C195.191 257.331 193.72 271.841 193.365 274.605C193.106 276.629 192.847 278.669 193.09 280.692C193.332 282.716 194.35 286.006 195.837 287.372C196.241 283.736 196.839 281.679 198.6 280.511C200.943 278.965 203.577 280.199 205.63 281.696C207.989 283.423 210.364 285.035 212.918 286.467C218.056 289.329 223.534 291.55 229.045 293.541C228.269 290.168 227.687 286.73 226.621 283.456Z" fill="#B48557"/>
<path d="M206.842 366.569C253.268 362.966 265.388 374.532 268.361 382.428C269.589 385.669 267.198 389.157 263.788 389.157H179.726C166.459 389.157 167.331 374.663 173.262 368.264L206.842 366.569Z" fill="#8B6040"/>
<path d="M216.941 366.01C213.774 366.108 210.429 366.289 206.858 366.569L173.278 368.264C167.348 374.663 166.475 389.157 179.742 389.157H242.069C242.409 381.03 227.009 367.244 216.941 366.01Z" fill="#61422D"/>
<path d="M277.879 284.723C271.351 263.023 254.997 250.553 236.43 240.172C234.442 242.689 232.632 245.387 231.049 248.283C226.459 256.558 223.906 267.712 223.567 277.089C223.405 281.86 223.163 286.763 223.728 291.534C227.235 292.932 230.693 294.15 233.925 295.235C247.628 299.858 249.729 316.853 269.832 311.818C281.79 308.808 280.707 294.084 277.879 284.723Z" fill="#EED7BB"/>
<path d="M263.788 393.171H179.726C174.733 393.171 170.773 391.542 168.253 388.45C166.006 385.686 165.069 381.853 165.619 377.641C165.926 375.255 166.685 372.837 167.849 370.452C168.624 368.872 169.448 367.49 170.305 366.026C170.806 365.171 171.339 364.266 171.937 363.213C173.02 361.288 175.427 360.614 177.318 361.716C179.209 362.818 179.855 365.269 178.789 367.194C178.158 368.313 177.593 369.267 177.076 370.172C176.252 371.554 175.557 372.755 174.91 374.055C174.135 375.634 173.634 377.197 173.44 378.694C173.294 379.845 173.214 381.968 174.345 383.35C175.621 384.929 178.272 385.159 179.742 385.159H263.788C264.224 385.159 264.467 384.896 264.58 384.732C264.709 384.551 264.822 384.238 264.677 383.876C262.721 378.694 253.203 366.997 207.133 370.583C204.967 370.731 203.076 369.103 202.899 366.882C202.721 364.661 204.353 362.752 206.535 362.571C253.559 358.936 268.103 370.583 272.029 380.997C273.064 383.744 272.708 386.837 271.06 389.272C269.428 391.723 266.697 393.171 263.788 393.171Z" fill="#052429"/>
<path d="M241.504 392.25C241.31 392.25 241.116 392.233 240.922 392.184C239.274 391.855 238.207 390.226 238.531 388.565C239.242 384.896 234.927 381.754 234.491 381.458C233.149 380.783 232.455 379.187 232.939 377.707C233.473 376.095 235.186 375.223 236.769 375.766C238.417 376.325 245.964 381.984 244.461 389.766C244.186 391.23 242.91 392.25 241.504 392.25Z" fill="#052429"/>
<path d="M255.773 392.25C255.433 392.25 255.094 392.184 254.755 392.069C253.171 391.493 252.347 389.733 252.913 388.137C253.995 385.011 249.39 381.178 248.097 380.323C246.691 379.401 246.303 377.476 247.208 376.062C248.113 374.63 250.004 374.236 251.394 375.157C255.159 377.657 260.912 383.629 258.617 390.21C258.197 391.46 257.033 392.25 255.773 392.25Z" fill="#052429"/>
<path d="M215.115 273.964C215.115 273.964 228.431 280.89 241.31 285.233C254.173 289.576 256.161 305.551 275.051 300.812C293.942 296.074 273.241 251.853 248.356 234.612C225.635 232.605 224.262 253.695 215.115 273.964Z" fill="#CEA881"/>
<path d="M215.293 273.552C215.228 273.684 215.164 273.816 215.115 273.964C215.115 273.964 215.891 274.358 217.248 275.033C216.57 274.556 215.923 274.062 215.293 273.552Z" fill="#EDD1B3"/>
<path d="M275.52 300.664C290.758 296.124 278.477 264.323 259.441 244.252C254.415 240.551 249.147 237.359 243.992 234.496C243.734 234.348 242.958 234.579 242.651 234.562C242.231 234.546 241.795 234.513 241.375 234.464C240.534 234.365 239.694 234.151 239.015 233.608C237.9 235.072 236.963 236.257 237.82 238.856C238.159 239.876 238.805 240.764 239.726 241.274C255.902 250.224 271.706 261.263 277.734 281.317C279.333 286.648 280.206 293.886 277.831 298.164C277.249 299.233 276.489 300.056 275.52 300.664Z" fill="#EDD1B3"/>
<path d="M222.791 254.205C220.367 260.276 218.186 267.169 215.115 273.947C215.115 273.947 228.431 280.873 241.31 285.216C245.867 286.746 249.05 289.757 252.121 292.768C259.312 296.848 266.131 300.961 269.799 301.619C270.478 301.586 271.189 301.52 271.932 301.405C273.112 300.582 272.773 298.065 270.171 292.965C259.603 272.236 231.873 263.928 222.791 254.205Z" fill="#B48557"/>
<path d="M275.051 300.796C287.898 297.572 286.169 279.557 278.025 264.455C273.306 265.837 268.523 267.827 263.869 270.443C256.015 274.868 249.487 280.511 244.623 286.681C254.674 292.34 257.89 305.106 275.051 300.796Z" fill="#8B6040"/>
<path d="M255.433 276.036C251.248 279.277 247.612 282.897 244.607 286.697C247.515 288.326 249.842 290.547 252.105 292.768C259.296 296.848 266.115 300.961 269.783 301.619C270.462 301.586 271.173 301.52 271.916 301.405C273.096 300.582 272.757 298.065 270.155 292.965C266.681 286.154 261.348 280.676 255.433 276.036Z" fill="#61422D"/>
<path d="M283.697 279.82C283.648 279.557 283.6 279.294 283.535 279.031C283.454 278.652 283.357 278.257 283.26 277.879C283.163 277.484 283.066 277.089 282.953 276.695C282.872 276.415 282.808 276.135 282.727 275.856C282.63 275.543 282.549 275.247 282.452 274.934C282.371 274.671 282.291 274.424 282.21 274.161C282.113 273.848 282 273.536 281.887 273.207C281.806 272.96 281.709 272.713 281.612 272.45C281.402 271.891 281.192 271.315 280.966 270.756C280.869 270.509 280.772 270.278 280.675 270.032C280.545 269.703 280.4 269.374 280.255 269.045C280.158 268.814 280.044 268.568 279.931 268.337C279.786 268.008 279.64 267.679 279.479 267.367C279.35 267.103 279.22 266.857 279.107 266.593C278.849 266.067 278.574 265.524 278.299 264.998C278.202 264.817 278.105 264.636 278.008 264.471C275.698 265.146 273.225 266.018 270.914 266.988C277.701 278.373 281.563 291.682 278.251 299.529C278.655 299.299 279.026 299.052 279.382 298.789C279.447 298.74 279.511 298.674 279.592 298.624C279.883 298.394 280.158 298.164 280.416 297.901C280.481 297.835 280.545 297.785 280.61 297.72C281.224 297.094 281.757 296.403 282.21 295.663C282.258 295.581 282.307 295.499 282.355 295.416C282.533 295.104 282.695 294.791 282.856 294.462C282.905 294.38 282.937 294.281 282.986 294.199C283.341 293.393 283.632 292.521 283.858 291.6C283.89 291.468 283.923 291.353 283.939 291.221C284.02 290.876 284.084 290.514 284.133 290.168C284.149 290.037 284.181 289.905 284.198 289.773C284.262 289.296 284.311 288.819 284.359 288.326C284.359 288.244 284.359 288.161 284.375 288.079C284.408 287.668 284.424 287.24 284.424 286.812C284.424 286.631 284.424 286.434 284.424 286.253C284.424 285.907 284.408 285.562 284.391 285.216C284.375 285.019 284.375 284.822 284.359 284.624C284.327 284.131 284.294 283.621 284.23 283.111C284.214 282.93 284.181 282.732 284.165 282.551C284.117 282.206 284.068 281.844 284.02 281.482C283.987 281.235 283.939 280.972 283.89 280.725C283.826 280.429 283.761 280.133 283.697 279.82Z" fill="#B57E54"/>
<path d="M268.539 305.699C259.522 305.699 254.464 300.697 249.907 296.173C246.885 293.195 244.041 290.366 240.082 289.033C227.995 284.953 205.5 277.369 199.941 258.466C199.311 256.344 200.507 254.107 202.592 253.481C204.676 252.84 206.874 254.057 207.488 256.18C211.334 269.275 226.621 276.053 242.554 281.433C248.226 283.341 252.04 287.108 255.401 290.432C260.637 295.614 264.418 299.348 274.114 296.913C276.376 296.354 277.895 295.219 278.929 293.376C281.305 289.099 280.448 281.877 278.833 276.53C272.789 256.476 257.001 245.437 240.825 236.487C238.918 235.434 238.207 232.999 239.242 231.042C240.276 229.1 242.667 228.376 244.59 229.429C261.396 238.724 279.495 251.31 286.379 274.177C287.672 278.488 290.225 289.379 285.797 297.325C283.713 301.059 280.335 303.609 276.021 304.695C273.225 305.386 270.753 305.699 268.539 305.699Z" fill="#052429"/>
<path d="M270.72 304.646C270.575 304.646 270.43 304.629 270.284 304.613C268.636 304.366 267.488 302.803 267.715 301.109C268.054 298.723 265.953 294.479 264.871 292.801C263.966 291.369 264.354 289.461 265.759 288.54C267.165 287.618 269.04 288.013 269.945 289.428C270.413 290.152 274.469 296.667 273.71 301.997C273.5 303.543 272.207 304.646 270.72 304.646Z" fill="#052429"/>
<path d="M281.984 299.102C280.448 299.102 279.14 297.917 278.978 296.338C278.493 291.567 275.051 287.273 275.019 287.24C273.952 285.924 274.13 283.983 275.423 282.897C276.699 281.811 278.606 281.992 279.689 283.292C279.883 283.522 284.343 289.033 285.022 295.696C285.199 297.391 283.987 298.904 282.323 299.085C282.194 299.101 282.097 299.102 281.984 299.102Z" fill="#052429"/>
<path d="M357.077 243.973C355.235 232.901 348.577 223.079 340.174 215.808C337.831 213.784 335.326 211.925 332.595 210.51L331.173 210.856C331.173 210.856 349.951 232.44 347.931 248.48C346.897 256.69 339.835 262.579 334.632 268.288C331.432 271.776 328.41 275.461 326.148 279.689C324.936 281.959 323.966 284.344 323.271 286.812C322.77 288.622 321.138 293.508 322.027 295.268C322.997 297.193 326.148 295.877 327.424 294.841C328.846 293.672 329.8 292.027 330.64 290.366C332.595 286.467 334.131 282.239 337.088 279.064C339.98 275.954 343.164 275.609 346.767 273.997C349.434 272.812 351.534 269.324 352.989 266.873C357.029 260.111 358.37 251.754 357.077 243.973Z" fill="#EDD1B3"/>
<path d="M356.415 250.849C357.4 265.656 347.737 270.098 338.704 278.076C330.382 285.43 333.403 299.562 317.971 301.026C308.695 301.915 305.512 289.757 304.979 281.433C303.734 261.773 315.676 242.278 329.347 231.519" fill="#CEA881"/>
<path d="M356.415 250.849L348.06 244.877C348.125 246.111 348.092 247.312 347.931 248.497C346.897 256.706 339.835 262.596 334.632 268.304C331.432 271.792 328.41 275.477 326.148 279.705C324.936 281.975 323.966 284.361 323.271 286.829C322.77 288.638 321.138 293.524 322.027 295.285C322.997 297.21 326.148 295.893 327.424 294.857C328.846 293.689 329.8 292.044 330.64 290.382C332.595 286.483 334.131 282.255 337.088 279.08C338.203 277.879 339.35 277.106 340.546 276.497C349.014 269.439 357.336 264.636 356.415 250.849Z" fill="#EDD1B3"/>
<path d="M326.6 294.446C317.325 295.334 314.141 283.176 313.608 274.852C313.608 274.737 313.592 274.638 313.592 274.523C313.188 267.202 314.61 259.881 317.244 253.087C318.569 249.681 320.185 246.391 322.059 243.265C322.98 241.719 323.966 240.205 325.017 238.724C325.534 238.001 326.067 237.277 326.616 236.569C327.004 236.076 327.521 235.368 327.004 234.743C325.954 233.46 323.288 237.014 322.609 237.737C321.171 239.267 319.797 240.847 318.504 242.508C314.19 247.987 310.667 254.14 308.243 260.72C305.819 267.317 304.559 274.391 305.011 281.449C305.544 289.773 308.728 301.915 318.003 301.043C324.516 300.418 327.731 297.555 329.913 293.903C328.895 294.133 327.796 294.331 326.6 294.446Z" fill="#B48557"/>
<path d="M316.387 296.749C305.528 296.848 303.023 280.297 306.223 264.882C310.263 265.014 314.464 265.689 318.714 266.955C325.873 269.094 332.256 272.631 337.443 277.024C330.689 284.427 330.882 296.617 316.387 296.749Z" fill="#8B6040"/>
<path d="M337.443 277.04C335.472 275.378 333.339 273.832 331.06 272.434C329.218 274.704 327.537 277.106 326.164 279.689C324.952 281.959 323.982 284.344 323.287 286.812C322.787 288.622 321.154 293.508 322.043 295.268C322.14 295.482 322.269 295.647 322.431 295.778C331.012 292.751 331.804 283.209 337.443 277.04Z" fill="#B57E54"/>
<path d="M316.387 296.749C320.169 296.716 322.964 295.861 325.13 294.479C316.985 294.018 314.093 282.732 313.608 274.868C313.608 274.753 313.592 274.655 313.592 274.539C313.43 271.611 313.559 268.683 313.947 265.787C311.556 265.31 309.18 265.03 306.869 264.932C305.787 268.781 305.108 272.746 304.946 276.727C304.866 287.717 308.324 296.815 316.387 296.749Z" fill="#61422D"/>
<path d="M317.098 301.586C315.838 301.586 314.577 301.454 313.333 301.174C297.933 297.736 298.903 276.234 299.565 269.719C301.117 254.436 309.924 238.724 321.979 229.726C323.74 228.409 326.196 228.804 327.489 230.581C328.782 232.374 328.394 234.875 326.649 236.191C316.307 243.923 308.76 257.413 307.419 270.558C307.209 272.664 305.593 291.254 315.03 293.36C320.896 294.66 326.956 290.432 329.428 285.578C331.707 281.104 333.759 277.402 337.492 273.848C338.882 272.516 340.32 271.298 341.726 270.13C343.552 268.6 345.265 267.136 346.8 265.54C351.89 260.177 354.007 253.547 353.086 245.815C351.357 231.206 339.463 216.548 328.62 209.622C326.778 208.437 326.229 205.97 327.376 204.094C328.539 202.219 330.963 201.659 332.806 202.827C344.844 210.527 358.79 226.962 360.907 244.861C362.103 254.962 359.178 264.06 352.456 271.134C350.629 273.059 348.658 274.72 346.751 276.316C345.378 277.468 344.085 278.554 342.873 279.722C340.045 282.42 338.413 285.381 336.425 289.296C332.579 296.765 324.742 301.586 317.098 301.586Z" fill="#052429"/>
<path d="M321.979 300.73C320.815 300.73 319.716 300.056 319.215 298.904C317.212 294.363 318.957 287.602 319.167 286.845C319.619 285.2 321.284 284.246 322.9 284.69C324.516 285.151 325.453 286.845 325.017 288.474C324.435 290.662 323.966 294.561 324.758 296.371C325.437 297.917 324.758 299.743 323.239 300.451C322.819 300.648 322.399 300.73 321.979 300.73Z" fill="#052429"/>
<path d="M311.685 299.398C310.279 299.398 309.002 298.394 308.712 296.93C307.516 290.876 309.552 284.789 309.633 284.542C310.182 282.93 311.911 282.074 313.495 282.634C315.078 283.193 315.919 284.937 315.369 286.549C315.337 286.648 313.802 291.369 314.658 295.713C314.998 297.391 313.931 299.003 312.283 299.348C312.073 299.365 311.879 299.398 311.685 299.398Z" fill="#052429"/>
<path d="M233.456 20.1663C257.033 13.125 279.398 12.8289 300.406 20.1663C324.144 22.0911 337.669 35.3839 341.677 59.2715C345.248 65.704 349.256 72.2682 354.265 78.0591C364.753 90.1839 383.24 107.162 381.785 148.258C380.331 189.354 351.551 205.838 316.371 205.838C286.541 209.523 251.749 210.642 222.92 206.841C187.741 206.841 152.869 186.738 151.414 145.642C149.96 104.546 169.109 90.2003 179.597 78.0756C184.606 72.2846 188.614 65.7205 192.185 59.288C195.239 35.5649 207.343 20.8737 233.456 20.1663Z" fill="#CEA881"/>
<path d="M307.144 27.0924C307.936 26.352 309.713 24.5917 309.568 23.654C309.245 21.6634 301.941 22.2063 300.422 21.6798C279.414 14.3424 257.049 14.6386 233.473 21.6798C232.083 22.0911 230.176 21.8279 228.722 21.9759C228.011 22.0418 225.102 21.9924 224.763 22.6669C224.649 22.8808 224.682 23.1276 224.73 23.3579C224.908 24.2792 225.296 25.1511 225.861 25.9079C226.298 26.5001 226.831 26.9937 227.348 27.5037C227.526 27.6682 227.687 27.8327 227.865 27.9972C228.027 28.1453 228.188 28.3098 228.366 28.4578C232.131 31.6659 237.399 28.8856 241.488 27.9149C246.223 26.7962 251.022 25.9408 255.854 25.3814C263.432 24.5095 271.108 24.4108 278.703 25.2004C282.436 25.5953 286.137 26.1875 289.789 27.0101C291.615 27.4214 293.441 27.882 295.251 28.4085C296.753 28.8362 298.176 29.5272 299.711 29.8233C301.731 30.2181 304.268 29.7082 305.819 28.2769C305.867 28.2111 307.079 27.1582 307.144 27.0924Z" fill="#EDD1B3"/>
<path d="M353.797 196.049C353.797 196.049 313.592 220.249 232.196 206.874C169.804 196.625 162.985 130.095 190.456 84.5904C215.067 43.8071 210.655 29.7575 210.655 29.7575C204.676 46.0116 197.55 54.8625 189.858 63.3844C186.885 68.4679 183.556 73.5021 179.613 78.0591C176.349 81.8265 172.26 85.8078 168.204 90.7432C165.651 94.9877 163.098 99.808 160.561 105.434C146.631 136.347 156.295 165.927 161.417 177.821C174.523 197.267 198.649 206.841 222.92 206.841C251.749 210.642 281.111 210.527 310.942 206.841C319.49 206.841 327.99 205.805 335.973 203.65C338.671 201.659 353.797 196.049 353.797 196.049Z" fill="#B48557"/>
<path d="M358.224 85.2484C355.445 81.9417 352.213 79.0298 349.692 75.5091C347.414 72.334 345.733 68.4843 345.927 64.6018C344.925 62.9237 343.956 61.2292 343.034 59.5512C340.255 42.9845 336.878 32.7188 324.71 26.5988C323.95 30.9914 324.289 37.0455 325.324 41.4052C331.432 67.3163 351.066 85.8407 362.232 109.284C371.459 128.664 372.962 152.601 362.491 171.783C350.84 193.17 342.76 198.237 315.822 204.555C315.143 204.719 308.631 206.743 308.905 207.121C311.895 206.809 314.836 206.48 317.729 206.118C322.447 206.118 327.053 205.821 331.497 205.213C334.26 204.127 336.991 202.926 339.657 201.725C346.751 198.55 353.926 195.325 360.131 190.604C366.24 185.981 371.281 180.009 375.273 173.412C378.634 167.851 381.268 161.764 382.609 155.398C382.868 153.193 383.046 150.906 383.126 148.537C383.256 145.066 383.223 141.759 383.078 138.617C381.22 125.341 374.626 112.591 368.082 100.68C365.157 95.3003 362.151 89.9207 358.224 85.2484Z" fill="#EDD1B3"/>
<path d="M267.408 102.769C287.672 102.769 305.108 113.15 306.401 129.667C308.663 159.214 286.864 187.692 267.408 187.692H266.438C246.998 187.692 225.199 159.231 227.445 129.667C228.738 113.15 246.174 102.769 266.438 102.769H267.408Z" fill="#F2E1CC"/>
<path d="M266.939 102.852C277.976 102.852 286.928 109.333 286.928 117.329C286.928 125.324 281.24 144.293 266.939 144.293C252.638 144.293 246.95 125.324 246.95 117.329C246.934 109.333 255.886 102.852 266.939 102.852Z" fill="#CBA383"/>
<path d="M266.939 96.4354C277.976 96.4354 286.928 102.917 286.928 110.913C286.928 118.908 281.24 137.877 266.939 137.877C252.638 137.877 246.95 118.908 246.95 110.913C246.934 102.917 255.886 96.4354 266.939 96.4354Z" fill="#052429"/>
<path d="M266.939 99.989C265.759 99.989 264.58 100.088 263.416 100.269C263.028 100.334 262.156 100.417 261.897 100.762C261.283 101.568 262.689 101.568 263.19 101.568C272.159 101.568 278.929 106.668 278.929 113.15C278.929 117.559 277.314 126.262 272.304 131.28C271.884 131.707 272.401 132.398 272.918 132.102C280.19 128.022 283.196 117 283.196 111.752C283.179 105.253 275.908 99.989 266.939 99.989Z" fill="#373737"/>
<path d="M266.939 142.055C258.245 151.597 248.905 149.969 242.053 143.783C248.533 162.554 255.24 176.061 266.939 176.061C278.639 176.061 285.345 162.538 291.825 143.783C284.957 149.969 275.617 151.597 266.939 142.055Z" fill="#052429"/>
<path d="M282.824 164.643C280.158 160.267 274.195 157.224 267.23 157.224C260.007 157.224 253.85 160.514 251.345 165.153C255.563 171.964 260.475 176.077 266.923 176.077C273.532 176.061 278.542 171.767 282.824 164.643Z" fill="#F47676"/>
<path d="M282.824 164.643C280.158 160.267 274.195 157.224 267.23 157.224C260.007 157.224 253.85 160.514 251.345 165.153C255.563 171.964 260.475 176.077 266.923 176.077C273.532 176.061 278.542 171.767 282.824 164.643Z" fill="#FF949A"/>
<path d="M253.995 168.921C257.615 173.445 261.784 176.077 266.939 176.077C272.288 176.077 276.603 173.248 280.319 168.378C277.588 165.252 272.821 163.163 267.375 163.163C261.623 163.163 256.613 165.482 253.995 168.921Z" fill="#E26A74"/>
<path d="M280.109 152.831C276.376 152.831 271.738 151.663 266.939 147.583C260.831 152.765 254.997 153.242 250.941 152.601C243.12 151.367 235.573 144.786 231.259 135.442C230.338 133.435 231.178 131.049 233.149 130.112C235.121 129.174 237.464 130.029 238.385 132.036C241.552 138.897 246.95 143.865 252.153 144.688C256.225 145.329 260.233 143.536 264.063 139.325C264.806 138.502 265.856 138.041 266.955 138.041C268.054 138.041 269.104 138.502 269.848 139.325C273.661 143.52 277.669 145.329 281.757 144.688C286.945 143.865 292.358 138.897 295.525 132.036C296.446 130.029 298.79 129.174 300.761 130.112C302.733 131.049 303.573 133.435 302.652 135.442C298.337 144.803 290.791 151.367 282.969 152.601C282.064 152.749 281.127 152.831 280.109 152.831Z" fill="#052429"/>
<path d="M266.939 178.825C259.99 178.825 254.141 174.827 249.067 166.618C248.549 165.779 248.517 164.709 248.986 163.821C252.04 158.129 259.215 154.46 267.23 154.46C274.873 154.46 281.887 157.882 285.119 163.179C285.652 164.068 285.668 165.186 285.135 166.075C279.98 174.646 274.033 178.825 266.939 178.825ZM254.593 165.153C258.358 170.714 262.317 173.313 266.923 173.313C271.642 173.313 275.681 170.582 279.527 164.759C276.926 161.814 272.304 159.971 267.23 159.971C261.946 159.971 257.098 162.011 254.593 165.153Z" fill="#052429"/>
<path d="M266.939 180.075C251.684 180.075 244.186 162.028 238.337 145.115C237.739 143.388 238.369 141.48 239.856 140.46C241.342 139.44 243.33 139.571 244.671 140.789C249.196 144.869 256.225 147.929 264.047 139.341C264.79 138.518 265.84 138.058 266.939 138.058C268.038 138.058 269.088 138.518 269.832 139.341C277.653 147.945 284.682 144.885 289.207 140.789C290.548 139.571 292.52 139.44 294.023 140.46C295.509 141.48 296.139 143.388 295.542 145.115C289.692 162.028 282.178 180.075 266.939 180.075ZM249.438 152.321C254.399 164.462 259.651 172.047 266.939 172.047C274.227 172.047 279.479 164.462 284.44 152.321C278.477 153.752 272.369 152.157 266.939 147.567C261.509 152.157 255.385 153.769 249.438 152.321Z" fill="#052429"/>
<path d="M266.939 144.984C264.758 144.984 262.996 143.191 262.996 140.97V134.257C262.996 132.036 264.758 130.243 266.939 130.243C269.121 130.243 270.882 132.036 270.882 134.257V140.97C270.866 143.191 269.104 144.984 266.939 144.984Z" fill="#052429"/>
<path d="M224.294 107.935C232.433 107.935 239.032 100.702 239.032 91.7797C239.032 82.8573 232.433 75.6243 224.294 75.6243C216.155 75.6243 209.556 82.8573 209.556 91.7797C209.556 100.702 216.155 107.935 224.294 107.935Z" fill="#052429"/>
<path d="M229.869 93.5071C232.029 93.5071 233.78 91.7246 233.78 89.5258C233.78 87.327 232.029 85.5446 229.869 85.5446C227.709 85.5446 225.958 87.327 225.958 89.5258C225.958 91.7246 227.709 93.5071 229.869 93.5071Z" fill="white"/>
<path d="M309.568 107.935C317.707 107.935 324.306 100.702 324.306 91.7797C324.306 82.8573 317.707 75.6243 309.568 75.6243C301.429 75.6243 294.831 82.8573 294.831 91.7797C294.831 100.702 301.429 107.935 309.568 107.935Z" fill="#052429"/>
<path d="M303.993 93.5071C306.153 93.5071 307.904 91.7246 307.904 89.5258C307.904 87.327 306.153 85.5446 303.993 85.5446C301.833 85.5446 300.082 87.327 300.082 89.5258C300.082 91.7246 301.833 93.5071 303.993 93.5071Z" fill="white"/>
<path d="M196.419 16.547C208.215 19.5411 209.653 27.1746 205.42 36.3875C204.757 37.8517 203.949 39.3487 203.012 40.8787C199.441 46.719 196.079 53.9083 192.169 61.2621C189.793 59.5512 187.563 57.4783 185.559 55.0764C178.821 46.9329 176.284 36.7165 177.835 27.5037C177.835 27.5037 177.835 27.4872 177.851 27.4707C178.142 26.714 183.152 13.1415 196.419 16.547Z" fill="#ED887E"/>
<path d="M194.738 52.0493C186.755 42.4581 181.6 25.1675 192.993 16.0205C182.295 15.5434 178.126 26.7798 177.884 27.4543C177.868 27.4872 177.868 27.4872 177.868 27.4872C176.316 36.7 178.853 46.9 185.592 55.0599C187.579 57.4618 189.809 59.5347 192.201 61.2457C193.575 58.6628 194.867 56.1128 196.144 53.6122C195.643 53.1186 195.191 52.5922 194.738 52.0493Z" fill="#FEB1AA"/>
<path d="M233.456 20.4131C227.413 30.2346 220.496 31.1394 207.811 31.8962L205.42 36.3875C209.653 27.1746 208.231 19.5411 196.419 16.547C183.152 13.1579 178.126 26.714 177.851 27.4543C178.95 20.9724 182.085 15.0005 187.208 10.5915C199.634 -0.0855146 219.042 2.51383 230.548 16.3989C231.63 17.6821 232.6 19.0311 233.456 20.4131Z" fill="#CEA881"/>
<path d="M178.756 23.6869C178.385 24.9208 178.094 26.1711 177.868 27.4543C177.964 27.1746 178.74 25.0853 180.372 22.7656C179.807 23.0453 179.257 23.3414 178.756 23.6869Z" fill="#EDD1B3"/>
<path d="M230.564 17.9124C219.058 4.02736 199.651 1.42802 187.224 12.105C186.06 13.1086 184.994 14.1944 184.04 15.346C196.419 7.35056 213.774 10.5586 224.407 23.3743C225.037 24.1311 225.651 24.9208 226.217 25.7433C226.508 26.1546 226.783 26.5824 227.073 27.0101C227.38 27.4708 227.655 27.9149 228.059 28.2769C228.172 28.3756 228.318 28.4907 228.479 28.4578C228.56 28.4414 228.625 28.4085 228.689 28.3591C229.659 27.7175 230.063 26.4672 230.806 25.5953C231.792 24.4437 232.665 23.2098 233.456 21.9101C232.6 20.5447 231.63 19.1956 230.564 17.9124Z" fill="#EDD1B3"/>
<path d="M177.868 31.4685C177.641 31.4685 177.415 31.452 177.189 31.4027C175.04 31.0243 173.601 28.9514 173.973 26.7798C175.266 19.0969 178.966 12.4505 184.671 7.53153C191.539 1.62544 200.442 -0.940995 209.734 0.309319C218.897 1.54318 227.348 6.33057 233.553 13.816C234.685 15.1815 235.767 16.6786 236.753 18.2579C237.916 20.1169 237.383 22.6011 235.557 23.8021C233.731 24.9866 231.291 24.4437 230.111 22.5847C229.32 21.3179 228.447 20.1005 227.526 19.0147C222.597 13.0592 215.907 9.25894 208.684 8.2883C201.606 7.33411 194.884 9.25894 189.729 13.6844C185.463 17.3695 182.683 22.3708 181.714 28.1617C181.423 30.0865 179.758 31.4685 177.868 31.4685Z" fill="#052429"/>
<path d="M191.539 64.7828C190.747 64.7828 189.955 64.536 189.26 64.0424C186.384 61.9696 184.574 60.0612 182.57 57.6593C175.282 48.8413 172.147 37.6049 173.973 26.8127C174.345 24.6246 176.381 23.1769 178.53 23.5388C180.679 23.9172 182.118 25.9901 181.746 28.1782C180.324 36.6342 182.812 45.5016 188.597 52.477C190.504 54.7802 191.878 56.0964 193.833 57.4947C195.611 58.778 196.031 61.2786 194.77 63.0883C193.979 64.1905 192.767 64.7828 191.539 64.7828Z" fill="#052429"/>
<path d="M191.926 64.5031C191.102 64.5031 190.278 64.2399 189.583 63.7134C187.838 62.3973 187.482 59.8802 188.775 58.1034C193.041 52.2796 197.808 43.7577 201.848 34.7259C203.157 31.8962 204.418 27.9807 203.125 25.2169C202.123 23.0782 199.554 21.466 195.481 20.4295C192.347 19.6234 189.179 20.084 186.545 21.6963C184.105 23.1934 182.376 25.5953 181.681 28.4414C181.164 30.5965 179.031 31.9127 176.914 31.3862C174.797 30.8598 173.504 28.6882 174.022 26.533C175.217 21.5811 178.207 17.4353 182.473 14.8195C186.917 12.0886 192.217 11.3154 197.388 12.6479C203.852 14.2931 208.167 17.3531 210.235 21.7621C212.336 26.2533 211.916 31.7317 209.007 38.0655C204.757 47.558 199.683 56.6064 195.094 62.8744C194.318 63.9437 193.122 64.5031 191.926 64.5031Z" fill="#052429"/>
<path d="M222.92 211.185C210.025 211.185 196.5 207.911 184.848 201.939C172.147 195.441 162.306 186.211 156.391 175.255C145.888 155.776 145.839 129.931 156.246 107.82C161.11 97.5048 167.8 88.2755 174.28 79.3588C179.338 72.3834 184.574 65.1776 188.743 57.6593C189.809 55.7344 192.217 55.0435 194.108 56.1457C195.999 57.2315 196.677 59.6828 195.595 61.6076C191.183 69.5701 185.802 76.9733 180.598 84.1462C174.054 93.1616 167.865 101.683 163.34 111.308C154 131.132 153.984 154.147 163.292 171.405C173.375 190.11 197.889 203.173 222.904 203.173C225.086 203.173 226.847 204.966 226.847 207.187C226.847 209.408 225.102 211.185 222.92 211.185Z" fill="#052429"/>
<path d="M310.942 211.185C308.76 211.185 306.999 209.391 306.999 207.171C306.999 204.95 308.76 203.156 310.942 203.156C335.957 203.156 360.487 190.094 370.554 171.389C379.862 154.131 379.83 131.099 370.506 111.291C365.965 101.667 359.792 93.1452 353.247 84.1297C348.044 76.9733 342.663 69.5537 338.251 61.5912C337.185 59.6663 337.847 57.2151 339.738 56.1293C341.629 55.0435 344.036 55.718 345.103 57.6593C349.272 65.194 354.508 72.3998 359.566 79.3752C366.046 88.292 372.736 97.5212 377.6 107.836C388.007 129.947 387.958 155.776 377.454 175.271C371.54 186.244 361.699 195.457 348.997 201.955C337.362 207.894 323.837 211.185 310.942 211.185Z" fill="#052429"/>
<path d="M233.828 24.4108C232.148 24.4108 230.58 23.3085 230.063 21.5811C229.433 19.4589 230.596 17.2215 232.681 16.5799C244.413 12.9276 255.918 10.9699 266.874 10.7889C266.891 10.7889 266.923 10.7889 266.939 10.7889C269.088 10.7889 270.834 12.5328 270.882 14.7373C270.914 16.9582 269.185 18.7844 267.004 18.8173C256.791 18.9818 246.012 20.8243 234.992 24.2627C234.588 24.3614 234.2 24.4108 233.828 24.4108Z" fill="#052429"/>
<path d="M300.05 24.4108C299.662 24.4108 299.274 24.3614 298.903 24.2298C287.866 20.7914 277.103 18.9653 266.891 18.7844C264.709 18.7515 262.98 16.9253 263.012 14.7044C263.045 12.5163 264.806 10.756 266.955 10.756C266.971 10.756 267.004 10.756 267.02 10.756C277.976 10.937 289.482 12.8947 301.214 16.547C303.298 17.1886 304.462 19.4424 303.831 21.5482C303.282 23.3085 301.731 24.4108 300.05 24.4108Z" fill="#052429"/>
<path d="M337.443 16.547C325.647 19.5411 324.209 27.1746 328.442 36.3875C329.105 37.8517 329.913 39.3487 330.85 40.8787C334.421 46.719 337.783 53.9083 341.693 61.2621C344.069 59.5512 346.299 57.4783 348.302 55.0764C355.041 46.9329 357.578 36.7165 356.027 27.5037C356.027 27.5037 356.027 27.4872 356.011 27.4707C355.736 26.714 350.71 13.1415 337.443 16.547Z" fill="#ED887E"/>
<path d="M339.14 52.0493C347.123 42.4581 352.278 25.1675 340.885 16.0205C351.583 15.5434 355.752 26.7798 355.994 27.4543C356.011 27.4872 356.011 27.4872 356.011 27.4872C357.562 36.7 355.025 46.9 348.286 55.0599C346.299 57.4618 344.069 59.5347 341.677 61.2457C340.303 58.6628 339.011 56.1128 337.734 53.6122C338.219 53.1186 338.688 52.5922 339.14 52.0493Z" fill="#FEB1AA"/>
<path d="M300.406 20.4131C306.449 30.2346 313.366 31.1394 326.051 31.8962L328.442 36.3875C324.209 27.1746 325.631 19.5411 337.443 16.547C350.71 13.1579 355.736 26.714 356.011 27.4543C354.912 20.9724 351.777 15.0005 346.654 10.5915C334.228 -0.0855146 314.82 2.51383 303.314 16.3989C302.232 17.6821 301.278 19.0311 300.406 20.4131Z" fill="#CEA881"/>
<path d="M355.122 23.6869C355.494 24.9208 355.784 26.1711 356.011 27.4543C355.914 27.1746 355.138 25.0853 353.506 22.7656C354.071 23.0453 354.605 23.3414 355.122 23.6869Z" fill="#EDD1B3"/>
<path d="M303.298 17.9124C314.804 4.02736 334.211 1.42802 346.638 12.105C347.802 13.1086 348.868 14.1944 349.821 15.346C337.443 7.35056 320.088 10.5586 309.455 23.3743C308.825 24.1311 308.211 24.9208 307.645 25.7433C307.354 26.1546 307.079 26.5824 306.789 27.0101C306.482 27.4708 306.207 27.9149 305.803 28.2769C305.69 28.3756 305.544 28.4907 305.383 28.4578C305.302 28.4414 305.237 28.4085 305.173 28.3591C304.203 27.7175 303.799 26.4672 303.056 25.5953C302.07 24.4437 301.197 23.2098 300.406 21.9101C301.278 20.5447 302.232 19.1956 303.298 17.9124Z" fill="#EDD1B3"/>
<path d="M355.994 31.4685C354.104 31.4685 352.439 30.0865 352.116 28.1288C351.147 22.3379 348.367 17.3202 344.101 13.6515C338.962 9.22603 332.224 7.31766 325.146 8.2554C317.939 9.22604 311.249 13.0263 306.32 18.9818C305.399 20.084 304.526 21.285 303.734 22.5682C302.571 24.4437 300.131 24.9866 298.289 23.7856C296.446 22.5847 295.913 20.1169 297.093 18.2415C298.079 16.6621 299.161 15.165 300.309 13.7996C306.498 6.33057 314.965 1.52673 324.128 0.309319C333.436 -0.940995 342.323 1.62544 349.191 7.53153C354.896 12.4505 358.596 19.1134 359.889 26.7798C360.261 28.9678 358.822 31.0407 356.673 31.4027C356.447 31.452 356.221 31.4685 355.994 31.4685Z" fill="#052429"/>
<path d="M342.323 64.7828C341.095 64.7828 339.867 64.1905 339.108 63.0883C337.847 61.2786 338.267 58.778 340.045 57.4947C341.984 56.0964 343.358 54.7802 345.281 52.477C351.066 45.5016 353.554 36.6342 352.132 28.1782C351.761 25.9901 353.199 23.9172 355.348 23.5388C357.497 23.1605 359.533 24.6246 359.905 26.8127C361.731 37.6049 358.596 48.8413 351.308 57.6428C349.304 60.0612 347.478 61.9695 344.602 64.0424C343.907 64.536 343.115 64.7828 342.323 64.7828Z" fill="#052429"/>
<path d="M341.952 64.5031C340.756 64.5031 339.56 63.9437 338.785 62.8908C334.195 56.6228 329.121 47.558 324.855 38.0326C321.962 31.7317 321.542 26.2369 323.643 21.7621C325.695 17.3531 330.026 14.2931 336.49 12.6479C341.661 11.3318 346.961 12.105 351.405 14.8195C355.655 17.4353 358.661 21.5976 359.84 26.533C360.358 28.6882 359.065 30.8598 356.948 31.3862C354.831 31.9127 352.698 30.5965 352.181 28.4414C351.486 25.5788 349.773 23.1934 347.317 21.6963C344.683 20.084 341.516 19.6234 338.381 20.4295C334.308 21.466 331.739 23.0782 330.737 25.2169C329.444 27.9807 330.705 31.8797 331.998 34.6765C336.054 43.7413 340.821 52.2632 345.087 58.1034C346.38 59.8802 346.024 62.3973 344.279 63.7134C343.584 64.2399 342.76 64.5031 341.952 64.5031Z" fill="#052429"/>
</svg>
