<svg width="65" height="65" viewBox="0 0 65 65" fill="none" xmlns="http://www.w3.org/2000/svg">
<mask id="mask0_197_1367" style="mask-type:alpha" maskUnits="userSpaceOnUse" x="0" y="0" width="65" height="65">
<circle cx="32.5" cy="32.5" r="32.5" fill="#D9D9D9"/>
</mask>
<g mask="url(#mask0_197_1367)">
<circle cx="32.5" cy="32.5" r="32.5" fill="#B1DEE4"/>
<path fill-rule="evenodd" clip-rule="evenodd" d="M51.241 75.6413C51.241 75.6413 50.578 69.7653 47.6717 68.3931C44.7654 67.0241 38.136 80.7048 38.136 80.7048C38.136 80.7048 39.8892 82.7872 44.844 82.0131C49.802 81.2422 51.241 75.6413 51.241 75.6413Z" fill="#CEA881"/>
<path fill-rule="evenodd" clip-rule="evenodd" d="M43.9548 80.9C45.6232 80.0683 48.6457 78.0979 47.4675 72.8936C46.9679 70.6834 47.1062 70.3315 45.7049 69.0328C42.5064 71.6909 37.6741 81.5749 37.6741 81.5749C37.6741 81.5749 39.3802 82.1922 42.7358 82.1954C42.7452 81.7636 43.1945 81.2774 43.9548 80.9Z" fill="#B48557"/>
<path fill-rule="evenodd" clip-rule="evenodd" d="M46.7417 80.9063C46.7417 80.9063 51.2724 76.2139 48.1179 72.0044L48.9316 69.8101C48.9316 69.8101 52.0264 73.543 50.6597 76.972C49.293 80.3978 46.7417 80.9063 46.7417 80.9063Z" fill="#EDD1B3"/>
<path fill-rule="evenodd" clip-rule="evenodd" d="M37.3631 81.7732L46.4432 81.6165C46.4432 81.6165 50.8765 81.8532 52.4192 82.6336C53.9619 83.4141 54.9673 84.3257 54.3232 85.0646C53.6759 85.8035 39.3928 85.4837 39.3928 85.4837C39.3928 85.4837 35.4716 85.2502 37.3631 81.7732Z" fill="#8B6040"/>
<path fill-rule="evenodd" clip-rule="evenodd" d="M39.3896 85.4837C37.2751 85.0231 36.2948 83.9643 37.4668 81.77L42.4687 81.6836C42.4656 81.7412 42.4687 81.8116 42.4781 81.8851C42.4436 82.4417 42.9997 82.9567 44.181 83.0975L44.1905 83.1006H44.2156C44.2219 83.1006 44.2313 83.1038 44.2376 83.1038C44.7058 83.155 45.4472 83.2094 46.3238 83.2766C49.3527 83.5069 53.9524 83.8843 54.1347 84.7192V84.7256L54.141 84.7704V84.8183L54.1378 84.8535L54.1284 84.8855L54.1127 84.9303L54.0907 84.9719L54.0624 85.0135L54.0435 85.0359L54.0216 85.0614L53.9713 85.1062L53.943 85.1286L53.8802 85.1734L53.8362 85.199L53.7922 85.2214L53.7325 85.2502L53.7168 85.2566C50.8765 85.7428 39.3896 85.4837 39.3896 85.4837Z" fill="#62432D"/>
<path d="M46.9522 82.1091C46.6883 82.1091 46.4338 81.9715 46.2893 81.722C46.0756 81.351 46.2013 80.8744 46.5658 80.6569C46.6003 80.6345 50.2324 78.421 50.1821 74.6817C50.1319 70.9648 47.6309 69.3495 47.5241 69.2823C47.1659 69.0584 47.0528 68.5786 47.2696 68.214C47.4895 67.8493 47.9545 67.731 48.3158 67.9517C48.4509 68.0348 51.6494 70.05 51.7122 74.6593C51.7751 79.3198 47.5178 81.8947 47.3355 82.0003C47.213 82.0739 47.081 82.1091 46.9522 82.1091Z" fill="#052429"/>
<path d="M44.0491 81.239C52.8622 80.5385 55.1621 82.7872 55.7276 84.3225C55.9601 84.9527 55.5077 85.6308 54.8604 85.6308H38.9026C36.3828 85.6308 36.5493 82.8128 37.6773 81.5685L44.0491 81.239Z" fill="#8B6040"/>
<path d="M45.9657 81.1303C45.3624 81.1495 44.7277 81.1846 44.0522 81.239L37.6773 81.5685C36.5493 82.8128 36.3859 85.6308 38.9026 85.6308H50.7351C50.8011 84.0507 47.8791 81.3702 45.9657 81.1303Z" fill="#61422D"/>
<path d="M54.8604 86.4017H38.9026C37.9475 86.4017 37.1934 86.0818 36.7127 85.4773C36.2885 84.9431 36.1126 84.2042 36.2163 83.3917C36.276 82.9311 36.4174 82.4609 36.6373 82.0003C36.785 81.6932 36.9389 81.4245 37.1023 81.1431C37.1966 80.9767 37.3002 80.8008 37.4133 80.5929C37.6176 80.2218 38.0794 80.0875 38.4439 80.2954C38.8084 80.5033 39.3551 80.3018 39.1508 80.6728C39.0314 80.8904 38.5099 81.7476 38.4093 81.9203C38.2554 82.189 38.1203 82.4225 37.9977 82.6784C37.8501 82.9887 37.7558 83.2958 37.7181 83.5869C37.6898 83.814 37.6741 84.233 37.8909 84.5081C38.1203 84.796 38.5664 84.8567 38.9026 84.8567H54.8604C54.9296 84.8567 54.9736 84.8151 54.9956 84.78C55.0175 84.748 55.0521 84.6776 55.0175 84.588C54.6468 83.5804 52.8402 81.3094 44.1088 82.0035C43.6909 82.0387 43.3264 81.7188 43.295 81.2966C43.2636 80.8712 43.5747 80.5033 43.9894 80.4681C52.925 79.758 55.6899 82.0227 56.4346 84.0507C56.6325 84.588 56.5571 85.1894 56.2366 85.6596C55.9224 86.1266 55.4071 86.4017 54.8604 86.4017Z" fill="#052429"/>
<path d="M50.6283 86.2258C50.5906 86.2258 50.556 86.2226 50.5183 86.2162C50.2041 86.1554 49.9967 85.8451 50.0564 85.5221C50.1916 84.8024 49.3746 84.185 49.2898 84.1274C49.0322 83.9963 48.9034 83.6892 49.0008 83.4045C49.1044 83.0942 49.4375 82.9311 49.7391 83.0367C50.0533 83.1454 51.4829 84.2426 51.2001 85.746C51.1435 86.0275 50.9016 86.2258 50.6283 86.2258Z" fill="#052429"/>
<path d="M53.3398 86.2258C53.2769 86.2258 53.2109 86.2162 53.1481 86.1938C52.8433 86.085 52.6831 85.7492 52.7899 85.4389C52.9941 84.8375 52.1773 84.1114 51.8725 83.9035C51.6054 83.7212 51.5363 83.3533 51.7154 83.0815C51.8945 82.8096 52.2526 82.736 52.5197 82.9183C53.2329 83.4013 54.32 84.5592 53.8896 85.8291C53.8048 86.0722 53.5785 86.2258 53.3398 86.2258Z" fill="#052429"/>
<path d="M-13.7026 85.5029C-15.283 85.3461 -16.5775 84.7 -16.5775 83.7116C-16.5775 82.7232 -15.2893 81.8755 -13.7026 81.9203C-2.54565 82.2498 9.59475 79.3742 12.9095 71.1791L19.9191 77.858C19.9191 77.8612 7.71902 87.6076 -13.7026 85.5029Z" fill="#62432D"/>
<path d="M-14.2179 83.6796C-2.47024 84.0091 10.3174 81.1335 13.8081 72.9384L19.4353 78.0275C19.7306 77.8164 19.8814 77.6981 19.8814 77.6981L12.8718 71.0192C9.55704 79.211 -2.58335 82.0899 -13.7403 81.7604C-15.327 81.7124 -16.6152 82.5633 -16.6152 83.5517C-16.6152 83.7948 -16.5366 84.0155 -16.3984 84.2138C-15.8486 83.8683 -15.0756 83.6572 -14.2179 83.6796Z" fill="#8B6040"/>
<path d="M-10.6015 86.2801C-11.8363 86.2801 -13.1277 86.2514 -14.5132 86.1586C-16.4801 86.0306 -17.4761 85.279 -17.4761 83.9291C-17.4761 82.8671 -16.6466 81.6292 -14.3153 81.6292C-13.6681 81.6292 -11.4781 81.6197 -10.878 81.6037C-3.74901 81.4022 8.74328 79.7452 12.3094 70.9296C12.3879 70.7377 12.5482 70.5938 12.743 70.5426C12.9378 70.4882 13.1483 70.533 13.3085 70.6642L20.3715 76.3354C20.5192 76.4538 20.6103 76.6329 20.6166 76.8216C20.626 77.0136 20.5506 77.1991 20.4155 77.3302C20.3213 77.4198 18.0685 79.5821 13.9683 81.7604C10.1917 83.766 4.07124 86.1586 -3.64847 86.1586C-4.76385 86.1586 -5.84467 86.1874 -6.98833 86.2162C-8.16027 86.2514 -9.35106 86.2801 -10.6015 86.2801ZM-14.4315 84.8439C-11.7012 85.0231 -9.31964 84.9591 -7.01975 84.9015C-5.86666 84.8727 -4.77642 84.8439 -3.64532 84.8439C3.78847 84.8439 9.689 82.5441 13.3274 80.6185C16.1268 79.1343 18.0591 77.6373 18.9545 76.8792L13.1577 72.2251C11.5176 75.6445 8.48879 78.2994 4.14351 80.1259C0.118702 81.8148 -4.92409 82.7584 -10.8435 82.9279C-11.4844 82.9471 -13.7246 82.9535 -14.3184 82.9535C-15.2202 82.9535 -16.1847 83.2094 -16.1847 83.9323C-16.1816 84.1882 -16.1816 84.7288 -14.4315 84.8439Z" fill="#052429"/>
<path fill-rule="evenodd" clip-rule="evenodd" d="M19.4447 43.2194C19.4447 43.2194 16.2965 50.7236 13.3305 54.1238C10.3645 57.524 8.04264 63.6782 9.52877 69.9605C11.0149 76.2395 14.7538 77.1511 15.9666 78.952C17.1794 80.7528 16.6798 80.6984 16.2525 81.77C15.8283 82.8448 14.7978 85.57 18.5304 85.7204C22.263 85.8707 31.2269 85.7492 31.2269 85.7492C31.2269 85.7492 33.398 85.2086 33.1026 84.3833C32.8073 83.5581 30.2309 81.8564 30.2309 81.8564C30.2309 81.8564 40.7501 81.2806 44.6429 76.0348C46.3773 73.6997 47.6089 70.9968 48.4635 68.2108C48.7494 67.2736 48.9945 66.3235 49.1893 65.3639C49.3401 64.6154 49.1736 63.771 49.7737 63.2912C51.4609 61.9413 52.1553 59.5519 51.7971 57.3992C51.4389 55.2465 50.1444 53.3369 48.5106 51.9231C47.9451 51.4337 47.3324 50.9954 46.6443 50.714C45.7677 50.3557 44.7246 50.4005 43.8857 49.9847C43.4239 49.7576 42.9997 49.4697 42.5127 49.2682C41.4853 48.8427 40.4327 48.4749 39.3771 48.1262C36.8667 47.3042 34.3123 46.6164 31.7516 45.9703C27.8273 44.9787 23.8717 44.0959 19.9034 43.3058C19.8751 43.3058 19.451 43.2066 19.4447 43.2194Z" fill="#CEA881"/>
<path d="M32.1538 50.1606C22.175 49.4985 22.307 46.2422 21.0188 45.9799C20.626 45.8999 19.5295 45.9351 18.1659 46.0375C16.9751 48.5293 15.1183 52.0734 13.3305 54.127C10.3645 57.5272 8.04264 63.6814 9.52877 69.9636C11.0149 76.2427 14.7538 77.1543 15.9666 78.9552C17.1794 80.756 16.6798 80.7016 16.2525 81.7732C15.8283 82.8479 14.7978 85.5732 18.5304 85.7236C22.263 85.8739 31.2269 85.7524 31.2269 85.7524C31.2269 85.7524 33.398 85.2118 33.1026 84.3865C32.8073 83.5613 30.2309 81.8596 30.2309 81.8596C30.2309 81.8596 31.8993 81.7668 34.1489 81.3286L34.3217 79.4062C34.3217 79.4062 24.9493 64.4779 27.9844 65.2776C31.0227 66.0772 37.096 71.2495 34.8967 66.9313C32.6973 62.6131 26.6743 61.0681 25.3672 58.989C24.3964 57.4472 24.2864 55.077 26.404 54.5012C27.5383 54.1909 28.7636 54.6451 29.7031 55.3649C29.9387 55.5472 30.1681 55.7487 30.4508 55.8447C30.7179 55.9342 31.0101 55.9182 31.2897 55.8926C34.0483 55.6271 36.7535 54.9074 39.3802 54.0342C40.6401 53.6152 41.9629 53.2185 43.1694 52.6588C43.6878 52.4157 47.1879 50.4421 47.2601 50.4645C46.5689 50.2725 44.5361 50.3173 43.8889 49.9943C43.87 49.9847 43.8543 49.9751 43.8354 49.9655C41.5041 50.263 37.8721 50.4869 32.6502 50.1958C32.4774 50.183 32.314 50.1734 32.1538 50.1606Z" fill="#B48557"/>
<path d="M27.1235 67.8877C26.8313 66.9761 26.7245 65.9941 26.426 65.0793C26.3318 64.7946 26.2155 64.5067 26.005 64.2956C25.8259 64.1165 25.5903 64.0045 25.3641 63.8925C23.8088 63.1217 22.3258 62.0469 21.4932 60.5051C20.5852 62.5491 20.315 64.7658 20.4972 66.9889C20.6669 69.0456 21.8011 70.2036 22.9008 71.8925C23.8874 73.4054 24.6131 75.5262 24.3084 77.3174C24.0696 78.7057 23.5606 80.5897 22.219 81.1431C22.728 80.9351 23.4192 81.1303 23.9439 81.1175C24.5629 81.1015 25.207 80.8808 25.7662 80.6281C26.8502 80.1355 27.8839 79.3134 28.4149 78.2131C29.0433 76.9112 29.5051 75.0208 29.103 73.5782C28.9521 73.0376 28.6285 72.6154 28.5123 72.03C28.3992 71.451 28.4369 70.8561 28.2641 70.2867C28.085 69.695 27.6954 69.1992 27.422 68.6458C27.3026 68.3963 27.2084 68.1436 27.1235 67.8877Z" fill="#CEA881"/>
<path d="M25.9422 68.7769C25.8888 68.7418 25.6783 69.1608 25.6688 69.2184C25.5777 69.8165 25.939 70.3187 26.3098 70.7377C26.8125 71.3071 27.2869 71.918 27.5477 72.6441C27.843 73.463 27.8619 74.413 27.7739 75.2703C27.5571 77.3654 26.536 79.6909 24.764 80.772C22.4578 82.1794 26.6491 81.0119 27.3969 80.0107C28.1415 79.0127 31.7924 72.7753 25.9422 68.7769Z" fill="#EDD1B3"/>
<path fill-rule="evenodd" clip-rule="evenodd" d="M26.3632 68.4731C26.3381 68.4315 26.3192 68.3867 26.2972 68.3419C25.694 66.9217 25.7819 65.3447 25.8354 63.8382C25.8982 62.0149 26.3978 59.8462 27.2901 58.2373C29.5145 54.2165 33.819 51.9934 38.3528 52.003C42.5661 52.0126 45.9562 54.1621 47.5178 58.4068C48.5735 61.276 49.8836 66.1476 49.0416 68.9849C47.9671 72.609 42.6007 80.2314 35.8392 81.0119C31.406 81.5237 27.1989 80.3722 27.1989 80.3722C27.1989 80.3722 30.2403 74.5985 29.1815 72.0908C28.8265 71.2495 28.3458 70.4658 27.7582 69.7749C27.3592 69.3079 26.6742 69.02 26.3632 68.4731Z" fill="#FBF2E9"/>
<path d="M47.5146 58.4068C47.169 57.4664 46.7323 56.6251 46.217 55.8894L45.774 57.4856C43.339 59.1649 41.5638 62.0373 41.2119 64.8042C40.9889 66.5507 41.08 69.6182 43.4081 70.0564C44.6146 70.2835 45.8557 69.7941 46.7323 68.9529C47.6497 68.0764 48.0519 66.8193 49.0228 65.9717C49.1013 65.9013 49.183 65.8341 49.2647 65.767C49.0699 63.2368 48.2341 60.358 47.5146 58.4068Z" fill="#EED7BB"/>
<path fill-rule="evenodd" clip-rule="evenodd" d="M42.6321 52.8891C41.3502 52.3037 39.908 52.0094 38.3496 52.0062C35.0852 51.9998 31.9401 53.1514 29.6057 55.2977C29.6371 55.3201 29.6685 55.3425 29.6968 55.3681C29.9324 55.5504 30.1618 55.7519 30.4446 55.8479C30.7116 55.9374 31.0038 55.9214 31.2835 55.8958C34.0421 55.6303 36.7473 54.9106 39.3739 54.0374C40.4516 53.6727 41.5764 53.3305 42.6321 52.8891Z" fill="#EED7BB"/>
<path d="M31.9056 82.269C29.8507 82.269 27.4 81.7412 26.3946 81.3829C25.9956 81.2422 25.7851 80.7976 25.9233 80.3914C26.0616 79.9851 26.4983 79.7708 26.8973 79.9116C27.843 80.2474 30.1084 80.7112 31.9056 80.7112C41.4162 80.7112 49.1547 72.8681 49.1547 63.2304C49.1547 62.7986 49.4972 62.4499 49.9182 62.4499C50.3424 62.4499 50.6848 62.7986 50.6848 63.2304C50.6848 73.7253 42.2613 82.269 31.9056 82.269Z" fill="#052429"/>
<path d="M17.3333 80.9511C17.2673 81.1303 17.1856 81.2998 17.082 81.4597C16.7081 82.0611 16.3782 83.2478 15.4544 82.9887C14.7538 82.7904 14.8638 82.2466 15.1402 81.7348C15.3288 81.3829 15.5424 81.0183 15.7938 80.6185C15.9414 80.385 15.9917 80.1067 15.9383 79.8444C15.8817 79.5789 15.7246 79.3518 15.5016 79.2078C11.4925 76.6265 9.12032 73.108 8.45109 68.745C7.48338 62.4531 10.3614 56.3053 13.1168 52.953C18.1596 46.8148 18.6246 42.7205 18.6309 42.6789C18.6749 42.2534 19.0457 41.94 19.4667 41.9816C19.8845 42.0231 20.1925 42.4006 20.1548 42.826C20.139 43.0083 19.6803 47.3937 14.2919 53.951C11.5396 57.3001 9.13288 63.0993 9.96549 68.5051C10.5656 72.4043 12.7053 75.5613 16.3247 77.89C16.8903 78.2578 17.2987 78.8496 17.4401 79.5149C17.5375 79.9915 17.4998 80.4937 17.3333 80.9511Z" fill="#052429"/>
<path d="M25.6374 82.1091C25.3735 82.1091 25.119 81.9715 24.9745 81.722C24.7608 81.351 24.8865 80.8744 25.251 80.6569C25.2855 80.6345 28.9176 78.421 28.8673 74.6817C28.817 70.9648 26.3161 69.3495 26.2092 69.2823C25.8511 69.0584 25.738 68.5786 25.9547 68.214C26.1747 67.8493 26.6397 67.731 27.001 67.9517C27.1361 68.0348 30.3346 70.05 30.3974 74.6593C30.4603 79.3198 26.203 81.8947 26.0207 82.0003C25.9013 82.0739 25.7694 82.1091 25.6374 82.1091Z" fill="#052429"/>
<path fill-rule="evenodd" clip-rule="evenodd" d="M23.6894 50.4709C23.6894 50.4709 23.6863 50.4805 23.68 50.4901C23.8779 50.5252 24.0633 50.5508 24.2393 50.5636L23.6894 50.4709Z" fill="white"/>
<path d="M26.4292 65.0793C26.3349 64.7946 26.2187 64.5067 26.0082 64.2956C25.8291 64.1165 25.5934 64.0045 25.3672 63.8925C23.8622 63.1473 22.4264 62.1141 21.5812 60.6523L21.3832 60.777C20.3181 59.9997 20.0322 62.821 19.9631 63.3584C19.9128 63.7518 19.8626 64.1484 19.9097 64.5419C19.9568 64.9353 20.1548 65.5751 20.4438 65.8405C20.5224 65.1336 20.6386 64.7338 20.9811 64.5067C21.4367 64.206 21.9488 64.4459 22.3478 64.737C22.8065 65.0729 23.2684 65.3863 23.7648 65.6646C24.764 66.2212 25.8291 66.653 26.9005 67.0401C26.7497 66.3843 26.6365 65.7158 26.4292 65.0793Z" fill="#B48557"/>
<path d="M22.5835 81.239C31.6102 80.5385 33.9667 82.7872 34.5448 84.3225C34.7836 84.9527 34.3186 85.6308 33.6556 85.6308H17.3113C14.7318 85.6308 14.9015 82.8128 16.0545 81.5685L22.5835 81.239Z" fill="#8B6040"/>
<path d="M24.5472 81.1303C23.9313 81.1495 23.281 81.1846 22.5866 81.239L16.0577 81.5685C14.9046 82.8128 14.7349 85.6308 17.3145 85.6308H29.4329C29.4988 84.0507 26.5046 81.3702 24.5472 81.1303Z" fill="#61422D"/>
<path d="M36.3954 65.3256C35.126 61.1065 31.9464 58.6819 28.3363 56.6635C27.9499 57.1529 27.598 57.6775 27.2901 58.2405C26.3978 59.8494 25.9013 62.0181 25.8354 63.8414C25.8039 64.769 25.7568 65.7222 25.8668 66.6498C26.5486 66.9217 27.2209 67.1584 27.8493 67.3695C30.5137 68.2683 30.9221 71.5726 34.8307 70.5938C37.1557 70.0084 36.9452 67.1456 36.3954 65.3256Z" fill="#EED7BB"/>
<path d="M33.6556 86.4113H17.3113C16.3405 86.4113 15.5707 86.0946 15.0805 85.4933C14.6438 84.9559 14.4616 84.2106 14.5684 83.3917C14.6281 82.9279 14.7758 82.4577 15.002 81.9939C15.1528 81.6868 15.313 81.4181 15.4796 81.1335C15.577 80.9671 15.6807 80.7912 15.7969 80.5865C16.0074 80.2122 16.4756 80.0811 16.8432 80.2954C17.2108 80.5097 17.3364 80.9863 17.1291 81.3606C17.0065 81.5781 16.8966 81.7636 16.796 81.9395C16.6358 82.2082 16.5007 82.4417 16.375 82.6944C16.2242 83.0015 16.1268 83.3054 16.0891 83.5964C16.0608 83.8204 16.0451 84.233 16.2651 84.5017C16.5133 84.8087 17.0285 84.8535 17.3145 84.8535H33.6556C33.7404 84.8535 33.7876 84.8024 33.8096 84.7704C33.8347 84.7352 33.8567 84.6744 33.8284 84.604C33.4482 83.5964 31.5976 81.3222 22.64 82.0195C22.219 82.0483 21.8514 81.7316 21.8168 81.2998C21.7823 80.868 22.0996 80.4969 22.5238 80.4617C31.6668 79.7548 34.4945 82.0195 35.258 84.0443C35.4591 84.5784 35.3899 85.1798 35.0695 85.6532C34.7521 86.1298 34.2211 86.4113 33.6556 86.4113Z" fill="#052429"/>
<path d="M29.3229 86.2322C29.2852 86.2322 29.2475 86.229 29.2098 86.2194C28.8893 86.1554 28.6819 85.8387 28.7448 85.5157C28.883 84.8023 28.0441 84.1914 27.9593 84.1338C27.6985 84.0027 27.5634 83.6924 27.6577 83.4045C27.7614 83.091 28.0944 82.9215 28.4023 83.0271C28.7228 83.1358 30.1901 84.2362 29.8979 85.7492C29.8445 86.0338 29.5962 86.2322 29.3229 86.2322Z" fill="#052429"/>
<path d="M32.0972 86.2322C32.0312 86.2322 31.9652 86.2194 31.8993 86.197C31.5914 86.085 31.4311 85.7428 31.5411 85.4325C31.7516 84.8247 30.8562 84.0794 30.6048 83.9131C30.3314 83.734 30.256 83.3597 30.432 83.0846C30.6079 82.8064 30.9755 82.7296 31.2458 82.9087C31.9778 83.3949 33.0963 84.556 32.6502 85.8355C32.5685 86.0786 32.3423 86.2322 32.0972 86.2322Z" fill="#052429"/>
<path d="M24.1921 63.2336C24.1921 63.2336 26.7811 64.5803 29.2852 65.4247C31.7862 66.2692 32.1726 69.3751 35.8455 68.4539C39.5184 67.5327 35.4936 58.9346 30.6551 55.5824C26.2375 55.1921 25.9705 59.2928 24.1921 63.2336Z" fill="#CEA881"/>
<path d="M24.2267 63.1537C24.2141 63.1792 24.2016 63.2048 24.1921 63.2336C24.1921 63.2336 24.3429 63.3104 24.6069 63.4415C24.4749 63.3488 24.3492 63.2528 24.2267 63.1537Z" fill="#EDD1B3"/>
<path d="M35.9366 68.4251C38.8995 67.5422 36.5116 61.3592 32.8104 57.4568C31.8333 56.7371 30.809 56.1165 29.8067 55.56C29.7565 55.5312 29.6057 55.576 29.546 55.5728C29.4643 55.5696 29.3794 55.5632 29.2978 55.5536C29.1344 55.5344 28.971 55.4928 28.839 55.3872C28.6222 55.6719 28.44 55.9022 28.6065 56.4076C28.6725 56.6059 28.7982 56.7787 28.9773 56.8778C32.1223 58.6179 35.1951 60.7642 36.3671 64.6634C36.6781 65.6998 36.8478 67.1072 36.3859 67.9389C36.2728 68.1468 36.1252 68.3067 35.9366 68.4251Z" fill="#EDD1B3"/>
<path d="M25.6845 59.392C25.2133 60.5723 24.7891 61.9126 24.1921 63.2304C24.1921 63.2304 26.7811 64.5771 29.2852 65.4215C30.1712 65.719 30.7902 66.3044 31.3871 66.8897C32.7853 67.683 34.1112 68.4827 34.8244 68.6106C34.9564 68.6042 35.0946 68.5914 35.2391 68.569C35.4685 68.4091 35.4025 67.9197 34.8967 66.9281C32.8418 62.8978 27.4503 61.2824 25.6845 59.392Z" fill="#B48557"/>
<path d="M35.8455 68.4507C38.3434 67.8237 38.0072 64.3212 36.4236 61.3848C35.5062 61.6535 34.5762 62.0405 33.6713 62.5491C32.1443 63.4095 30.875 64.5067 29.9293 65.7062C31.8836 66.8066 32.5088 69.2887 35.8455 68.4507Z" fill="#8B6040"/>
<path d="M32.0312 63.6367C31.2175 64.2668 30.5105 64.9705 29.9261 65.7094C30.4917 66.0261 30.9441 66.4579 31.384 66.8897C32.7821 67.683 34.108 68.4827 34.8213 68.6106C34.9532 68.6042 35.0915 68.5914 35.236 68.569C35.4654 68.4091 35.3994 67.9197 34.8935 66.9281C34.218 65.6038 33.1812 64.5387 32.0312 63.6367Z" fill="#61422D"/>
<path d="M37.5265 64.3723C37.517 64.3212 37.5076 64.27 37.495 64.2188C37.4793 64.1452 37.4605 64.0685 37.4416 63.9949C37.4228 63.9181 37.4039 63.8414 37.3819 63.7646C37.3662 63.7102 37.3536 63.6558 37.3379 63.6015C37.3191 63.5407 37.3034 63.4831 37.2845 63.4223C37.2688 63.3712 37.2531 63.3232 37.2374 63.272C37.2185 63.2112 37.1966 63.1505 37.1746 63.0865C37.1588 63.0385 37.14 62.9905 37.1211 62.9393C37.0803 62.8306 37.0395 62.7186 36.9955 62.6099C36.9766 62.5619 36.9578 62.5171 36.9389 62.4691C36.9138 62.4052 36.8855 62.3412 36.8572 62.2772C36.8384 62.2324 36.8164 62.1844 36.7944 62.1397C36.7661 62.0757 36.7378 62.0117 36.7064 61.9509C36.6813 61.8998 36.6561 61.8518 36.6341 61.8006C36.5839 61.6982 36.5305 61.5927 36.4771 61.4903C36.4582 61.4552 36.4394 61.42 36.4205 61.388C35.9712 61.5191 35.4905 61.6887 35.0412 61.8774C36.3608 64.0909 37.1117 66.6786 36.4676 68.2044C36.5462 68.1596 36.6184 68.1116 36.6876 68.0604C36.7001 68.0508 36.7127 68.038 36.7284 68.0284C36.785 67.9837 36.8384 67.9389 36.8886 67.8877C36.9012 67.8749 36.9138 67.8653 36.9263 67.8525C37.0457 67.731 37.1494 67.5966 37.2374 67.4527C37.2468 67.4367 37.2562 67.4207 37.2657 67.4047C37.3002 67.3439 37.3317 67.2831 37.3631 67.2192C37.3725 67.2032 37.3788 67.184 37.3882 67.168C37.4573 67.0113 37.5139 66.8417 37.5579 66.6626C37.5642 66.637 37.5704 66.6146 37.5736 66.589C37.5893 66.5219 37.6019 66.4515 37.6113 66.3843C37.6144 66.3587 37.6207 66.3331 37.6239 66.3075C37.6364 66.2148 37.6458 66.122 37.6553 66.0261C37.6553 66.0101 37.6553 65.9941 37.6584 65.9781C37.6647 65.8981 37.6678 65.815 37.6678 65.7318C37.6678 65.6966 37.6678 65.6582 37.6678 65.623C37.6678 65.5559 37.6647 65.4887 37.6616 65.4215C37.6584 65.3831 37.6584 65.3448 37.6553 65.3064C37.649 65.2104 37.6427 65.1112 37.6301 65.0121C37.627 64.9769 37.6207 64.9385 37.6176 64.9033C37.6081 64.8362 37.5987 64.7658 37.5893 64.6954C37.583 64.6474 37.5736 64.5963 37.5642 64.5483C37.5516 64.4907 37.539 64.4331 37.5265 64.3723Z" fill="#B57E54"/>
<path d="M34.5793 69.4039C32.8261 69.4039 31.8427 68.4315 30.9567 67.5518C30.3691 66.9729 29.8162 66.4227 29.0464 66.1636C26.6962 65.3703 22.3227 63.8957 21.2419 60.2205C21.1193 59.8078 21.3518 59.3728 21.7571 59.2513C22.1624 59.1265 22.5897 59.3632 22.7091 59.7758C23.4569 62.322 26.4292 63.6399 29.5271 64.6858C30.6299 65.0569 31.3714 65.7894 32.0249 66.4355C33.0429 67.4431 33.7781 68.1692 35.6633 67.6958C36.1032 67.587 36.3985 67.3663 36.5996 67.0081C37.0614 66.1764 36.8949 64.7722 36.5807 63.7326C35.4057 59.8334 32.336 57.6871 29.1909 55.947C28.8202 55.7423 28.6819 55.2689 28.883 54.8882C29.0841 54.5108 29.5491 54.3701 29.923 54.5748C33.1906 56.382 36.7096 58.829 38.048 63.2752C38.2994 64.1133 38.7958 66.2308 37.9349 67.7758C37.5296 68.5019 36.8729 68.9977 36.034 69.2088C35.4905 69.3431 35.0098 69.4039 34.5793 69.4039Z" fill="#052429"/>
<path d="M35.0035 69.1992C34.9752 69.1992 34.9469 69.196 34.9187 69.1928C34.5982 69.1448 34.3751 68.8409 34.4191 68.5115C34.4851 68.0476 34.0766 67.2224 33.8661 66.8961C33.6902 66.6178 33.7656 66.2468 34.0389 66.0677C34.3123 65.8885 34.6767 65.9653 34.8527 66.2404C34.9438 66.3811 35.7324 67.6478 35.5847 68.6842C35.5439 68.9849 35.2925 69.1992 35.0035 69.1992Z" fill="#052429"/>
<path d="M37.1934 68.1212C36.8949 68.1212 36.6404 67.8909 36.609 67.5838C36.5148 66.6562 35.8455 65.8214 35.8392 65.815C35.6319 65.5591 35.6664 65.1816 35.9178 64.9705C36.166 64.7594 36.5368 64.7946 36.7473 65.0473C36.785 65.092 37.6521 66.1636 37.7841 67.4591C37.8187 67.7885 37.583 68.0828 37.2594 68.118C37.2343 68.1212 37.2154 68.1212 37.1934 68.1212Z" fill="#052429"/>
<path d="M51.7939 57.4024C51.4358 55.2497 50.1413 53.3401 48.5075 51.9263C48.0519 51.5328 47.5649 51.1714 47.0339 50.8963L46.7574 50.9635C46.7574 50.9635 50.4083 55.1601 50.0156 58.2789C49.8145 59.875 48.4415 61.0201 47.4298 62.1301C46.8077 62.8082 46.2202 63.5247 45.7803 64.3468C45.5446 64.7882 45.3561 65.252 45.221 65.7318C45.1236 66.0836 44.8063 67.0337 44.9791 67.3759C45.1676 67.7502 45.7803 67.4943 46.0285 67.2927C46.305 67.0656 46.4904 66.7458 46.6537 66.4227C47.0339 65.6646 47.3324 64.8426 47.9074 64.2252C48.4698 63.6207 49.0887 63.5535 49.7894 63.24C50.3078 63.0097 50.7163 62.3316 50.999 61.855C51.7845 60.5403 52.0453 58.9154 51.7939 57.4024Z" fill="#EDD1B3"/>
<path d="M51.6651 58.7395C51.8568 61.6183 49.9779 62.4819 48.2216 64.0333C46.6035 65.4631 47.191 68.2108 44.1905 68.4955C42.387 68.6682 41.768 66.3044 41.6644 64.6858C41.4224 60.8634 43.7443 57.073 46.4024 54.981" fill="#CEA881"/>
<path d="M51.6651 58.7395L50.0407 57.5783C50.0533 57.8182 50.047 58.0517 50.0156 58.2821C49.8145 59.8782 48.4415 61.0233 47.4298 62.1333C46.8077 62.8114 46.2202 63.5279 45.7803 64.35C45.5446 64.7914 45.3561 65.2552 45.221 65.735C45.1236 66.0868 44.8063 67.0368 44.9791 67.3791C45.1676 67.7534 45.7803 67.4975 46.0285 67.2959C46.305 67.0688 46.4904 66.749 46.6537 66.4259C47.0339 65.6678 47.3324 64.8458 47.9074 64.2284C48.1242 63.9949 48.3472 63.8446 48.5798 63.7262C50.2261 62.354 51.8442 61.42 51.6651 58.7395Z" fill="#EDD1B3"/>
<path d="M45.8683 67.216C44.0648 67.3887 43.4458 65.0249 43.3422 63.4063C43.3422 63.384 43.339 63.3648 43.339 63.3424C43.2605 61.919 43.537 60.4955 44.0491 59.1745C44.3067 58.5124 44.6209 57.8726 44.9854 57.2649C45.1645 56.9642 45.3561 56.6699 45.5604 56.382C45.6609 56.2413 45.7646 56.1006 45.8714 55.963C45.9468 55.867 46.0474 55.7295 45.9468 55.608C45.7426 55.3585 45.2242 56.0494 45.0922 56.1901C44.8126 56.4876 44.5455 56.7947 44.2942 57.1177C43.4553 58.1829 42.7703 59.3792 42.299 60.6587C41.8278 61.9413 41.5827 63.3168 41.6707 64.689C41.7743 66.3076 42.3933 68.6682 44.1968 68.4986C45.463 68.3771 46.0882 67.8205 46.5124 67.1104C46.3144 67.1552 46.1008 67.1936 45.8683 67.216Z" fill="#B48557"/>
<path d="M43.8826 67.6638C41.7712 67.683 41.2842 64.4651 41.9063 61.4679C42.6918 61.4935 43.5087 61.6247 44.335 61.871C45.7269 62.2868 46.9679 62.9745 47.9765 63.8286C46.6632 65.268 46.7009 67.6382 43.8826 67.6638Z" fill="#8B6040"/>
<path d="M47.9765 63.8318C47.5932 63.5087 47.1784 63.208 46.7354 62.9361C46.3773 63.3776 46.0505 63.8446 45.7834 64.3468C45.5478 64.7882 45.3593 65.252 45.2242 65.7318C45.1268 66.0836 44.8094 67.0337 44.9822 67.3759C45.0011 67.4175 45.0262 67.4495 45.0576 67.4751C46.726 66.8865 46.88 65.0313 47.9765 63.8318Z" fill="#B57E54"/>
<path d="M43.8826 67.6638C44.6178 67.6574 45.1613 67.4911 45.5824 67.2224C43.9988 67.1328 43.4364 64.9385 43.3422 63.4095C43.3422 63.3872 43.339 63.368 43.339 63.3456C43.3076 62.7762 43.3327 62.2068 43.4081 61.6439C42.9431 61.5511 42.4813 61.4967 42.032 61.4775C41.8215 62.226 41.6895 62.9969 41.6581 63.771C41.6424 65.9077 42.3147 67.6766 43.8826 67.6638Z" fill="#61422D"/>
<path d="M44.0208 68.6042C43.7757 68.6042 43.5307 68.5786 43.2887 68.5242C40.2945 67.8557 40.483 63.675 40.6118 62.4084C40.9134 59.4368 42.6258 56.382 44.9697 54.6324C45.3121 54.3765 45.7897 54.4532 46.0411 54.7987C46.2924 55.1473 46.217 55.6335 45.8777 55.8894C43.8669 57.3928 42.3996 60.0157 42.1388 62.5715C42.098 62.9809 41.7838 66.5954 43.6186 67.0049C44.7592 67.2576 45.9374 66.4355 46.4181 65.4919C46.8611 64.6218 47.2601 63.9021 47.9859 63.2112C48.2561 62.9521 48.5358 62.7154 48.8091 62.4883C49.1641 62.1908 49.4972 61.9062 49.7957 61.5959C50.7854 60.5531 51.197 59.264 51.0179 57.7607C50.6817 54.9202 48.3692 52.0702 46.261 50.7236C45.9028 50.4933 45.796 50.0135 46.0191 49.6488C46.2453 49.2842 46.7166 49.1754 47.0748 49.4025C49.4155 50.8995 52.127 54.095 52.5386 57.5751C52.7711 59.5391 52.2024 61.308 50.8953 62.6834C50.5403 63.0577 50.157 63.3808 49.7862 63.691C49.5192 63.9149 49.2678 64.1261 49.0322 64.3532C48.4823 64.8777 48.165 65.4535 47.7786 66.2148C47.0308 67.667 45.5069 68.6042 44.0208 68.6042Z" fill="#052429"/>
<path d="M44.9697 68.4379C44.7435 68.4379 44.5298 68.3067 44.4324 68.0828C44.0428 67.2 44.3821 65.8853 44.423 65.7382C44.511 65.4183 44.8346 65.2328 45.1488 65.3192C45.463 65.4087 45.6452 65.7382 45.5604 66.0549C45.4472 66.4803 45.3561 67.2384 45.5101 67.5902C45.6421 67.8909 45.5101 68.246 45.2147 68.3835C45.1331 68.4219 45.0514 68.4379 44.9697 68.4379Z" fill="#052429"/>
<path d="M42.9683 68.1788C42.6949 68.1788 42.4467 67.9837 42.3902 67.699C42.1576 66.5219 42.5535 65.3384 42.5692 65.2904C42.6761 64.9769 43.0123 64.8106 43.3202 64.9193C43.6281 65.0281 43.7914 65.3671 43.6846 65.6806C43.6783 65.6998 43.3799 66.6178 43.5464 67.4623C43.6124 67.7885 43.405 68.102 43.0845 68.1692C43.0437 68.1724 43.006 68.1788 42.9683 68.1788Z" fill="#052429"/>
<path d="M27.7582 13.8875C32.3423 12.5185 36.6907 12.4609 40.7752 13.8875C45.3907 14.2618 48.0205 16.8463 48.7997 21.4908C49.494 22.7415 50.2732 24.0177 51.2472 25.1437C53.2863 27.5011 56.8807 30.8022 56.5979 38.7925C56.3152 46.7828 50.7194 49.9879 43.8794 49.9879C38.0794 50.7044 31.3149 50.9219 25.7097 50.183C18.8697 50.183 12.0894 46.2742 11.8067 38.2839C11.5239 30.2936 15.2471 27.5043 17.2862 25.1469C18.2602 24.0209 19.0394 22.7447 19.7337 21.494C20.3276 16.8815 22.6809 14.0251 27.7582 13.8875Z" fill="#CEA881"/>
<path d="M42.0854 15.2342C42.2393 15.0902 42.585 14.748 42.5567 14.5656C42.4938 14.1786 41.0737 14.2841 40.7783 14.1818C36.6938 12.7552 32.3454 12.8127 27.7614 14.1818C27.4911 14.2618 27.1204 14.2106 26.8376 14.2394C26.6994 14.2522 26.1338 14.2426 26.0679 14.3737C26.0459 14.4153 26.0521 14.4633 26.0616 14.5081C26.0961 14.6872 26.1715 14.8567 26.2815 15.0038C26.3663 15.119 26.47 15.215 26.5706 15.3141C26.6051 15.3461 26.6365 15.3781 26.6711 15.4101C26.7025 15.4389 26.7339 15.4709 26.7685 15.4996C27.5006 16.1234 28.5248 15.5828 29.3197 15.3941C30.2403 15.1766 31.1735 15.0102 32.1129 14.9015C33.5865 14.732 35.0789 14.7128 36.5556 14.8663C37.2814 14.9431 38.0009 15.0582 38.711 15.2182C39.066 15.2981 39.421 15.3877 39.7729 15.49C40.0651 15.5732 40.3416 15.7076 40.6401 15.7651C41.0328 15.8419 41.5261 15.7427 41.8278 15.4645C41.8372 15.4517 42.0728 15.2469 42.0854 15.2342Z" fill="#EDD1B3"/>
<path d="M51.1561 48.0846C51.1561 48.0846 43.339 52.7899 27.5131 50.1894C15.3822 48.1966 14.0563 35.2611 19.3975 26.4136C24.1827 18.484 23.325 15.7523 23.325 15.7523C22.1624 18.9126 20.7769 20.6335 19.2813 22.2905C18.7032 23.2788 18.056 24.2576 17.2893 25.1437C16.6547 25.8762 15.8597 26.6503 15.0711 27.6099C14.5747 28.4351 14.0783 29.3723 13.585 30.4663C10.8767 36.4766 12.7555 42.2279 13.7515 44.5405C16.2996 48.3214 20.9905 50.183 25.7097 50.183C31.3149 50.9219 37.0238 50.8995 42.8237 50.183C44.4858 50.183 46.1385 49.9815 47.6906 49.5624C48.2153 49.1754 51.1561 48.0846 51.1561 48.0846Z" fill="#B48557"/>
<path d="M52.017 26.5415C51.4766 25.8986 50.8482 25.3324 50.3581 24.6479C49.9151 24.0305 49.5883 23.282 49.626 22.5272C49.4312 22.2009 49.2427 21.8714 49.0636 21.5452C48.5232 18.3241 47.8665 16.3281 45.5007 15.1382C45.353 15.9922 45.419 17.1694 45.6201 18.017C46.8077 23.0549 50.6251 26.6567 52.7962 31.2148C54.5902 34.9828 54.8825 39.6369 52.8465 43.3666C50.5812 47.5249 49.0102 48.5101 43.7726 49.7384C43.6406 49.7704 42.3744 50.1638 42.4279 50.2374C43.0091 50.1766 43.5809 50.1126 44.1433 50.0422C45.0608 50.0422 45.9562 49.9847 46.8203 49.8663C47.3575 49.6552 47.8885 49.4217 48.4069 49.1882C49.7862 48.5708 51.1813 47.9439 52.3878 47.0259C53.5754 46.1271 54.5557 44.9659 55.3317 43.6833C55.9853 42.6021 56.4974 41.4186 56.7582 40.1807C56.8084 39.7521 56.843 39.3075 56.8587 38.8468C56.8839 38.1719 56.8776 37.529 56.8493 36.918C56.488 34.3367 55.2061 31.8577 53.9336 29.5419C53.3649 28.4959 52.7805 27.4499 52.017 26.5415Z" fill="#EDD1B3"/>
<path d="M34.3594 29.9481C38.2994 29.9481 41.6895 31.9665 41.9409 35.1779C42.3807 40.9228 38.1423 46.4597 34.3594 46.4597H34.1709C30.3911 46.4597 26.1527 40.926 26.5894 35.1779C26.8408 31.9665 30.2309 29.9481 34.1709 29.9481H34.3594Z" fill="#F2E1CC"/>
<path d="M34.2683 29.9641C36.4142 29.9641 38.1548 31.2244 38.1548 32.7789C38.1548 34.3335 37.0489 38.0216 34.2683 38.0216C31.4877 38.0216 30.3817 34.3335 30.3817 32.7789C30.3786 31.2244 32.1192 29.9641 34.2683 29.9641Z" fill="#CBA383"/>
<path d="M34.2683 28.7166C36.4142 28.7166 38.1548 29.9769 38.1548 31.5315C38.1548 33.086 37.0489 36.7741 34.2683 36.7741C31.4877 36.7741 30.3817 33.086 30.3817 31.5315C30.3786 29.9769 32.1192 28.7166 34.2683 28.7166Z" fill="#052429"/>
<path d="M34.2683 29.4075C34.0389 29.4075 33.8096 29.4267 33.5833 29.4619C33.5079 29.4747 33.3383 29.4907 33.288 29.5579C33.1686 29.7146 33.442 29.7146 33.5394 29.7146C35.2831 29.7146 36.5996 30.7062 36.5996 31.9665C36.5996 32.8237 36.2854 34.5158 35.3114 35.4914C35.2297 35.5746 35.3302 35.7089 35.4308 35.6514C36.8447 34.8581 37.4291 32.715 37.4291 31.6946C37.4259 30.4311 36.012 29.4075 34.2683 29.4075Z" fill="#373737"/>
<path d="M34.2683 37.5866C32.5779 39.4418 30.7619 39.1251 29.4297 37.9224C30.6896 41.5721 31.9935 44.1982 34.2683 44.1982C36.543 44.1982 37.8469 41.5689 39.1068 37.9224C37.7715 39.1251 35.9555 39.4418 34.2683 37.5866Z" fill="#052429"/>
<path d="M37.3568 41.9784C36.8384 41.1275 35.679 40.5357 34.3248 40.5357C32.9204 40.5357 31.7233 41.1755 31.2363 42.0775C32.0564 43.4018 33.0115 44.2014 34.2651 44.2014C35.5502 44.1982 36.5242 43.3634 37.3568 41.9784Z" fill="#F47676"/>
<path d="M37.3568 41.9784C36.8384 41.1275 35.679 40.5357 34.3248 40.5357C32.9204 40.5357 31.7233 41.1755 31.2363 42.0775C32.0564 43.4018 33.0115 44.2014 34.2651 44.2014C35.5502 44.1982 36.5242 43.3634 37.3568 41.9784Z" fill="#FF949A"/>
<path d="M31.7516 42.81C32.4554 43.6897 33.266 44.2014 34.2683 44.2014C35.3083 44.2014 36.1472 43.6513 36.8698 42.7045C36.3388 42.0967 35.4119 41.6905 34.3531 41.6905C33.2346 41.6905 32.2606 42.1415 31.7516 42.81Z" fill="#E26A74"/>
<path d="M36.8289 39.6817C36.1032 39.6817 35.2014 39.4546 34.2683 38.6613C33.0806 39.6689 31.9464 39.7617 31.1578 39.6369C29.6371 39.397 28.1698 38.1175 27.3309 36.3007C27.1518 35.9105 27.3152 35.4466 27.6985 35.2643C28.0818 35.082 28.5374 35.2483 28.7165 35.6386C29.3323 36.9724 30.3817 37.9384 31.3934 38.0984C32.1852 38.2231 32.9644 37.8744 33.709 37.0556C33.8535 36.8956 34.0578 36.8061 34.2714 36.8061C34.4851 36.8061 34.6893 36.8956 34.8338 37.0556C35.5753 37.8712 36.3545 38.2231 37.1494 38.0984C38.158 37.9384 39.2105 36.9724 39.8263 35.6386C40.0054 35.2483 40.461 35.082 40.8443 35.2643C41.2276 35.4466 41.391 35.9105 41.2119 36.3007C40.373 38.1207 38.9058 39.397 37.3851 39.6369C37.2091 39.6657 37.0269 39.6817 36.8289 39.6817Z" fill="#052429"/>
<path d="M34.2683 44.7356C32.9173 44.7356 31.7799 43.9583 30.7933 42.3622C30.6928 42.1991 30.6865 41.9912 30.7776 41.8184C31.3714 40.7117 32.7664 39.9984 34.3248 39.9984C35.811 39.9984 37.1746 40.6637 37.8029 41.6937C37.9066 41.8664 37.9098 42.0839 37.8061 42.2566C36.8038 43.9232 35.6476 44.7356 34.2683 44.7356ZM31.8678 42.0775C32.5999 43.1587 33.3697 43.6641 34.2651 43.6641C35.1826 43.6641 35.9681 43.1331 36.7158 42.0007C36.21 41.4282 35.3114 41.0699 34.3248 41.0699C33.2974 41.0699 32.3548 41.4666 31.8678 42.0775Z" fill="#052429"/>
<path d="M34.2683 44.9787C31.3023 44.9787 29.8444 41.4698 28.7071 38.1815C28.5908 37.8457 28.7134 37.4746 29.0024 37.2763C29.2915 37.078 29.6779 37.1036 29.9387 37.3403C30.8184 38.1335 32.1852 38.7285 33.7059 37.0588C33.8504 36.8988 34.0546 36.8093 34.2683 36.8093C34.4819 36.8093 34.6862 36.8988 34.8307 37.0588C36.3514 38.7317 37.7181 38.1367 38.5979 37.3403C38.8586 37.1036 39.2419 37.078 39.5341 37.2763C39.8232 37.4746 39.9457 37.8457 39.8295 38.1815C38.6921 41.4698 37.2311 44.9787 34.2683 44.9787ZM30.8656 39.5825C31.8301 41.9432 32.8513 43.4178 34.2683 43.4178C35.6853 43.4178 36.7064 41.9432 37.671 39.5825C36.5116 39.8608 35.324 39.5506 34.2683 38.6581C33.2126 39.5506 32.0218 39.864 30.8656 39.5825Z" fill="#052429"/>
<path d="M34.2683 38.1559C33.8441 38.1559 33.5016 37.8073 33.5016 37.3755V36.0704C33.5016 35.6386 33.8441 35.2899 34.2683 35.2899C34.6924 35.2899 35.0349 35.6386 35.0349 36.0704V37.3755C35.0318 37.8073 34.6893 38.1559 34.2683 38.1559Z" fill="#052429"/>
<path d="M25.9767 30.9525C27.5593 30.9525 28.8422 29.5462 28.8422 27.8114C28.8422 26.0766 27.5593 24.6703 25.9767 24.6703C24.3942 24.6703 23.1113 26.0766 23.1113 27.8114C23.1113 29.5462 24.3942 30.9525 25.9767 30.9525Z" fill="#052429"/>
<path d="M27.0607 28.1472C27.4806 28.1472 27.8211 27.8007 27.8211 27.3732C27.8211 26.9457 27.4806 26.5991 27.0607 26.5991C26.6408 26.5991 26.3004 26.9457 26.3004 27.3732C26.3004 27.8007 26.6408 28.1472 27.0607 28.1472Z" fill="white"/>
<path d="M42.5567 30.9525C44.1392 30.9525 45.4221 29.5462 45.4221 27.8114C45.4221 26.0766 44.1392 24.6703 42.5567 24.6703C40.9741 24.6703 39.6912 26.0766 39.6912 27.8114C39.6912 29.5462 40.9741 30.9525 42.5567 30.9525Z" fill="#052429"/>
<path d="M41.4727 28.1472C41.8926 28.1472 42.2331 27.8007 42.2331 27.3732C42.2331 26.9457 41.8926 26.5991 41.4727 26.5991C41.0528 26.5991 40.7124 26.9457 40.7124 27.3732C40.7124 27.8007 41.0528 28.1472 41.4727 28.1472Z" fill="white"/>
<path d="M20.5569 13.1838C22.8505 13.766 23.1302 15.2501 22.307 17.0414C22.1782 17.3261 22.0211 17.6172 21.8388 17.9147C21.1445 19.0502 20.4909 20.448 19.7306 21.8778C19.2687 21.5452 18.8351 21.1421 18.4455 20.6751C17.1354 19.0918 16.6421 17.1054 16.9437 15.3141C16.9437 15.3141 16.9437 15.3109 16.9468 15.3077C17.0034 15.1606 17.9774 12.5217 20.5569 13.1838Z" fill="#ED887E"/>
<path d="M20.2302 20.0866C18.678 18.2217 17.6758 14.8599 19.8908 13.0814C17.8109 12.9887 17.0003 15.1734 16.9531 15.3045C16.95 15.3109 16.95 15.3109 16.95 15.3109C16.6484 17.1022 17.1416 19.0854 18.4518 20.6719C18.8383 21.1389 19.2719 21.542 19.7369 21.8746C20.0039 21.3724 20.2553 20.8766 20.5035 20.3904C20.4061 20.2945 20.3181 20.1921 20.2302 20.0866Z" fill="#FEB1AA"/>
<path d="M27.7582 13.9355C26.5831 15.8451 25.2384 16.021 22.772 16.1682L22.307 17.0414C23.1302 15.2501 22.8537 13.766 20.5569 13.1838C17.9774 12.5249 17.0003 15.1606 16.9468 15.3045C17.1605 14.0442 17.77 12.8831 18.766 12.0259C21.1822 9.94993 24.9556 10.4553 27.1927 13.155C27.4032 13.4045 27.5917 13.6668 27.7582 13.9355Z" fill="#CEA881"/>
<path d="M17.1228 14.572C17.0505 14.8119 16.994 15.055 16.95 15.3045C16.9688 15.2501 17.1197 14.8439 17.437 14.3929C17.327 14.4473 17.2202 14.5049 17.1228 14.572Z" fill="#EDD1B3"/>
<path d="M27.1958 13.4493C24.9588 10.7496 21.1853 10.2442 18.7692 12.3202C18.5429 12.5153 18.3356 12.7264 18.1502 12.9503C20.5569 11.3957 23.9314 12.0195 25.9987 14.5113C26.1213 14.6584 26.2407 14.8119 26.3506 14.9719C26.4072 15.0518 26.4606 15.135 26.5172 15.2182C26.5769 15.3077 26.6303 15.3941 26.7088 15.4645C26.7308 15.4837 26.7591 15.506 26.7905 15.4996C26.8062 15.4964 26.8188 15.49 26.8313 15.4805C27.0199 15.3557 27.0984 15.1126 27.2429 14.9431C27.4346 14.7192 27.6043 14.4793 27.7582 14.2266C27.5917 13.9611 27.4032 13.6988 27.1958 13.4493Z" fill="#EDD1B3"/>
<path d="M16.95 16.085C16.906 16.085 16.862 16.0818 16.818 16.0722C16.4002 15.9986 16.1205 15.5956 16.1928 15.1734C16.4441 13.6796 17.1636 12.3873 18.2727 11.4309C19.6081 10.2826 21.3393 9.78359 23.1459 10.0267C24.9273 10.2666 26.5706 11.1974 27.7771 12.6528C27.997 12.9183 28.2075 13.2094 28.3992 13.5165C28.6254 13.8779 28.5217 14.3609 28.1667 14.5944C27.8116 14.8247 27.3372 14.7192 27.1078 14.3577C26.9539 14.1114 26.7842 13.8747 26.6051 13.6636C25.6468 12.5057 24.3461 11.7668 22.9416 11.5781C21.5655 11.3925 20.2584 11.7668 19.2562 12.6272C18.4267 13.3437 17.8863 14.3161 17.6978 15.4421C17.6412 15.8163 17.3176 16.085 16.95 16.085Z" fill="#052429"/>
<path d="M19.6081 22.5623C19.4541 22.5623 19.3002 22.5144 19.1651 22.4184C18.6058 22.0154 18.2539 21.6443 17.8643 21.1773C16.4473 19.4628 15.8377 17.2781 16.1928 15.1798C16.265 14.7544 16.6609 14.4729 17.0788 14.5432C17.4967 14.6168 17.7763 15.0198 17.7041 15.4453C17.4276 17.0894 17.9114 18.8135 19.0362 20.1697C19.407 20.6175 19.674 20.8734 20.0542 21.1453C20.3998 21.3948 20.4815 21.881 20.2364 22.2329C20.0825 22.4472 19.8468 22.5623 19.6081 22.5623Z" fill="#052429"/>
<path d="M19.6835 22.508C19.5232 22.508 19.363 22.4568 19.2279 22.3544C18.8886 22.0985 18.8194 21.6091 19.0708 21.2637C19.9003 20.1313 20.8271 18.4744 21.6126 16.7183C21.8671 16.1682 22.1122 15.4069 21.8608 14.8695C21.666 14.4537 21.1665 14.1402 20.3747 13.9387C19.7652 13.782 19.1493 13.8715 18.6372 14.185C18.1628 14.4761 17.8266 14.9431 17.6915 15.4964C17.5909 15.9155 17.1762 16.1714 16.7646 16.069C16.353 15.9667 16.1017 15.5444 16.2022 15.1254C16.4347 14.1626 17.016 13.3565 17.8454 12.8479C18.7095 12.317 19.74 12.1666 20.7454 12.4257C22.0022 12.7456 22.8411 13.3405 23.2433 14.1978C23.6517 15.071 23.57 16.1362 23.0045 17.3677C22.1782 19.2133 21.1916 20.9726 20.2993 22.1913C20.1485 22.3992 19.916 22.508 19.6835 22.508Z" fill="#052429"/>
<path d="M25.7097 51.0274C23.2024 51.0274 20.5726 50.3909 18.3073 49.2298C15.8377 47.9663 13.9243 46.1718 12.7744 44.0415C10.7321 40.2543 10.7227 35.2291 12.7461 30.9301C13.6918 28.9245 14.9926 27.1301 16.2525 25.3964C17.2359 24.0401 18.2539 22.6391 19.0645 21.1773C19.2719 20.8031 19.74 20.6687 20.1076 20.883C20.4752 21.0941 20.6072 21.5707 20.3967 21.945C19.5389 23.4932 18.4927 24.9326 17.481 26.3272C16.2085 28.0801 15.0051 29.737 14.1254 31.6082C12.3094 35.4626 12.3062 39.9376 14.116 43.293C16.0765 46.9299 20.8428 49.4697 25.7065 49.4697C26.1307 49.4697 26.4732 49.8183 26.4732 50.2502C26.4732 50.682 26.1338 51.0274 25.7097 51.0274Z" fill="#052429"/>
<path d="M42.8237 51.0274C42.3996 51.0274 42.0571 50.6788 42.0571 50.247C42.0571 49.8151 42.3996 49.4665 42.8237 49.4665C47.6874 49.4665 52.4569 46.9267 54.4143 43.2898C56.2241 39.9344 56.2178 35.4562 54.4049 31.605C53.522 29.7338 52.3218 28.0769 51.0493 26.324C50.0376 24.9326 48.9913 23.49 48.1336 21.9418C47.9262 21.5676 48.055 21.0909 48.4226 20.8798C48.7903 20.6687 49.2584 20.7999 49.4658 21.1773C50.2764 22.6423 51.2944 24.0433 52.2778 25.3996C53.5377 27.1333 54.8385 28.9277 55.7842 30.9333C57.8076 35.2323 57.7981 40.2543 55.7559 44.0447C54.6059 46.1782 52.6925 47.9695 50.223 49.233C47.9608 50.3877 45.331 51.0274 42.8237 51.0274Z" fill="#052429"/>
<path d="M27.8305 14.7128C27.5037 14.7128 27.199 14.4985 27.0984 14.1626C26.9759 13.75 27.2021 13.3149 27.6074 13.1902C29.8884 12.4801 32.1255 12.0994 34.2557 12.0643C34.2589 12.0643 34.2651 12.0643 34.2683 12.0643C34.6862 12.0643 35.0255 12.4033 35.0349 12.8319C35.0412 13.2638 34.705 13.6188 34.2808 13.6252C32.2952 13.6572 30.1995 14.0155 28.0567 14.684C27.9781 14.7032 27.9027 14.7128 27.8305 14.7128Z" fill="#052429"/>
<path d="M40.7061 14.7128C40.6307 14.7128 40.5553 14.7032 40.483 14.6776C38.3371 14.0091 36.2445 13.654 34.2589 13.6188C33.8347 13.6124 33.4985 13.2574 33.5048 12.8255C33.5111 12.4001 33.8535 12.0579 34.2714 12.0579C34.2746 12.0579 34.2808 12.0579 34.284 12.0579C36.4142 12.093 38.6513 12.4737 40.9323 13.1838C41.3376 13.3085 41.5638 13.7468 41.4413 14.1562C41.3345 14.4985 41.0328 14.7128 40.7061 14.7128Z" fill="#052429"/>
<path d="M47.9765 13.1838C45.6829 13.766 45.4033 15.2501 46.2264 17.0414C46.3553 17.3261 46.5124 17.6172 46.6946 17.9147C47.389 19.0502 48.0425 20.448 48.8028 21.8778C49.2647 21.5452 49.6983 21.1421 50.0879 20.6751C51.398 19.0918 51.8913 17.1054 51.5897 15.3141C51.5897 15.3141 51.5897 15.3109 51.5866 15.3077C51.5331 15.1606 50.556 12.5217 47.9765 13.1838Z" fill="#ED887E"/>
<path d="M48.3064 20.0866C49.8585 18.2217 50.8608 14.8599 48.6457 13.0814C50.7257 12.9887 51.5363 15.1734 51.5834 15.3045C51.5866 15.3109 51.5866 15.3109 51.5866 15.3109C51.8882 17.1022 51.3949 19.0854 50.0847 20.6719C49.6983 21.1389 49.2647 21.542 48.7997 21.8746C48.5326 21.3724 48.2813 20.8766 48.0331 20.3904C48.1273 20.2945 48.2184 20.1921 48.3064 20.0866Z" fill="#FEB1AA"/>
<path d="M40.7752 13.9355C41.9503 15.8451 43.295 16.021 45.7614 16.1682L46.2264 17.0414C45.4033 15.2501 45.6797 13.766 47.9765 13.1838C50.556 12.5249 51.5332 15.1606 51.5866 15.3045C51.3729 14.0442 50.7634 12.8831 49.7674 12.0259C47.3513 9.94993 43.5778 10.4553 41.3408 13.155C41.1302 13.4045 40.9449 13.6668 40.7752 13.9355Z" fill="#CEA881"/>
<path d="M51.4138 14.572C51.486 14.8119 51.5426 15.055 51.5866 15.3045C51.5677 15.2501 51.4169 14.8439 51.0996 14.3929C51.2095 14.4473 51.3132 14.5049 51.4138 14.572Z" fill="#EDD1B3"/>
<path d="M41.3376 13.4493C43.5747 10.7496 47.3481 10.2442 49.7643 12.3202C49.9905 12.5153 50.1978 12.7264 50.3832 12.9503C47.9765 11.3957 44.6021 12.0195 42.5347 14.5113C42.4122 14.6584 42.2928 14.8119 42.1828 14.9719C42.1262 15.0518 42.0728 15.135 42.0163 15.2182C41.9566 15.3077 41.9032 15.3941 41.8246 15.4645C41.8026 15.4837 41.7743 15.506 41.7429 15.4996C41.7272 15.4964 41.7146 15.49 41.7021 15.4805C41.5136 15.3557 41.435 15.1126 41.2905 14.9431C41.0988 14.7192 40.9292 14.4793 40.7752 14.2266C40.9449 13.9611 41.1302 13.6988 41.3376 13.4493Z" fill="#EDD1B3"/>
<path d="M51.5834 16.085C51.2158 16.085 50.8922 15.8163 50.8294 15.4357C50.6408 14.3097 50.1004 13.3341 49.271 12.6208C48.2718 11.7604 46.9617 11.3893 45.5855 11.5717C44.1842 11.7604 42.8834 12.4993 41.9251 13.6572C41.7461 13.8715 41.5764 14.105 41.4224 14.3545C41.1962 14.7192 40.7218 14.8247 40.3636 14.5912C40.0054 14.3577 39.9018 13.8779 40.1311 13.5133C40.3228 13.2062 40.5333 12.9151 40.7564 12.6496C41.9597 11.1974 43.6061 10.2634 45.3875 10.0267C47.1973 9.78359 48.9254 10.2826 50.2607 11.4309C51.3698 12.3873 52.0893 13.6828 52.3406 15.1734C52.4129 15.5988 52.1333 16.0018 51.7154 16.0722C51.6714 16.0818 51.6274 16.085 51.5834 16.085Z" fill="#052429"/>
<path d="M48.9254 22.5623C48.6866 22.5623 48.4478 22.4472 48.3001 22.2329C48.055 21.881 48.1367 21.3948 48.4823 21.1453C48.8594 20.8734 49.1264 20.6175 49.5003 20.1697C50.6251 18.8135 51.109 17.0894 50.8325 15.4453C50.7602 15.0198 51.0399 14.6168 51.4577 14.5432C51.8756 14.4697 52.2715 14.7544 52.3438 15.1798C52.6988 17.2781 52.0893 19.4628 50.6723 21.1741C50.2827 21.6443 49.9276 22.0154 49.3684 22.4184C49.2333 22.5144 49.0793 22.5623 48.9254 22.5623Z" fill="#052429"/>
<path d="M48.8531 22.508C48.6206 22.508 48.3881 22.3992 48.2373 22.1945C47.345 20.9758 46.3584 19.2133 45.5289 17.3613C44.9665 16.1362 44.8848 15.0678 45.2933 14.1978C45.6923 13.3405 46.5344 12.7456 47.7911 12.4257C48.7965 12.1698 49.8271 12.3202 50.6911 12.8479C51.5174 13.3565 52.1018 14.1658 52.3312 15.1254C52.4317 15.5444 52.1804 15.9667 51.7688 16.069C51.3572 16.1714 50.9425 15.9155 50.8419 15.4964C50.7068 14.9399 50.3738 14.4761 49.8962 14.185C49.3841 13.8715 48.7683 13.782 48.1587 13.9387C47.367 14.1402 46.8674 14.4537 46.6726 14.8695C46.4212 15.4069 46.6663 16.165 46.9177 16.7087C47.7063 18.4712 48.6332 20.1281 49.4626 21.2637C49.714 21.6091 49.6449 22.0985 49.3055 22.3544C49.1704 22.4568 49.0102 22.508 48.8531 22.508Z" fill="#052429"/>
</g>
</svg>
