<svg width="138" height="137" viewBox="0 0 138 137" fill="none" xmlns="http://www.w3.org/2000/svg">
<ellipse cx="69.1942" cy="68.3908" rx="60.6973" ry="60.7838" transform="rotate(-7.418 69.1942 68.3908)" fill="#A069F4"/>
<circle cx="64.227" cy="66.0076" r="60.4799" transform="rotate(0.680213 64.227 66.0076)" fill="#B17DFF"/>
<path d="M86.8677 69.1113L71.6092 63.3518L66.1425 48.1469C65.864 47.3733 65.3522 46.7026 64.676 46.2251C63.9998 45.7476 63.1918 45.4863 62.3607 45.4764C61.5297 45.4665 60.7156 45.7086 60.0283 46.1699C59.3409 46.6312 58.8133 47.2896 58.5166 48.0564L52.6905 63.1272L37.2995 68.5228C36.5164 68.7976 35.8375 69.303 35.3543 69.9708C34.8711 70.6387 34.6068 71.4368 34.5971 72.2577C34.5873 73.0786 34.8326 73.8828 35.2998 74.5619C35.767 75.241 36.4337 75.7624 37.2101 76.0557L52.4686 81.8152L57.9353 97.0201C58.2137 97.7937 58.7255 98.4645 59.4017 98.942C60.0779 99.4195 60.886 99.6808 61.7171 99.6907C62.5481 99.7005 63.3622 99.4585 64.0495 98.9972C64.7368 98.5358 65.2644 97.8774 65.5612 97.1106L71.3873 82.0398L86.7783 76.6442C87.5613 76.3694 88.2402 75.864 88.7234 75.1962C89.2066 74.5284 89.4709 73.7302 89.4807 72.9093C89.4904 72.0884 89.2452 71.2842 88.7779 70.6051C88.3107 69.926 87.644 69.4047 86.8677 69.1113ZM85.6052 73.3825L69.4548 79.046C69.2156 79.1297 68.9976 79.2638 68.8161 79.4389C68.6345 79.6141 68.4936 79.8261 68.4032 80.0603L62.288 95.8748C62.2469 95.9803 62.1741 96.0708 62.0794 96.1342C61.9847 96.1977 61.8726 96.2309 61.7581 96.2296C61.6437 96.2282 61.5324 96.1923 61.4393 96.1266C61.3461 96.061 61.2755 95.9687 61.2369 95.8623L55.4988 79.9071C55.414 79.6708 55.2782 79.4555 55.1009 79.2761C54.9235 79.0967 54.7088 78.9575 54.4716 78.8681L38.4602 72.8228C38.3534 72.7822 38.2617 72.7102 38.1975 72.6167C38.1333 72.5231 38.0996 72.4124 38.1009 72.2993C38.1023 72.1863 38.1386 72.0764 38.205 71.9844C38.2715 71.8923 38.3648 71.8226 38.4726 71.7845L54.623 66.1211C54.8622 66.0373 55.0801 65.9033 55.2617 65.7281C55.4433 65.553 55.5841 65.341 55.6745 65.1067L61.7898 49.2923C61.8309 49.1868 61.9037 49.0962 61.9984 49.0328C62.0931 48.9694 62.2052 48.9361 62.3196 48.9375C62.434 48.9388 62.5453 48.9748 62.6385 49.0404C62.7317 49.1061 62.8023 49.1983 62.8409 49.3048L68.579 65.2599C68.6638 65.4962 68.7996 65.7116 68.9769 65.891C69.1543 66.0704 69.369 66.2096 69.6061 66.2989L85.6175 72.3443C85.7243 72.3849 85.816 72.4568 85.8802 72.5504C85.9445 72.6439 85.9782 72.7547 85.9769 72.8677C85.9755 72.9808 85.9392 73.0907 85.8727 73.1827C85.8063 73.2747 85.7129 73.3444 85.6052 73.3825ZM72.3215 42.7083C72.3269 42.2494 72.5167 41.8114 72.8491 41.4908C73.1814 41.1702 73.6291 40.9932 74.0937 40.9987L79.3489 41.0611L79.4106 35.87C79.416 35.4111 79.6058 34.9732 79.9382 34.6525C80.2705 34.3319 80.7183 34.1549 81.1828 34.1604C81.6474 34.166 82.0908 34.3535 82.4155 34.682C82.7401 35.0104 82.9195 35.4527 82.914 35.9116L82.8524 41.1027L88.1076 41.1651C88.5722 41.1706 89.0156 41.3582 89.3402 41.6866C89.6649 42.015 89.8442 42.4573 89.8388 42.9163C89.8333 43.3752 89.6436 43.8131 89.3112 44.1337C88.9788 44.4543 88.5311 44.6314 88.0665 44.6258L82.8113 44.5635L82.7497 49.7546C82.7442 50.2135 82.5544 50.6514 82.2221 50.972C81.8897 51.2926 81.442 51.4696 80.9774 51.4641C80.5128 51.4586 80.0694 51.271 79.7448 50.9426C79.4201 50.6142 79.2408 50.1719 79.2462 49.713L79.3078 44.5219L74.0526 44.4595C73.5881 44.4539 73.1447 44.2664 72.82 43.9379C72.4953 43.6095 72.316 43.1672 72.3215 42.7083ZM101.353 56.8979C101.347 57.3568 101.157 57.7947 100.825 58.1153C100.493 58.436 100.045 58.613 99.5804 58.6075L96.6608 58.5728L96.6266 61.4567C96.6211 61.9157 96.4314 62.3536 96.099 62.6742C95.7666 62.9948 95.3189 63.1718 94.8543 63.1663C94.3897 63.1608 93.9463 62.9732 93.6217 62.6448C93.297 62.3164 93.1177 61.8741 93.1231 61.4151L93.1574 58.5312L90.2378 58.4965C89.7732 58.491 89.3298 58.3034 89.0052 57.975C88.6805 57.6466 88.5012 57.2043 88.5066 56.7454C88.5121 56.2864 88.7018 55.8485 89.0342 55.5279C89.3666 55.2073 89.8143 55.0303 90.2789 55.0358L93.1984 55.0705L93.2327 52.1865C93.2381 51.7276 93.4279 51.2896 93.7603 50.969C94.0926 50.6484 94.5404 50.4714 95.005 50.4769C95.4695 50.4824 95.9129 50.67 96.2376 50.9985C96.5623 51.3269 96.7416 51.7692 96.7361 52.2281L96.7019 55.1121L99.6215 55.1467C100.086 55.1522 100.529 55.3398 100.854 55.6682C101.179 55.9966 101.358 56.439 101.353 56.8979Z" fill="#CCA9FF"/>
</svg>
