<svg width="33" height="33" viewBox="0 0 33 33" fill="none" xmlns="http://www.w3.org/2000/svg">
<path d="M16.5 0C19.7634 0 22.9535 0.967708 25.6669 2.78075C28.3803 4.59379 30.4952 7.17074 31.744 10.1857C32.9929 13.2007 33.3196 16.5183 32.6829 19.719C32.0463 22.9197 30.4748 25.8597 28.1673 28.1673C25.8597 30.4748 22.9197 32.0463 19.719 32.6829C16.5183 33.3196 13.2007 32.9929 10.1857 31.744C7.17074 30.4952 4.59379 28.3803 2.78075 25.6669C0.967709 22.9535 0 19.7634 0 16.5C0.0046196 12.1253 1.74449 7.93119 4.83784 4.83784C7.93119 1.74449 12.1253 0.00461971 16.5 0ZM16.5 30.4615C19.2613 30.4615 21.9606 29.6427 24.2566 28.1086C26.5526 26.5745 28.3421 24.394 29.3988 21.8428C30.4555 19.2917 30.732 16.4845 30.1933 13.7762C29.6546 11.068 28.3248 8.58026 26.3723 6.6277C24.4197 4.67514 21.932 3.34544 19.2238 2.80673C16.5155 2.26802 13.7083 2.5445 11.1571 3.60122C8.60601 4.65794 6.42552 6.44742 4.8914 8.74338C3.35729 11.0393 2.53846 13.7387 2.53846 16.5C2.54266 20.2015 4.01495 23.7503 6.63234 26.3677C9.24972 28.985 12.7985 30.4573 16.5 30.4615ZM8.88461 16.5C8.88461 16.8366 9.01833 17.1595 9.25636 17.3975C9.49439 17.6355 9.81722 17.7692 10.1538 17.7692H19.7825L16.8712 20.6789C16.7533 20.7969 16.6598 20.9369 16.596 21.0909C16.5321 21.245 16.4993 21.4101 16.4993 21.5769C16.4993 21.7437 16.5321 21.9088 16.596 22.0629C16.6598 22.217 16.7533 22.357 16.8712 22.4749C16.9892 22.5928 17.1292 22.6864 17.2832 22.7502C17.4373 22.814 17.6025 22.8469 17.7692 22.8469C17.936 22.8469 18.1011 22.814 18.2552 22.7502C18.4093 22.6864 18.5493 22.5928 18.6672 22.4749L23.7441 17.398C23.8621 17.2801 23.9558 17.1401 24.0196 16.986C24.0835 16.832 24.1164 16.6668 24.1164 16.5C24.1164 16.3332 24.0835 16.168 24.0196 16.014C23.9558 15.8599 23.8621 15.7199 23.7441 15.602L18.6672 10.5251C18.429 10.2869 18.106 10.1531 17.7692 10.1531C17.4324 10.1531 17.1094 10.2869 16.8712 10.5251C16.6331 10.7633 16.4993 11.0863 16.4993 11.4231C16.4993 11.7599 16.6331 12.0829 16.8712 12.3211L19.7825 15.2308H10.1538C9.81722 15.2308 9.49439 15.3645 9.25636 15.6025C9.01833 15.8405 8.88461 16.1634 8.88461 16.5Z" fill="#052429"/>
</svg>
