<svg width="36" height="36" viewBox="0 0 36 36" fill="none" xmlns="http://www.w3.org/2000/svg">
<circle cx="18.0401" cy="17.6456" r="17.6456" fill="#71CF4C"/>
<path d="M27.0603 24.5477L21.1197 14.6093V9.10908H21.8901C22.0944 9.10908 22.2904 9.02763 22.4348 8.88266C22.5793 8.73768 22.6605 8.54106 22.6605 8.33603C22.6605 8.13101 22.5793 7.93438 22.4348 7.78941C22.2904 7.64443 22.0944 7.56299 21.8901 7.56299H14.1864C13.9821 7.56299 13.7861 7.64443 13.6416 7.78941C13.4972 7.93438 13.416 8.13101 13.416 8.33603C13.416 8.54106 13.4972 8.73768 13.6416 8.88266C13.7861 9.02763 13.9821 9.10908 14.1864 9.10908H14.9567V14.6093L9.01621 24.5477C8.8761 24.7821 8.80042 25.0496 8.79688 25.3229C8.79334 25.5962 8.86207 25.8656 8.99606 26.1036C9.13005 26.3415 9.32451 26.5396 9.55963 26.6776C9.79475 26.8156 10.0621 26.8886 10.3345 26.8891H25.742C26.0146 26.8891 26.2823 26.8165 26.5178 26.6787C26.7534 26.5409 26.9482 26.3429 27.0826 26.1048C27.2169 25.8668 27.2859 25.5972 27.2825 25.3236C27.2791 25.0501 27.2034 24.7823 27.0631 24.5477H27.0603ZM18.3859 20.4013C16.8538 19.6234 15.3959 19.2108 14.0313 19.1635L16.3877 15.221C16.4598 15.1011 16.4977 14.9638 16.4975 14.8238V9.10908H19.579V14.8238C19.5787 14.9638 19.6167 15.1011 19.6888 15.221L23.3692 21.3812C22.2175 21.6073 20.5699 21.5106 18.3859 20.4013Z" fill="#3A9B16"/>
</svg>
