<svg width="35" height="35" viewBox="0 0 35 35" fill="none" xmlns="http://www.w3.org/2000/svg">
<circle cx="17.477" cy="17.477" r="17.477" fill="#F2C512"/>
<path d="M17.4769 5.82568C15.1725 5.82568 12.9198 6.50902 11.0038 7.78928C9.08771 9.06955 7.59433 10.8892 6.71247 13.0182C5.83061 15.1472 5.59987 17.4899 6.04944 19.7501C6.49901 22.0102 7.60869 24.0863 9.23816 25.7157C10.8676 27.3452 12.9437 28.4549 15.2038 28.9044C17.464 29.354 19.8066 29.1233 21.9356 28.2414C24.0646 27.3595 25.8843 25.8662 27.1646 23.9501C28.4449 22.0341 29.1282 19.7814 29.1282 17.477C29.1249 14.3879 27.8963 11.4262 25.712 9.24188C23.5277 7.05754 20.566 5.82895 17.4769 5.82568ZM27.3357 17.477C27.3367 18.7418 27.0932 19.9949 26.6187 21.1673L21.6109 18.0876C21.3979 17.9562 21.1597 17.8711 20.9118 17.8377L18.3552 17.4927C18.0029 17.4467 17.6449 17.5058 17.3261 17.6624C17.0072 17.8191 16.7416 18.0663 16.5627 18.3733H15.5858L15.1601 17.4927C15.0424 17.2475 14.8701 17.0325 14.6565 16.8641C14.4429 16.6958 14.1936 16.5785 13.9277 16.5214L13.0315 16.3275L13.9075 14.7882H15.7796C16.0825 14.7876 16.3804 14.7106 16.6456 14.5642L18.018 13.8068C18.1386 13.7396 18.2513 13.6592 18.3541 13.5671L21.3689 10.8402C21.6711 10.5693 21.872 10.2035 21.9384 9.80312C22.0048 9.40271 21.9327 8.99162 21.7341 8.63768L21.6938 8.56486C23.3807 9.36477 24.8063 10.6267 25.8049 12.2042C26.8035 13.7816 27.3343 15.61 27.3357 17.477ZM7.61808 17.477C7.61658 16.0116 7.94351 14.5646 8.57483 13.2422L9.84527 16.6334C9.95114 16.9142 10.1258 17.1639 10.3533 17.3596C10.5807 17.5554 10.8537 17.6909 11.1471 17.7537L13.5479 18.2702L13.9748 19.1575C14.1229 19.4593 14.3525 19.7136 14.6375 19.8918C14.9226 20.0699 15.2518 20.1648 15.588 20.1658H15.7538L14.9438 21.984C14.8011 22.3042 14.7554 22.6592 14.8124 23.0051C14.8693 23.3509 15.0264 23.6725 15.2643 23.93L15.2799 23.9457L17.4769 26.2088L17.2595 27.3291C14.6849 27.2692 12.2355 26.2054 10.4342 24.3647C8.63296 22.5241 7.62235 20.0524 7.61808 17.477Z" fill="#BF9900"/>
</svg>
