<svg width="302" height="321" viewBox="0 0 302 321" fill="none" xmlns="http://www.w3.org/2000/svg">
<path d="M48.7745 4C36.8745 4.00016 27.2273 14.6381 27.2271 27.7607V99.1305C27.2273 112.253 36.8745 122.891 48.7745 122.891H56.3754C57.2412 125.311 61.6254 134.83 78.3682 140.135C78.3682 140.135 75.2082 126.943 79.7033 123.021C79.7535 122.978 79.7985 122.933 79.8407 122.891H200.159C212.059 122.891 221.705 112.253 221.706 99.1305V27.7607C221.705 14.6381 212.059 4.00016 200.159 4H48.7745Z" fill="white"/>
<path d="M218.549 27.2148C218.293 15.9847 210.147 7.42514 200.621 7.15625L200.159 7.15039H48.7749C38.8973 7.15053 30.3776 16.0809 30.3774 27.7607V99.1309L30.3833 99.6758C30.6438 111.087 39.0516 119.741 48.7749 119.741H56.3755L56.6226 119.751C57.8512 119.847 58.921 120.655 59.3413 121.83C59.8512 123.255 62.8176 130.251 74.3804 135.288C74.3097 134.633 74.2481 133.945 74.2056 133.238C74.0837 131.214 74.1 128.911 74.5024 126.769C74.8907 124.701 75.7217 122.337 77.5962 120.681L77.6167 120.66L77.73 120.553C78.3073 120.032 79.0589 119.741 79.8403 119.741H200.159L200.621 119.734C210.147 119.465 218.293 110.906 218.549 99.6758L218.555 99.1309V27.7607L218.549 27.2148ZM224.856 99.1309L224.848 99.8115C224.524 113.852 214.2 125.661 200.809 126.032L200.159 126.041H81.3003C81.0777 126.461 80.8557 127.07 80.6938 127.932C80.4246 129.365 80.3885 131.096 80.4946 132.859C80.5995 134.6 80.8354 136.249 81.0483 137.472C81.1542 138.079 81.2527 138.574 81.3237 138.911C81.3592 139.079 81.3879 139.208 81.4067 139.292C81.4161 139.334 81.423 139.364 81.4272 139.383C81.4293 139.392 81.4304 139.398 81.4312 139.401L81.4321 139.402H81.4312C81.6952 140.506 81.3452 141.667 80.5142 142.44C79.6828 143.214 78.4992 143.481 77.4165 143.138C62.5197 138.417 56.5498 130.416 54.3228 126.041H48.7749C35.07 126.041 24.4143 114.079 24.0845 99.8115L24.0767 99.1309V27.7607C24.0769 13.1953 34.8525 0.849802 48.7749 0.849609H200.159L200.809 0.859375C214.415 1.23681 224.856 13.423 224.856 27.7607V99.1309Z" fill="#052429"/>
<path d="M282.364 43.8682C291.289 43.8683 298.524 51.9987 298.525 62.0281V116.575C298.524 126.604 291.289 134.735 282.364 134.735H276.663C276.014 136.584 272.726 143.859 260.169 147.914C260.169 147.914 262.539 137.832 259.167 134.835C259.13 134.801 259.096 134.767 259.064 134.735H168.826C159.901 134.735 152.666 126.604 152.666 116.575V62.0281C152.666 51.9987 159.901 43.8683 168.826 43.8682H282.364Z" fill="#E5F3F8"/>
<path d="M155.82 61.625C156.006 53.3197 161.891 47.2143 168.505 47.0225L168.825 47.0186H282.363L282.685 47.0225C289.405 47.2175 295.374 53.5183 295.374 62.0283V116.575L295.37 116.979C295.182 125.418 289.106 131.585 282.363 131.585H276.663L276.414 131.595C275.18 131.692 274.107 132.509 273.692 133.691L273.594 133.95C273.067 135.27 270.924 139.55 264.059 142.958C264.065 142.867 264.071 142.776 264.076 142.685C264.169 141.109 264.16 139.287 263.844 137.572C263.559 136.027 262.952 134.162 261.551 132.756L261.314 132.53C261.312 132.529 261.311 132.527 261.309 132.525C260.717 131.924 259.908 131.585 259.065 131.585H168.825L168.505 131.58C161.891 131.388 156.006 125.284 155.82 116.979L155.816 116.575V62.0283L155.82 61.625ZM257.103 147.194C256.843 148.3 257.199 149.46 258.034 150.23C258.87 151 260.056 151.261 261.137 150.912C272.095 147.374 276.793 141.444 278.694 137.885H282.364C293.192 137.884 301.413 128.296 301.668 117.109L301.675 116.575V62.0283C301.675 50.6148 293.364 40.7182 282.364 40.7178H168.825L168.312 40.7256C157.568 41.0283 149.516 50.7933 149.516 62.0283V116.575L149.522 117.109C149.772 128.118 157.738 137.58 168.312 137.878L168.825 137.885H257.437C257.51 138.098 257.585 138.37 257.649 138.714C257.836 139.732 257.866 140.993 257.788 142.312C257.712 143.61 257.538 144.844 257.381 145.762C257.303 146.217 257.231 146.586 257.179 146.837C257.153 146.962 257.133 147.057 257.119 147.118C257.113 147.149 257.108 147.171 257.105 147.184C257.103 147.189 257.103 147.192 257.103 147.194Z" fill="#052429"/>
<ellipse cx="162.544" cy="304.932" rx="131.16" ry="16.0681" fill="#02AFCD"/>
<path fill-rule="evenodd" clip-rule="evenodd" d="M220.637 270.295C220.637 270.295 218.508 251.429 209.177 247.023C199.845 242.627 178.559 286.553 178.559 286.553C178.559 286.553 184.189 293.239 200.098 290.754C216.017 288.279 220.637 270.295 220.637 270.295Z" fill="#CEA881"/>
<path fill-rule="evenodd" clip-rule="evenodd" d="M197.243 287.18C202.599 284.509 212.304 278.183 208.521 261.473C206.917 254.376 207.361 253.246 202.862 249.077C192.592 257.611 177.077 289.347 177.077 289.347C177.077 289.347 182.554 291.329 193.328 291.339C193.359 289.953 194.801 288.392 197.243 287.18Z" fill="#B48557"/>
<path fill-rule="evenodd" clip-rule="evenodd" d="M206.191 287.2C206.191 287.2 220.738 272.134 210.609 258.618L213.222 251.572C213.222 251.572 223.159 263.558 218.771 274.568C214.382 285.567 206.191 287.2 206.191 287.2Z" fill="#EDD1B3"/>
<path fill-rule="evenodd" clip-rule="evenodd" d="M176.078 289.983L205.232 289.48C205.232 289.48 219.467 290.24 224.42 292.746C229.373 295.252 232.601 298.179 230.533 300.552C228.455 302.924 182.595 301.897 182.595 301.897C182.595 301.897 170.005 301.147 176.078 289.983Z" fill="#8B6040"/>
<path fill-rule="evenodd" clip-rule="evenodd" d="M182.585 301.897C175.795 300.418 172.648 297.019 176.411 289.973L192.471 289.696C192.461 289.881 192.471 290.107 192.501 290.343C192.39 292.13 194.176 293.783 197.969 294.235L197.999 294.246H198.08C198.1 294.246 198.13 294.256 198.151 294.256C199.654 294.42 202.035 294.595 204.849 294.81C214.574 295.55 229.343 296.762 229.928 299.442V299.463L229.948 299.607V299.761L229.938 299.874L229.908 299.976L229.858 300.12L229.787 300.254L229.696 300.387L229.636 300.459L229.565 300.541L229.404 300.685L229.313 300.757L229.111 300.901L228.97 300.983L228.829 301.055L228.637 301.147L228.586 301.168C219.467 302.729 182.585 301.897 182.585 301.897Z" fill="#62432D"/>
<path d="M206.867 291.062C206.019 291.062 205.202 290.62 204.738 289.819C204.052 288.628 204.456 287.097 205.626 286.399C205.737 286.327 217.399 279.22 217.237 267.214C217.076 255.28 209.046 250.093 208.703 249.878C207.553 249.159 207.19 247.618 207.886 246.447C208.592 245.277 210.085 244.897 211.245 245.605C211.679 245.872 221.948 252.343 222.15 267.142C222.352 282.106 208.683 290.374 208.097 290.713C207.704 290.949 207.28 291.062 206.867 291.062Z" fill="#052429"/>
<path d="M197.545 288.268C225.842 286.019 233.227 293.239 235.043 298.169C235.789 300.192 234.337 302.369 232.258 302.369H181.021C172.93 302.369 173.465 293.321 177.087 289.326L197.545 288.268Z" fill="#8B6040"/>
<path d="M203.699 287.919C201.762 287.981 199.724 288.094 197.555 288.268L177.087 289.326C173.465 293.321 172.94 302.369 181.021 302.369H219.013C219.225 297.296 209.843 288.689 203.699 287.919Z" fill="#61422D"/>
<path d="M232.258 304.845H181.021C177.954 304.845 175.533 303.818 173.99 301.876C172.628 300.161 172.063 297.789 172.396 295.18C172.587 293.701 173.041 292.192 173.747 290.713C174.222 289.727 174.716 288.864 175.24 287.96C175.543 287.426 175.876 286.861 176.239 286.194C176.895 285.002 178.378 284.571 179.548 285.238C180.718 285.906 182.474 285.259 181.818 286.45C181.435 287.149 179.76 289.901 179.437 290.456C178.943 291.319 178.509 292.068 178.116 292.89C177.641 293.886 177.339 294.872 177.218 295.807C177.127 296.536 177.077 297.881 177.773 298.765C178.509 299.689 179.942 299.884 181.021 299.884H232.258C232.48 299.884 232.622 299.751 232.692 299.638C232.763 299.535 232.874 299.309 232.763 299.021C231.572 295.786 225.772 288.494 197.737 290.723C196.395 290.836 195.225 289.809 195.124 288.453C195.023 287.087 196.022 285.906 197.354 285.793C226.044 283.513 234.922 290.785 237.313 297.296C237.948 299.021 237.706 300.952 236.677 302.462C235.668 303.961 234.014 304.845 232.258 304.845Z" fill="#052429"/>
<path d="M218.67 304.28C218.549 304.28 218.438 304.269 218.317 304.249C217.308 304.054 216.642 303.058 216.834 302.02C217.268 299.709 214.645 297.727 214.372 297.542C213.545 297.121 213.131 296.135 213.444 295.221C213.777 294.225 214.846 293.701 215.815 294.04C216.824 294.389 221.414 297.912 220.506 302.739C220.324 303.643 219.547 304.28 218.67 304.28Z" fill="#052429"/>
<path d="M227.376 304.28C227.174 304.28 226.962 304.249 226.76 304.177C225.782 303.828 225.267 302.749 225.61 301.753C226.266 299.822 223.643 297.491 222.665 296.823C221.807 296.238 221.585 295.057 222.16 294.184C222.735 293.311 223.885 293.075 224.743 293.66C227.033 295.211 230.523 298.929 229.141 303.006C228.869 303.787 228.143 304.28 227.376 304.28Z" fill="#052429"/>
<path d="M12.1158 301.959C7.0415 301.455 2.8852 299.381 2.8852 296.207C2.8852 293.034 7.02132 290.312 12.1158 290.456C47.9387 291.514 86.9191 282.281 97.5621 255.968L120.069 277.412C120.069 277.423 80.8965 308.717 12.1158 301.959Z" fill="#62432D"/>
<path d="M10.4614 296.105C48.1808 297.162 89.2394 287.929 100.447 261.617L118.515 277.957C119.463 277.279 119.948 276.899 119.948 276.899L97.441 255.454C86.7981 281.757 47.8176 291 11.9948 289.942C6.90026 289.788 2.76414 292.52 2.76414 295.694C2.76414 296.474 3.01634 297.183 3.46022 297.82C5.22564 296.71 7.70731 296.033 10.4614 296.105Z" fill="#8B6040"/>
<path d="M22.0728 304.454C18.1081 304.454 13.9619 304.362 9.51308 304.064C3.19793 303.653 0 301.24 0 296.906C0 293.496 2.66326 289.521 10.1486 289.521C12.2268 289.521 19.2582 289.49 21.185 289.439C44.0749 288.792 84.1852 283.472 95.6352 255.167C95.8874 254.551 96.4019 254.089 97.0274 253.924C97.6529 253.75 98.3288 253.893 98.8433 254.314L121.521 272.524C121.995 272.904 122.288 273.479 122.308 274.085C122.338 274.701 122.096 275.297 121.663 275.718C121.36 276.005 114.127 282.948 100.962 289.942C88.8359 296.382 69.1842 304.064 44.3978 304.064C40.8165 304.064 37.3462 304.156 33.6741 304.249C29.9112 304.362 26.0878 304.454 22.0728 304.454ZM9.77537 299.843C18.5419 300.418 26.1887 300.213 33.5732 300.028C37.2756 299.935 40.7761 299.843 44.4078 299.843C68.2763 299.843 87.2218 292.459 98.9038 286.276C107.892 281.51 114.096 276.704 116.972 274.27L98.359 259.326C93.093 270.305 83.3681 278.83 69.4163 284.694C56.4934 290.117 40.302 293.147 21.296 293.691C19.238 293.753 12.0452 293.773 10.1385 293.773C7.24326 293.773 4.14621 294.595 4.14621 296.916C4.1563 297.738 4.1563 299.473 9.77537 299.843Z" fill="#052429"/>
<path fill-rule="evenodd" clip-rule="evenodd" d="M118.545 166.195C118.545 166.195 108.437 190.289 98.9139 201.206C89.3907 212.124 81.9356 231.884 86.7073 252.055C91.479 272.216 103.484 275.143 107.378 280.925C111.272 286.707 109.668 286.533 108.296 289.973C106.934 293.424 103.625 302.174 115.61 302.657C127.594 303.14 156.376 302.749 156.376 302.749C156.376 302.749 163.347 301.014 162.398 298.364C161.45 295.714 153.178 290.25 153.178 290.25C153.178 290.25 186.953 288.402 199.452 271.558C205.021 264.061 208.975 255.383 211.719 246.437C212.637 243.428 213.424 240.378 214.049 237.296C214.534 234.893 213.999 232.182 215.926 230.641C221.343 226.307 223.573 218.635 222.423 211.723C221.272 204.811 217.116 198.68 211.87 194.14C210.055 192.569 208.087 191.162 205.878 190.258C203.063 189.108 199.714 189.252 197.021 187.917C195.538 187.187 194.176 186.263 192.612 185.616C189.313 184.25 185.934 183.069 182.544 181.95C174.484 179.31 166.282 177.102 158.06 175.027C145.46 171.844 132.759 169.009 120.018 166.472C119.927 166.472 118.566 166.154 118.545 166.195Z" fill="#CEA881"/>
<path d="M159.352 188.481C127.312 186.356 127.736 175.9 123.599 175.058C122.338 174.801 118.818 174.914 114.439 175.243C110.616 183.244 104.654 194.623 98.9139 201.217C89.3907 212.134 81.9356 231.894 86.7073 252.065C91.479 272.226 103.484 275.153 107.378 280.935C111.272 286.717 109.668 286.543 108.296 289.983C106.934 293.434 103.625 302.185 115.61 302.667C127.594 303.15 156.376 302.76 156.376 302.76C156.376 302.76 163.347 301.024 162.398 298.374C161.45 295.725 153.178 290.261 153.178 290.261C153.178 290.261 158.535 289.963 165.758 288.556L166.313 282.383C166.313 282.383 136.22 234.452 145.965 237.019C155.72 239.587 175.22 256.194 168.159 242.329C161.097 228.464 141.758 223.503 137.561 216.828C134.444 211.877 134.091 204.267 140.89 202.418C144.532 201.422 148.467 202.881 151.483 205.191C152.24 205.777 152.976 206.424 153.884 206.732C154.741 207.019 155.68 206.968 156.577 206.886C165.435 206.034 174.121 203.723 182.554 200.919C186.6 199.573 190.847 198.3 194.721 196.503C196.385 195.722 207.623 189.385 207.855 189.457C205.636 188.841 199.109 188.985 197.031 187.947C196.97 187.917 196.92 187.886 196.859 187.855C189.374 188.81 177.712 189.529 160.946 188.594C160.391 188.553 159.866 188.523 159.352 188.481Z" fill="#B48557"/>
<path d="M143.201 245.4C142.262 242.473 141.919 239.32 140.961 236.382C140.658 235.468 140.285 234.544 139.609 233.866C139.034 233.291 138.278 232.932 137.551 232.572C132.558 230.097 127.796 226.646 125.123 221.696C122.207 228.259 121.34 235.376 121.925 242.514C122.47 249.118 126.111 252.836 129.642 258.258C132.81 263.116 135.14 269.925 134.162 275.677C133.395 280.134 131.761 286.183 127.453 287.96C129.087 287.293 131.307 287.919 132.992 287.878C134.979 287.827 137.047 287.118 138.843 286.307C142.323 284.725 145.642 282.086 147.347 278.553C149.364 274.372 150.847 268.303 149.556 263.671C149.072 261.935 148.033 260.579 147.66 258.7C147.296 256.841 147.417 254.931 146.863 253.103C146.288 251.203 145.037 249.611 144.159 247.834C143.776 247.033 143.473 246.221 143.201 245.4Z" fill="#CEA881"/>
<path d="M139.408 248.255C139.236 248.142 138.56 249.487 138.53 249.672C138.237 251.593 139.397 253.205 140.588 254.551C142.202 256.379 143.725 258.34 144.563 260.672C145.511 263.301 145.571 266.351 145.289 269.104C144.593 275.831 141.314 283.297 135.624 286.769C128.22 291.288 141.677 287.539 144.078 284.324C146.469 281.12 158.192 261.093 139.408 248.255Z" fill="#EDD1B3"/>
<path fill-rule="evenodd" clip-rule="evenodd" d="M140.759 247.279C140.679 247.146 140.618 247.002 140.548 246.858C138.611 242.298 138.893 237.235 139.065 232.398C139.266 226.543 140.87 219.58 143.735 214.414C150.878 201.504 164.698 194.366 179.256 194.397C192.784 194.428 203.669 201.33 208.683 214.958C212.072 224.171 216.279 239.813 213.575 248.923C210.125 260.559 192.895 285.033 171.185 287.539C156.951 289.182 143.443 285.485 143.443 285.485C143.443 285.485 153.208 266.947 149.808 258.895C148.668 256.194 147.125 253.678 145.238 251.459C143.957 249.96 141.758 249.036 140.759 247.279Z" fill="#FBF2E9"/>
<path d="M208.672 214.958C207.563 211.939 206.161 209.238 204.506 206.876L203.084 212.001C195.265 217.393 189.566 226.615 188.436 235.499C187.719 241.107 188.012 250.956 195.487 252.363C199.361 253.092 203.346 251.521 206.161 248.82C209.106 246.006 210.398 241.969 213.515 239.248C213.767 239.022 214.029 238.806 214.292 238.591C213.666 230.467 210.983 221.223 208.672 214.958Z" fill="#EED7BB"/>
<path fill-rule="evenodd" clip-rule="evenodd" d="M192.996 197.242C188.88 195.363 184.249 194.418 179.245 194.408C168.764 194.387 158.666 198.084 151.17 204.976C151.271 205.048 151.372 205.119 151.463 205.202C152.219 205.787 152.956 206.434 153.864 206.742C154.721 207.03 155.659 206.978 156.557 206.896C165.415 206.044 174.101 203.733 182.534 200.929C185.994 199.758 189.606 198.659 192.996 197.242Z" fill="#EED7BB"/>
<path d="M158.555 291.575C151.957 291.575 144.088 289.881 140.86 288.73C139.579 288.279 138.903 286.851 139.347 285.547C139.791 284.242 141.193 283.554 142.474 284.006C145.511 285.084 152.784 286.574 158.555 286.574C189.091 286.574 213.938 261.391 213.938 230.446C213.938 229.06 215.038 227.94 216.39 227.94C217.752 227.94 218.851 229.06 218.851 230.446C218.851 264.143 191.805 291.575 158.555 291.575Z" fill="#052429"/>
<path d="M111.766 287.344C111.554 287.919 111.292 288.463 110.959 288.977C109.759 290.908 108.699 294.718 105.733 293.886C103.484 293.249 103.837 291.503 104.725 289.86C105.33 288.73 106.016 287.56 106.823 286.276C107.297 285.526 107.458 284.633 107.287 283.79C107.105 282.938 106.601 282.209 105.885 281.747C93.0123 273.458 85.3958 262.161 83.2471 248.152C80.1399 227.95 89.3806 208.211 98.2279 197.448C114.419 177.739 115.912 164.593 115.933 164.459C116.074 163.093 117.264 162.087 118.616 162.22C119.958 162.354 120.946 163.566 120.825 164.932C120.775 165.517 119.302 179.598 102.001 200.652C93.1637 211.405 85.4362 230.025 88.1095 247.382C90.0363 259.902 96.9063 270.038 108.528 277.515C110.344 278.696 111.655 280.596 112.109 282.733C112.422 284.263 112.301 285.875 111.766 287.344Z" fill="#052429"/>
<path d="M138.429 291.062C137.582 291.062 136.764 290.62 136.3 289.819C135.614 288.628 136.018 287.097 137.188 286.399C137.299 286.327 148.961 279.22 148.8 267.214C148.638 255.28 140.608 250.093 140.265 249.878C139.115 249.159 138.752 247.618 139.448 246.447C140.154 245.277 141.647 244.897 142.807 245.605C143.241 245.872 153.511 252.343 153.712 267.142C153.914 282.106 140.245 290.374 139.66 290.713C139.276 290.949 138.853 291.062 138.429 291.062Z" fill="#052429"/>
<path fill-rule="evenodd" clip-rule="evenodd" d="M132.174 189.478C132.174 189.478 132.164 189.509 132.144 189.539C132.78 189.652 133.375 189.734 133.94 189.776L132.174 189.478Z" fill="white"/>
<path d="M140.971 236.382C140.669 235.468 140.295 234.544 139.619 233.866C139.044 233.291 138.288 232.932 137.561 232.572C132.729 230.179 128.119 226.862 125.405 222.168L124.77 222.569C121.35 220.073 120.432 229.132 120.21 230.857C120.048 232.12 119.887 233.394 120.038 234.657C120.19 235.92 120.825 237.974 121.753 238.827C122.006 236.557 122.379 235.273 123.478 234.544C124.941 233.579 126.586 234.349 127.867 235.284C129.34 236.362 130.823 237.368 132.416 238.262C135.624 240.049 139.044 241.435 142.484 242.678C142 240.573 141.637 238.426 140.971 236.382Z" fill="#B48557"/>
<path d="M128.623 288.268C157.606 286.019 165.173 293.239 167.029 298.169C167.795 300.192 166.302 302.369 164.174 302.369H111.696C103.413 302.369 103.958 293.321 107.66 289.326L128.623 288.268Z" fill="#8B6040"/>
<path d="M134.928 287.919C132.951 287.981 130.863 288.094 128.633 288.268L107.67 289.326C103.968 293.321 103.423 302.369 111.706 302.369H150.615C150.827 297.296 141.213 288.689 134.928 287.919Z" fill="#61422D"/>
<path d="M172.971 237.173C168.895 223.627 158.686 215.842 147.095 209.361C145.854 210.932 144.724 212.617 143.735 214.424C140.87 219.59 139.276 226.554 139.065 232.408C138.964 235.386 138.812 238.447 139.165 241.425C141.355 242.298 143.513 243.058 145.531 243.736C154.086 246.622 155.397 257.231 167.947 254.089C175.412 252.209 174.736 243.017 172.971 237.173Z" fill="#EED7BB"/>
<path d="M164.174 304.875H111.696C108.578 304.875 106.107 303.859 104.533 301.928C103.131 300.202 102.546 297.809 102.889 295.18C103.08 293.691 103.554 292.181 104.281 290.692C104.765 289.706 105.279 288.843 105.814 287.929C106.127 287.395 106.46 286.83 106.833 286.173C107.509 284.971 109.012 284.55 110.192 285.238C111.373 285.927 111.776 287.457 111.11 288.659C110.717 289.357 110.364 289.953 110.041 290.517C109.527 291.38 109.093 292.13 108.689 292.941C108.205 293.927 107.892 294.903 107.771 295.837C107.68 296.556 107.63 297.881 108.336 298.744C109.133 299.73 110.788 299.874 111.706 299.874H164.174C164.446 299.874 164.598 299.709 164.668 299.607C164.749 299.494 164.819 299.299 164.729 299.073C163.508 295.837 157.566 288.535 128.805 290.774C127.453 290.867 126.273 289.85 126.162 288.463C126.051 287.077 127.07 285.886 128.432 285.773C157.788 283.503 166.867 290.774 169.319 297.275C169.964 298.99 169.742 300.921 168.713 302.441C167.695 303.972 165.99 304.875 164.174 304.875Z" fill="#052429"/>
<path d="M150.262 304.3C150.141 304.3 150.02 304.29 149.899 304.259C148.87 304.054 148.204 303.037 148.406 302C148.85 299.709 146.156 297.748 145.884 297.563C145.047 297.142 144.613 296.146 144.916 295.221C145.249 294.215 146.318 293.67 147.307 294.009C148.336 294.359 153.047 297.892 152.108 302.749C151.937 303.664 151.14 304.3 150.262 304.3Z" fill="#052429"/>
<path d="M159.17 304.3C158.958 304.3 158.746 304.259 158.535 304.187C157.546 303.828 157.031 302.729 157.385 301.733C158.06 299.781 155.185 297.388 154.378 296.854C153.501 296.279 153.258 295.077 153.823 294.194C154.388 293.301 155.569 293.054 156.436 293.629C158.787 295.19 162.378 298.919 160.946 303.027C160.683 303.807 159.957 304.3 159.17 304.3Z" fill="#052429"/>
<path d="M133.788 230.456C133.788 230.456 142.101 234.78 150.141 237.492C158.171 240.203 159.412 250.176 171.205 247.218C182.998 244.26 170.075 216.653 154.54 205.89C140.356 204.637 139.498 217.803 133.788 230.456Z" fill="#CEA881"/>
<path d="M133.899 230.2C133.859 230.282 133.819 230.364 133.788 230.456C133.788 230.456 134.273 230.703 135.12 231.124C134.696 230.826 134.293 230.518 133.899 230.2Z" fill="#EDD1B3"/>
<path d="M171.498 247.125C181.011 244.291 173.344 224.438 161.46 211.908C158.323 209.597 155.034 207.605 151.816 205.818C151.654 205.725 151.17 205.869 150.979 205.859C150.716 205.849 150.444 205.828 150.182 205.797C149.657 205.736 149.132 205.602 148.709 205.263C148.013 206.177 147.428 206.917 147.962 208.54C148.174 209.176 148.578 209.731 149.153 210.049C159.251 215.636 169.117 222.528 172.88 235.047C173.879 238.375 174.423 242.894 172.94 245.564C172.577 246.232 172.103 246.745 171.498 247.125Z" fill="#EDD1B3"/>
<path d="M138.58 218.122C137.067 221.911 135.705 226.215 133.788 230.446C133.788 230.446 142.101 234.77 150.141 237.481C152.986 238.436 154.973 240.316 156.89 242.195C161.379 244.743 165.637 247.31 167.927 247.721C168.35 247.7 168.794 247.659 169.258 247.587C169.995 247.074 169.783 245.503 168.159 242.319C161.561 229.378 144.25 224.192 138.58 218.122Z" fill="#B48557"/>
<path d="M171.205 247.207C179.225 245.194 178.146 233.948 173.061 224.52C170.116 225.383 167.13 226.626 164.224 228.259C159.321 231.021 155.246 234.544 152.209 238.395C158.484 241.928 160.492 249.898 171.205 247.207Z" fill="#8B6040"/>
<path d="M158.958 231.751C156.345 233.774 154.076 236.033 152.199 238.406C154.015 239.422 155.468 240.809 156.88 242.195C161.369 244.743 165.627 247.31 167.917 247.721C168.34 247.7 168.784 247.659 169.248 247.587C169.985 247.074 169.773 245.503 168.149 242.319C165.98 238.067 162.651 234.647 158.958 231.751Z" fill="#61422D"/>
<path d="M176.602 234.113C176.572 233.948 176.542 233.784 176.501 233.62C176.451 233.383 176.391 233.137 176.33 232.901C176.269 232.654 176.209 232.408 176.138 232.161C176.088 231.987 176.048 231.812 175.997 231.638C175.937 231.442 175.886 231.258 175.826 231.062C175.775 230.898 175.725 230.744 175.674 230.58C175.614 230.385 175.543 230.189 175.473 229.984C175.422 229.83 175.362 229.676 175.301 229.512C175.17 229.162 175.039 228.803 174.897 228.454C174.837 228.3 174.776 228.156 174.716 228.002C174.635 227.796 174.544 227.591 174.454 227.386C174.393 227.242 174.322 227.088 174.252 226.944C174.161 226.739 174.07 226.533 173.969 226.338C173.889 226.174 173.808 226.02 173.737 225.855C173.576 225.527 173.404 225.188 173.233 224.859C173.172 224.746 173.112 224.633 173.051 224.53C171.609 224.952 170.065 225.496 168.623 226.102C172.86 233.209 175.271 241.518 173.203 246.417C173.455 246.273 173.687 246.119 173.909 245.954C173.949 245.924 173.99 245.882 174.04 245.852C174.222 245.708 174.393 245.564 174.554 245.4C174.595 245.359 174.635 245.328 174.676 245.287C175.059 244.897 175.392 244.465 175.674 244.003C175.705 243.952 175.735 243.9 175.765 243.849C175.876 243.654 175.977 243.459 176.078 243.253C176.108 243.202 176.128 243.14 176.159 243.089C176.38 242.586 176.562 242.041 176.703 241.466C176.723 241.384 176.744 241.312 176.754 241.23C176.804 241.014 176.844 240.788 176.875 240.573C176.885 240.491 176.905 240.408 176.915 240.326C176.955 240.028 176.986 239.731 177.016 239.422C177.016 239.371 177.016 239.32 177.026 239.268C177.046 239.012 177.056 238.745 177.056 238.478C177.056 238.365 177.056 238.241 177.056 238.128C177.056 237.913 177.046 237.697 177.036 237.481C177.026 237.358 177.026 237.235 177.016 237.112C176.996 236.804 176.976 236.485 176.935 236.167C176.925 236.054 176.905 235.931 176.895 235.818C176.865 235.602 176.834 235.376 176.804 235.15C176.784 234.996 176.754 234.832 176.723 234.678C176.683 234.493 176.643 234.308 176.602 234.113Z" fill="#B57E54"/>
<path d="M167.14 250.268C161.511 250.268 158.353 247.146 155.508 244.321C153.622 242.462 151.846 240.696 149.375 239.864C141.829 237.317 127.786 232.582 124.316 220.782C123.922 219.457 124.669 218.06 125.97 217.67C127.272 217.269 128.644 218.029 129.027 219.354C131.428 227.529 140.971 231.761 150.918 235.119C154.459 236.311 156.84 238.662 158.938 240.737C162.207 243.972 164.567 246.304 170.62 244.784C172.032 244.434 172.981 243.726 173.626 242.575C175.109 239.905 174.575 235.396 173.566 232.059C169.793 219.539 159.937 212.648 149.839 207.061C148.648 206.403 148.204 204.883 148.85 203.661C149.496 202.449 150.989 201.997 152.189 202.655C162.681 208.457 173.979 216.314 178.277 230.59C179.084 233.281 180.678 240.08 177.914 245.04C176.612 247.372 174.504 248.964 171.811 249.641C170.065 250.073 168.522 250.268 167.14 250.268Z" fill="#052429"/>
<path d="M168.502 249.611C168.411 249.611 168.32 249.6 168.229 249.59C167.2 249.436 166.484 248.46 166.625 247.403C166.837 245.913 165.526 243.264 164.85 242.216C164.285 241.322 164.527 240.131 165.405 239.556C166.282 238.981 167.452 239.227 168.017 240.111C168.31 240.562 170.842 244.63 170.368 247.957C170.237 248.923 169.43 249.611 168.502 249.611Z" fill="#052429"/>
<path d="M175.533 246.15C174.575 246.15 173.758 245.41 173.657 244.424C173.354 241.446 171.205 238.765 171.185 238.745C170.519 237.923 170.63 236.711 171.437 236.033C172.234 235.355 173.425 235.468 174.101 236.28C174.222 236.423 177.006 239.864 177.43 244.024C177.541 245.081 176.784 246.026 175.745 246.139C175.664 246.15 175.604 246.15 175.533 246.15Z" fill="#052429"/>
<path d="M222.412 211.734C221.262 204.822 217.106 198.69 211.86 194.151C210.398 192.887 208.834 191.727 207.129 190.844L206.241 191.059C206.241 191.059 217.964 204.534 216.703 214.548C216.057 219.673 211.648 223.349 208.4 226.913C206.403 229.09 204.516 231.391 203.104 234.031C202.347 235.448 201.742 236.937 201.308 238.478C200.995 239.607 199.977 242.658 200.531 243.757C201.137 244.958 203.104 244.137 203.901 243.49C204.789 242.76 205.384 241.733 205.908 240.696C207.129 238.262 208.087 235.622 209.934 233.64C211.739 231.699 213.727 231.483 215.976 230.477C217.641 229.738 218.952 227.56 219.86 226.03C222.382 221.809 223.22 216.591 222.412 211.734Z" fill="#EDD1B3"/>
<path d="M221.999 216.027C222.614 225.27 216.582 228.043 210.942 233.024C205.747 237.615 207.633 246.437 197.999 247.351C192.209 247.906 190.221 240.316 189.888 235.119C189.112 222.846 196.567 210.676 205.101 203.959" fill="#CEA881"/>
<path d="M221.999 216.027L216.783 212.298C216.824 213.069 216.803 213.818 216.703 214.558C216.057 219.683 211.648 223.36 208.4 226.923C206.403 229.101 204.516 231.401 203.104 234.041C202.347 235.458 201.742 236.947 201.308 238.488C200.995 239.618 199.977 242.668 200.531 243.767C201.137 244.968 203.104 244.147 203.901 243.5C204.789 242.771 205.384 241.744 205.908 240.706C207.129 238.272 208.087 235.633 209.934 233.651C210.63 232.901 211.346 232.418 212.092 232.038C217.379 227.632 222.574 224.633 221.999 216.027Z" fill="#EDD1B3"/>
<path d="M203.386 243.243C197.596 243.798 195.608 236.208 195.275 231.011C195.275 230.939 195.265 230.878 195.265 230.806C195.013 226.235 195.901 221.665 197.545 217.423C198.373 215.297 199.381 213.243 200.552 211.292C201.127 210.327 201.742 209.382 202.398 208.457C202.72 208.005 203.053 207.554 203.396 207.112C203.639 206.804 203.961 206.362 203.639 205.972C202.983 205.171 201.318 207.389 200.895 207.841C199.997 208.796 199.139 209.782 198.332 210.82C195.639 214.24 193.439 218.081 191.926 222.189C190.413 226.307 189.626 230.723 189.909 235.129C190.242 240.326 192.229 247.906 198.019 247.361C202.085 246.971 204.092 245.184 205.454 242.904C204.819 243.048 204.133 243.171 203.386 243.243Z" fill="#B48557"/>
<path d="M197.011 244.681C190.231 244.743 188.668 234.411 190.665 224.787C193.187 224.869 195.81 225.29 198.463 226.081C202.932 227.416 206.917 229.625 210.155 232.367C205.939 236.988 206.06 244.599 197.011 244.681Z" fill="#8B6040"/>
<path d="M210.155 232.377C208.925 231.34 207.593 230.374 206.171 229.501C205.021 230.919 203.971 232.418 203.114 234.031C202.357 235.448 201.752 236.937 201.318 238.478C201.005 239.607 199.987 242.658 200.541 243.757C200.602 243.89 200.683 243.993 200.784 244.075C206.14 242.185 206.635 236.228 210.155 232.377Z" fill="#B57E54"/>
<path d="M197.011 244.681C199.371 244.66 201.116 244.126 202.468 243.264C197.384 242.976 195.578 235.931 195.275 231.021C195.275 230.949 195.265 230.888 195.265 230.816C195.164 228.988 195.245 227.16 195.487 225.352C193.994 225.054 192.511 224.88 191.069 224.818C190.393 227.221 189.969 229.696 189.868 232.182C189.818 239.042 191.977 244.722 197.011 244.681Z" fill="#61422D"/>
<path d="M197.454 247.7C196.668 247.7 195.881 247.618 195.104 247.444C185.49 245.297 186.095 231.874 186.509 227.807C187.477 218.266 192.975 208.457 200.501 202.839C201.601 202.018 203.134 202.264 203.941 203.374C204.748 204.493 204.506 206.054 203.417 206.876C196.96 211.703 192.249 220.124 191.412 228.33C191.281 229.645 190.272 241.251 196.163 242.565C199.825 243.377 203.608 240.737 205.152 237.707C206.574 234.914 207.855 232.603 210.186 230.385C211.053 229.553 211.951 228.793 212.829 228.063C213.969 227.108 215.038 226.194 215.996 225.198C219.174 221.85 220.496 217.711 219.921 212.884C218.841 203.764 211.416 194.613 204.647 190.289C203.497 189.55 203.154 188.009 203.871 186.838C204.597 185.667 206.11 185.318 207.26 186.047C214.776 190.854 223.482 201.114 224.803 212.288C225.55 218.594 223.724 224.274 219.527 228.69C218.387 229.892 217.157 230.929 215.966 231.925C215.109 232.644 214.302 233.322 213.545 234.051C211.78 235.735 210.761 237.584 209.52 240.028C207.119 244.691 202.226 247.7 197.454 247.7Z" fill="#052429"/>
<path d="M200.501 247.166C199.775 247.166 199.089 246.745 198.776 246.026C197.525 243.192 198.615 238.971 198.746 238.498C199.028 237.471 200.067 236.875 201.076 237.153C202.085 237.44 202.67 238.498 202.398 239.515C202.035 240.881 201.742 243.315 202.236 244.445C202.66 245.41 202.236 246.55 201.288 246.992C201.026 247.115 200.763 247.166 200.501 247.166Z" fill="#052429"/>
<path d="M194.075 246.334C193.197 246.334 192.4 245.708 192.219 244.794C191.472 241.014 192.743 237.214 192.794 237.06C193.137 236.054 194.216 235.52 195.205 235.869C196.193 236.218 196.718 237.307 196.375 238.313C196.355 238.375 195.397 241.322 195.931 244.034C196.143 245.081 195.477 246.088 194.448 246.304C194.317 246.314 194.196 246.334 194.075 246.334Z" fill="#052429"/>
<path d="M145.238 72.0157C159.957 67.62 173.919 67.4351 187.033 72.0157C201.853 73.2173 210.297 81.5158 212.798 96.4283C215.028 100.444 217.53 104.542 220.657 108.157C227.204 115.726 238.745 126.325 237.837 151.981C236.929 177.636 218.962 187.927 197.001 187.927C178.378 190.227 156.658 190.926 138.661 188.553C116.699 188.553 94.9291 176.003 94.0211 150.348C93.1132 124.692 105.068 115.737 111.615 108.167C114.742 104.552 117.244 100.454 119.473 96.4386C121.38 81.6287 128.936 72.4573 145.238 72.0157Z" fill="#CEA881"/>
<path d="M191.24 76.3395C191.735 75.8773 192.844 74.7784 192.753 74.193C192.552 72.9503 187.992 73.2892 187.044 72.9606C173.929 68.38 159.967 68.5648 145.249 72.9606C144.381 73.2173 143.191 73.053 142.283 73.1454C141.839 73.1865 140.023 73.1557 139.811 73.5768C139.74 73.7103 139.761 73.8644 139.791 74.0081C139.902 74.5833 140.144 75.1276 140.497 75.6C140.769 75.9698 141.102 76.2779 141.425 76.5963C141.536 76.699 141.637 76.8017 141.748 76.9044C141.849 76.9968 141.95 77.0995 142.061 77.1919C144.411 79.1947 147.7 77.459 150.252 76.853C153.208 76.1546 156.204 75.6206 159.221 75.2714C163.952 74.7271 168.744 74.6654 173.485 75.1584C175.816 75.4049 178.126 75.7746 180.406 76.2882C181.546 76.5449 182.686 76.8325 183.815 77.1611C184.754 77.4282 185.641 77.8595 186.6 78.0444C187.861 78.2909 189.445 77.9725 190.413 77.079C190.443 77.0379 191.2 76.3806 191.24 76.3395Z" fill="#EDD1B3"/>
<path d="M220.365 181.816C220.365 181.816 195.265 196.924 144.452 188.574C105.501 182.175 101.244 140.642 118.394 112.234C133.758 86.7742 131.004 78.0033 131.004 78.0033C127.272 88.1504 122.823 93.6759 118.021 98.9959C116.165 102.169 114.086 105.312 111.625 108.157C109.587 110.509 107.035 112.994 104.503 116.076C102.909 118.725 101.315 121.734 99.731 125.247C91.0351 144.545 97.0678 163.011 100.266 170.436C108.447 182.576 123.509 188.553 138.661 188.553C156.658 190.926 174.988 190.854 193.611 188.553C198.948 188.553 204.254 187.906 209.237 186.561C210.922 185.318 220.365 181.816 220.365 181.816Z" fill="#B48557"/>
<path d="M223.129 112.645C221.394 110.581 219.376 108.763 217.802 106.565C216.38 104.583 215.331 102.18 215.452 99.7559C214.826 98.7083 214.221 97.6505 213.646 96.6029C211.911 86.2607 209.802 79.852 202.206 76.0314C201.732 78.7736 201.944 82.5531 202.589 85.2747C206.403 101.451 218.66 113.015 225.631 127.65C231.391 139.749 232.329 154.692 225.792 166.667C218.518 180.019 213.474 183.182 196.658 187.126C196.234 187.229 192.168 188.492 192.34 188.728C194.206 188.533 196.042 188.327 197.848 188.101C200.794 188.101 203.669 187.917 206.443 187.537C208.168 186.859 209.873 186.109 211.538 185.359C215.966 183.377 220.445 181.364 224.319 178.417C228.132 175.531 231.28 171.802 233.772 167.684C235.87 164.213 237.514 160.413 238.352 156.438C238.513 155.062 238.624 153.634 238.674 152.155C238.755 149.988 238.735 147.924 238.644 145.962C237.484 137.674 233.368 129.715 229.282 122.279C227.457 118.92 225.58 115.562 223.129 112.645Z" fill="#EDD1B3"/>
<path d="M166.434 123.583C179.084 123.583 189.969 130.064 190.776 140.375C192.188 158.821 178.58 176.599 166.434 176.599H165.828C153.692 176.599 140.083 158.831 141.486 140.375C142.293 130.064 153.178 123.583 165.828 123.583H166.434Z" fill="#F2E1CC"/>
<path d="M166.141 123.634C173.031 123.634 178.62 127.681 178.62 132.672C178.62 137.664 175.069 149.506 166.141 149.506C157.213 149.506 153.662 137.664 153.662 132.672C153.652 127.681 159.241 123.634 166.141 123.634Z" fill="#CBA383"/>
<path d="M166.141 119.629C173.031 119.629 178.62 123.676 178.62 128.667C178.62 133.658 175.069 145.5 166.141 145.5C157.213 145.5 153.662 133.658 153.662 128.667C153.652 123.676 159.241 119.629 166.141 119.629Z" fill="#052429"/>
<path d="M166.141 121.847C165.405 121.847 164.668 121.909 163.942 122.022C163.7 122.063 163.155 122.114 162.994 122.33C162.61 122.833 163.488 122.833 163.801 122.833C169.399 122.833 173.626 126.017 173.626 130.064C173.626 132.816 172.618 138.249 169.49 141.382C169.228 141.649 169.551 142.08 169.874 141.895C174.413 139.348 176.29 132.467 176.29 129.191C176.28 125.134 171.74 121.847 166.141 121.847Z" fill="#373737"/>
<path d="M166.141 148.109C160.714 154.066 154.883 153.049 150.605 149.187C154.651 160.906 158.837 169.338 166.141 169.338C173.445 169.338 177.631 160.895 181.677 149.187C177.389 153.049 171.558 154.066 166.141 148.109Z" fill="#052429"/>
<path d="M176.058 162.21C174.393 159.478 170.671 157.578 166.323 157.578C161.813 157.578 157.97 159.632 156.406 162.528C159.039 166.78 162.106 169.348 166.131 169.348C170.257 169.338 173.384 166.657 176.058 162.21Z" fill="#F47676"/>
<path d="M176.058 162.21C174.393 159.478 170.671 157.578 166.323 157.578C161.813 157.578 157.97 159.632 156.406 162.528C159.039 166.78 162.106 169.348 166.131 169.348C170.257 169.338 173.384 166.657 176.058 162.21Z" fill="#FF949A"/>
<path d="M158.06 164.88C160.32 167.705 162.923 169.348 166.141 169.348C169.48 169.348 172.174 167.581 174.494 164.541C172.789 162.59 169.813 161.286 166.413 161.286C162.822 161.286 159.695 162.734 158.06 164.88Z" fill="#E26A74"/>
<path d="M174.363 154.836C172.032 154.836 169.137 154.107 166.141 151.56C162.328 154.795 158.686 155.093 156.154 154.692C151.271 153.922 146.56 149.814 143.866 143.98C143.291 142.727 143.816 141.238 145.047 140.652C146.278 140.067 147.74 140.601 148.315 141.854C150.293 146.137 153.662 149.238 156.91 149.752C159.453 150.153 161.954 149.033 164.345 146.404C164.809 145.89 165.465 145.603 166.151 145.603C166.837 145.603 167.493 145.89 167.957 146.404C170.338 149.023 172.84 150.153 175.392 149.752C178.63 149.238 182.01 146.137 183.987 141.854C184.562 140.601 186.025 140.067 187.255 140.652C188.486 141.238 189.011 142.727 188.436 143.98C185.742 149.824 181.031 153.922 176.148 154.692C175.583 154.784 174.998 154.836 174.363 154.836Z" fill="#052429"/>
<path d="M166.141 171.063C161.803 171.063 158.151 168.567 154.984 163.442C154.661 162.919 154.641 162.251 154.933 161.696C156.84 158.143 161.319 155.853 166.323 155.853C171.094 155.853 175.473 157.989 177.49 161.296C177.823 161.85 177.833 162.549 177.5 163.103C174.282 168.454 170.57 171.063 166.141 171.063ZM158.434 162.528C160.784 166 163.256 167.622 166.131 167.622C169.077 167.622 171.599 165.918 174 162.282C172.375 160.443 169.49 159.293 166.323 159.293C163.024 159.293 159.997 160.567 158.434 162.528Z" fill="#052429"/>
<path d="M166.141 171.844C156.618 171.844 151.937 160.577 148.285 150.019C147.912 148.941 148.305 147.749 149.233 147.113C150.161 146.476 151.402 146.558 152.24 147.318C155.064 149.865 159.453 151.775 164.335 146.414C164.799 145.901 165.455 145.613 166.141 145.613C166.827 145.613 167.483 145.901 167.947 146.414C172.829 151.786 177.218 149.875 180.042 147.318C180.88 146.558 182.11 146.476 183.049 147.113C183.977 147.749 184.37 148.941 183.997 150.019C180.345 160.577 175.654 171.844 166.141 171.844ZM155.216 154.517C158.313 162.097 161.591 166.832 166.141 166.832C170.691 166.832 173.969 162.097 177.066 154.517C173.344 155.411 169.531 154.415 166.141 151.549C162.751 154.415 158.928 155.421 155.216 154.517Z" fill="#052429"/>
<path d="M166.141 149.937C164.779 149.937 163.68 148.817 163.68 147.431V143.241C163.68 141.854 164.779 140.735 166.141 140.735C167.503 140.735 168.603 141.854 168.603 143.241V147.431C168.592 148.817 167.493 149.937 166.141 149.937Z" fill="#052429"/>
<path d="M139.518 126.808C144.6 126.808 148.719 122.293 148.719 116.723C148.719 111.152 144.6 106.637 139.518 106.637C134.437 106.637 130.318 111.152 130.318 116.723C130.318 122.293 134.437 126.808 139.518 126.808Z" fill="#052429"/>
<path d="M142.999 117.801C144.347 117.801 145.44 116.688 145.44 115.316C145.44 113.943 144.347 112.83 142.999 112.83C141.651 112.83 140.558 113.943 140.558 115.316C140.558 116.688 141.651 117.801 142.999 117.801Z" fill="white"/>
<path d="M192.753 126.808C197.835 126.808 201.954 122.293 201.954 116.723C201.954 111.152 197.835 106.637 192.753 106.637C187.672 106.637 183.553 111.152 183.553 116.723C183.553 122.293 187.672 126.808 192.753 126.808Z" fill="#052429"/>
<path d="M189.273 117.801C190.621 117.801 191.714 116.688 191.714 115.316C191.714 113.943 190.621 112.83 189.273 112.83C187.925 112.83 186.832 113.943 186.832 115.316C186.832 116.688 187.925 117.801 189.273 117.801Z" fill="white"/>
<path d="M122.117 69.7562C129.481 71.6254 130.379 76.3909 127.736 82.1423C127.322 83.0563 126.818 83.9909 126.232 84.9461C124.003 88.592 121.905 93.0802 119.463 97.671C117.98 96.6029 116.588 95.3088 115.337 93.8094C111.131 88.7256 109.547 82.3477 110.515 76.5963C110.515 76.5963 110.515 76.586 110.525 76.5757C110.707 76.1033 113.834 67.6302 122.117 69.7562Z" fill="#ED887E"/>
<path d="M121.067 91.9196C116.084 85.932 112.866 75.1379 119.978 69.4276C113.3 69.1297 110.697 76.1444 110.545 76.5655C110.535 76.586 110.535 76.586 110.535 76.586C109.567 82.3374 111.151 88.705 115.357 93.7991C116.598 95.2986 117.99 96.5926 119.484 97.6608C120.341 96.0483 121.148 94.4564 121.945 92.8953C121.632 92.5872 121.35 92.2586 121.067 91.9196Z" fill="#FEB1AA"/>
<path d="M145.238 72.1697C141.466 78.3011 137.148 78.866 129.229 79.3385L127.736 82.1423C130.379 76.3909 129.491 71.6254 122.117 69.7562C113.834 67.6405 110.697 76.1033 110.525 76.5655C111.211 72.5189 113.168 68.7908 116.366 66.0383C124.124 59.3729 136.24 60.9956 143.423 69.6638C144.099 70.4649 144.704 71.307 145.238 72.1697Z" fill="#CEA881"/>
<path d="M111.09 74.2135C110.858 74.9838 110.677 75.7644 110.535 76.5655C110.596 76.3909 111.08 75.0865 112.099 73.6384C111.746 73.813 111.403 73.9979 111.09 74.2135Z" fill="#EDD1B3"/>
<path d="M143.433 70.6086C136.25 61.9405 124.134 60.3178 116.376 66.9832C115.65 67.6097 114.984 68.2875 114.389 69.0065C122.117 64.0151 132.951 66.0178 139.589 74.0184C139.983 74.4908 140.366 74.9838 140.719 75.4973C140.901 75.7541 141.072 76.0211 141.254 76.2882C141.445 76.5757 141.617 76.853 141.869 77.079C141.94 77.1406 142.03 77.2125 142.131 77.1919C142.182 77.1817 142.222 77.1611 142.262 77.1303C142.868 76.7298 143.12 75.9492 143.584 75.4049C144.199 74.686 144.744 73.9157 145.238 73.1043C144.704 72.2519 144.099 71.4097 143.433 70.6086Z" fill="#EDD1B3"/>
<path d="M110.535 79.0714C110.394 79.0714 110.253 79.0612 110.112 79.0303C108.77 78.7941 107.872 77.5001 108.104 76.1444C108.911 71.3481 111.221 67.1989 114.782 64.1281C119.07 60.441 124.628 58.8388 130.429 59.6194C136.149 60.3896 141.425 63.3783 145.299 68.0513C146.005 68.9038 146.681 69.8384 147.296 70.8243C148.023 71.9849 147.69 73.5357 146.55 74.2854C145.41 75.0249 143.887 74.686 143.15 73.5254C142.656 72.7346 142.111 71.9746 141.536 71.2968C138.459 67.5789 134.283 65.2064 129.773 64.6005C125.355 64.0048 121.158 65.2064 117.94 67.9692C115.277 70.2697 113.542 73.3919 112.936 77.0071C112.755 78.2087 111.716 79.0714 110.535 79.0714Z" fill="#052429"/>
<path d="M119.07 99.8689C118.576 99.8689 118.081 99.7148 117.647 99.4067C115.852 98.1127 114.722 96.9213 113.471 95.4218C108.921 89.9169 106.964 82.9023 108.104 76.1649C108.336 74.799 109.607 73.8952 110.949 74.1211C112.291 74.3573 113.189 75.6514 112.957 77.0174C112.069 82.2963 113.622 87.832 117.234 92.1867C118.424 93.6245 119.282 94.4461 120.502 95.3191C121.612 96.1202 121.874 97.6813 121.088 98.811C120.593 99.4992 119.837 99.8689 119.07 99.8689Z" fill="#052429"/>
<path d="M119.312 99.6943C118.798 99.6943 118.283 99.53 117.849 99.2013C116.76 98.3797 116.538 96.8083 117.345 95.6991C120.008 92.0634 122.984 86.7434 125.506 81.1049C126.323 79.3384 127.11 76.8941 126.303 75.1687C125.678 73.8335 124.074 72.827 121.531 72.18C119.574 71.6768 117.597 71.9643 115.953 72.9708C114.429 73.9054 113.35 75.4049 112.916 77.1817C112.593 78.5271 111.262 79.3487 109.94 79.0201C108.619 78.6914 107.812 77.3357 108.134 75.9903C108.881 72.8989 110.747 70.3108 113.41 68.6778C116.185 66.9729 119.494 66.4902 122.722 67.3221C126.757 68.3492 129.451 70.2595 130.742 73.0119C132.053 75.8157 131.791 79.2358 129.975 83.1898C127.322 89.1158 124.154 94.7645 121.289 98.6775C120.805 99.3451 120.059 99.6943 119.312 99.6943Z" fill="#052429"/>
<path d="M138.661 191.265C130.611 191.265 122.167 189.221 114.893 185.493C106.964 181.436 100.821 175.674 97.1283 168.834C90.571 156.674 90.5407 140.539 97.0375 126.736C100.074 120.297 104.25 114.535 108.296 108.968C111.453 104.614 114.722 100.115 117.325 95.4218C117.99 94.2202 119.494 93.7888 120.674 94.477C121.854 95.1548 122.278 96.6851 121.602 97.8867C118.848 102.858 115.489 107.479 112.24 111.957C108.155 117.585 104.291 122.905 101.466 128.913C95.6352 141.289 95.6252 155.657 101.436 166.431C107.731 178.108 123.035 186.263 138.651 186.263C140.013 186.263 141.112 187.383 141.112 188.769C141.112 190.156 140.023 191.265 138.661 191.265Z" fill="#052429"/>
<path d="M193.611 191.265C192.249 191.265 191.149 190.145 191.149 188.759C191.149 187.372 192.249 186.253 193.611 186.253C209.227 186.253 224.541 178.098 230.826 166.421C236.637 155.647 236.617 141.269 230.796 128.903C227.961 122.895 224.107 117.575 220.022 111.947C216.773 107.479 213.414 102.847 210.66 97.8764C209.994 96.6748 210.408 95.1445 211.588 94.4667C212.768 93.7888 214.271 94.2099 214.937 95.4218C217.54 100.126 220.808 104.624 223.966 108.979C228.011 114.545 232.188 120.307 235.224 126.746C241.721 140.55 241.691 156.674 235.134 168.845C231.441 175.695 225.298 181.446 217.368 185.503C210.105 189.211 201.661 191.265 193.611 191.265Z" fill="#052429"/>
<path d="M145.47 74.6654C144.421 74.6654 143.443 73.9773 143.12 72.8989C142.727 71.5741 143.453 70.1773 144.754 69.7768C152.078 67.4967 159.261 66.2746 166.101 66.1616C166.111 66.1616 166.131 66.1616 166.141 66.1616C167.483 66.1616 168.572 67.2502 168.603 68.6265C168.623 70.013 167.543 71.153 166.181 71.1735C159.806 71.2762 153.077 72.4265 146.197 74.573C145.945 74.6346 145.703 74.6654 145.47 74.6654Z" fill="#052429"/>
<path d="M186.812 74.6654C186.569 74.6654 186.327 74.6346 186.095 74.5525C179.205 72.406 172.486 71.266 166.111 71.153C164.749 71.1324 163.669 69.9924 163.69 68.6059C163.71 67.24 164.809 66.141 166.151 66.141C166.161 66.141 166.181 66.141 166.191 66.141C173.031 66.254 180.214 67.4762 187.538 69.7562C188.839 70.1568 189.566 71.5638 189.172 72.8784C188.829 73.9773 187.861 74.6654 186.812 74.6654Z" fill="#052429"/>
<path d="M210.155 69.7562C202.791 71.6254 201.893 76.3909 204.536 82.1423C204.95 83.0563 205.454 83.9909 206.039 84.9461C208.269 88.592 210.367 93.0802 212.809 97.671C214.292 96.6029 215.684 95.3088 216.935 93.8094C221.141 88.7256 222.725 82.3477 221.757 76.5963C221.757 76.5963 221.757 76.586 221.747 76.5757C221.575 76.1033 218.438 67.6302 210.155 69.7562Z" fill="#ED887E"/>
<path d="M211.215 91.9196C216.198 85.932 219.416 75.1379 212.304 69.4276C218.982 69.1297 221.585 76.1444 221.737 76.5655C221.747 76.586 221.747 76.586 221.747 76.586C222.715 82.3374 221.131 88.705 216.925 93.7991C215.684 95.2986 214.292 96.5926 212.798 97.6608C211.941 96.0483 211.134 94.4564 210.337 92.8953C210.64 92.5872 210.932 92.2586 211.215 91.9196Z" fill="#FEB1AA"/>
<path d="M187.033 72.1697C190.806 78.3011 195.124 78.866 203.043 79.3385L204.536 82.1423C201.893 76.3909 202.781 71.6254 210.155 69.7562C218.438 67.6405 221.575 76.1033 221.747 76.5655C221.061 72.5189 219.104 68.7908 215.906 66.0383C208.148 59.3729 196.032 60.9956 188.849 69.6638C188.173 70.4649 187.578 71.307 187.033 72.1697Z" fill="#CEA881"/>
<path d="M221.192 74.2135C221.424 74.9838 221.605 75.7644 221.747 76.5655C221.686 76.3909 221.202 75.0865 220.183 73.6384C220.536 73.813 220.869 73.9979 221.192 74.2135Z" fill="#EDD1B3"/>
<path d="M188.839 70.6086C196.022 61.9405 208.138 60.3178 215.896 66.9832C216.622 67.6097 217.288 68.2875 217.883 69.0065C210.155 64.0151 199.321 66.0178 192.683 74.0184C192.289 74.4908 191.906 74.9838 191.553 75.4973C191.371 75.7541 191.2 76.0211 191.018 76.2882C190.827 76.5757 190.655 76.853 190.403 77.079C190.332 77.1406 190.241 77.2125 190.141 77.1919C190.09 77.1817 190.05 77.1611 190.009 77.1303C189.404 76.7298 189.152 75.9492 188.688 75.4049C188.073 74.686 187.528 73.9157 187.033 73.1043C187.578 72.2519 188.173 71.4097 188.839 70.6086Z" fill="#EDD1B3"/>
<path d="M221.737 79.0714C220.556 79.0714 219.517 78.2087 219.315 76.9865C218.71 73.3714 216.975 70.2389 214.312 67.9486C211.104 65.1859 206.897 63.9945 202.478 64.58C197.979 65.1859 193.803 67.5584 190.726 71.2762C190.151 71.9643 189.606 72.7141 189.112 73.5152C188.385 74.686 186.862 75.0249 185.712 74.2752C184.562 73.5254 184.229 71.9849 184.965 70.8141C185.581 69.8281 186.257 68.8935 186.973 68.0411C190.837 63.3783 196.123 60.3794 201.843 59.6194C207.654 58.8388 213.202 60.441 217.489 64.1281C221.051 67.1989 223.361 71.3584 224.168 76.1444C224.4 77.5103 223.502 78.8044 222.16 79.0303C222.019 79.0612 221.878 79.0714 221.737 79.0714Z" fill="#052429"/>
<path d="M213.202 99.8689C212.435 99.8689 211.669 99.4992 211.194 98.811C210.408 97.6813 210.67 96.1202 211.78 95.3191C212.99 94.4461 213.848 93.6245 215.048 92.1867C218.66 87.832 220.213 82.2963 219.325 77.0173C219.093 75.6514 219.991 74.3573 221.333 74.1211C222.675 73.8849 223.946 74.799 224.178 76.1649C225.318 82.9023 223.361 89.9169 218.811 95.4116C217.56 96.9213 216.42 98.1127 214.624 99.4067C214.191 99.7148 213.696 99.8689 213.202 99.8689Z" fill="#052429"/>
<path d="M212.97 99.6943C212.223 99.6943 211.477 99.3451 210.993 98.6878C208.128 94.7748 204.96 89.1158 202.297 83.1693C200.491 79.2357 200.229 75.8054 201.54 73.0119C202.821 70.2595 205.525 68.3492 209.56 67.3221C212.788 66.5005 216.097 66.9832 218.872 68.6778C221.525 70.3108 223.401 72.9092 224.138 75.9903C224.46 77.3357 223.653 78.6914 222.332 79.0201C221.01 79.3487 219.679 78.5271 219.356 77.1817C218.922 75.3946 217.853 73.9054 216.319 72.9708C214.675 71.9643 212.698 71.6768 210.741 72.18C208.198 72.827 206.594 73.8335 205.969 75.1687C205.162 76.8941 205.949 79.3282 206.756 81.0741C209.288 86.7331 212.264 92.0532 214.927 95.6991C215.734 96.8083 215.512 98.3797 214.423 99.2013C213.989 99.53 213.474 99.6943 212.97 99.6943Z" fill="#052429"/>
</svg>
