<svg width="19" height="26" viewBox="0 0 19 26" fill="none" xmlns="http://www.w3.org/2000/svg">
<path d="M9.5 17.931C11.0113 17.9296 12.4602 17.3623 13.5288 16.3538C14.5974 15.3453 15.1984 13.978 15.2 12.5517V5.37931C15.2 3.95263 14.5995 2.58438 13.5305 1.57556C12.4616 0.566747 11.0117 0 9.5 0C7.98827 0 6.53845 0.566747 5.46949 1.57556C4.40053 2.58438 3.8 3.95263 3.8 5.37931V12.5517C3.80157 13.978 4.40261 15.3453 5.47123 16.3538C6.53984 17.3623 7.98875 17.9296 9.5 17.931ZM5.7 5.37931C5.7 4.42819 6.10036 3.51602 6.81299 2.84348C7.52563 2.17093 8.49218 1.7931 9.5 1.7931C10.5078 1.7931 11.4744 2.17093 12.187 2.84348C12.8996 3.51602 13.3 4.42819 13.3 5.37931V12.5517C13.3 13.5028 12.8996 14.415 12.187 15.0876C11.4744 15.7601 10.5078 16.1379 9.5 16.1379C8.49218 16.1379 7.52563 15.7601 6.81299 15.0876C6.10036 14.415 5.7 13.5028 5.7 12.5517V5.37931ZM10.45 21.4724V25.1034C10.45 25.3412 10.3499 25.5693 10.1718 25.7374C9.99359 25.9055 9.75196 26 9.5 26C9.24804 26 9.00641 25.9055 8.82825 25.7374C8.65009 25.5693 8.55 25.3412 8.55 25.1034V21.4724C6.20782 21.2475 4.03722 20.2109 2.45794 18.5632C0.878657 16.9154 0.00289289 14.7735 0 12.5517C0 12.3139 0.100089 12.0859 0.278249 11.9178C0.456408 11.7496 0.698044 11.6552 0.95 11.6552C1.20196 11.6552 1.44359 11.7496 1.62175 11.9178C1.79991 12.0859 1.9 12.3139 1.9 12.5517C1.9 14.454 2.70071 16.2783 4.12599 17.6234C5.55126 18.9685 7.48435 19.7241 9.5 19.7241C11.5156 19.7241 13.4487 18.9685 14.874 17.6234C16.2993 16.2783 17.1 14.454 17.1 12.5517C17.1 12.3139 17.2001 12.0859 17.3782 11.9178C17.5564 11.7496 17.798 11.6552 18.05 11.6552C18.302 11.6552 18.5436 11.7496 18.7218 11.9178C18.8999 12.0859 19 12.3139 19 12.5517C18.9971 14.7735 18.1213 16.9154 16.5421 18.5632C14.9628 20.2109 12.7922 21.2475 10.45 21.4724Z" fill="#052429"/>
</svg>
