<svg width="14" height="14" viewBox="0 0 14 14" fill="none" xmlns="http://www.w3.org/2000/svg">
<path d="M0.220351 12.2193L10.9407 1.49995H3.00098C2.80206 1.49995 2.6113 1.42093 2.47065 1.28028C2.32999 1.13963 2.25098 0.948861 2.25098 0.749949C2.25098 0.551036 2.32999 0.360271 2.47065 0.219618C2.6113 0.0789652 2.80206 -5.14984e-05 3.00098 -5.14984e-05H12.751C12.9499 -5.14984e-05 13.1407 0.0789652 13.2813 0.219618C13.422 0.360271 13.501 0.551036 13.501 0.749949V10.4999C13.501 10.6989 13.422 10.8896 13.2813 11.0303C13.1407 11.1709 12.9499 11.2499 12.751 11.2499C12.5521 11.2499 12.3613 11.1709 12.2206 11.0303C12.08 10.8896 12.001 10.6989 12.001 10.4999V2.56026L1.2816 13.2806C1.21192 13.3503 1.12919 13.4055 1.03815 13.4432C0.947104 13.481 0.849523 13.5004 0.750977 13.5004C0.652431 13.5004 0.554849 13.481 0.463804 13.4432C0.37276 13.4055 0.290034 13.3503 0.220351 13.2806C0.150668 13.2109 0.0953941 13.1282 0.057682 13.0371C0.0199699 12.9461 0.000558853 12.8485 0.000558853 12.7499C0.000558853 12.6514 0.0199699 12.5538 0.057682 12.4628C0.0953941 12.3717 0.150668 12.289 0.220351 12.2193Z" fill="#10C0DF"/>
</svg>
