<svg width="26" height="24" viewBox="0 0 26 24" fill="none" xmlns="http://www.w3.org/2000/svg">
<path d="M25.6285 19.6907L15.4786 1.46646C15.2249 1.01998 14.8628 0.649775 14.4282 0.392548C13.9935 0.13532 13.5014 0 13.0006 0C12.4998 0 12.0076 0.13532 11.573 0.392548C11.1383 0.649775 10.7762 1.01998 10.5226 1.46646L0.372655 19.6907C0.128611 20.1225 0 20.6137 0 21.1139C0 21.614 0.128611 22.1052 0.372655 22.5371C0.623043 22.9862 0.984517 23.3585 1.41998 23.6155C1.85545 23.8726 2.34923 24.0052 2.85065 23.9998H23.1505C23.6515 24.0048 24.1448 23.872 24.5799 23.6149C25.0149 23.3579 25.376 22.9859 25.6262 22.5371C25.8706 22.1054 25.9996 21.6144 26 21.1142C26.0004 20.614 25.8722 20.1228 25.6285 19.6907ZM12.0721 9.59998C12.0721 9.34538 12.1699 9.1012 12.344 8.92117C12.5181 8.74114 12.7543 8.63999 13.0006 8.63999C13.2468 8.63999 13.483 8.74114 13.6571 8.92117C13.8313 9.1012 13.9291 9.34538 13.9291 9.59998V14.3999C13.9291 14.6545 13.8313 14.8987 13.6571 15.0788C13.483 15.2588 13.2468 15.3599 13.0006 15.3599C12.7543 15.3599 12.5181 15.2588 12.344 15.0788C12.1699 14.8987 12.0721 14.6545 12.0721 14.3999V9.59998ZM13.0006 20.1599C12.7251 20.1599 12.4558 20.0754 12.2268 19.9172C11.9977 19.759 11.8192 19.5341 11.7138 19.271C11.6084 19.0078 11.5808 18.7183 11.6346 18.439C11.6883 18.1596 11.8209 17.9031 12.0157 17.7017C12.2105 17.5003 12.4587 17.3631 12.7289 17.3076C12.999 17.252 13.2791 17.2805 13.5336 17.3895C13.7881 17.4985 14.0056 17.6831 14.1586 17.9199C14.3117 18.1567 14.3934 18.4351 14.3934 18.7199C14.3934 19.1018 14.2466 19.4681 13.9854 19.7381C13.7242 20.0082 13.37 20.1599 13.0006 20.1599Z" fill="#E0373A"/>
</svg>
