<svg width="23" height="23" viewBox="0 0 23 23" fill="none" xmlns="http://www.w3.org/2000/svg">
<path d="M22.2212 5.38008C22.1401 5.12709 21.9853 4.90407 21.7767 4.73958C21.5681 4.57509 21.3151 4.47664 21.0502 4.45682L17.3751 4.16631L15.9614 0.817508C15.8581 0.575 15.6858 0.368205 15.4659 0.222851C15.2461 0.0774975 14.9883 0 14.7247 0C14.4612 0 14.2034 0.0774975 13.9835 0.222851C13.7636 0.368205 13.5914 0.575 13.4881 0.817508L12.0744 4.16631L8.39926 4.45682C8.13535 4.47626 7.88321 4.57387 7.675 4.73718C7.46678 4.90049 7.31193 5.12212 7.23017 5.3738C7.14841 5.62547 7.14346 5.8958 7.21595 6.1503C7.28844 6.4048 7.43508 6.63195 7.63718 6.80277L10.4288 9.15868L9.5772 12.6796C9.51526 12.9346 9.53041 13.2022 9.62074 13.4486C9.71107 13.695 9.87251 13.909 10.0846 14.0635C10.2986 14.2213 10.5547 14.312 10.8203 14.3242C11.086 14.3365 11.3493 14.2696 11.5769 14.1321L14.7247 12.2369L17.8735 14.1331C18.1013 14.2702 18.3645 14.3368 18.6301 14.3246C18.8956 14.3124 19.1517 14.2219 19.3659 14.0645C19.5776 13.9097 19.7387 13.6956 19.8288 13.4493C19.9189 13.203 19.934 12.9355 19.8723 12.6806L19.0206 9.15967L21.8123 6.80377C22.0145 6.63415 22.1614 6.40803 22.2342 6.15439C22.3071 5.90075 22.3025 5.63113 22.2212 5.38008ZM17.6179 8.25731C17.5049 8.35275 17.4208 8.47778 17.3749 8.61836C17.3291 8.75895 17.3233 8.90953 17.3582 9.05322L18.182 12.4567L15.1356 10.6251C15.0117 10.5506 14.8698 10.5112 14.7252 10.5112C14.5806 10.5112 14.4387 10.5506 14.3148 10.6251L11.2685 12.4587L12.0923 9.05322C12.1271 8.90944 12.1211 8.75879 12.0751 8.61821C12.029 8.47761 11.9447 8.35264 11.8316 8.25731L9.15338 5.99492L12.6872 5.71536C12.8327 5.70382 12.9721 5.65252 13.0904 5.56707C13.2086 5.48162 13.3011 5.36531 13.3578 5.23085L14.7247 1.98054L16.0967 5.23085C16.1533 5.36531 16.2458 5.48162 16.3641 5.56707C16.4823 5.65252 16.6218 5.70382 16.7672 5.71536L20.3021 5.99492L17.6179 8.25731ZM7.17157 10.663L1.35945 16.4811C1.21011 16.6304 1.00756 16.7143 0.79635 16.7143C0.585145 16.7143 0.38259 16.6304 0.233246 16.4811C0.083901 16.3317 0 16.1292 0 15.918C0 15.7068 0.083901 15.5042 0.233246 15.3549L6.04835 9.53972C6.19769 9.39038 6.40024 9.30647 6.61145 9.30647C6.82265 9.30647 7.02521 9.39038 7.17455 9.53972C7.3239 9.68907 7.4078 9.89162 7.4078 10.1028C7.4078 10.314 7.3239 10.5166 7.17455 10.6659L7.17157 10.663ZM8.24704 15.6245C8.39619 15.7737 8.47997 15.9761 8.47997 16.1871C8.47997 16.3981 8.39619 16.6004 8.24704 16.7497L2.95127 22.0525C2.87732 22.1264 2.78953 22.1851 2.69292 22.2251C2.5963 22.2651 2.49274 22.2857 2.38817 22.2857C2.28359 22.2857 2.18003 22.2651 2.08342 22.2251C1.9868 22.1851 1.89901 22.1264 1.82506 22.0525C1.75111 21.9785 1.69245 21.8907 1.65243 21.7941C1.61241 21.6975 1.59182 21.5939 1.59182 21.4894C1.59182 21.3848 1.61241 21.2812 1.65243 21.1846C1.69245 21.088 1.75111 21.0002 1.82506 20.9263L7.12481 15.6275C7.27406 15.4783 7.47642 15.3945 7.68742 15.3945C7.89841 15.3945 8.10078 15.4783 8.25002 15.6275L8.24704 15.6245ZM15.5097 15.525C15.5837 15.5989 15.6424 15.6867 15.6825 15.7833C15.7225 15.8799 15.7431 15.9835 15.7431 16.0881C15.7431 16.1927 15.7225 16.2963 15.6825 16.3929C15.6424 16.4895 15.5837 16.5773 15.5097 16.6512L10.1095 22.0515C9.96012 22.2008 9.75756 22.2847 9.54636 22.2847C9.33515 22.2847 9.1326 22.2008 8.98325 22.0515C8.83391 21.9021 8.75001 21.6996 8.75001 21.4884C8.75001 21.2772 8.83391 21.0746 8.98325 20.9253L14.3845 15.525C14.4585 15.4505 14.5466 15.3913 14.6436 15.351C14.7407 15.3107 14.8447 15.29 14.9498 15.2901C15.0549 15.2901 15.1589 15.311 15.2558 15.3515C15.3528 15.392 15.4407 15.4513 15.5147 15.526L15.5097 15.525Z" fill="#052429"/>
</svg>
