<svg width="30" height="30" viewBox="0 0 30 30" fill="none" xmlns="http://www.w3.org/2000/svg">
<path d="M29.9131 7.24242C29.804 6.90185 29.5957 6.60163 29.3148 6.3802C29.034 6.15878 28.6934 6.02624 28.3368 5.99957L23.3896 5.6085L21.4865 1.10049C21.3475 0.774038 21.1155 0.495661 20.8195 0.299992C20.5236 0.104324 20.1766 0 19.8218 0C19.4669 0 19.12 0.104324 18.824 0.299992C18.528 0.495661 18.2961 0.774038 18.157 1.10049L16.2539 5.6085L11.3067 5.99957C10.9514 6.02574 10.612 6.15713 10.3317 6.37697C10.0514 6.59682 9.84298 6.89516 9.73292 7.23396C9.62286 7.57275 9.6162 7.93665 9.71378 8.27925C9.81136 8.62185 10.0088 8.92762 10.2808 9.15758L14.0388 12.329L12.8924 17.0687C12.809 17.4119 12.8294 17.7722 12.951 18.1039C13.0726 18.4355 13.2899 18.7236 13.5754 18.9316C13.8636 19.144 14.2082 19.2662 14.5658 19.2826C14.9234 19.2991 15.2779 19.2091 15.5843 19.024L19.8218 16.4727L24.0605 19.0254C24.3671 19.2099 24.7215 19.2996 25.079 19.2832C25.4364 19.2667 25.7811 19.1449 26.0694 18.933C26.3544 18.7245 26.5713 18.4364 26.6926 18.1048C26.8139 17.7732 26.8343 17.4132 26.7511 17.07L25.6047 12.3303L29.3627 9.15892C29.6348 8.93059 29.8326 8.6262 29.9307 8.28475C30.0287 7.94331 30.0226 7.58036 29.9131 7.24242ZM23.7163 11.1156C23.5643 11.2441 23.4511 11.4124 23.3893 11.6016C23.3276 11.7909 23.3198 11.9936 23.3668 12.187L24.4757 16.7687L20.3749 14.3031C20.2081 14.2027 20.0171 14.1497 19.8224 14.1497C19.6278 14.1497 19.4368 14.2027 19.27 14.3031L15.1691 16.7714L16.2781 12.187C16.3249 11.9935 16.3169 11.7907 16.2549 11.6014C16.1929 11.4122 16.0794 11.2439 15.9272 11.1156L12.3219 8.07009L17.0789 7.69375C17.2747 7.67821 17.4625 7.60916 17.6217 7.49413C17.7809 7.3791 17.9054 7.22253 17.9816 7.04152L19.8218 2.66611L21.6686 7.04152C21.7448 7.22253 21.8693 7.3791 22.0285 7.49413C22.1877 7.60916 22.3755 7.67821 22.5713 7.69375L27.3297 8.07009L23.7163 11.1156ZM9.65404 14.354L1.83004 22.1861C1.62899 22.3871 1.35632 22.5001 1.07201 22.5001C0.787695 22.5001 0.515025 22.3871 0.313984 22.1861C0.112944 21.985 0 21.7124 0 21.428C0 21.1437 0.112944 20.871 0.313984 20.67L8.142 12.8419C8.34304 12.6409 8.61571 12.5279 8.90003 12.5279C9.18434 12.5279 9.45701 12.6409 9.65805 12.8419C9.85909 13.043 9.97204 13.3156 9.97204 13.6C9.97204 13.8843 9.85909 14.1569 9.65805 14.358L9.65404 14.354ZM11.1018 21.0329C11.3026 21.2339 11.4153 21.5063 11.4153 21.7903C11.4153 22.0743 11.3026 22.3468 11.1018 22.5477L3.97286 29.686C3.87332 29.7856 3.75514 29.8645 3.62508 29.9184C3.49502 29.9723 3.35562 30 3.21484 30C3.07406 30 2.93466 29.9723 2.8046 29.9184C2.67453 29.8645 2.55636 29.7856 2.45681 29.686C2.35727 29.5865 2.2783 29.4683 2.22443 29.3382C2.17056 29.2082 2.14283 29.0688 2.14283 28.928C2.14283 28.7872 2.17056 28.6478 2.22443 28.5177C2.2783 28.3877 2.35727 28.2695 2.45681 28.17L9.59109 21.037C9.792 20.8362 10.0644 20.7234 10.3484 20.7234C10.6325 20.7234 10.9049 20.8362 11.1058 21.037L11.1018 21.0329ZM20.8784 20.899C20.9781 20.9985 21.0571 21.1167 21.111 21.2468C21.1649 21.3768 21.1927 21.5162 21.1927 21.6571C21.1927 21.7979 21.1649 21.9373 21.111 22.0673C21.0571 22.1974 20.9781 22.3156 20.8784 22.4151L13.6089 29.6847C13.4079 29.8857 13.1352 29.9987 12.8509 29.9987C12.5666 29.9987 12.2939 29.8857 12.0928 29.6847C11.8918 29.4836 11.7789 29.211 11.7789 28.9266C11.7789 28.6423 11.8918 28.3697 12.0928 28.1686L19.3637 20.899C19.4634 20.7987 19.582 20.7191 19.7126 20.6648C19.8432 20.6105 19.9833 20.5826 20.1247 20.5828C20.2661 20.5829 20.4062 20.611 20.5367 20.6655C20.6672 20.72 20.7856 20.7998 20.8851 20.9004L20.8784 20.899Z" fill="white"/>
</svg>
